M48
; DRILL file {KiCad 9.0.6} date 2026-02-06T14:21:40-0800
; FORMAT={3:3/ absolute / metric / suppress leading zeros}
; #@! TF.CreationDate,2026-02-06T14:21:40-08:00
; #@! TF.GenerationSoftware,Kicad,Pcbnew,9.0.6
; #@! TF.FileFunction,NonPlated,1,2,NPTH
FMAT,2
METRIC,TZ
; #@! TA.AperFunction,NonPlated,NPTH,ComponentDrill
T1C1.600
; #@! TA.AperFunction,NonPlated,NPTH,ComponentDrill
T2C1.700
; #@! TA.AperFunction,NonPlated,NPTH,ComponentDrill
T3C2.100
; #@! TA.AperFunction,NonPlated,NPTH,ComponentDrill
T4C4.000
%
G90
G05
T2
X114140Y-71900
X114140Y-90950
X114140Y-110000
X114140Y-129050
X124300Y-71900
X124300Y-90950
X124300Y-110000
X124300Y-129050
X133190Y-71900
X133190Y-90950
X133190Y-110000
X133190Y-129050
X143350Y-71900
X143350Y-90950
X143350Y-110000
X143350Y-129050
X152240Y-71900
X152240Y-90950
X152240Y-110000
X152240Y-129050
X162400Y-71900
X162400Y-90950
X162400Y-110000
X162400Y-129050
X171290Y-71900
X171290Y-90950
X171290Y-110000
X171290Y-129050
X181450Y-71900
X181450Y-90950
X181450Y-110000
X181450Y-129050
X190340Y-71900
X190340Y-90950
X190340Y-110000
X190340Y-129050
X200500Y-71900
X200500Y-90950
X200500Y-110000
X200500Y-129050
X209390Y-71900
X209390Y-90950
X209390Y-110000
X209390Y-129050
X219550Y-71900
X219550Y-90950
X219550Y-110000
X219550Y-129050
X228440Y-71900
X228440Y-90950
X228440Y-110000
X228440Y-129050
X238600Y-71900
X238600Y-90950
X238600Y-110000
X238600Y-129050
T3
X72160Y-134650
X95500Y-134650
T4
X119220Y-71900
X119220Y-90950
X119220Y-110000
X119220Y-129050
X138270Y-71900
X138270Y-90950
X138270Y-110000
X138270Y-129050
X157320Y-71900
X157320Y-90950
X157320Y-110000
X157320Y-129050
X176370Y-71900
X176370Y-90950
X176370Y-110000
X176370Y-129050
X195420Y-71900
X195420Y-90950
X195420Y-110000
X195420Y-129050
X214470Y-71900
X214470Y-90950
X214470Y-110000
X214470Y-129050
X233520Y-71900
X233520Y-90950
X233520Y-110000
X233520Y-129050
T1
G00X67360Y-134650
M15
G01X67960Y-134650
M16
G05
G00X90700Y-134650
M15
G01X91300Y-134650
M16
G05
M30
