%TF.GenerationSoftware,KiCad,Pcbnew,9.0.6*%
%TF.CreationDate,2026-03-01T15:31:14-08:00*%
%TF.ProjectId,7x4,3778342e-6b69-4636-9164-5f7063625858,rev?*%
%TF.SameCoordinates,Original*%
%TF.FileFunction,Legend,Bot*%
%TF.FilePolarity,Positive*%
%FSLAX46Y46*%
G04 Gerber Fmt 4.6, Leading zero omitted, Abs format (unit mm)*
G04 Created by KiCad (PCBNEW 9.0.6) date 2026-03-01 15:31:14*
%MOMM*%
%LPD*%
G01*
G04 APERTURE LIST*
G04 Aperture macros list*
%AMRoundRect*
0 Rectangle with rounded corners*
0 $1 Rounding radius*
0 $2 $3 $4 $5 $6 $7 $8 $9 X,Y pos of 4 corners*
0 Add a 4 corners polygon primitive as box body*
4,1,4,$2,$3,$4,$5,$6,$7,$8,$9,$2,$3,0*
0 Add four circle primitives for the rounded corners*
1,1,$1+$1,$2,$3*
1,1,$1+$1,$4,$5*
1,1,$1+$1,$6,$7*
1,1,$1+$1,$8,$9*
0 Add four rect primitives between the rounded corners*
20,1,$1+$1,$2,$3,$4,$5,0*
20,1,$1+$1,$4,$5,$6,$7,0*
20,1,$1+$1,$6,$7,$8,$9,0*
20,1,$1+$1,$8,$9,$2,$3,0*%
G04 Aperture macros list end*
%ADD10C,0.000000*%
%ADD11C,0.099218*%
%ADD12C,0.150000*%
%ADD13C,0.125000*%
%ADD14C,0.100000*%
%ADD15C,0.120000*%
%ADD16O,2.200000X1.600000*%
%ADD17C,2.100000*%
%ADD18R,2.000000X2.000000*%
%ADD19C,2.000000*%
%ADD20R,3.200000X2.000000*%
%ADD21C,1.700000*%
%ADD22C,4.000000*%
%ADD23C,2.200000*%
%ADD24RoundRect,0.250000X0.450000X-0.262500X0.450000X0.262500X-0.450000X0.262500X-0.450000X-0.262500X0*%
%ADD25RoundRect,0.225000X-0.225000X-0.375000X0.225000X-0.375000X0.225000X0.375000X-0.225000X0.375000X0*%
%ADD26RoundRect,0.250000X-0.475000X0.250000X-0.475000X-0.250000X0.475000X-0.250000X0.475000X0.250000X0*%
%ADD27R,1.340000X0.850000*%
%ADD28C,1.905000*%
%ADD29RoundRect,0.250000X0.475000X-0.250000X0.475000X0.250000X-0.475000X0.250000X-0.475000X-0.250000X0*%
%ADD30RoundRect,0.250000X-0.550000X1.500000X-0.550000X-1.500000X0.550000X-1.500000X0.550000X1.500000X0*%
G04 APERTURE END LIST*
D10*
G36*
X84751025Y-83299610D02*
G01*
X84747769Y-83345702D01*
X84742465Y-83391656D01*
X84735111Y-83437392D01*
X84725704Y-83482834D01*
X84714243Y-83527903D01*
X84700726Y-83572523D01*
X84685151Y-83616616D01*
X84667516Y-83660105D01*
X84647820Y-83702911D01*
X84626059Y-83744957D01*
X84602233Y-83786167D01*
X84576339Y-83826461D01*
X84548375Y-83865764D01*
X84518340Y-83903997D01*
X84486231Y-83941082D01*
X84452047Y-83976943D01*
X84416186Y-84011127D01*
X84379100Y-84043236D01*
X84340867Y-84073271D01*
X84301565Y-84101235D01*
X84261270Y-84127129D01*
X84220061Y-84150956D01*
X84178014Y-84172716D01*
X84135208Y-84192413D01*
X84091720Y-84210048D01*
X84047627Y-84225623D01*
X84003007Y-84239140D01*
X83957937Y-84250601D01*
X83912496Y-84260007D01*
X83866759Y-84267362D01*
X83820806Y-84272666D01*
X83774713Y-84275922D01*
X83774713Y-83299609D01*
X84751026Y-83299609D01*
X84751025Y-83299610D01*
G37*
D11*
X83604309Y-79068523D02*
X83395440Y-79080035D01*
X83395439Y-79080035D02*
X83185648Y-79102226D01*
X83185648Y-79102226D02*
X82975251Y-79135292D01*
X82975250Y-79135292D02*
X82764563Y-79179428D01*
X82764563Y-79179428D02*
X82556375Y-79234155D01*
X82556375Y-79234155D02*
X82353397Y-79298655D01*
X82353397Y-79298655D02*
X82155823Y-79372611D01*
X82155823Y-79372611D02*
X81963849Y-79455706D01*
X81963849Y-79455706D02*
X81777669Y-79547626D01*
X81777669Y-79547626D02*
X81597481Y-79648053D01*
X81597481Y-79648053D02*
X81423478Y-79756672D01*
X81423478Y-79756672D02*
X81255857Y-79873166D01*
X81255856Y-79873166D02*
X81094811Y-79997220D01*
X81094811Y-79997220D02*
X80940537Y-80128518D01*
X80940537Y-80128518D02*
X80793231Y-80266743D01*
X80793231Y-80266743D02*
X80653088Y-80411579D01*
X80653088Y-80411579D02*
X80520302Y-80562711D01*
X80520302Y-80562711D02*
X80395071Y-80719822D01*
X80395070Y-80719822D02*
X80277587Y-80882596D01*
X80277587Y-80882596D02*
X80168048Y-81050717D01*
X80168047Y-81050717D02*
X80066648Y-81223869D01*
X80066648Y-81223869D02*
X79973584Y-81401735D01*
X79973583Y-81401735D02*
X79889048Y-81584001D01*
X79889048Y-81584001D02*
X79813239Y-81770349D01*
X79813239Y-81770349D02*
X79746350Y-81960464D01*
X79746350Y-81960464D02*
X79688579Y-82154030D01*
X79688578Y-82154030D02*
X79640118Y-82350730D01*
X79640118Y-82350730D02*
X79601165Y-82550249D01*
X79601164Y-82550249D02*
X79571913Y-82752270D01*
X79571913Y-82752270D02*
X79552561Y-82956477D01*
X79552560Y-82956477D02*
X79543301Y-83162554D01*
X79543300Y-83162554D02*
X79544328Y-83370186D01*
X79544328Y-83370186D02*
X79555840Y-83579055D01*
X79555841Y-83579055D02*
X79578031Y-83788847D01*
X79578032Y-83788847D02*
X79611097Y-83999244D01*
X79611098Y-83999244D02*
X79655233Y-84209931D01*
X79655234Y-84209931D02*
X79709960Y-84418119D01*
X79709961Y-84418119D02*
X79774460Y-84621097D01*
X79774461Y-84621097D02*
X79848416Y-84818671D01*
X79848417Y-84818671D02*
X79931511Y-85010646D01*
X79931512Y-85010646D02*
X80023431Y-85196825D01*
X80023431Y-85196825D02*
X80123858Y-85377014D01*
X80123859Y-85377014D02*
X80232477Y-85551017D01*
X80232478Y-85551017D02*
X80348972Y-85718639D01*
X80348972Y-85718639D02*
X80473025Y-85879684D01*
X80473026Y-85879684D02*
X80604323Y-86033958D01*
X80604324Y-86033958D02*
X80742548Y-86181264D01*
X80742549Y-86181264D02*
X80887384Y-86321407D01*
X80887385Y-86321407D02*
X81038516Y-86454193D01*
X81038517Y-86454193D02*
X81195628Y-86579425D01*
X81195628Y-86579425D02*
X81358401Y-86696908D01*
X81358402Y-86696908D02*
X81526523Y-86806447D01*
X81526523Y-86806447D02*
X81699674Y-86907847D01*
X81699675Y-86907847D02*
X81877541Y-87000912D01*
X81877541Y-87000912D02*
X82059806Y-87085447D01*
X82059807Y-87085447D02*
X82246154Y-87161256D01*
X82246155Y-87161256D02*
X82436269Y-87228145D01*
X82436270Y-87228145D02*
X82629836Y-87285917D01*
X82629836Y-87285917D02*
X82826535Y-87334377D01*
X82826536Y-87334377D02*
X83026055Y-87373330D01*
X83026055Y-87373330D02*
X83228075Y-87402581D01*
X83228076Y-87402581D02*
X83432283Y-87421934D01*
X83432283Y-87421934D02*
X83638360Y-87431194D01*
X83638360Y-87431195D02*
X83845983Y-87430166D01*
X83845992Y-87430166D02*
X84054861Y-87418654D01*
X84054861Y-87418654D02*
X84264653Y-87396463D01*
X84264653Y-87396463D02*
X84475050Y-87363397D01*
X84475050Y-87363397D02*
X84685737Y-87319261D01*
X84685737Y-87319261D02*
X84893924Y-87264533D01*
X84893925Y-87264533D02*
X85096902Y-87200034D01*
X85096903Y-87200034D02*
X85294477Y-87126078D01*
X85294477Y-87126078D02*
X85486452Y-87042983D01*
X85486452Y-87042983D02*
X85672631Y-86951063D01*
X85672631Y-86951063D02*
X85852819Y-86850636D01*
X85852820Y-86850636D02*
X86026823Y-86742017D01*
X86026823Y-86742017D02*
X86194444Y-86625523D01*
X86194445Y-86625523D02*
X86355489Y-86501468D01*
X86355490Y-86501468D02*
X86509764Y-86370171D01*
X86509764Y-86370171D02*
X86657070Y-86231946D01*
X86657070Y-86231946D02*
X86797212Y-86087109D01*
X86797213Y-86087109D02*
X86929999Y-85935978D01*
X86929999Y-85935978D02*
X87055230Y-85778867D01*
X87055231Y-85778867D02*
X87172714Y-85616093D01*
X87172714Y-85616093D02*
X87282252Y-85447972D01*
X87282253Y-85447972D02*
X87383653Y-85274820D01*
X87383653Y-85274820D02*
X87476717Y-85096953D01*
X87476718Y-85096953D02*
X87561253Y-84914688D01*
X87561253Y-84914688D02*
X87637062Y-84728339D01*
X87637062Y-84728339D02*
X87703951Y-84538224D01*
X87703951Y-84538224D02*
X87761723Y-84344659D01*
X87761723Y-84344659D02*
X87810183Y-84147959D01*
X87810183Y-84147959D02*
X87849135Y-83948440D01*
X87849136Y-83948440D02*
X87878387Y-83746419D01*
X87878387Y-83746419D02*
X87897739Y-83542212D01*
X87897740Y-83542212D02*
X87907000Y-83336135D01*
X87907001Y-83336135D02*
X87905972Y-83128503D01*
X87905972Y-83128503D02*
X87894461Y-82919634D01*
X87894460Y-82919634D02*
X87872270Y-82709842D01*
X87872269Y-82709842D02*
X87839204Y-82499445D01*
X87839203Y-82499445D02*
X87795068Y-82288757D01*
X87795067Y-82288757D02*
X87740340Y-82080570D01*
X87740339Y-82080570D02*
X87675841Y-81877591D01*
X87675840Y-81877591D02*
X87601885Y-81680017D01*
X87601884Y-81680017D02*
X87518790Y-81488043D01*
X87518789Y-81488043D02*
X87426870Y-81301864D01*
X87426869Y-81301864D02*
X87326442Y-81121675D01*
X87326442Y-81121675D02*
X87217824Y-80947672D01*
X87217823Y-80947672D02*
X87101329Y-80780050D01*
X87101329Y-80780050D02*
X86977274Y-80619005D01*
X86977274Y-80619005D02*
X86845978Y-80464731D01*
X86845977Y-80464731D02*
X86707753Y-80317425D01*
X86707752Y-80317425D02*
X86562915Y-80177282D01*
X86562915Y-80177282D02*
X86411785Y-80044496D01*
X86411784Y-80044496D02*
X86254673Y-79919264D01*
X86254673Y-79919264D02*
X86091900Y-79801781D01*
X86091899Y-79801781D02*
X85923778Y-79692241D01*
X85923778Y-79692241D02*
X85750627Y-79590842D01*
X85750626Y-79590842D02*
X85572759Y-79497777D01*
X85572759Y-79497777D02*
X85390495Y-79413242D01*
X85390494Y-79413242D02*
X85204146Y-79337433D01*
X85204145Y-79337433D02*
X85014031Y-79270544D01*
X85014030Y-79270544D02*
X84820464Y-79212772D01*
X84820464Y-79212772D02*
X84623765Y-79164312D01*
X84623764Y-79164312D02*
X84424246Y-79125359D01*
X84424246Y-79125359D02*
X84222226Y-79096108D01*
X84222225Y-79096108D02*
X84018018Y-79076754D01*
X84018018Y-79076754D02*
X83811941Y-79067494D01*
X83811940Y-79067494D02*
X83604317Y-79068523D01*
D10*
G36*
X83774713Y-84738943D02*
G01*
X83675494Y-84738943D01*
X83675494Y-84275922D01*
X83700299Y-84276666D01*
X83725104Y-84276914D01*
X83749908Y-84276666D01*
X83774713Y-84275922D01*
X83774713Y-84738943D01*
G37*
G36*
X82699936Y-86869393D02*
G01*
X82721569Y-86871038D01*
X82742888Y-86873747D01*
X82763865Y-86877493D01*
X82784474Y-86882249D01*
X82804689Y-86887990D01*
X82824481Y-86894687D01*
X82843826Y-86902314D01*
X82862695Y-86910845D01*
X82881062Y-86920252D01*
X82898901Y-86930509D01*
X82916184Y-86941589D01*
X82932886Y-86953465D01*
X82948978Y-86966111D01*
X82964434Y-86979500D01*
X82979228Y-86993605D01*
X82993333Y-87008399D01*
X83006722Y-87023855D01*
X83019368Y-87039948D01*
X83031244Y-87056649D01*
X83042324Y-87073932D01*
X83052581Y-87091771D01*
X83061988Y-87110138D01*
X83070519Y-87129007D01*
X83078146Y-87148352D01*
X83084843Y-87168145D01*
X83090584Y-87188359D01*
X83095340Y-87208968D01*
X83099086Y-87229945D01*
X83101795Y-87251264D01*
X83103440Y-87272897D01*
X83103995Y-87294818D01*
X83103440Y-87316739D01*
X83101795Y-87338372D01*
X83099086Y-87359690D01*
X83095340Y-87380668D01*
X83090584Y-87401277D01*
X83084843Y-87421491D01*
X83078146Y-87441284D01*
X83070519Y-87460628D01*
X83061988Y-87479497D01*
X83052581Y-87497865D01*
X83042324Y-87515704D01*
X83031244Y-87532987D01*
X83019368Y-87549688D01*
X83006722Y-87565780D01*
X82993333Y-87581237D01*
X82979228Y-87596030D01*
X82964434Y-87610135D01*
X82948978Y-87623524D01*
X82932886Y-87636170D01*
X82916184Y-87648046D01*
X82898901Y-87659126D01*
X82881062Y-87669383D01*
X82862695Y-87678791D01*
X82843826Y-87687321D01*
X82824481Y-87694948D01*
X82804689Y-87701645D01*
X82784474Y-87707386D01*
X82763865Y-87712142D01*
X82742888Y-87715888D01*
X82721569Y-87718597D01*
X82699936Y-87720242D01*
X82678015Y-87720797D01*
X82656095Y-87720242D01*
X82634461Y-87718597D01*
X82613143Y-87715888D01*
X82592166Y-87712142D01*
X82571557Y-87707386D01*
X82551342Y-87701645D01*
X82531549Y-87694948D01*
X82512205Y-87687321D01*
X82493336Y-87678791D01*
X82474968Y-87669383D01*
X82457130Y-87659126D01*
X82439846Y-87648046D01*
X82423145Y-87636170D01*
X82407053Y-87623524D01*
X82391597Y-87610135D01*
X82376803Y-87596030D01*
X82362698Y-87581237D01*
X82349309Y-87565780D01*
X82336663Y-87549688D01*
X82324787Y-87532987D01*
X82313707Y-87515704D01*
X82303450Y-87497865D01*
X82294042Y-87479497D01*
X82285512Y-87460628D01*
X82277885Y-87441284D01*
X82271187Y-87421491D01*
X82265447Y-87401277D01*
X82260691Y-87380668D01*
X82256944Y-87359690D01*
X82254236Y-87338372D01*
X82252591Y-87316739D01*
X82252036Y-87294818D01*
X82252591Y-87272897D01*
X82254236Y-87251264D01*
X82256944Y-87229945D01*
X82260691Y-87208968D01*
X82265447Y-87188359D01*
X82271187Y-87168145D01*
X82277885Y-87148352D01*
X82285512Y-87129007D01*
X82294042Y-87110138D01*
X82303450Y-87091771D01*
X82313707Y-87073932D01*
X82324787Y-87056649D01*
X82336663Y-87039948D01*
X82349309Y-87023855D01*
X82362698Y-87008399D01*
X82376803Y-86993605D01*
X82391597Y-86979500D01*
X82407053Y-86966111D01*
X82423145Y-86953465D01*
X82439846Y-86941589D01*
X82457130Y-86930509D01*
X82474968Y-86920252D01*
X82493336Y-86910845D01*
X82512205Y-86902314D01*
X82531549Y-86894687D01*
X82551342Y-86887990D01*
X82571557Y-86882249D01*
X82592166Y-86877493D01*
X82613143Y-86873747D01*
X82634461Y-86871038D01*
X82656095Y-86869393D01*
X82678015Y-86868838D01*
X82699936Y-86869393D01*
G37*
D11*
X83393362Y-77309763D02*
X83106095Y-77332977D01*
X83106095Y-77332977D02*
X82821109Y-77369983D01*
X82821108Y-77369983D02*
X82538889Y-77420576D01*
X82538888Y-77420576D02*
X82259925Y-77484555D01*
X82259924Y-77484555D02*
X81984705Y-77561718D01*
X81984704Y-77561718D02*
X81713717Y-77651863D01*
X81713717Y-77651863D02*
X81447453Y-77754787D01*
X81447452Y-77754787D02*
X81186396Y-77870287D01*
X81186395Y-77870287D02*
X80931037Y-77998162D01*
X80931037Y-77998162D02*
X80681865Y-78138209D01*
X80681864Y-78138209D02*
X80439368Y-78290226D01*
X80439367Y-78290226D02*
X80204033Y-78454011D01*
X80204032Y-78454011D02*
X79976349Y-78629361D01*
X79976349Y-78629361D02*
X79756807Y-78816073D01*
X79756806Y-78816073D02*
X79545892Y-79013947D01*
X79545891Y-79013947D02*
X79344093Y-79222779D01*
X79344092Y-79222779D02*
X79151900Y-79442367D01*
X79151899Y-79442367D02*
X78969798Y-79672509D01*
X78969798Y-79672509D02*
X78798280Y-79913003D01*
X78798280Y-79913003D02*
X78637833Y-80163646D01*
X78637832Y-80163646D02*
X78488942Y-80424235D01*
X78488942Y-80424235D02*
X78352100Y-80694570D01*
X78352099Y-80694570D02*
X78227792Y-80974447D01*
X78227791Y-80974447D02*
X78117787Y-81260248D01*
X78117787Y-81260248D02*
X78023395Y-81548166D01*
X78023395Y-81548166D02*
X77944411Y-81837711D01*
X77944411Y-81837711D02*
X77880635Y-82128397D01*
X77880634Y-82128397D02*
X77831861Y-82419733D01*
X77831861Y-82419733D02*
X77797890Y-82711233D01*
X77797890Y-82711233D02*
X77778519Y-83002406D01*
X77778519Y-83002406D02*
X77773546Y-83292766D01*
X77773546Y-83292766D02*
X77782766Y-83581823D01*
X77782767Y-83581823D02*
X77805982Y-83869090D01*
X77805982Y-83869090D02*
X77842986Y-84154077D01*
X77842987Y-84154077D02*
X77893580Y-84436297D01*
X77893580Y-84436297D02*
X77957559Y-84715261D01*
X77957560Y-84715261D02*
X78034723Y-84990480D01*
X78034723Y-84990480D02*
X78124866Y-85261467D01*
X78124867Y-85261467D02*
X78227790Y-85527733D01*
X78227791Y-85527733D02*
X78343291Y-85788790D01*
X78343291Y-85788790D02*
X78471165Y-86044148D01*
X78471166Y-86044148D02*
X78611213Y-86293320D01*
X78611213Y-86293320D02*
X78763229Y-86535818D01*
X78763230Y-86535818D02*
X78927014Y-86771152D01*
X78927015Y-86771152D02*
X79102365Y-86998836D01*
X79102365Y-86998836D02*
X79289078Y-87218379D01*
X79289078Y-87218379D02*
X79486951Y-87429294D01*
X79486951Y-87429294D02*
X79695783Y-87631093D01*
X79695783Y-87631093D02*
X79915371Y-87823286D01*
X79915371Y-87823286D02*
X80145512Y-88005386D01*
X80145513Y-88005386D02*
X80386006Y-88176905D01*
X80386007Y-88176905D02*
X80636650Y-88337353D01*
X80636650Y-88337353D02*
X80897238Y-88486243D01*
X80897239Y-88486243D02*
X81167574Y-88623086D01*
X81167574Y-88623086D02*
X81447449Y-88747394D01*
X81447450Y-88747394D02*
X81733251Y-88857398D01*
X81733252Y-88857398D02*
X82021169Y-88951790D01*
X82021170Y-88951790D02*
X82310714Y-89030774D01*
X82310715Y-89030774D02*
X82601401Y-89094551D01*
X82601401Y-89094551D02*
X82892736Y-89143324D01*
X82892737Y-89143324D02*
X83184236Y-89177295D01*
X83184237Y-89177295D02*
X83475409Y-89196666D01*
X83475410Y-89196666D02*
X83765764Y-89201639D01*
X83765770Y-89201639D02*
X84054826Y-89192417D01*
X84054827Y-89192417D02*
X84342094Y-89169203D01*
X84342094Y-89169203D02*
X84627081Y-89132198D01*
X84627081Y-89132198D02*
X84909301Y-89081604D01*
X84909301Y-89081604D02*
X85188264Y-89017625D01*
X85188265Y-89017625D02*
X85463484Y-88940462D01*
X85463485Y-88940462D02*
X85734472Y-88850317D01*
X85734472Y-88850317D02*
X86000738Y-88747394D01*
X86000738Y-88747394D02*
X86261793Y-88631893D01*
X86261794Y-88631893D02*
X86517152Y-88504018D01*
X86517153Y-88504018D02*
X86766324Y-88363971D01*
X86766325Y-88363971D02*
X87008821Y-88211954D01*
X87008822Y-88211954D02*
X87244157Y-88048170D01*
X87244157Y-88048170D02*
X87471840Y-87872820D01*
X87471840Y-87872820D02*
X87691382Y-87686107D01*
X87691383Y-87686107D02*
X87902298Y-87488233D01*
X87902299Y-87488233D02*
X88104097Y-87279401D01*
X88104097Y-87279401D02*
X88296290Y-87059813D01*
X88296291Y-87059813D02*
X88478391Y-86829671D01*
X88478391Y-86829671D02*
X88649908Y-86589178D01*
X88649909Y-86589178D02*
X88810358Y-86338535D01*
X88810358Y-86338535D02*
X88959246Y-86077945D01*
X88959247Y-86077945D02*
X89096090Y-85807611D01*
X89096090Y-85807611D02*
X89220397Y-85527734D01*
X89220398Y-85527734D02*
X89330402Y-85241932D01*
X89330402Y-85241932D02*
X89424794Y-84954015D01*
X89424795Y-84954015D02*
X89503778Y-84664469D01*
X89503778Y-84664469D02*
X89567556Y-84373784D01*
X89567556Y-84373784D02*
X89616328Y-84082447D01*
X89616328Y-84082447D02*
X89650298Y-83790948D01*
X89650299Y-83790948D02*
X89669670Y-83499774D01*
X89669670Y-83499774D02*
X89674643Y-83209414D01*
X89674643Y-83209414D02*
X89665423Y-82920357D01*
X89665422Y-82920357D02*
X89642208Y-82633091D01*
X89642207Y-82633091D02*
X89605202Y-82348103D01*
X89605202Y-82348103D02*
X89554609Y-82065883D01*
X89554609Y-82065883D02*
X89490630Y-81786919D01*
X89490629Y-81786919D02*
X89413466Y-81511700D01*
X89413466Y-81511700D02*
X89323323Y-81240713D01*
X89323322Y-81240713D02*
X89220399Y-80974447D01*
X89220398Y-80974447D02*
X89104899Y-80713391D01*
X89104898Y-80713391D02*
X88977023Y-80458032D01*
X88977023Y-80458032D02*
X88836976Y-80208860D01*
X88836976Y-80208860D02*
X88684960Y-79966362D01*
X88684959Y-79966362D02*
X88521175Y-79731028D01*
X88521174Y-79731028D02*
X88345825Y-79503345D01*
X88345824Y-79503345D02*
X88159112Y-79283801D01*
X88159111Y-79283801D02*
X87961237Y-79072886D01*
X87961237Y-79072886D02*
X87752406Y-78871088D01*
X87752405Y-78871088D02*
X87532817Y-78678894D01*
X87532817Y-78678894D02*
X87302676Y-78496794D01*
X87302675Y-78496794D02*
X87062182Y-78325275D01*
X87062181Y-78325275D02*
X86811539Y-78164827D01*
X86811539Y-78164827D02*
X86550949Y-78015937D01*
X86550949Y-78015937D02*
X86280616Y-77879094D01*
X86280615Y-77879094D02*
X86000738Y-77754787D01*
X86000738Y-77754787D02*
X85714937Y-77644783D01*
X85714936Y-77644783D02*
X85427019Y-77550390D01*
X85427019Y-77550390D02*
X85137473Y-77471406D01*
X85137473Y-77471406D02*
X84846788Y-77407629D01*
X84846788Y-77407629D02*
X84555451Y-77358856D01*
X84555451Y-77358856D02*
X84263953Y-77324886D01*
X84263952Y-77324886D02*
X83972780Y-77305515D01*
X83972779Y-77305515D02*
X83682419Y-77300542D01*
X83682419Y-77300541D02*
X83393363Y-77309763D01*
D10*
G36*
X85123519Y-80838216D02*
G01*
X85145152Y-80839861D01*
X85166471Y-80842570D01*
X85187448Y-80846316D01*
X85208057Y-80851073D01*
X85228272Y-80856813D01*
X85248065Y-80863510D01*
X85267409Y-80871138D01*
X85286278Y-80879668D01*
X85304646Y-80889075D01*
X85322484Y-80899332D01*
X85339768Y-80910412D01*
X85356469Y-80922289D01*
X85372561Y-80934935D01*
X85388017Y-80948324D01*
X85402811Y-80962428D01*
X85416916Y-80977222D01*
X85430305Y-80992679D01*
X85442951Y-81008771D01*
X85454827Y-81025472D01*
X85465907Y-81042755D01*
X85476164Y-81060594D01*
X85485571Y-81078961D01*
X85494102Y-81097831D01*
X85501729Y-81117175D01*
X85508426Y-81136968D01*
X85514167Y-81157182D01*
X85518923Y-81177791D01*
X85522669Y-81198768D01*
X85525378Y-81220087D01*
X85527023Y-81241720D01*
X85527578Y-81263641D01*
X85527023Y-81285562D01*
X85525378Y-81307195D01*
X85522669Y-81328513D01*
X85518923Y-81349491D01*
X85514167Y-81370100D01*
X85508426Y-81390314D01*
X85501729Y-81410107D01*
X85494102Y-81429451D01*
X85485571Y-81448321D01*
X85476164Y-81466688D01*
X85465907Y-81484527D01*
X85454827Y-81501810D01*
X85442951Y-81518511D01*
X85430305Y-81534603D01*
X85416916Y-81550060D01*
X85402811Y-81564854D01*
X85388017Y-81578958D01*
X85372561Y-81592347D01*
X85356469Y-81604993D01*
X85339768Y-81616869D01*
X85322484Y-81627950D01*
X85304646Y-81638207D01*
X85286278Y-81647614D01*
X85267409Y-81656144D01*
X85248065Y-81663772D01*
X85228272Y-81670469D01*
X85208057Y-81676209D01*
X85187448Y-81680966D01*
X85166471Y-81684712D01*
X85145152Y-81687421D01*
X85123519Y-81689066D01*
X85101598Y-81689620D01*
X85079678Y-81689066D01*
X85058045Y-81687421D01*
X85036726Y-81684712D01*
X85015749Y-81680966D01*
X84995140Y-81676209D01*
X84974925Y-81670469D01*
X84955132Y-81663772D01*
X84935788Y-81656144D01*
X84916919Y-81647614D01*
X84898551Y-81638207D01*
X84880713Y-81627950D01*
X84863429Y-81616869D01*
X84846728Y-81604993D01*
X84830636Y-81592347D01*
X84815180Y-81578958D01*
X84800386Y-81564854D01*
X84786281Y-81550060D01*
X84772892Y-81534603D01*
X84760246Y-81518511D01*
X84748370Y-81501810D01*
X84737290Y-81484527D01*
X84727033Y-81466688D01*
X84717625Y-81448321D01*
X84709095Y-81429451D01*
X84701468Y-81410107D01*
X84694770Y-81390314D01*
X84689030Y-81370100D01*
X84684274Y-81349491D01*
X84680528Y-81328513D01*
X84677819Y-81307195D01*
X84676174Y-81285562D01*
X84675619Y-81263641D01*
X84676174Y-81241720D01*
X84677819Y-81220087D01*
X84680528Y-81198768D01*
X84684274Y-81177791D01*
X84689030Y-81157182D01*
X84694770Y-81136968D01*
X84701468Y-81117175D01*
X84709095Y-81097831D01*
X84717625Y-81078961D01*
X84727033Y-81060594D01*
X84737290Y-81042755D01*
X84748370Y-81025472D01*
X84760246Y-81008771D01*
X84772892Y-80992679D01*
X84786281Y-80977222D01*
X84800386Y-80962428D01*
X84815180Y-80948324D01*
X84830636Y-80934935D01*
X84846728Y-80922289D01*
X84863429Y-80910412D01*
X84880713Y-80899332D01*
X84898551Y-80889075D01*
X84916919Y-80879668D01*
X84935788Y-80871138D01*
X84955132Y-80863510D01*
X84974925Y-80856813D01*
X84995140Y-80851073D01*
X85015749Y-80846316D01*
X85036726Y-80842570D01*
X85058045Y-80839861D01*
X85079678Y-80838216D01*
X85101598Y-80837662D01*
X85123519Y-80838216D01*
G37*
G36*
X83774713Y-82224079D02*
G01*
X83749908Y-82223335D01*
X83725104Y-82223087D01*
X83700299Y-82223335D01*
X83675494Y-82224079D01*
X83675494Y-81761058D01*
X83774713Y-81761058D01*
X83774713Y-82224079D01*
G37*
G36*
X83774713Y-82224079D02*
G01*
X83820806Y-82227335D01*
X83866759Y-82232639D01*
X83912495Y-82239993D01*
X83957937Y-82249400D01*
X84003006Y-82260861D01*
X84047627Y-82274378D01*
X84091719Y-82289953D01*
X84135208Y-82307588D01*
X84178014Y-82327284D01*
X84220060Y-82349045D01*
X84261270Y-82372871D01*
X84301564Y-82398765D01*
X84340867Y-82426729D01*
X84379100Y-82456764D01*
X84416185Y-82488873D01*
X84452046Y-82523057D01*
X84486230Y-82558918D01*
X84518339Y-82596004D01*
X84548374Y-82634237D01*
X84576338Y-82673539D01*
X84602232Y-82713834D01*
X84626059Y-82755043D01*
X84647819Y-82797090D01*
X84667516Y-82839896D01*
X84685151Y-82883384D01*
X84700726Y-82927477D01*
X84714243Y-82972097D01*
X84725704Y-83017167D01*
X84735110Y-83062608D01*
X84742465Y-83108345D01*
X84747769Y-83154298D01*
X84751025Y-83200391D01*
X83774712Y-83200391D01*
X83774712Y-82224078D01*
X83774713Y-82224079D01*
G37*
G36*
X79863603Y-78323352D02*
G01*
X79885236Y-78324997D01*
X79906555Y-78327706D01*
X79927532Y-78331452D01*
X79948141Y-78336208D01*
X79968355Y-78341949D01*
X79988148Y-78348646D01*
X80007493Y-78356273D01*
X80026362Y-78364804D01*
X80044729Y-78374211D01*
X80062568Y-78384468D01*
X80079851Y-78395548D01*
X80096552Y-78407424D01*
X80112645Y-78420070D01*
X80128101Y-78433459D01*
X80142895Y-78447564D01*
X80157000Y-78462358D01*
X80170389Y-78477814D01*
X80183035Y-78493906D01*
X80194911Y-78510608D01*
X80205991Y-78527891D01*
X80216248Y-78545730D01*
X80225655Y-78564097D01*
X80234186Y-78582966D01*
X80241813Y-78602311D01*
X80248511Y-78622103D01*
X80254251Y-78642318D01*
X80259007Y-78662927D01*
X80262753Y-78683904D01*
X80265462Y-78705223D01*
X80267107Y-78726856D01*
X80267662Y-78748777D01*
X80267107Y-78770697D01*
X80265462Y-78792330D01*
X80262753Y-78813649D01*
X80259007Y-78834626D01*
X80254251Y-78855235D01*
X80248511Y-78875450D01*
X80241813Y-78895242D01*
X80234186Y-78914587D01*
X80225655Y-78933456D01*
X80216248Y-78951824D01*
X80205991Y-78969662D01*
X80194911Y-78986946D01*
X80183035Y-79003647D01*
X80170389Y-79019739D01*
X80157000Y-79035195D01*
X80142895Y-79049989D01*
X80128101Y-79064094D01*
X80112645Y-79077483D01*
X80096552Y-79090129D01*
X80079851Y-79102005D01*
X80062568Y-79113085D01*
X80044729Y-79123342D01*
X80026362Y-79132750D01*
X80007493Y-79141280D01*
X79988148Y-79148907D01*
X79968355Y-79155605D01*
X79948141Y-79161345D01*
X79927532Y-79166101D01*
X79906555Y-79169847D01*
X79885236Y-79172556D01*
X79863603Y-79174201D01*
X79841682Y-79174756D01*
X79819761Y-79174201D01*
X79798128Y-79172556D01*
X79776810Y-79169847D01*
X79755832Y-79166101D01*
X79735223Y-79161345D01*
X79715009Y-79155605D01*
X79695216Y-79148907D01*
X79675872Y-79141280D01*
X79657003Y-79132750D01*
X79638635Y-79123342D01*
X79620797Y-79113085D01*
X79603513Y-79102005D01*
X79586812Y-79090129D01*
X79570720Y-79077483D01*
X79555264Y-79064094D01*
X79540470Y-79049989D01*
X79526365Y-79035195D01*
X79512976Y-79019739D01*
X79500330Y-79003647D01*
X79488454Y-78986946D01*
X79477374Y-78969662D01*
X79467117Y-78951824D01*
X79457710Y-78933456D01*
X79449179Y-78914587D01*
X79441552Y-78895242D01*
X79434855Y-78875450D01*
X79429114Y-78855235D01*
X79424358Y-78834626D01*
X79420612Y-78813649D01*
X79417903Y-78792330D01*
X79416258Y-78770697D01*
X79415703Y-78748777D01*
X79416258Y-78726856D01*
X79417903Y-78705223D01*
X79420612Y-78683904D01*
X79424358Y-78662927D01*
X79429114Y-78642318D01*
X79434855Y-78622103D01*
X79441552Y-78602311D01*
X79449179Y-78582966D01*
X79457710Y-78564097D01*
X79467117Y-78545730D01*
X79477374Y-78527891D01*
X79488454Y-78510608D01*
X79500330Y-78493906D01*
X79512976Y-78477814D01*
X79526365Y-78462358D01*
X79540470Y-78447564D01*
X79555264Y-78433459D01*
X79570720Y-78420070D01*
X79586812Y-78407424D01*
X79603513Y-78395548D01*
X79620797Y-78384468D01*
X79638635Y-78374211D01*
X79657003Y-78364804D01*
X79675872Y-78356273D01*
X79695216Y-78348646D01*
X79715009Y-78341949D01*
X79735223Y-78336208D01*
X79755832Y-78331452D01*
X79776810Y-78327706D01*
X79798128Y-78324997D01*
X79819761Y-78323352D01*
X79841682Y-78322797D01*
X79863603Y-78323352D01*
G37*
G36*
X82698438Y-83225196D02*
G01*
X82698190Y-83250000D01*
X82698438Y-83274805D01*
X82699182Y-83299610D01*
X82236161Y-83299610D01*
X82236161Y-83200391D01*
X82699182Y-83200391D01*
X82698438Y-83225196D01*
G37*
G36*
X83675495Y-84275922D02*
G01*
X83675494Y-84275922D01*
X83629402Y-84272666D01*
X83583448Y-84267362D01*
X83537712Y-84260007D01*
X83492270Y-84250600D01*
X83447201Y-84239140D01*
X83402581Y-84225623D01*
X83358488Y-84210048D01*
X83314999Y-84192413D01*
X83272193Y-84172716D01*
X83230147Y-84150955D01*
X83188937Y-84127129D01*
X83148643Y-84101235D01*
X83109340Y-84073271D01*
X83071107Y-84043236D01*
X83034022Y-84011127D01*
X82998161Y-83976943D01*
X82963977Y-83941082D01*
X82931868Y-83903997D01*
X82901833Y-83865764D01*
X82873869Y-83826461D01*
X82847975Y-83786167D01*
X82824148Y-83744957D01*
X82802388Y-83702911D01*
X82782691Y-83660105D01*
X82765056Y-83616616D01*
X82749481Y-83572523D01*
X82735964Y-83527903D01*
X82724503Y-83482834D01*
X82715097Y-83437392D01*
X82707742Y-83391656D01*
X82702438Y-83345702D01*
X82699182Y-83299610D01*
X83675495Y-83299610D01*
X83675495Y-84275922D01*
G37*
G36*
X83675494Y-83200392D02*
G01*
X82699182Y-83200392D01*
X82699182Y-83200391D01*
X82702438Y-83154298D01*
X82707742Y-83108345D01*
X82715097Y-83062609D01*
X82724504Y-83017167D01*
X82735964Y-82972098D01*
X82749481Y-82927477D01*
X82765056Y-82883385D01*
X82782691Y-82839896D01*
X82802388Y-82797090D01*
X82824149Y-82755044D01*
X82847975Y-82713834D01*
X82873869Y-82673540D01*
X82901833Y-82634237D01*
X82931868Y-82596004D01*
X82963977Y-82558919D01*
X82998161Y-82523058D01*
X83034022Y-82488874D01*
X83071107Y-82456765D01*
X83109340Y-82426730D01*
X83148643Y-82398766D01*
X83188937Y-82372872D01*
X83230147Y-82349045D01*
X83272193Y-82327285D01*
X83314999Y-82307588D01*
X83358488Y-82289953D01*
X83402581Y-82274378D01*
X83447201Y-82260861D01*
X83492270Y-82249400D01*
X83537712Y-82239994D01*
X83583448Y-82232639D01*
X83629402Y-82227335D01*
X83675494Y-82224079D01*
X83675494Y-83200392D01*
G37*
D11*
X83589948Y-80841266D02*
X83473432Y-80850682D01*
X83473432Y-80850682D02*
X83357840Y-80865691D01*
X83357840Y-80865691D02*
X83243370Y-80886212D01*
X83243370Y-80886212D02*
X83130222Y-80912162D01*
X83130222Y-80912162D02*
X83018591Y-80943460D01*
X83018591Y-80943460D02*
X82908678Y-80980023D01*
X82908678Y-80980023D02*
X82800681Y-81021769D01*
X82800680Y-81021769D02*
X82694795Y-81068616D01*
X82694794Y-81068616D02*
X82591221Y-81120483D01*
X82591220Y-81120483D02*
X82490156Y-81177287D01*
X82490155Y-81177287D02*
X82391798Y-81238945D01*
X82391797Y-81238945D02*
X82296344Y-81305377D01*
X82296344Y-81305377D02*
X82203995Y-81376499D01*
X82203995Y-81376499D02*
X82114949Y-81452231D01*
X82114948Y-81452231D02*
X82029400Y-81532489D01*
X82029400Y-81532489D02*
X81947550Y-81617192D01*
X81947550Y-81617192D02*
X81869595Y-81706258D01*
X81869595Y-81706258D02*
X81795735Y-81799605D01*
X81795735Y-81799605D02*
X81726166Y-81897150D01*
X81726166Y-81897150D02*
X81661089Y-81998811D01*
X81661088Y-81998811D02*
X81600699Y-82104508D01*
X81600698Y-82104508D02*
X81545195Y-82214156D01*
X81545194Y-82214156D02*
X81494775Y-82327675D01*
X81494774Y-82327675D02*
X81450156Y-82443597D01*
X81450156Y-82443597D02*
X81411870Y-82560378D01*
X81411870Y-82560378D02*
X81379835Y-82677819D01*
X81379834Y-82677819D02*
X81353967Y-82795722D01*
X81353966Y-82795722D02*
X81334185Y-82913889D01*
X81334184Y-82913889D02*
X81320405Y-83032122D01*
X81320405Y-83032122D02*
X81312549Y-83150223D01*
X81312548Y-83150223D02*
X81310532Y-83267994D01*
X81310531Y-83267994D02*
X81314270Y-83385237D01*
X81314271Y-83385237D02*
X81323686Y-83501753D01*
X81323687Y-83501753D02*
X81338695Y-83617345D01*
X81338696Y-83617345D02*
X81359216Y-83731814D01*
X81359217Y-83731814D02*
X81385166Y-83844963D01*
X81385167Y-83844963D02*
X81416465Y-83956593D01*
X81416465Y-83956593D02*
X81453027Y-84066507D01*
X81453028Y-84066507D02*
X81494774Y-84174505D01*
X81494774Y-84174505D02*
X81541621Y-84280390D01*
X81541621Y-84280390D02*
X81593487Y-84383965D01*
X81593488Y-84383965D02*
X81650292Y-84485030D01*
X81650292Y-84485030D02*
X81711950Y-84583388D01*
X81711950Y-84583388D02*
X81778381Y-84678840D01*
X81778382Y-84678840D02*
X81849503Y-84771189D01*
X81849504Y-84771189D02*
X81925235Y-84860237D01*
X81925236Y-84860237D02*
X82005493Y-84945785D01*
X82005494Y-84945785D02*
X82090196Y-85027635D01*
X82090197Y-85027635D02*
X82179262Y-85105589D01*
X82179263Y-85105589D02*
X82272609Y-85179450D01*
X82272609Y-85179450D02*
X82370153Y-85249018D01*
X82370154Y-85249018D02*
X82471816Y-85314097D01*
X82471816Y-85314097D02*
X82577512Y-85374487D01*
X82577512Y-85374487D02*
X82687160Y-85429991D01*
X82687161Y-85429991D02*
X82800680Y-85480411D01*
X82800680Y-85480411D02*
X82916601Y-85525029D01*
X82916602Y-85525029D02*
X83033381Y-85563315D01*
X83033382Y-85563315D02*
X83150823Y-85595351D01*
X83150823Y-85595351D02*
X83268726Y-85621219D01*
X83268726Y-85621219D02*
X83386893Y-85641002D01*
X83386894Y-85641002D02*
X83505126Y-85654780D01*
X83505127Y-85654780D02*
X83623228Y-85662637D01*
X83623228Y-85662637D02*
X83740999Y-85664654D01*
X83740999Y-85664655D02*
X83858241Y-85660914D01*
X83858242Y-85660914D02*
X83974758Y-85651499D01*
X83974758Y-85651499D02*
X84090349Y-85636489D01*
X84090350Y-85636489D02*
X84204819Y-85615968D01*
X84204819Y-85615968D02*
X84317968Y-85590018D01*
X84317968Y-85590018D02*
X84429597Y-85558720D01*
X84429598Y-85558720D02*
X84539511Y-85522157D01*
X84539511Y-85522157D02*
X84647509Y-85480411D01*
X84647510Y-85480411D02*
X84753394Y-85433564D01*
X84753395Y-85433564D02*
X84856970Y-85381697D01*
X84856970Y-85381697D02*
X84958034Y-85324894D01*
X84958035Y-85324894D02*
X85056392Y-85263235D01*
X85056393Y-85263235D02*
X85151845Y-85196803D01*
X85151845Y-85196803D02*
X85244194Y-85125681D01*
X85244194Y-85125681D02*
X85333242Y-85049949D01*
X85333242Y-85049949D02*
X85418790Y-84969691D01*
X85418790Y-84969691D02*
X85500640Y-84884988D01*
X85500640Y-84884988D02*
X85578594Y-84795922D01*
X85578594Y-84795922D02*
X85652454Y-84702576D01*
X85652455Y-84702576D02*
X85722023Y-84605031D01*
X85722023Y-84605031D02*
X85787101Y-84503369D01*
X85787102Y-84503369D02*
X85847491Y-84397673D01*
X85847492Y-84397673D02*
X85902996Y-84288024D01*
X85902996Y-84288024D02*
X85953415Y-84174505D01*
X85953416Y-84174505D02*
X85998034Y-84058583D01*
X85998034Y-84058583D02*
X86036320Y-83941803D01*
X86036320Y-83941803D02*
X86068355Y-83824362D01*
X86068356Y-83824362D02*
X86094223Y-83706459D01*
X86094224Y-83706459D02*
X86114005Y-83588292D01*
X86114006Y-83588292D02*
X86127785Y-83470058D01*
X86127785Y-83470058D02*
X86135641Y-83351957D01*
X86135642Y-83351957D02*
X86137658Y-83234186D01*
X86137659Y-83234186D02*
X86133919Y-83116944D01*
X86133919Y-83116944D02*
X86124503Y-83000427D01*
X86124503Y-83000427D02*
X86109493Y-82884835D01*
X86109493Y-82884835D02*
X86088974Y-82770366D01*
X86088973Y-82770366D02*
X86063023Y-82657217D01*
X86063022Y-82657217D02*
X86031726Y-82545587D01*
X86031725Y-82545587D02*
X85995163Y-82435674D01*
X85995162Y-82435674D02*
X85953415Y-82327675D01*
X85953415Y-82327675D02*
X85906568Y-82221790D01*
X85906568Y-82221790D02*
X85854702Y-82118215D01*
X85854702Y-82118215D02*
X85797898Y-82017150D01*
X85797898Y-82017150D02*
X85736239Y-81918792D01*
X85736239Y-81918792D02*
X85669808Y-81823340D01*
X85669808Y-81823340D02*
X85598685Y-81730991D01*
X85598685Y-81730991D02*
X85522955Y-81641943D01*
X85522954Y-81641943D02*
X85442695Y-81556395D01*
X85442695Y-81556395D02*
X85357993Y-81474545D01*
X85357992Y-81474545D02*
X85268927Y-81396590D01*
X85268927Y-81396590D02*
X85175581Y-81322730D01*
X85175580Y-81322730D02*
X85078036Y-81253161D01*
X85078035Y-81253161D02*
X84976373Y-81188083D01*
X84976373Y-81188083D02*
X84870677Y-81127693D01*
X84870677Y-81127693D02*
X84761029Y-81072189D01*
X84761029Y-81072189D02*
X84647510Y-81021769D01*
X84647510Y-81021769D02*
X84531589Y-80977151D01*
X84531588Y-80977151D02*
X84414808Y-80938865D01*
X84414807Y-80938865D02*
X84297366Y-80906829D01*
X84297366Y-80906829D02*
X84179463Y-80880961D01*
X84179463Y-80880961D02*
X84061296Y-80861178D01*
X84061296Y-80861178D02*
X83943064Y-80847399D01*
X83943063Y-80847399D02*
X83824963Y-80839543D01*
X83824962Y-80839543D02*
X83707191Y-80837526D01*
X83707191Y-80837525D02*
X83589949Y-80841266D01*
D10*
G36*
X85214046Y-83299610D02*
G01*
X84751025Y-83299610D01*
X84751769Y-83274805D01*
X84752017Y-83250000D01*
X84751769Y-83225196D01*
X84751025Y-83200391D01*
X85214046Y-83200391D01*
X85214046Y-83299610D01*
G37*
D12*
X69604819Y-75333333D02*
X69128628Y-75000000D01*
X69604819Y-74761905D02*
X68604819Y-74761905D01*
X68604819Y-74761905D02*
X68604819Y-75142857D01*
X68604819Y-75142857D02*
X68652438Y-75238095D01*
X68652438Y-75238095D02*
X68700057Y-75285714D01*
X68700057Y-75285714D02*
X68795295Y-75333333D01*
X68795295Y-75333333D02*
X68938152Y-75333333D01*
X68938152Y-75333333D02*
X69033390Y-75285714D01*
X69033390Y-75285714D02*
X69081009Y-75238095D01*
X69081009Y-75238095D02*
X69128628Y-75142857D01*
X69128628Y-75142857D02*
X69128628Y-74761905D01*
X69604819Y-76285714D02*
X69604819Y-75714286D01*
X69604819Y-76000000D02*
X68604819Y-76000000D01*
X68604819Y-76000000D02*
X68747676Y-75904762D01*
X68747676Y-75904762D02*
X68842914Y-75809524D01*
X68842914Y-75809524D02*
X68890533Y-75714286D01*
X177584285Y-121979819D02*
X177584285Y-120979819D01*
X177584285Y-120979819D02*
X177346190Y-120979819D01*
X177346190Y-120979819D02*
X177203333Y-121027438D01*
X177203333Y-121027438D02*
X177108095Y-121122676D01*
X177108095Y-121122676D02*
X177060476Y-121217914D01*
X177060476Y-121217914D02*
X177012857Y-121408390D01*
X177012857Y-121408390D02*
X177012857Y-121551247D01*
X177012857Y-121551247D02*
X177060476Y-121741723D01*
X177060476Y-121741723D02*
X177108095Y-121836961D01*
X177108095Y-121836961D02*
X177203333Y-121932200D01*
X177203333Y-121932200D02*
X177346190Y-121979819D01*
X177346190Y-121979819D02*
X177584285Y-121979819D01*
X176631904Y-121075057D02*
X176584285Y-121027438D01*
X176584285Y-121027438D02*
X176489047Y-120979819D01*
X176489047Y-120979819D02*
X176250952Y-120979819D01*
X176250952Y-120979819D02*
X176155714Y-121027438D01*
X176155714Y-121027438D02*
X176108095Y-121075057D01*
X176108095Y-121075057D02*
X176060476Y-121170295D01*
X176060476Y-121170295D02*
X176060476Y-121265533D01*
X176060476Y-121265533D02*
X176108095Y-121408390D01*
X176108095Y-121408390D02*
X176679523Y-121979819D01*
X176679523Y-121979819D02*
X176060476Y-121979819D01*
X175108095Y-121979819D02*
X175679523Y-121979819D01*
X175393809Y-121979819D02*
X175393809Y-120979819D01*
X175393809Y-120979819D02*
X175489047Y-121122676D01*
X175489047Y-121122676D02*
X175584285Y-121217914D01*
X175584285Y-121217914D02*
X175679523Y-121265533D01*
X234734285Y-121979819D02*
X234734285Y-120979819D01*
X234734285Y-120979819D02*
X234496190Y-120979819D01*
X234496190Y-120979819D02*
X234353333Y-121027438D01*
X234353333Y-121027438D02*
X234258095Y-121122676D01*
X234258095Y-121122676D02*
X234210476Y-121217914D01*
X234210476Y-121217914D02*
X234162857Y-121408390D01*
X234162857Y-121408390D02*
X234162857Y-121551247D01*
X234162857Y-121551247D02*
X234210476Y-121741723D01*
X234210476Y-121741723D02*
X234258095Y-121836961D01*
X234258095Y-121836961D02*
X234353333Y-121932200D01*
X234353333Y-121932200D02*
X234496190Y-121979819D01*
X234496190Y-121979819D02*
X234734285Y-121979819D01*
X233781904Y-121075057D02*
X233734285Y-121027438D01*
X233734285Y-121027438D02*
X233639047Y-120979819D01*
X233639047Y-120979819D02*
X233400952Y-120979819D01*
X233400952Y-120979819D02*
X233305714Y-121027438D01*
X233305714Y-121027438D02*
X233258095Y-121075057D01*
X233258095Y-121075057D02*
X233210476Y-121170295D01*
X233210476Y-121170295D02*
X233210476Y-121265533D01*
X233210476Y-121265533D02*
X233258095Y-121408390D01*
X233258095Y-121408390D02*
X233829523Y-121979819D01*
X233829523Y-121979819D02*
X233210476Y-121979819D01*
X232877142Y-120979819D02*
X232210476Y-120979819D01*
X232210476Y-120979819D02*
X232639047Y-121979819D01*
X226929580Y-135307142D02*
X226977200Y-135259523D01*
X226977200Y-135259523D02*
X227024819Y-135116666D01*
X227024819Y-135116666D02*
X227024819Y-135021428D01*
X227024819Y-135021428D02*
X226977200Y-134878571D01*
X226977200Y-134878571D02*
X226881961Y-134783333D01*
X226881961Y-134783333D02*
X226786723Y-134735714D01*
X226786723Y-134735714D02*
X226596247Y-134688095D01*
X226596247Y-134688095D02*
X226453390Y-134688095D01*
X226453390Y-134688095D02*
X226262914Y-134735714D01*
X226262914Y-134735714D02*
X226167676Y-134783333D01*
X226167676Y-134783333D02*
X226072438Y-134878571D01*
X226072438Y-134878571D02*
X226024819Y-135021428D01*
X226024819Y-135021428D02*
X226024819Y-135116666D01*
X226024819Y-135116666D02*
X226072438Y-135259523D01*
X226072438Y-135259523D02*
X226120057Y-135307142D01*
X226120057Y-135688095D02*
X226072438Y-135735714D01*
X226072438Y-135735714D02*
X226024819Y-135830952D01*
X226024819Y-135830952D02*
X226024819Y-136069047D01*
X226024819Y-136069047D02*
X226072438Y-136164285D01*
X226072438Y-136164285D02*
X226120057Y-136211904D01*
X226120057Y-136211904D02*
X226215295Y-136259523D01*
X226215295Y-136259523D02*
X226310533Y-136259523D01*
X226310533Y-136259523D02*
X226453390Y-136211904D01*
X226453390Y-136211904D02*
X227024819Y-135640476D01*
X227024819Y-135640476D02*
X227024819Y-136259523D01*
X226120057Y-136640476D02*
X226072438Y-136688095D01*
X226072438Y-136688095D02*
X226024819Y-136783333D01*
X226024819Y-136783333D02*
X226024819Y-137021428D01*
X226024819Y-137021428D02*
X226072438Y-137116666D01*
X226072438Y-137116666D02*
X226120057Y-137164285D01*
X226120057Y-137164285D02*
X226215295Y-137211904D01*
X226215295Y-137211904D02*
X226310533Y-137211904D01*
X226310533Y-137211904D02*
X226453390Y-137164285D01*
X226453390Y-137164285D02*
X227024819Y-136592857D01*
X227024819Y-136592857D02*
X227024819Y-137211904D01*
X157666666Y-74704819D02*
X158142856Y-74704819D01*
X158142856Y-74704819D02*
X158142856Y-73704819D01*
X157428570Y-73704819D02*
X156809523Y-73704819D01*
X156809523Y-73704819D02*
X157142856Y-74085771D01*
X157142856Y-74085771D02*
X156999999Y-74085771D01*
X156999999Y-74085771D02*
X156904761Y-74133390D01*
X156904761Y-74133390D02*
X156857142Y-74181009D01*
X156857142Y-74181009D02*
X156809523Y-74276247D01*
X156809523Y-74276247D02*
X156809523Y-74514342D01*
X156809523Y-74514342D02*
X156857142Y-74609580D01*
X156857142Y-74609580D02*
X156904761Y-74657200D01*
X156904761Y-74657200D02*
X156999999Y-74704819D01*
X156999999Y-74704819D02*
X157285713Y-74704819D01*
X157285713Y-74704819D02*
X157380951Y-74657200D01*
X157380951Y-74657200D02*
X157428570Y-74609580D01*
D13*
X160871428Y-77313595D02*
X161328571Y-77313595D01*
X161099999Y-77313595D02*
X161099999Y-76513595D01*
X161099999Y-76513595D02*
X161176190Y-76627880D01*
X161176190Y-76627880D02*
X161252380Y-76704071D01*
X161252380Y-76704071D02*
X161328571Y-76742166D01*
D12*
X195916666Y-74704819D02*
X196392856Y-74704819D01*
X196392856Y-74704819D02*
X196392856Y-73704819D01*
X195107142Y-73704819D02*
X195583332Y-73704819D01*
X195583332Y-73704819D02*
X195630951Y-74181009D01*
X195630951Y-74181009D02*
X195583332Y-74133390D01*
X195583332Y-74133390D02*
X195488094Y-74085771D01*
X195488094Y-74085771D02*
X195249999Y-74085771D01*
X195249999Y-74085771D02*
X195154761Y-74133390D01*
X195154761Y-74133390D02*
X195107142Y-74181009D01*
X195107142Y-74181009D02*
X195059523Y-74276247D01*
X195059523Y-74276247D02*
X195059523Y-74514342D01*
X195059523Y-74514342D02*
X195107142Y-74609580D01*
X195107142Y-74609580D02*
X195154761Y-74657200D01*
X195154761Y-74657200D02*
X195249999Y-74704819D01*
X195249999Y-74704819D02*
X195488094Y-74704819D01*
X195488094Y-74704819D02*
X195583332Y-74657200D01*
X195583332Y-74657200D02*
X195630951Y-74609580D01*
D13*
X199121428Y-77313595D02*
X199578571Y-77313595D01*
X199349999Y-77313595D02*
X199349999Y-76513595D01*
X199349999Y-76513595D02*
X199426190Y-76627880D01*
X199426190Y-76627880D02*
X199502380Y-76704071D01*
X199502380Y-76704071D02*
X199578571Y-76742166D01*
D12*
X207679580Y-78583333D02*
X207727200Y-78535714D01*
X207727200Y-78535714D02*
X207774819Y-78392857D01*
X207774819Y-78392857D02*
X207774819Y-78297619D01*
X207774819Y-78297619D02*
X207727200Y-78154762D01*
X207727200Y-78154762D02*
X207631961Y-78059524D01*
X207631961Y-78059524D02*
X207536723Y-78011905D01*
X207536723Y-78011905D02*
X207346247Y-77964286D01*
X207346247Y-77964286D02*
X207203390Y-77964286D01*
X207203390Y-77964286D02*
X207012914Y-78011905D01*
X207012914Y-78011905D02*
X206917676Y-78059524D01*
X206917676Y-78059524D02*
X206822438Y-78154762D01*
X206822438Y-78154762D02*
X206774819Y-78297619D01*
X206774819Y-78297619D02*
X206774819Y-78392857D01*
X206774819Y-78392857D02*
X206822438Y-78535714D01*
X206822438Y-78535714D02*
X206870057Y-78583333D01*
X206774819Y-79440476D02*
X206774819Y-79250000D01*
X206774819Y-79250000D02*
X206822438Y-79154762D01*
X206822438Y-79154762D02*
X206870057Y-79107143D01*
X206870057Y-79107143D02*
X207012914Y-79011905D01*
X207012914Y-79011905D02*
X207203390Y-78964286D01*
X207203390Y-78964286D02*
X207584342Y-78964286D01*
X207584342Y-78964286D02*
X207679580Y-79011905D01*
X207679580Y-79011905D02*
X207727200Y-79059524D01*
X207727200Y-79059524D02*
X207774819Y-79154762D01*
X207774819Y-79154762D02*
X207774819Y-79345238D01*
X207774819Y-79345238D02*
X207727200Y-79440476D01*
X207727200Y-79440476D02*
X207679580Y-79488095D01*
X207679580Y-79488095D02*
X207584342Y-79535714D01*
X207584342Y-79535714D02*
X207346247Y-79535714D01*
X207346247Y-79535714D02*
X207251009Y-79488095D01*
X207251009Y-79488095D02*
X207203390Y-79440476D01*
X207203390Y-79440476D02*
X207155771Y-79345238D01*
X207155771Y-79345238D02*
X207155771Y-79154762D01*
X207155771Y-79154762D02*
X207203390Y-79059524D01*
X207203390Y-79059524D02*
X207251009Y-79011905D01*
X207251009Y-79011905D02*
X207346247Y-78964286D01*
X177142857Y-131829819D02*
X177619047Y-131829819D01*
X177619047Y-131829819D02*
X177619047Y-130829819D01*
X176857142Y-130925057D02*
X176809523Y-130877438D01*
X176809523Y-130877438D02*
X176714285Y-130829819D01*
X176714285Y-130829819D02*
X176476190Y-130829819D01*
X176476190Y-130829819D02*
X176380952Y-130877438D01*
X176380952Y-130877438D02*
X176333333Y-130925057D01*
X176333333Y-130925057D02*
X176285714Y-131020295D01*
X176285714Y-131020295D02*
X176285714Y-131115533D01*
X176285714Y-131115533D02*
X176333333Y-131258390D01*
X176333333Y-131258390D02*
X176904761Y-131829819D01*
X176904761Y-131829819D02*
X176285714Y-131829819D01*
X175380952Y-130829819D02*
X175857142Y-130829819D01*
X175857142Y-130829819D02*
X175904761Y-131306009D01*
X175904761Y-131306009D02*
X175857142Y-131258390D01*
X175857142Y-131258390D02*
X175761904Y-131210771D01*
X175761904Y-131210771D02*
X175523809Y-131210771D01*
X175523809Y-131210771D02*
X175428571Y-131258390D01*
X175428571Y-131258390D02*
X175380952Y-131306009D01*
X175380952Y-131306009D02*
X175333333Y-131401247D01*
X175333333Y-131401247D02*
X175333333Y-131639342D01*
X175333333Y-131639342D02*
X175380952Y-131734580D01*
X175380952Y-131734580D02*
X175428571Y-131782200D01*
X175428571Y-131782200D02*
X175523809Y-131829819D01*
X175523809Y-131829819D02*
X175761904Y-131829819D01*
X175761904Y-131829819D02*
X175857142Y-131782200D01*
X175857142Y-131782200D02*
X175904761Y-131734580D01*
D13*
X179871428Y-134438595D02*
X180328571Y-134438595D01*
X180099999Y-134438595D02*
X180099999Y-133638595D01*
X180099999Y-133638595D02*
X180176190Y-133752880D01*
X180176190Y-133752880D02*
X180252380Y-133829071D01*
X180252380Y-133829071D02*
X180328571Y-133867166D01*
D12*
X150679580Y-135057142D02*
X150727200Y-135009523D01*
X150727200Y-135009523D02*
X150774819Y-134866666D01*
X150774819Y-134866666D02*
X150774819Y-134771428D01*
X150774819Y-134771428D02*
X150727200Y-134628571D01*
X150727200Y-134628571D02*
X150631961Y-134533333D01*
X150631961Y-134533333D02*
X150536723Y-134485714D01*
X150536723Y-134485714D02*
X150346247Y-134438095D01*
X150346247Y-134438095D02*
X150203390Y-134438095D01*
X150203390Y-134438095D02*
X150012914Y-134485714D01*
X150012914Y-134485714D02*
X149917676Y-134533333D01*
X149917676Y-134533333D02*
X149822438Y-134628571D01*
X149822438Y-134628571D02*
X149774819Y-134771428D01*
X149774819Y-134771428D02*
X149774819Y-134866666D01*
X149774819Y-134866666D02*
X149822438Y-135009523D01*
X149822438Y-135009523D02*
X149870057Y-135057142D01*
X149870057Y-135438095D02*
X149822438Y-135485714D01*
X149822438Y-135485714D02*
X149774819Y-135580952D01*
X149774819Y-135580952D02*
X149774819Y-135819047D01*
X149774819Y-135819047D02*
X149822438Y-135914285D01*
X149822438Y-135914285D02*
X149870057Y-135961904D01*
X149870057Y-135961904D02*
X149965295Y-136009523D01*
X149965295Y-136009523D02*
X150060533Y-136009523D01*
X150060533Y-136009523D02*
X150203390Y-135961904D01*
X150203390Y-135961904D02*
X150774819Y-135390476D01*
X150774819Y-135390476D02*
X150774819Y-136009523D01*
X149774819Y-136866666D02*
X149774819Y-136676190D01*
X149774819Y-136676190D02*
X149822438Y-136580952D01*
X149822438Y-136580952D02*
X149870057Y-136533333D01*
X149870057Y-136533333D02*
X150012914Y-136438095D01*
X150012914Y-136438095D02*
X150203390Y-136390476D01*
X150203390Y-136390476D02*
X150584342Y-136390476D01*
X150584342Y-136390476D02*
X150679580Y-136438095D01*
X150679580Y-136438095D02*
X150727200Y-136485714D01*
X150727200Y-136485714D02*
X150774819Y-136580952D01*
X150774819Y-136580952D02*
X150774819Y-136771428D01*
X150774819Y-136771428D02*
X150727200Y-136866666D01*
X150727200Y-136866666D02*
X150679580Y-136914285D01*
X150679580Y-136914285D02*
X150584342Y-136961904D01*
X150584342Y-136961904D02*
X150346247Y-136961904D01*
X150346247Y-136961904D02*
X150251009Y-136914285D01*
X150251009Y-136914285D02*
X150203390Y-136866666D01*
X150203390Y-136866666D02*
X150155771Y-136771428D01*
X150155771Y-136771428D02*
X150155771Y-136580952D01*
X150155771Y-136580952D02*
X150203390Y-136485714D01*
X150203390Y-136485714D02*
X150251009Y-136438095D01*
X150251009Y-136438095D02*
X150346247Y-136390476D01*
X158058094Y-102929819D02*
X158058094Y-101929819D01*
X158058094Y-101929819D02*
X157819999Y-101929819D01*
X157819999Y-101929819D02*
X157677142Y-101977438D01*
X157677142Y-101977438D02*
X157581904Y-102072676D01*
X157581904Y-102072676D02*
X157534285Y-102167914D01*
X157534285Y-102167914D02*
X157486666Y-102358390D01*
X157486666Y-102358390D02*
X157486666Y-102501247D01*
X157486666Y-102501247D02*
X157534285Y-102691723D01*
X157534285Y-102691723D02*
X157581904Y-102786961D01*
X157581904Y-102786961D02*
X157677142Y-102882200D01*
X157677142Y-102882200D02*
X157819999Y-102929819D01*
X157819999Y-102929819D02*
X158058094Y-102929819D01*
X157010475Y-102929819D02*
X156819999Y-102929819D01*
X156819999Y-102929819D02*
X156724761Y-102882200D01*
X156724761Y-102882200D02*
X156677142Y-102834580D01*
X156677142Y-102834580D02*
X156581904Y-102691723D01*
X156581904Y-102691723D02*
X156534285Y-102501247D01*
X156534285Y-102501247D02*
X156534285Y-102120295D01*
X156534285Y-102120295D02*
X156581904Y-102025057D01*
X156581904Y-102025057D02*
X156629523Y-101977438D01*
X156629523Y-101977438D02*
X156724761Y-101929819D01*
X156724761Y-101929819D02*
X156915237Y-101929819D01*
X156915237Y-101929819D02*
X157010475Y-101977438D01*
X157010475Y-101977438D02*
X157058094Y-102025057D01*
X157058094Y-102025057D02*
X157105713Y-102120295D01*
X157105713Y-102120295D02*
X157105713Y-102358390D01*
X157105713Y-102358390D02*
X157058094Y-102453628D01*
X157058094Y-102453628D02*
X157010475Y-102501247D01*
X157010475Y-102501247D02*
X156915237Y-102548866D01*
X156915237Y-102548866D02*
X156724761Y-102548866D01*
X156724761Y-102548866D02*
X156629523Y-102501247D01*
X156629523Y-102501247D02*
X156581904Y-102453628D01*
X156581904Y-102453628D02*
X156534285Y-102358390D01*
X158534285Y-121979819D02*
X158534285Y-120979819D01*
X158534285Y-120979819D02*
X158296190Y-120979819D01*
X158296190Y-120979819D02*
X158153333Y-121027438D01*
X158153333Y-121027438D02*
X158058095Y-121122676D01*
X158058095Y-121122676D02*
X158010476Y-121217914D01*
X158010476Y-121217914D02*
X157962857Y-121408390D01*
X157962857Y-121408390D02*
X157962857Y-121551247D01*
X157962857Y-121551247D02*
X158010476Y-121741723D01*
X158010476Y-121741723D02*
X158058095Y-121836961D01*
X158058095Y-121836961D02*
X158153333Y-121932200D01*
X158153333Y-121932200D02*
X158296190Y-121979819D01*
X158296190Y-121979819D02*
X158534285Y-121979819D01*
X157581904Y-121075057D02*
X157534285Y-121027438D01*
X157534285Y-121027438D02*
X157439047Y-120979819D01*
X157439047Y-120979819D02*
X157200952Y-120979819D01*
X157200952Y-120979819D02*
X157105714Y-121027438D01*
X157105714Y-121027438D02*
X157058095Y-121075057D01*
X157058095Y-121075057D02*
X157010476Y-121170295D01*
X157010476Y-121170295D02*
X157010476Y-121265533D01*
X157010476Y-121265533D02*
X157058095Y-121408390D01*
X157058095Y-121408390D02*
X157629523Y-121979819D01*
X157629523Y-121979819D02*
X157010476Y-121979819D01*
X156391428Y-120979819D02*
X156296190Y-120979819D01*
X156296190Y-120979819D02*
X156200952Y-121027438D01*
X156200952Y-121027438D02*
X156153333Y-121075057D01*
X156153333Y-121075057D02*
X156105714Y-121170295D01*
X156105714Y-121170295D02*
X156058095Y-121360771D01*
X156058095Y-121360771D02*
X156058095Y-121598866D01*
X156058095Y-121598866D02*
X156105714Y-121789342D01*
X156105714Y-121789342D02*
X156153333Y-121884580D01*
X156153333Y-121884580D02*
X156200952Y-121932200D01*
X156200952Y-121932200D02*
X156296190Y-121979819D01*
X156296190Y-121979819D02*
X156391428Y-121979819D01*
X156391428Y-121979819D02*
X156486666Y-121932200D01*
X156486666Y-121932200D02*
X156534285Y-121884580D01*
X156534285Y-121884580D02*
X156581904Y-121789342D01*
X156581904Y-121789342D02*
X156629523Y-121598866D01*
X156629523Y-121598866D02*
X156629523Y-121360771D01*
X156629523Y-121360771D02*
X156581904Y-121170295D01*
X156581904Y-121170295D02*
X156534285Y-121075057D01*
X156534285Y-121075057D02*
X156486666Y-121027438D01*
X156486666Y-121027438D02*
X156391428Y-120979819D01*
X169679580Y-135057142D02*
X169727200Y-135009523D01*
X169727200Y-135009523D02*
X169774819Y-134866666D01*
X169774819Y-134866666D02*
X169774819Y-134771428D01*
X169774819Y-134771428D02*
X169727200Y-134628571D01*
X169727200Y-134628571D02*
X169631961Y-134533333D01*
X169631961Y-134533333D02*
X169536723Y-134485714D01*
X169536723Y-134485714D02*
X169346247Y-134438095D01*
X169346247Y-134438095D02*
X169203390Y-134438095D01*
X169203390Y-134438095D02*
X169012914Y-134485714D01*
X169012914Y-134485714D02*
X168917676Y-134533333D01*
X168917676Y-134533333D02*
X168822438Y-134628571D01*
X168822438Y-134628571D02*
X168774819Y-134771428D01*
X168774819Y-134771428D02*
X168774819Y-134866666D01*
X168774819Y-134866666D02*
X168822438Y-135009523D01*
X168822438Y-135009523D02*
X168870057Y-135057142D01*
X168870057Y-135438095D02*
X168822438Y-135485714D01*
X168822438Y-135485714D02*
X168774819Y-135580952D01*
X168774819Y-135580952D02*
X168774819Y-135819047D01*
X168774819Y-135819047D02*
X168822438Y-135914285D01*
X168822438Y-135914285D02*
X168870057Y-135961904D01*
X168870057Y-135961904D02*
X168965295Y-136009523D01*
X168965295Y-136009523D02*
X169060533Y-136009523D01*
X169060533Y-136009523D02*
X169203390Y-135961904D01*
X169203390Y-135961904D02*
X169774819Y-135390476D01*
X169774819Y-135390476D02*
X169774819Y-136009523D01*
X168774819Y-136914285D02*
X168774819Y-136438095D01*
X168774819Y-136438095D02*
X169251009Y-136390476D01*
X169251009Y-136390476D02*
X169203390Y-136438095D01*
X169203390Y-136438095D02*
X169155771Y-136533333D01*
X169155771Y-136533333D02*
X169155771Y-136771428D01*
X169155771Y-136771428D02*
X169203390Y-136866666D01*
X169203390Y-136866666D02*
X169251009Y-136914285D01*
X169251009Y-136914285D02*
X169346247Y-136961904D01*
X169346247Y-136961904D02*
X169584342Y-136961904D01*
X169584342Y-136961904D02*
X169679580Y-136914285D01*
X169679580Y-136914285D02*
X169727200Y-136866666D01*
X169727200Y-136866666D02*
X169774819Y-136771428D01*
X169774819Y-136771428D02*
X169774819Y-136533333D01*
X169774819Y-136533333D02*
X169727200Y-136438095D01*
X169727200Y-136438095D02*
X169679580Y-136390476D01*
X139142857Y-112704819D02*
X139619047Y-112704819D01*
X139619047Y-112704819D02*
X139619047Y-111704819D01*
X138285714Y-112704819D02*
X138857142Y-112704819D01*
X138571428Y-112704819D02*
X138571428Y-111704819D01*
X138571428Y-111704819D02*
X138666666Y-111847676D01*
X138666666Y-111847676D02*
X138761904Y-111942914D01*
X138761904Y-111942914D02*
X138857142Y-111990533D01*
X137428571Y-111704819D02*
X137619047Y-111704819D01*
X137619047Y-111704819D02*
X137714285Y-111752438D01*
X137714285Y-111752438D02*
X137761904Y-111800057D01*
X137761904Y-111800057D02*
X137857142Y-111942914D01*
X137857142Y-111942914D02*
X137904761Y-112133390D01*
X137904761Y-112133390D02*
X137904761Y-112514342D01*
X137904761Y-112514342D02*
X137857142Y-112609580D01*
X137857142Y-112609580D02*
X137809523Y-112657200D01*
X137809523Y-112657200D02*
X137714285Y-112704819D01*
X137714285Y-112704819D02*
X137523809Y-112704819D01*
X137523809Y-112704819D02*
X137428571Y-112657200D01*
X137428571Y-112657200D02*
X137380952Y-112609580D01*
X137380952Y-112609580D02*
X137333333Y-112514342D01*
X137333333Y-112514342D02*
X137333333Y-112276247D01*
X137333333Y-112276247D02*
X137380952Y-112181009D01*
X137380952Y-112181009D02*
X137428571Y-112133390D01*
X137428571Y-112133390D02*
X137523809Y-112085771D01*
X137523809Y-112085771D02*
X137714285Y-112085771D01*
X137714285Y-112085771D02*
X137809523Y-112133390D01*
X137809523Y-112133390D02*
X137857142Y-112181009D01*
X137857142Y-112181009D02*
X137904761Y-112276247D01*
D13*
X141871428Y-115313595D02*
X142328571Y-115313595D01*
X142099999Y-115313595D02*
X142099999Y-114513595D01*
X142099999Y-114513595D02*
X142176190Y-114627880D01*
X142176190Y-114627880D02*
X142252380Y-114704071D01*
X142252380Y-114704071D02*
X142328571Y-114742166D01*
D12*
X207929580Y-116107142D02*
X207977200Y-116059523D01*
X207977200Y-116059523D02*
X208024819Y-115916666D01*
X208024819Y-115916666D02*
X208024819Y-115821428D01*
X208024819Y-115821428D02*
X207977200Y-115678571D01*
X207977200Y-115678571D02*
X207881961Y-115583333D01*
X207881961Y-115583333D02*
X207786723Y-115535714D01*
X207786723Y-115535714D02*
X207596247Y-115488095D01*
X207596247Y-115488095D02*
X207453390Y-115488095D01*
X207453390Y-115488095D02*
X207262914Y-115535714D01*
X207262914Y-115535714D02*
X207167676Y-115583333D01*
X207167676Y-115583333D02*
X207072438Y-115678571D01*
X207072438Y-115678571D02*
X207024819Y-115821428D01*
X207024819Y-115821428D02*
X207024819Y-115916666D01*
X207024819Y-115916666D02*
X207072438Y-116059523D01*
X207072438Y-116059523D02*
X207120057Y-116107142D01*
X207120057Y-116488095D02*
X207072438Y-116535714D01*
X207072438Y-116535714D02*
X207024819Y-116630952D01*
X207024819Y-116630952D02*
X207024819Y-116869047D01*
X207024819Y-116869047D02*
X207072438Y-116964285D01*
X207072438Y-116964285D02*
X207120057Y-117011904D01*
X207120057Y-117011904D02*
X207215295Y-117059523D01*
X207215295Y-117059523D02*
X207310533Y-117059523D01*
X207310533Y-117059523D02*
X207453390Y-117011904D01*
X207453390Y-117011904D02*
X208024819Y-116440476D01*
X208024819Y-116440476D02*
X208024819Y-117059523D01*
X207024819Y-117678571D02*
X207024819Y-117773809D01*
X207024819Y-117773809D02*
X207072438Y-117869047D01*
X207072438Y-117869047D02*
X207120057Y-117916666D01*
X207120057Y-117916666D02*
X207215295Y-117964285D01*
X207215295Y-117964285D02*
X207405771Y-118011904D01*
X207405771Y-118011904D02*
X207643866Y-118011904D01*
X207643866Y-118011904D02*
X207834342Y-117964285D01*
X207834342Y-117964285D02*
X207929580Y-117916666D01*
X207929580Y-117916666D02*
X207977200Y-117869047D01*
X207977200Y-117869047D02*
X208024819Y-117773809D01*
X208024819Y-117773809D02*
X208024819Y-117678571D01*
X208024819Y-117678571D02*
X207977200Y-117583333D01*
X207977200Y-117583333D02*
X207929580Y-117535714D01*
X207929580Y-117535714D02*
X207834342Y-117488095D01*
X207834342Y-117488095D02*
X207643866Y-117440476D01*
X207643866Y-117440476D02*
X207405771Y-117440476D01*
X207405771Y-117440476D02*
X207215295Y-117488095D01*
X207215295Y-117488095D02*
X207120057Y-117535714D01*
X207120057Y-117535714D02*
X207072438Y-117583333D01*
X207072438Y-117583333D02*
X207024819Y-117678571D01*
X119892857Y-93579819D02*
X120369047Y-93579819D01*
X120369047Y-93579819D02*
X120369047Y-92579819D01*
X119035714Y-93579819D02*
X119607142Y-93579819D01*
X119321428Y-93579819D02*
X119321428Y-92579819D01*
X119321428Y-92579819D02*
X119416666Y-92722676D01*
X119416666Y-92722676D02*
X119511904Y-92817914D01*
X119511904Y-92817914D02*
X119607142Y-92865533D01*
X118178571Y-92913152D02*
X118178571Y-93579819D01*
X118416666Y-92532200D02*
X118654761Y-93246485D01*
X118654761Y-93246485D02*
X118035714Y-93246485D01*
D13*
X122621428Y-96188595D02*
X123078571Y-96188595D01*
X122849999Y-96188595D02*
X122849999Y-95388595D01*
X122849999Y-95388595D02*
X122926190Y-95502880D01*
X122926190Y-95502880D02*
X123002380Y-95579071D01*
X123002380Y-95579071D02*
X123078571Y-95617166D01*
D12*
X112679580Y-97107142D02*
X112727200Y-97059523D01*
X112727200Y-97059523D02*
X112774819Y-96916666D01*
X112774819Y-96916666D02*
X112774819Y-96821428D01*
X112774819Y-96821428D02*
X112727200Y-96678571D01*
X112727200Y-96678571D02*
X112631961Y-96583333D01*
X112631961Y-96583333D02*
X112536723Y-96535714D01*
X112536723Y-96535714D02*
X112346247Y-96488095D01*
X112346247Y-96488095D02*
X112203390Y-96488095D01*
X112203390Y-96488095D02*
X112012914Y-96535714D01*
X112012914Y-96535714D02*
X111917676Y-96583333D01*
X111917676Y-96583333D02*
X111822438Y-96678571D01*
X111822438Y-96678571D02*
X111774819Y-96821428D01*
X111774819Y-96821428D02*
X111774819Y-96916666D01*
X111774819Y-96916666D02*
X111822438Y-97059523D01*
X111822438Y-97059523D02*
X111870057Y-97107142D01*
X112774819Y-98059523D02*
X112774819Y-97488095D01*
X112774819Y-97773809D02*
X111774819Y-97773809D01*
X111774819Y-97773809D02*
X111917676Y-97678571D01*
X111917676Y-97678571D02*
X112012914Y-97583333D01*
X112012914Y-97583333D02*
X112060533Y-97488095D01*
X112108152Y-98916666D02*
X112774819Y-98916666D01*
X111727200Y-98678571D02*
X112441485Y-98440476D01*
X112441485Y-98440476D02*
X112441485Y-99059523D01*
X138416666Y-74704819D02*
X138892856Y-74704819D01*
X138892856Y-74704819D02*
X138892856Y-73704819D01*
X138130951Y-73800057D02*
X138083332Y-73752438D01*
X138083332Y-73752438D02*
X137988094Y-73704819D01*
X137988094Y-73704819D02*
X137749999Y-73704819D01*
X137749999Y-73704819D02*
X137654761Y-73752438D01*
X137654761Y-73752438D02*
X137607142Y-73800057D01*
X137607142Y-73800057D02*
X137559523Y-73895295D01*
X137559523Y-73895295D02*
X137559523Y-73990533D01*
X137559523Y-73990533D02*
X137607142Y-74133390D01*
X137607142Y-74133390D02*
X138178570Y-74704819D01*
X138178570Y-74704819D02*
X137559523Y-74704819D01*
D13*
X141621428Y-77313595D02*
X142078571Y-77313595D01*
X141849999Y-77313595D02*
X141849999Y-76513595D01*
X141849999Y-76513595D02*
X141926190Y-76627880D01*
X141926190Y-76627880D02*
X142002380Y-76704071D01*
X142002380Y-76704071D02*
X142078571Y-76742166D01*
D12*
X214916666Y-74704819D02*
X215392856Y-74704819D01*
X215392856Y-74704819D02*
X215392856Y-73704819D01*
X214154761Y-73704819D02*
X214345237Y-73704819D01*
X214345237Y-73704819D02*
X214440475Y-73752438D01*
X214440475Y-73752438D02*
X214488094Y-73800057D01*
X214488094Y-73800057D02*
X214583332Y-73942914D01*
X214583332Y-73942914D02*
X214630951Y-74133390D01*
X214630951Y-74133390D02*
X214630951Y-74514342D01*
X214630951Y-74514342D02*
X214583332Y-74609580D01*
X214583332Y-74609580D02*
X214535713Y-74657200D01*
X214535713Y-74657200D02*
X214440475Y-74704819D01*
X214440475Y-74704819D02*
X214249999Y-74704819D01*
X214249999Y-74704819D02*
X214154761Y-74657200D01*
X214154761Y-74657200D02*
X214107142Y-74609580D01*
X214107142Y-74609580D02*
X214059523Y-74514342D01*
X214059523Y-74514342D02*
X214059523Y-74276247D01*
X214059523Y-74276247D02*
X214107142Y-74181009D01*
X214107142Y-74181009D02*
X214154761Y-74133390D01*
X214154761Y-74133390D02*
X214249999Y-74085771D01*
X214249999Y-74085771D02*
X214440475Y-74085771D01*
X214440475Y-74085771D02*
X214535713Y-74133390D01*
X214535713Y-74133390D02*
X214583332Y-74181009D01*
X214583332Y-74181009D02*
X214630951Y-74276247D01*
D13*
X218121428Y-77313595D02*
X218578571Y-77313595D01*
X218349999Y-77313595D02*
X218349999Y-76513595D01*
X218349999Y-76513595D02*
X218426190Y-76627880D01*
X218426190Y-76627880D02*
X218502380Y-76704071D01*
X218502380Y-76704071D02*
X218578571Y-76742166D01*
D12*
X233666666Y-74704819D02*
X234142856Y-74704819D01*
X234142856Y-74704819D02*
X234142856Y-73704819D01*
X233428570Y-73704819D02*
X232761904Y-73704819D01*
X232761904Y-73704819D02*
X233190475Y-74704819D01*
D13*
X236871428Y-77313595D02*
X237328571Y-77313595D01*
X237099999Y-77313595D02*
X237099999Y-76513595D01*
X237099999Y-76513595D02*
X237176190Y-76627880D01*
X237176190Y-76627880D02*
X237252380Y-76704071D01*
X237252380Y-76704071D02*
X237328571Y-76742166D01*
D14*
X83681904Y-49922419D02*
X83681904Y-50731942D01*
X83681904Y-50731942D02*
X83634285Y-50827180D01*
X83634285Y-50827180D02*
X83586666Y-50874800D01*
X83586666Y-50874800D02*
X83491428Y-50922419D01*
X83491428Y-50922419D02*
X83300952Y-50922419D01*
X83300952Y-50922419D02*
X83205714Y-50874800D01*
X83205714Y-50874800D02*
X83158095Y-50827180D01*
X83158095Y-50827180D02*
X83110476Y-50731942D01*
X83110476Y-50731942D02*
X83110476Y-49922419D01*
X82110476Y-50922419D02*
X82681904Y-50922419D01*
X82396190Y-50922419D02*
X82396190Y-49922419D01*
X82396190Y-49922419D02*
X82491428Y-50065276D01*
X82491428Y-50065276D02*
X82586666Y-50160514D01*
X82586666Y-50160514D02*
X82681904Y-50208133D01*
D12*
X196634285Y-121979819D02*
X196634285Y-120979819D01*
X196634285Y-120979819D02*
X196396190Y-120979819D01*
X196396190Y-120979819D02*
X196253333Y-121027438D01*
X196253333Y-121027438D02*
X196158095Y-121122676D01*
X196158095Y-121122676D02*
X196110476Y-121217914D01*
X196110476Y-121217914D02*
X196062857Y-121408390D01*
X196062857Y-121408390D02*
X196062857Y-121551247D01*
X196062857Y-121551247D02*
X196110476Y-121741723D01*
X196110476Y-121741723D02*
X196158095Y-121836961D01*
X196158095Y-121836961D02*
X196253333Y-121932200D01*
X196253333Y-121932200D02*
X196396190Y-121979819D01*
X196396190Y-121979819D02*
X196634285Y-121979819D01*
X195681904Y-121075057D02*
X195634285Y-121027438D01*
X195634285Y-121027438D02*
X195539047Y-120979819D01*
X195539047Y-120979819D02*
X195300952Y-120979819D01*
X195300952Y-120979819D02*
X195205714Y-121027438D01*
X195205714Y-121027438D02*
X195158095Y-121075057D01*
X195158095Y-121075057D02*
X195110476Y-121170295D01*
X195110476Y-121170295D02*
X195110476Y-121265533D01*
X195110476Y-121265533D02*
X195158095Y-121408390D01*
X195158095Y-121408390D02*
X195729523Y-121979819D01*
X195729523Y-121979819D02*
X195110476Y-121979819D01*
X194777142Y-120979819D02*
X194158095Y-120979819D01*
X194158095Y-120979819D02*
X194491428Y-121360771D01*
X194491428Y-121360771D02*
X194348571Y-121360771D01*
X194348571Y-121360771D02*
X194253333Y-121408390D01*
X194253333Y-121408390D02*
X194205714Y-121456009D01*
X194205714Y-121456009D02*
X194158095Y-121551247D01*
X194158095Y-121551247D02*
X194158095Y-121789342D01*
X194158095Y-121789342D02*
X194205714Y-121884580D01*
X194205714Y-121884580D02*
X194253333Y-121932200D01*
X194253333Y-121932200D02*
X194348571Y-121979819D01*
X194348571Y-121979819D02*
X194634285Y-121979819D01*
X194634285Y-121979819D02*
X194729523Y-121932200D01*
X194729523Y-121932200D02*
X194777142Y-121884580D01*
X169679580Y-116307142D02*
X169727200Y-116259523D01*
X169727200Y-116259523D02*
X169774819Y-116116666D01*
X169774819Y-116116666D02*
X169774819Y-116021428D01*
X169774819Y-116021428D02*
X169727200Y-115878571D01*
X169727200Y-115878571D02*
X169631961Y-115783333D01*
X169631961Y-115783333D02*
X169536723Y-115735714D01*
X169536723Y-115735714D02*
X169346247Y-115688095D01*
X169346247Y-115688095D02*
X169203390Y-115688095D01*
X169203390Y-115688095D02*
X169012914Y-115735714D01*
X169012914Y-115735714D02*
X168917676Y-115783333D01*
X168917676Y-115783333D02*
X168822438Y-115878571D01*
X168822438Y-115878571D02*
X168774819Y-116021428D01*
X168774819Y-116021428D02*
X168774819Y-116116666D01*
X168774819Y-116116666D02*
X168822438Y-116259523D01*
X168822438Y-116259523D02*
X168870057Y-116307142D01*
X169774819Y-117259523D02*
X169774819Y-116688095D01*
X169774819Y-116973809D02*
X168774819Y-116973809D01*
X168774819Y-116973809D02*
X168917676Y-116878571D01*
X168917676Y-116878571D02*
X169012914Y-116783333D01*
X169012914Y-116783333D02*
X169060533Y-116688095D01*
X169203390Y-117830952D02*
X169155771Y-117735714D01*
X169155771Y-117735714D02*
X169108152Y-117688095D01*
X169108152Y-117688095D02*
X169012914Y-117640476D01*
X169012914Y-117640476D02*
X168965295Y-117640476D01*
X168965295Y-117640476D02*
X168870057Y-117688095D01*
X168870057Y-117688095D02*
X168822438Y-117735714D01*
X168822438Y-117735714D02*
X168774819Y-117830952D01*
X168774819Y-117830952D02*
X168774819Y-118021428D01*
X168774819Y-118021428D02*
X168822438Y-118116666D01*
X168822438Y-118116666D02*
X168870057Y-118164285D01*
X168870057Y-118164285D02*
X168965295Y-118211904D01*
X168965295Y-118211904D02*
X169012914Y-118211904D01*
X169012914Y-118211904D02*
X169108152Y-118164285D01*
X169108152Y-118164285D02*
X169155771Y-118116666D01*
X169155771Y-118116666D02*
X169203390Y-118021428D01*
X169203390Y-118021428D02*
X169203390Y-117830952D01*
X169203390Y-117830952D02*
X169251009Y-117735714D01*
X169251009Y-117735714D02*
X169298628Y-117688095D01*
X169298628Y-117688095D02*
X169393866Y-117640476D01*
X169393866Y-117640476D02*
X169584342Y-117640476D01*
X169584342Y-117640476D02*
X169679580Y-117688095D01*
X169679580Y-117688095D02*
X169727200Y-117735714D01*
X169727200Y-117735714D02*
X169774819Y-117830952D01*
X169774819Y-117830952D02*
X169774819Y-118021428D01*
X169774819Y-118021428D02*
X169727200Y-118116666D01*
X169727200Y-118116666D02*
X169679580Y-118164285D01*
X169679580Y-118164285D02*
X169584342Y-118211904D01*
X169584342Y-118211904D02*
X169393866Y-118211904D01*
X169393866Y-118211904D02*
X169298628Y-118164285D01*
X169298628Y-118164285D02*
X169251009Y-118116666D01*
X169251009Y-118116666D02*
X169203390Y-118021428D01*
X188679580Y-97057142D02*
X188727200Y-97009523D01*
X188727200Y-97009523D02*
X188774819Y-96866666D01*
X188774819Y-96866666D02*
X188774819Y-96771428D01*
X188774819Y-96771428D02*
X188727200Y-96628571D01*
X188727200Y-96628571D02*
X188631961Y-96533333D01*
X188631961Y-96533333D02*
X188536723Y-96485714D01*
X188536723Y-96485714D02*
X188346247Y-96438095D01*
X188346247Y-96438095D02*
X188203390Y-96438095D01*
X188203390Y-96438095D02*
X188012914Y-96485714D01*
X188012914Y-96485714D02*
X187917676Y-96533333D01*
X187917676Y-96533333D02*
X187822438Y-96628571D01*
X187822438Y-96628571D02*
X187774819Y-96771428D01*
X187774819Y-96771428D02*
X187774819Y-96866666D01*
X187774819Y-96866666D02*
X187822438Y-97009523D01*
X187822438Y-97009523D02*
X187870057Y-97057142D01*
X188774819Y-98009523D02*
X188774819Y-97438095D01*
X188774819Y-97723809D02*
X187774819Y-97723809D01*
X187774819Y-97723809D02*
X187917676Y-97628571D01*
X187917676Y-97628571D02*
X188012914Y-97533333D01*
X188012914Y-97533333D02*
X188060533Y-97438095D01*
X187774819Y-98628571D02*
X187774819Y-98723809D01*
X187774819Y-98723809D02*
X187822438Y-98819047D01*
X187822438Y-98819047D02*
X187870057Y-98866666D01*
X187870057Y-98866666D02*
X187965295Y-98914285D01*
X187965295Y-98914285D02*
X188155771Y-98961904D01*
X188155771Y-98961904D02*
X188393866Y-98961904D01*
X188393866Y-98961904D02*
X188584342Y-98914285D01*
X188584342Y-98914285D02*
X188679580Y-98866666D01*
X188679580Y-98866666D02*
X188727200Y-98819047D01*
X188727200Y-98819047D02*
X188774819Y-98723809D01*
X188774819Y-98723809D02*
X188774819Y-98628571D01*
X188774819Y-98628571D02*
X188727200Y-98533333D01*
X188727200Y-98533333D02*
X188679580Y-98485714D01*
X188679580Y-98485714D02*
X188584342Y-98438095D01*
X188584342Y-98438095D02*
X188393866Y-98390476D01*
X188393866Y-98390476D02*
X188155771Y-98390476D01*
X188155771Y-98390476D02*
X187965295Y-98438095D01*
X187965295Y-98438095D02*
X187870057Y-98485714D01*
X187870057Y-98485714D02*
X187822438Y-98533333D01*
X187822438Y-98533333D02*
X187774819Y-98628571D01*
X188679580Y-116107142D02*
X188727200Y-116059523D01*
X188727200Y-116059523D02*
X188774819Y-115916666D01*
X188774819Y-115916666D02*
X188774819Y-115821428D01*
X188774819Y-115821428D02*
X188727200Y-115678571D01*
X188727200Y-115678571D02*
X188631961Y-115583333D01*
X188631961Y-115583333D02*
X188536723Y-115535714D01*
X188536723Y-115535714D02*
X188346247Y-115488095D01*
X188346247Y-115488095D02*
X188203390Y-115488095D01*
X188203390Y-115488095D02*
X188012914Y-115535714D01*
X188012914Y-115535714D02*
X187917676Y-115583333D01*
X187917676Y-115583333D02*
X187822438Y-115678571D01*
X187822438Y-115678571D02*
X187774819Y-115821428D01*
X187774819Y-115821428D02*
X187774819Y-115916666D01*
X187774819Y-115916666D02*
X187822438Y-116059523D01*
X187822438Y-116059523D02*
X187870057Y-116107142D01*
X188774819Y-117059523D02*
X188774819Y-116488095D01*
X188774819Y-116773809D02*
X187774819Y-116773809D01*
X187774819Y-116773809D02*
X187917676Y-116678571D01*
X187917676Y-116678571D02*
X188012914Y-116583333D01*
X188012914Y-116583333D02*
X188060533Y-116488095D01*
X188774819Y-117535714D02*
X188774819Y-117726190D01*
X188774819Y-117726190D02*
X188727200Y-117821428D01*
X188727200Y-117821428D02*
X188679580Y-117869047D01*
X188679580Y-117869047D02*
X188536723Y-117964285D01*
X188536723Y-117964285D02*
X188346247Y-118011904D01*
X188346247Y-118011904D02*
X187965295Y-118011904D01*
X187965295Y-118011904D02*
X187870057Y-117964285D01*
X187870057Y-117964285D02*
X187822438Y-117916666D01*
X187822438Y-117916666D02*
X187774819Y-117821428D01*
X187774819Y-117821428D02*
X187774819Y-117630952D01*
X187774819Y-117630952D02*
X187822438Y-117535714D01*
X187822438Y-117535714D02*
X187870057Y-117488095D01*
X187870057Y-117488095D02*
X187965295Y-117440476D01*
X187965295Y-117440476D02*
X188203390Y-117440476D01*
X188203390Y-117440476D02*
X188298628Y-117488095D01*
X188298628Y-117488095D02*
X188346247Y-117535714D01*
X188346247Y-117535714D02*
X188393866Y-117630952D01*
X188393866Y-117630952D02*
X188393866Y-117821428D01*
X188393866Y-117821428D02*
X188346247Y-117916666D01*
X188346247Y-117916666D02*
X188298628Y-117964285D01*
X188298628Y-117964285D02*
X188203390Y-118011904D01*
X207749580Y-97583333D02*
X207797200Y-97535714D01*
X207797200Y-97535714D02*
X207844819Y-97392857D01*
X207844819Y-97392857D02*
X207844819Y-97297619D01*
X207844819Y-97297619D02*
X207797200Y-97154762D01*
X207797200Y-97154762D02*
X207701961Y-97059524D01*
X207701961Y-97059524D02*
X207606723Y-97011905D01*
X207606723Y-97011905D02*
X207416247Y-96964286D01*
X207416247Y-96964286D02*
X207273390Y-96964286D01*
X207273390Y-96964286D02*
X207082914Y-97011905D01*
X207082914Y-97011905D02*
X206987676Y-97059524D01*
X206987676Y-97059524D02*
X206892438Y-97154762D01*
X206892438Y-97154762D02*
X206844819Y-97297619D01*
X206844819Y-97297619D02*
X206844819Y-97392857D01*
X206844819Y-97392857D02*
X206892438Y-97535714D01*
X206892438Y-97535714D02*
X206940057Y-97583333D01*
X207844819Y-98059524D02*
X207844819Y-98250000D01*
X207844819Y-98250000D02*
X207797200Y-98345238D01*
X207797200Y-98345238D02*
X207749580Y-98392857D01*
X207749580Y-98392857D02*
X207606723Y-98488095D01*
X207606723Y-98488095D02*
X207416247Y-98535714D01*
X207416247Y-98535714D02*
X207035295Y-98535714D01*
X207035295Y-98535714D02*
X206940057Y-98488095D01*
X206940057Y-98488095D02*
X206892438Y-98440476D01*
X206892438Y-98440476D02*
X206844819Y-98345238D01*
X206844819Y-98345238D02*
X206844819Y-98154762D01*
X206844819Y-98154762D02*
X206892438Y-98059524D01*
X206892438Y-98059524D02*
X206940057Y-98011905D01*
X206940057Y-98011905D02*
X207035295Y-97964286D01*
X207035295Y-97964286D02*
X207273390Y-97964286D01*
X207273390Y-97964286D02*
X207368628Y-98011905D01*
X207368628Y-98011905D02*
X207416247Y-98059524D01*
X207416247Y-98059524D02*
X207463866Y-98154762D01*
X207463866Y-98154762D02*
X207463866Y-98345238D01*
X207463866Y-98345238D02*
X207416247Y-98440476D01*
X207416247Y-98440476D02*
X207368628Y-98488095D01*
X207368628Y-98488095D02*
X207273390Y-98535714D01*
X214666666Y-93704819D02*
X215142856Y-93704819D01*
X215142856Y-93704819D02*
X215142856Y-92704819D01*
X214285713Y-93704819D02*
X214095237Y-93704819D01*
X214095237Y-93704819D02*
X213999999Y-93657200D01*
X213999999Y-93657200D02*
X213952380Y-93609580D01*
X213952380Y-93609580D02*
X213857142Y-93466723D01*
X213857142Y-93466723D02*
X213809523Y-93276247D01*
X213809523Y-93276247D02*
X213809523Y-92895295D01*
X213809523Y-92895295D02*
X213857142Y-92800057D01*
X213857142Y-92800057D02*
X213904761Y-92752438D01*
X213904761Y-92752438D02*
X213999999Y-92704819D01*
X213999999Y-92704819D02*
X214190475Y-92704819D01*
X214190475Y-92704819D02*
X214285713Y-92752438D01*
X214285713Y-92752438D02*
X214333332Y-92800057D01*
X214333332Y-92800057D02*
X214380951Y-92895295D01*
X214380951Y-92895295D02*
X214380951Y-93133390D01*
X214380951Y-93133390D02*
X214333332Y-93228628D01*
X214333332Y-93228628D02*
X214285713Y-93276247D01*
X214285713Y-93276247D02*
X214190475Y-93323866D01*
X214190475Y-93323866D02*
X213999999Y-93323866D01*
X213999999Y-93323866D02*
X213904761Y-93276247D01*
X213904761Y-93276247D02*
X213857142Y-93228628D01*
X213857142Y-93228628D02*
X213809523Y-93133390D01*
D13*
X217871428Y-96313595D02*
X218328571Y-96313595D01*
X218099999Y-96313595D02*
X218099999Y-95513595D01*
X218099999Y-95513595D02*
X218176190Y-95627880D01*
X218176190Y-95627880D02*
X218252380Y-95704071D01*
X218252380Y-95704071D02*
X218328571Y-95742166D01*
D12*
X120434285Y-141029819D02*
X120434285Y-140029819D01*
X120434285Y-140029819D02*
X120196190Y-140029819D01*
X120196190Y-140029819D02*
X120053333Y-140077438D01*
X120053333Y-140077438D02*
X119958095Y-140172676D01*
X119958095Y-140172676D02*
X119910476Y-140267914D01*
X119910476Y-140267914D02*
X119862857Y-140458390D01*
X119862857Y-140458390D02*
X119862857Y-140601247D01*
X119862857Y-140601247D02*
X119910476Y-140791723D01*
X119910476Y-140791723D02*
X119958095Y-140886961D01*
X119958095Y-140886961D02*
X120053333Y-140982200D01*
X120053333Y-140982200D02*
X120196190Y-141029819D01*
X120196190Y-141029819D02*
X120434285Y-141029819D01*
X118910476Y-141029819D02*
X119481904Y-141029819D01*
X119196190Y-141029819D02*
X119196190Y-140029819D01*
X119196190Y-140029819D02*
X119291428Y-140172676D01*
X119291428Y-140172676D02*
X119386666Y-140267914D01*
X119386666Y-140267914D02*
X119481904Y-140315533D01*
X118053333Y-140029819D02*
X118243809Y-140029819D01*
X118243809Y-140029819D02*
X118339047Y-140077438D01*
X118339047Y-140077438D02*
X118386666Y-140125057D01*
X118386666Y-140125057D02*
X118481904Y-140267914D01*
X118481904Y-140267914D02*
X118529523Y-140458390D01*
X118529523Y-140458390D02*
X118529523Y-140839342D01*
X118529523Y-140839342D02*
X118481904Y-140934580D01*
X118481904Y-140934580D02*
X118434285Y-140982200D01*
X118434285Y-140982200D02*
X118339047Y-141029819D01*
X118339047Y-141029819D02*
X118148571Y-141029819D01*
X118148571Y-141029819D02*
X118053333Y-140982200D01*
X118053333Y-140982200D02*
X118005714Y-140934580D01*
X118005714Y-140934580D02*
X117958095Y-140839342D01*
X117958095Y-140839342D02*
X117958095Y-140601247D01*
X117958095Y-140601247D02*
X118005714Y-140506009D01*
X118005714Y-140506009D02*
X118053333Y-140458390D01*
X118053333Y-140458390D02*
X118148571Y-140410771D01*
X118148571Y-140410771D02*
X118339047Y-140410771D01*
X118339047Y-140410771D02*
X118434285Y-140458390D01*
X118434285Y-140458390D02*
X118481904Y-140506009D01*
X118481904Y-140506009D02*
X118529523Y-140601247D01*
X119892857Y-112704819D02*
X120369047Y-112704819D01*
X120369047Y-112704819D02*
X120369047Y-111704819D01*
X119035714Y-112704819D02*
X119607142Y-112704819D01*
X119321428Y-112704819D02*
X119321428Y-111704819D01*
X119321428Y-111704819D02*
X119416666Y-111847676D01*
X119416666Y-111847676D02*
X119511904Y-111942914D01*
X119511904Y-111942914D02*
X119607142Y-111990533D01*
X118130952Y-111704819D02*
X118607142Y-111704819D01*
X118607142Y-111704819D02*
X118654761Y-112181009D01*
X118654761Y-112181009D02*
X118607142Y-112133390D01*
X118607142Y-112133390D02*
X118511904Y-112085771D01*
X118511904Y-112085771D02*
X118273809Y-112085771D01*
X118273809Y-112085771D02*
X118178571Y-112133390D01*
X118178571Y-112133390D02*
X118130952Y-112181009D01*
X118130952Y-112181009D02*
X118083333Y-112276247D01*
X118083333Y-112276247D02*
X118083333Y-112514342D01*
X118083333Y-112514342D02*
X118130952Y-112609580D01*
X118130952Y-112609580D02*
X118178571Y-112657200D01*
X118178571Y-112657200D02*
X118273809Y-112704819D01*
X118273809Y-112704819D02*
X118511904Y-112704819D01*
X118511904Y-112704819D02*
X118607142Y-112657200D01*
X118607142Y-112657200D02*
X118654761Y-112609580D01*
D13*
X122621428Y-115313595D02*
X123078571Y-115313595D01*
X122849999Y-115313595D02*
X122849999Y-114513595D01*
X122849999Y-114513595D02*
X122926190Y-114627880D01*
X122926190Y-114627880D02*
X123002380Y-114704071D01*
X123002380Y-114704071D02*
X123078571Y-114742166D01*
D12*
X131679580Y-135307142D02*
X131727200Y-135259523D01*
X131727200Y-135259523D02*
X131774819Y-135116666D01*
X131774819Y-135116666D02*
X131774819Y-135021428D01*
X131774819Y-135021428D02*
X131727200Y-134878571D01*
X131727200Y-134878571D02*
X131631961Y-134783333D01*
X131631961Y-134783333D02*
X131536723Y-134735714D01*
X131536723Y-134735714D02*
X131346247Y-134688095D01*
X131346247Y-134688095D02*
X131203390Y-134688095D01*
X131203390Y-134688095D02*
X131012914Y-134735714D01*
X131012914Y-134735714D02*
X130917676Y-134783333D01*
X130917676Y-134783333D02*
X130822438Y-134878571D01*
X130822438Y-134878571D02*
X130774819Y-135021428D01*
X130774819Y-135021428D02*
X130774819Y-135116666D01*
X130774819Y-135116666D02*
X130822438Y-135259523D01*
X130822438Y-135259523D02*
X130870057Y-135307142D01*
X130870057Y-135688095D02*
X130822438Y-135735714D01*
X130822438Y-135735714D02*
X130774819Y-135830952D01*
X130774819Y-135830952D02*
X130774819Y-136069047D01*
X130774819Y-136069047D02*
X130822438Y-136164285D01*
X130822438Y-136164285D02*
X130870057Y-136211904D01*
X130870057Y-136211904D02*
X130965295Y-136259523D01*
X130965295Y-136259523D02*
X131060533Y-136259523D01*
X131060533Y-136259523D02*
X131203390Y-136211904D01*
X131203390Y-136211904D02*
X131774819Y-135640476D01*
X131774819Y-135640476D02*
X131774819Y-136259523D01*
X130774819Y-136592857D02*
X130774819Y-137259523D01*
X130774819Y-137259523D02*
X131774819Y-136830952D01*
X196634285Y-141029819D02*
X196634285Y-140029819D01*
X196634285Y-140029819D02*
X196396190Y-140029819D01*
X196396190Y-140029819D02*
X196253333Y-140077438D01*
X196253333Y-140077438D02*
X196158095Y-140172676D01*
X196158095Y-140172676D02*
X196110476Y-140267914D01*
X196110476Y-140267914D02*
X196062857Y-140458390D01*
X196062857Y-140458390D02*
X196062857Y-140601247D01*
X196062857Y-140601247D02*
X196110476Y-140791723D01*
X196110476Y-140791723D02*
X196158095Y-140886961D01*
X196158095Y-140886961D02*
X196253333Y-140982200D01*
X196253333Y-140982200D02*
X196396190Y-141029819D01*
X196396190Y-141029819D02*
X196634285Y-141029819D01*
X195681904Y-140125057D02*
X195634285Y-140077438D01*
X195634285Y-140077438D02*
X195539047Y-140029819D01*
X195539047Y-140029819D02*
X195300952Y-140029819D01*
X195300952Y-140029819D02*
X195205714Y-140077438D01*
X195205714Y-140077438D02*
X195158095Y-140125057D01*
X195158095Y-140125057D02*
X195110476Y-140220295D01*
X195110476Y-140220295D02*
X195110476Y-140315533D01*
X195110476Y-140315533D02*
X195158095Y-140458390D01*
X195158095Y-140458390D02*
X195729523Y-141029819D01*
X195729523Y-141029819D02*
X195110476Y-141029819D01*
X194253333Y-140363152D02*
X194253333Y-141029819D01*
X194491428Y-139982200D02*
X194729523Y-140696485D01*
X194729523Y-140696485D02*
X194110476Y-140696485D01*
X119958094Y-83879819D02*
X119958094Y-82879819D01*
X119958094Y-82879819D02*
X119719999Y-82879819D01*
X119719999Y-82879819D02*
X119577142Y-82927438D01*
X119577142Y-82927438D02*
X119481904Y-83022676D01*
X119481904Y-83022676D02*
X119434285Y-83117914D01*
X119434285Y-83117914D02*
X119386666Y-83308390D01*
X119386666Y-83308390D02*
X119386666Y-83451247D01*
X119386666Y-83451247D02*
X119434285Y-83641723D01*
X119434285Y-83641723D02*
X119481904Y-83736961D01*
X119481904Y-83736961D02*
X119577142Y-83832200D01*
X119577142Y-83832200D02*
X119719999Y-83879819D01*
X119719999Y-83879819D02*
X119958094Y-83879819D01*
X118434285Y-83879819D02*
X119005713Y-83879819D01*
X118719999Y-83879819D02*
X118719999Y-82879819D01*
X118719999Y-82879819D02*
X118815237Y-83022676D01*
X118815237Y-83022676D02*
X118910475Y-83117914D01*
X118910475Y-83117914D02*
X119005713Y-83165533D01*
X215684285Y-121979819D02*
X215684285Y-120979819D01*
X215684285Y-120979819D02*
X215446190Y-120979819D01*
X215446190Y-120979819D02*
X215303333Y-121027438D01*
X215303333Y-121027438D02*
X215208095Y-121122676D01*
X215208095Y-121122676D02*
X215160476Y-121217914D01*
X215160476Y-121217914D02*
X215112857Y-121408390D01*
X215112857Y-121408390D02*
X215112857Y-121551247D01*
X215112857Y-121551247D02*
X215160476Y-121741723D01*
X215160476Y-121741723D02*
X215208095Y-121836961D01*
X215208095Y-121836961D02*
X215303333Y-121932200D01*
X215303333Y-121932200D02*
X215446190Y-121979819D01*
X215446190Y-121979819D02*
X215684285Y-121979819D01*
X214731904Y-121075057D02*
X214684285Y-121027438D01*
X214684285Y-121027438D02*
X214589047Y-120979819D01*
X214589047Y-120979819D02*
X214350952Y-120979819D01*
X214350952Y-120979819D02*
X214255714Y-121027438D01*
X214255714Y-121027438D02*
X214208095Y-121075057D01*
X214208095Y-121075057D02*
X214160476Y-121170295D01*
X214160476Y-121170295D02*
X214160476Y-121265533D01*
X214160476Y-121265533D02*
X214208095Y-121408390D01*
X214208095Y-121408390D02*
X214779523Y-121979819D01*
X214779523Y-121979819D02*
X214160476Y-121979819D01*
X213255714Y-120979819D02*
X213731904Y-120979819D01*
X213731904Y-120979819D02*
X213779523Y-121456009D01*
X213779523Y-121456009D02*
X213731904Y-121408390D01*
X213731904Y-121408390D02*
X213636666Y-121360771D01*
X213636666Y-121360771D02*
X213398571Y-121360771D01*
X213398571Y-121360771D02*
X213303333Y-121408390D01*
X213303333Y-121408390D02*
X213255714Y-121456009D01*
X213255714Y-121456009D02*
X213208095Y-121551247D01*
X213208095Y-121551247D02*
X213208095Y-121789342D01*
X213208095Y-121789342D02*
X213255714Y-121884580D01*
X213255714Y-121884580D02*
X213303333Y-121932200D01*
X213303333Y-121932200D02*
X213398571Y-121979819D01*
X213398571Y-121979819D02*
X213636666Y-121979819D01*
X213636666Y-121979819D02*
X213731904Y-121932200D01*
X213731904Y-121932200D02*
X213779523Y-121884580D01*
X150429580Y-116107142D02*
X150477200Y-116059523D01*
X150477200Y-116059523D02*
X150524819Y-115916666D01*
X150524819Y-115916666D02*
X150524819Y-115821428D01*
X150524819Y-115821428D02*
X150477200Y-115678571D01*
X150477200Y-115678571D02*
X150381961Y-115583333D01*
X150381961Y-115583333D02*
X150286723Y-115535714D01*
X150286723Y-115535714D02*
X150096247Y-115488095D01*
X150096247Y-115488095D02*
X149953390Y-115488095D01*
X149953390Y-115488095D02*
X149762914Y-115535714D01*
X149762914Y-115535714D02*
X149667676Y-115583333D01*
X149667676Y-115583333D02*
X149572438Y-115678571D01*
X149572438Y-115678571D02*
X149524819Y-115821428D01*
X149524819Y-115821428D02*
X149524819Y-115916666D01*
X149524819Y-115916666D02*
X149572438Y-116059523D01*
X149572438Y-116059523D02*
X149620057Y-116107142D01*
X150524819Y-117059523D02*
X150524819Y-116488095D01*
X150524819Y-116773809D02*
X149524819Y-116773809D01*
X149524819Y-116773809D02*
X149667676Y-116678571D01*
X149667676Y-116678571D02*
X149762914Y-116583333D01*
X149762914Y-116583333D02*
X149810533Y-116488095D01*
X149524819Y-117392857D02*
X149524819Y-118059523D01*
X149524819Y-118059523D02*
X150524819Y-117630952D01*
X177584285Y-141029819D02*
X177584285Y-140029819D01*
X177584285Y-140029819D02*
X177346190Y-140029819D01*
X177346190Y-140029819D02*
X177203333Y-140077438D01*
X177203333Y-140077438D02*
X177108095Y-140172676D01*
X177108095Y-140172676D02*
X177060476Y-140267914D01*
X177060476Y-140267914D02*
X177012857Y-140458390D01*
X177012857Y-140458390D02*
X177012857Y-140601247D01*
X177012857Y-140601247D02*
X177060476Y-140791723D01*
X177060476Y-140791723D02*
X177108095Y-140886961D01*
X177108095Y-140886961D02*
X177203333Y-140982200D01*
X177203333Y-140982200D02*
X177346190Y-141029819D01*
X177346190Y-141029819D02*
X177584285Y-141029819D01*
X176631904Y-140125057D02*
X176584285Y-140077438D01*
X176584285Y-140077438D02*
X176489047Y-140029819D01*
X176489047Y-140029819D02*
X176250952Y-140029819D01*
X176250952Y-140029819D02*
X176155714Y-140077438D01*
X176155714Y-140077438D02*
X176108095Y-140125057D01*
X176108095Y-140125057D02*
X176060476Y-140220295D01*
X176060476Y-140220295D02*
X176060476Y-140315533D01*
X176060476Y-140315533D02*
X176108095Y-140458390D01*
X176108095Y-140458390D02*
X176679523Y-141029819D01*
X176679523Y-141029819D02*
X176060476Y-141029819D01*
X175679523Y-140125057D02*
X175631904Y-140077438D01*
X175631904Y-140077438D02*
X175536666Y-140029819D01*
X175536666Y-140029819D02*
X175298571Y-140029819D01*
X175298571Y-140029819D02*
X175203333Y-140077438D01*
X175203333Y-140077438D02*
X175155714Y-140125057D01*
X175155714Y-140125057D02*
X175108095Y-140220295D01*
X175108095Y-140220295D02*
X175108095Y-140315533D01*
X175108095Y-140315533D02*
X175155714Y-140458390D01*
X175155714Y-140458390D02*
X175727142Y-141029819D01*
X175727142Y-141029819D02*
X175108095Y-141029819D01*
X131679580Y-97107142D02*
X131727200Y-97059523D01*
X131727200Y-97059523D02*
X131774819Y-96916666D01*
X131774819Y-96916666D02*
X131774819Y-96821428D01*
X131774819Y-96821428D02*
X131727200Y-96678571D01*
X131727200Y-96678571D02*
X131631961Y-96583333D01*
X131631961Y-96583333D02*
X131536723Y-96535714D01*
X131536723Y-96535714D02*
X131346247Y-96488095D01*
X131346247Y-96488095D02*
X131203390Y-96488095D01*
X131203390Y-96488095D02*
X131012914Y-96535714D01*
X131012914Y-96535714D02*
X130917676Y-96583333D01*
X130917676Y-96583333D02*
X130822438Y-96678571D01*
X130822438Y-96678571D02*
X130774819Y-96821428D01*
X130774819Y-96821428D02*
X130774819Y-96916666D01*
X130774819Y-96916666D02*
X130822438Y-97059523D01*
X130822438Y-97059523D02*
X130870057Y-97107142D01*
X131774819Y-98059523D02*
X131774819Y-97488095D01*
X131774819Y-97773809D02*
X130774819Y-97773809D01*
X130774819Y-97773809D02*
X130917676Y-97678571D01*
X130917676Y-97678571D02*
X131012914Y-97583333D01*
X131012914Y-97583333D02*
X131060533Y-97488095D01*
X130774819Y-98392857D02*
X130774819Y-99011904D01*
X130774819Y-99011904D02*
X131155771Y-98678571D01*
X131155771Y-98678571D02*
X131155771Y-98821428D01*
X131155771Y-98821428D02*
X131203390Y-98916666D01*
X131203390Y-98916666D02*
X131251009Y-98964285D01*
X131251009Y-98964285D02*
X131346247Y-99011904D01*
X131346247Y-99011904D02*
X131584342Y-99011904D01*
X131584342Y-99011904D02*
X131679580Y-98964285D01*
X131679580Y-98964285D02*
X131727200Y-98916666D01*
X131727200Y-98916666D02*
X131774819Y-98821428D01*
X131774819Y-98821428D02*
X131774819Y-98535714D01*
X131774819Y-98535714D02*
X131727200Y-98440476D01*
X131727200Y-98440476D02*
X131679580Y-98392857D01*
X215142857Y-112704819D02*
X215619047Y-112704819D01*
X215619047Y-112704819D02*
X215619047Y-111704819D01*
X214857142Y-111800057D02*
X214809523Y-111752438D01*
X214809523Y-111752438D02*
X214714285Y-111704819D01*
X214714285Y-111704819D02*
X214476190Y-111704819D01*
X214476190Y-111704819D02*
X214380952Y-111752438D01*
X214380952Y-111752438D02*
X214333333Y-111800057D01*
X214333333Y-111800057D02*
X214285714Y-111895295D01*
X214285714Y-111895295D02*
X214285714Y-111990533D01*
X214285714Y-111990533D02*
X214333333Y-112133390D01*
X214333333Y-112133390D02*
X214904761Y-112704819D01*
X214904761Y-112704819D02*
X214285714Y-112704819D01*
X213666666Y-111704819D02*
X213571428Y-111704819D01*
X213571428Y-111704819D02*
X213476190Y-111752438D01*
X213476190Y-111752438D02*
X213428571Y-111800057D01*
X213428571Y-111800057D02*
X213380952Y-111895295D01*
X213380952Y-111895295D02*
X213333333Y-112085771D01*
X213333333Y-112085771D02*
X213333333Y-112323866D01*
X213333333Y-112323866D02*
X213380952Y-112514342D01*
X213380952Y-112514342D02*
X213428571Y-112609580D01*
X213428571Y-112609580D02*
X213476190Y-112657200D01*
X213476190Y-112657200D02*
X213571428Y-112704819D01*
X213571428Y-112704819D02*
X213666666Y-112704819D01*
X213666666Y-112704819D02*
X213761904Y-112657200D01*
X213761904Y-112657200D02*
X213809523Y-112609580D01*
X213809523Y-112609580D02*
X213857142Y-112514342D01*
X213857142Y-112514342D02*
X213904761Y-112323866D01*
X213904761Y-112323866D02*
X213904761Y-112085771D01*
X213904761Y-112085771D02*
X213857142Y-111895295D01*
X213857142Y-111895295D02*
X213809523Y-111800057D01*
X213809523Y-111800057D02*
X213761904Y-111752438D01*
X213761904Y-111752438D02*
X213666666Y-111704819D01*
D13*
X217871428Y-115313595D02*
X218328571Y-115313595D01*
X218099999Y-115313595D02*
X218099999Y-114513595D01*
X218099999Y-114513595D02*
X218176190Y-114627880D01*
X218176190Y-114627880D02*
X218252380Y-114704071D01*
X218252380Y-114704071D02*
X218328571Y-114742166D01*
D12*
X153959580Y-78833333D02*
X154007200Y-78785714D01*
X154007200Y-78785714D02*
X154054819Y-78642857D01*
X154054819Y-78642857D02*
X154054819Y-78547619D01*
X154054819Y-78547619D02*
X154007200Y-78404762D01*
X154007200Y-78404762D02*
X153911961Y-78309524D01*
X153911961Y-78309524D02*
X153816723Y-78261905D01*
X153816723Y-78261905D02*
X153626247Y-78214286D01*
X153626247Y-78214286D02*
X153483390Y-78214286D01*
X153483390Y-78214286D02*
X153292914Y-78261905D01*
X153292914Y-78261905D02*
X153197676Y-78309524D01*
X153197676Y-78309524D02*
X153102438Y-78404762D01*
X153102438Y-78404762D02*
X153054819Y-78547619D01*
X153054819Y-78547619D02*
X153054819Y-78642857D01*
X153054819Y-78642857D02*
X153102438Y-78785714D01*
X153102438Y-78785714D02*
X153150057Y-78833333D01*
X153054819Y-79166667D02*
X153054819Y-79785714D01*
X153054819Y-79785714D02*
X153435771Y-79452381D01*
X153435771Y-79452381D02*
X153435771Y-79595238D01*
X153435771Y-79595238D02*
X153483390Y-79690476D01*
X153483390Y-79690476D02*
X153531009Y-79738095D01*
X153531009Y-79738095D02*
X153626247Y-79785714D01*
X153626247Y-79785714D02*
X153864342Y-79785714D01*
X153864342Y-79785714D02*
X153959580Y-79738095D01*
X153959580Y-79738095D02*
X154007200Y-79690476D01*
X154007200Y-79690476D02*
X154054819Y-79595238D01*
X154054819Y-79595238D02*
X154054819Y-79309524D01*
X154054819Y-79309524D02*
X154007200Y-79214286D01*
X154007200Y-79214286D02*
X153959580Y-79166667D01*
X112679580Y-135107142D02*
X112727200Y-135059523D01*
X112727200Y-135059523D02*
X112774819Y-134916666D01*
X112774819Y-134916666D02*
X112774819Y-134821428D01*
X112774819Y-134821428D02*
X112727200Y-134678571D01*
X112727200Y-134678571D02*
X112631961Y-134583333D01*
X112631961Y-134583333D02*
X112536723Y-134535714D01*
X112536723Y-134535714D02*
X112346247Y-134488095D01*
X112346247Y-134488095D02*
X112203390Y-134488095D01*
X112203390Y-134488095D02*
X112012914Y-134535714D01*
X112012914Y-134535714D02*
X111917676Y-134583333D01*
X111917676Y-134583333D02*
X111822438Y-134678571D01*
X111822438Y-134678571D02*
X111774819Y-134821428D01*
X111774819Y-134821428D02*
X111774819Y-134916666D01*
X111774819Y-134916666D02*
X111822438Y-135059523D01*
X111822438Y-135059523D02*
X111870057Y-135107142D01*
X111870057Y-135488095D02*
X111822438Y-135535714D01*
X111822438Y-135535714D02*
X111774819Y-135630952D01*
X111774819Y-135630952D02*
X111774819Y-135869047D01*
X111774819Y-135869047D02*
X111822438Y-135964285D01*
X111822438Y-135964285D02*
X111870057Y-136011904D01*
X111870057Y-136011904D02*
X111965295Y-136059523D01*
X111965295Y-136059523D02*
X112060533Y-136059523D01*
X112060533Y-136059523D02*
X112203390Y-136011904D01*
X112203390Y-136011904D02*
X112774819Y-135440476D01*
X112774819Y-135440476D02*
X112774819Y-136059523D01*
X112203390Y-136630952D02*
X112155771Y-136535714D01*
X112155771Y-136535714D02*
X112108152Y-136488095D01*
X112108152Y-136488095D02*
X112012914Y-136440476D01*
X112012914Y-136440476D02*
X111965295Y-136440476D01*
X111965295Y-136440476D02*
X111870057Y-136488095D01*
X111870057Y-136488095D02*
X111822438Y-136535714D01*
X111822438Y-136535714D02*
X111774819Y-136630952D01*
X111774819Y-136630952D02*
X111774819Y-136821428D01*
X111774819Y-136821428D02*
X111822438Y-136916666D01*
X111822438Y-136916666D02*
X111870057Y-136964285D01*
X111870057Y-136964285D02*
X111965295Y-137011904D01*
X111965295Y-137011904D02*
X112012914Y-137011904D01*
X112012914Y-137011904D02*
X112108152Y-136964285D01*
X112108152Y-136964285D02*
X112155771Y-136916666D01*
X112155771Y-136916666D02*
X112203390Y-136821428D01*
X112203390Y-136821428D02*
X112203390Y-136630952D01*
X112203390Y-136630952D02*
X112251009Y-136535714D01*
X112251009Y-136535714D02*
X112298628Y-136488095D01*
X112298628Y-136488095D02*
X112393866Y-136440476D01*
X112393866Y-136440476D02*
X112584342Y-136440476D01*
X112584342Y-136440476D02*
X112679580Y-136488095D01*
X112679580Y-136488095D02*
X112727200Y-136535714D01*
X112727200Y-136535714D02*
X112774819Y-136630952D01*
X112774819Y-136630952D02*
X112774819Y-136821428D01*
X112774819Y-136821428D02*
X112727200Y-136916666D01*
X112727200Y-136916666D02*
X112679580Y-136964285D01*
X112679580Y-136964285D02*
X112584342Y-137011904D01*
X112584342Y-137011904D02*
X112393866Y-137011904D01*
X112393866Y-137011904D02*
X112298628Y-136964285D01*
X112298628Y-136964285D02*
X112251009Y-136916666D01*
X112251009Y-136916666D02*
X112203390Y-136821428D01*
X197124285Y-102774819D02*
X197124285Y-101774819D01*
X197124285Y-101774819D02*
X196886190Y-101774819D01*
X196886190Y-101774819D02*
X196743333Y-101822438D01*
X196743333Y-101822438D02*
X196648095Y-101917676D01*
X196648095Y-101917676D02*
X196600476Y-102012914D01*
X196600476Y-102012914D02*
X196552857Y-102203390D01*
X196552857Y-102203390D02*
X196552857Y-102346247D01*
X196552857Y-102346247D02*
X196600476Y-102536723D01*
X196600476Y-102536723D02*
X196648095Y-102631961D01*
X196648095Y-102631961D02*
X196743333Y-102727200D01*
X196743333Y-102727200D02*
X196886190Y-102774819D01*
X196886190Y-102774819D02*
X197124285Y-102774819D01*
X195600476Y-102774819D02*
X196171904Y-102774819D01*
X195886190Y-102774819D02*
X195886190Y-101774819D01*
X195886190Y-101774819D02*
X195981428Y-101917676D01*
X195981428Y-101917676D02*
X196076666Y-102012914D01*
X196076666Y-102012914D02*
X196171904Y-102060533D01*
X195219523Y-101870057D02*
X195171904Y-101822438D01*
X195171904Y-101822438D02*
X195076666Y-101774819D01*
X195076666Y-101774819D02*
X194838571Y-101774819D01*
X194838571Y-101774819D02*
X194743333Y-101822438D01*
X194743333Y-101822438D02*
X194695714Y-101870057D01*
X194695714Y-101870057D02*
X194648095Y-101965295D01*
X194648095Y-101965295D02*
X194648095Y-102060533D01*
X194648095Y-102060533D02*
X194695714Y-102203390D01*
X194695714Y-102203390D02*
X195267142Y-102774819D01*
X195267142Y-102774819D02*
X194648095Y-102774819D01*
X157892857Y-93704819D02*
X158369047Y-93704819D01*
X158369047Y-93704819D02*
X158369047Y-92704819D01*
X157035714Y-93704819D02*
X157607142Y-93704819D01*
X157321428Y-93704819D02*
X157321428Y-92704819D01*
X157321428Y-92704819D02*
X157416666Y-92847676D01*
X157416666Y-92847676D02*
X157511904Y-92942914D01*
X157511904Y-92942914D02*
X157607142Y-92990533D01*
X156654761Y-92800057D02*
X156607142Y-92752438D01*
X156607142Y-92752438D02*
X156511904Y-92704819D01*
X156511904Y-92704819D02*
X156273809Y-92704819D01*
X156273809Y-92704819D02*
X156178571Y-92752438D01*
X156178571Y-92752438D02*
X156130952Y-92800057D01*
X156130952Y-92800057D02*
X156083333Y-92895295D01*
X156083333Y-92895295D02*
X156083333Y-92990533D01*
X156083333Y-92990533D02*
X156130952Y-93133390D01*
X156130952Y-93133390D02*
X156702380Y-93704819D01*
X156702380Y-93704819D02*
X156083333Y-93704819D01*
D13*
X160621428Y-96313595D02*
X161078571Y-96313595D01*
X160849999Y-96313595D02*
X160849999Y-95513595D01*
X160849999Y-95513595D02*
X160926190Y-95627880D01*
X160926190Y-95627880D02*
X161002380Y-95704071D01*
X161002380Y-95704071D02*
X161078571Y-95742166D01*
D12*
X119958094Y-102929819D02*
X119958094Y-101929819D01*
X119958094Y-101929819D02*
X119719999Y-101929819D01*
X119719999Y-101929819D02*
X119577142Y-101977438D01*
X119577142Y-101977438D02*
X119481904Y-102072676D01*
X119481904Y-102072676D02*
X119434285Y-102167914D01*
X119434285Y-102167914D02*
X119386666Y-102358390D01*
X119386666Y-102358390D02*
X119386666Y-102501247D01*
X119386666Y-102501247D02*
X119434285Y-102691723D01*
X119434285Y-102691723D02*
X119481904Y-102786961D01*
X119481904Y-102786961D02*
X119577142Y-102882200D01*
X119577142Y-102882200D02*
X119719999Y-102929819D01*
X119719999Y-102929819D02*
X119958094Y-102929819D01*
X118815237Y-102358390D02*
X118910475Y-102310771D01*
X118910475Y-102310771D02*
X118958094Y-102263152D01*
X118958094Y-102263152D02*
X119005713Y-102167914D01*
X119005713Y-102167914D02*
X119005713Y-102120295D01*
X119005713Y-102120295D02*
X118958094Y-102025057D01*
X118958094Y-102025057D02*
X118910475Y-101977438D01*
X118910475Y-101977438D02*
X118815237Y-101929819D01*
X118815237Y-101929819D02*
X118624761Y-101929819D01*
X118624761Y-101929819D02*
X118529523Y-101977438D01*
X118529523Y-101977438D02*
X118481904Y-102025057D01*
X118481904Y-102025057D02*
X118434285Y-102120295D01*
X118434285Y-102120295D02*
X118434285Y-102167914D01*
X118434285Y-102167914D02*
X118481904Y-102263152D01*
X118481904Y-102263152D02*
X118529523Y-102310771D01*
X118529523Y-102310771D02*
X118624761Y-102358390D01*
X118624761Y-102358390D02*
X118815237Y-102358390D01*
X118815237Y-102358390D02*
X118910475Y-102406009D01*
X118910475Y-102406009D02*
X118958094Y-102453628D01*
X118958094Y-102453628D02*
X119005713Y-102548866D01*
X119005713Y-102548866D02*
X119005713Y-102739342D01*
X119005713Y-102739342D02*
X118958094Y-102834580D01*
X118958094Y-102834580D02*
X118910475Y-102882200D01*
X118910475Y-102882200D02*
X118815237Y-102929819D01*
X118815237Y-102929819D02*
X118624761Y-102929819D01*
X118624761Y-102929819D02*
X118529523Y-102882200D01*
X118529523Y-102882200D02*
X118481904Y-102834580D01*
X118481904Y-102834580D02*
X118434285Y-102739342D01*
X118434285Y-102739342D02*
X118434285Y-102548866D01*
X118434285Y-102548866D02*
X118481904Y-102453628D01*
X118481904Y-102453628D02*
X118529523Y-102406009D01*
X118529523Y-102406009D02*
X118624761Y-102358390D01*
X226929580Y-97583333D02*
X226977200Y-97535714D01*
X226977200Y-97535714D02*
X227024819Y-97392857D01*
X227024819Y-97392857D02*
X227024819Y-97297619D01*
X227024819Y-97297619D02*
X226977200Y-97154762D01*
X226977200Y-97154762D02*
X226881961Y-97059524D01*
X226881961Y-97059524D02*
X226786723Y-97011905D01*
X226786723Y-97011905D02*
X226596247Y-96964286D01*
X226596247Y-96964286D02*
X226453390Y-96964286D01*
X226453390Y-96964286D02*
X226262914Y-97011905D01*
X226262914Y-97011905D02*
X226167676Y-97059524D01*
X226167676Y-97059524D02*
X226072438Y-97154762D01*
X226072438Y-97154762D02*
X226024819Y-97297619D01*
X226024819Y-97297619D02*
X226024819Y-97392857D01*
X226024819Y-97392857D02*
X226072438Y-97535714D01*
X226072438Y-97535714D02*
X226120057Y-97583333D01*
X226453390Y-98154762D02*
X226405771Y-98059524D01*
X226405771Y-98059524D02*
X226358152Y-98011905D01*
X226358152Y-98011905D02*
X226262914Y-97964286D01*
X226262914Y-97964286D02*
X226215295Y-97964286D01*
X226215295Y-97964286D02*
X226120057Y-98011905D01*
X226120057Y-98011905D02*
X226072438Y-98059524D01*
X226072438Y-98059524D02*
X226024819Y-98154762D01*
X226024819Y-98154762D02*
X226024819Y-98345238D01*
X226024819Y-98345238D02*
X226072438Y-98440476D01*
X226072438Y-98440476D02*
X226120057Y-98488095D01*
X226120057Y-98488095D02*
X226215295Y-98535714D01*
X226215295Y-98535714D02*
X226262914Y-98535714D01*
X226262914Y-98535714D02*
X226358152Y-98488095D01*
X226358152Y-98488095D02*
X226405771Y-98440476D01*
X226405771Y-98440476D02*
X226453390Y-98345238D01*
X226453390Y-98345238D02*
X226453390Y-98154762D01*
X226453390Y-98154762D02*
X226501009Y-98059524D01*
X226501009Y-98059524D02*
X226548628Y-98011905D01*
X226548628Y-98011905D02*
X226643866Y-97964286D01*
X226643866Y-97964286D02*
X226834342Y-97964286D01*
X226834342Y-97964286D02*
X226929580Y-98011905D01*
X226929580Y-98011905D02*
X226977200Y-98059524D01*
X226977200Y-98059524D02*
X227024819Y-98154762D01*
X227024819Y-98154762D02*
X227024819Y-98345238D01*
X227024819Y-98345238D02*
X226977200Y-98440476D01*
X226977200Y-98440476D02*
X226929580Y-98488095D01*
X226929580Y-98488095D02*
X226834342Y-98535714D01*
X226834342Y-98535714D02*
X226643866Y-98535714D01*
X226643866Y-98535714D02*
X226548628Y-98488095D01*
X226548628Y-98488095D02*
X226501009Y-98440476D01*
X226501009Y-98440476D02*
X226453390Y-98345238D01*
X139484285Y-121979819D02*
X139484285Y-120979819D01*
X139484285Y-120979819D02*
X139246190Y-120979819D01*
X139246190Y-120979819D02*
X139103333Y-121027438D01*
X139103333Y-121027438D02*
X139008095Y-121122676D01*
X139008095Y-121122676D02*
X138960476Y-121217914D01*
X138960476Y-121217914D02*
X138912857Y-121408390D01*
X138912857Y-121408390D02*
X138912857Y-121551247D01*
X138912857Y-121551247D02*
X138960476Y-121741723D01*
X138960476Y-121741723D02*
X139008095Y-121836961D01*
X139008095Y-121836961D02*
X139103333Y-121932200D01*
X139103333Y-121932200D02*
X139246190Y-121979819D01*
X139246190Y-121979819D02*
X139484285Y-121979819D01*
X137960476Y-121979819D02*
X138531904Y-121979819D01*
X138246190Y-121979819D02*
X138246190Y-120979819D01*
X138246190Y-120979819D02*
X138341428Y-121122676D01*
X138341428Y-121122676D02*
X138436666Y-121217914D01*
X138436666Y-121217914D02*
X138531904Y-121265533D01*
X137389047Y-121408390D02*
X137484285Y-121360771D01*
X137484285Y-121360771D02*
X137531904Y-121313152D01*
X137531904Y-121313152D02*
X137579523Y-121217914D01*
X137579523Y-121217914D02*
X137579523Y-121170295D01*
X137579523Y-121170295D02*
X137531904Y-121075057D01*
X137531904Y-121075057D02*
X137484285Y-121027438D01*
X137484285Y-121027438D02*
X137389047Y-120979819D01*
X137389047Y-120979819D02*
X137198571Y-120979819D01*
X137198571Y-120979819D02*
X137103333Y-121027438D01*
X137103333Y-121027438D02*
X137055714Y-121075057D01*
X137055714Y-121075057D02*
X137008095Y-121170295D01*
X137008095Y-121170295D02*
X137008095Y-121217914D01*
X137008095Y-121217914D02*
X137055714Y-121313152D01*
X137055714Y-121313152D02*
X137103333Y-121360771D01*
X137103333Y-121360771D02*
X137198571Y-121408390D01*
X137198571Y-121408390D02*
X137389047Y-121408390D01*
X137389047Y-121408390D02*
X137484285Y-121456009D01*
X137484285Y-121456009D02*
X137531904Y-121503628D01*
X137531904Y-121503628D02*
X137579523Y-121598866D01*
X137579523Y-121598866D02*
X137579523Y-121789342D01*
X137579523Y-121789342D02*
X137531904Y-121884580D01*
X137531904Y-121884580D02*
X137484285Y-121932200D01*
X137484285Y-121932200D02*
X137389047Y-121979819D01*
X137389047Y-121979819D02*
X137198571Y-121979819D01*
X137198571Y-121979819D02*
X137103333Y-121932200D01*
X137103333Y-121932200D02*
X137055714Y-121884580D01*
X137055714Y-121884580D02*
X137008095Y-121789342D01*
X137008095Y-121789342D02*
X137008095Y-121598866D01*
X137008095Y-121598866D02*
X137055714Y-121503628D01*
X137055714Y-121503628D02*
X137103333Y-121456009D01*
X137103333Y-121456009D02*
X137198571Y-121408390D01*
X188929580Y-135057142D02*
X188977200Y-135009523D01*
X188977200Y-135009523D02*
X189024819Y-134866666D01*
X189024819Y-134866666D02*
X189024819Y-134771428D01*
X189024819Y-134771428D02*
X188977200Y-134628571D01*
X188977200Y-134628571D02*
X188881961Y-134533333D01*
X188881961Y-134533333D02*
X188786723Y-134485714D01*
X188786723Y-134485714D02*
X188596247Y-134438095D01*
X188596247Y-134438095D02*
X188453390Y-134438095D01*
X188453390Y-134438095D02*
X188262914Y-134485714D01*
X188262914Y-134485714D02*
X188167676Y-134533333D01*
X188167676Y-134533333D02*
X188072438Y-134628571D01*
X188072438Y-134628571D02*
X188024819Y-134771428D01*
X188024819Y-134771428D02*
X188024819Y-134866666D01*
X188024819Y-134866666D02*
X188072438Y-135009523D01*
X188072438Y-135009523D02*
X188120057Y-135057142D01*
X188120057Y-135438095D02*
X188072438Y-135485714D01*
X188072438Y-135485714D02*
X188024819Y-135580952D01*
X188024819Y-135580952D02*
X188024819Y-135819047D01*
X188024819Y-135819047D02*
X188072438Y-135914285D01*
X188072438Y-135914285D02*
X188120057Y-135961904D01*
X188120057Y-135961904D02*
X188215295Y-136009523D01*
X188215295Y-136009523D02*
X188310533Y-136009523D01*
X188310533Y-136009523D02*
X188453390Y-135961904D01*
X188453390Y-135961904D02*
X189024819Y-135390476D01*
X189024819Y-135390476D02*
X189024819Y-136009523D01*
X188358152Y-136866666D02*
X189024819Y-136866666D01*
X187977200Y-136628571D02*
X188691485Y-136390476D01*
X188691485Y-136390476D02*
X188691485Y-137009523D01*
X215142857Y-131829819D02*
X215619047Y-131829819D01*
X215619047Y-131829819D02*
X215619047Y-130829819D01*
X214857142Y-130925057D02*
X214809523Y-130877438D01*
X214809523Y-130877438D02*
X214714285Y-130829819D01*
X214714285Y-130829819D02*
X214476190Y-130829819D01*
X214476190Y-130829819D02*
X214380952Y-130877438D01*
X214380952Y-130877438D02*
X214333333Y-130925057D01*
X214333333Y-130925057D02*
X214285714Y-131020295D01*
X214285714Y-131020295D02*
X214285714Y-131115533D01*
X214285714Y-131115533D02*
X214333333Y-131258390D01*
X214333333Y-131258390D02*
X214904761Y-131829819D01*
X214904761Y-131829819D02*
X214285714Y-131829819D01*
X213952380Y-130829819D02*
X213333333Y-130829819D01*
X213333333Y-130829819D02*
X213666666Y-131210771D01*
X213666666Y-131210771D02*
X213523809Y-131210771D01*
X213523809Y-131210771D02*
X213428571Y-131258390D01*
X213428571Y-131258390D02*
X213380952Y-131306009D01*
X213380952Y-131306009D02*
X213333333Y-131401247D01*
X213333333Y-131401247D02*
X213333333Y-131639342D01*
X213333333Y-131639342D02*
X213380952Y-131734580D01*
X213380952Y-131734580D02*
X213428571Y-131782200D01*
X213428571Y-131782200D02*
X213523809Y-131829819D01*
X213523809Y-131829819D02*
X213809523Y-131829819D01*
X213809523Y-131829819D02*
X213904761Y-131782200D01*
X213904761Y-131782200D02*
X213952380Y-131734580D01*
D13*
X217871428Y-134438595D02*
X218328571Y-134438595D01*
X218099999Y-134438595D02*
X218099999Y-133638595D01*
X218099999Y-133638595D02*
X218176190Y-133752880D01*
X218176190Y-133752880D02*
X218252380Y-133829071D01*
X218252380Y-133829071D02*
X218328571Y-133867166D01*
D12*
X196158094Y-83879819D02*
X196158094Y-82879819D01*
X196158094Y-82879819D02*
X195919999Y-82879819D01*
X195919999Y-82879819D02*
X195777142Y-82927438D01*
X195777142Y-82927438D02*
X195681904Y-83022676D01*
X195681904Y-83022676D02*
X195634285Y-83117914D01*
X195634285Y-83117914D02*
X195586666Y-83308390D01*
X195586666Y-83308390D02*
X195586666Y-83451247D01*
X195586666Y-83451247D02*
X195634285Y-83641723D01*
X195634285Y-83641723D02*
X195681904Y-83736961D01*
X195681904Y-83736961D02*
X195777142Y-83832200D01*
X195777142Y-83832200D02*
X195919999Y-83879819D01*
X195919999Y-83879819D02*
X196158094Y-83879819D01*
X194681904Y-82879819D02*
X195158094Y-82879819D01*
X195158094Y-82879819D02*
X195205713Y-83356009D01*
X195205713Y-83356009D02*
X195158094Y-83308390D01*
X195158094Y-83308390D02*
X195062856Y-83260771D01*
X195062856Y-83260771D02*
X194824761Y-83260771D01*
X194824761Y-83260771D02*
X194729523Y-83308390D01*
X194729523Y-83308390D02*
X194681904Y-83356009D01*
X194681904Y-83356009D02*
X194634285Y-83451247D01*
X194634285Y-83451247D02*
X194634285Y-83689342D01*
X194634285Y-83689342D02*
X194681904Y-83784580D01*
X194681904Y-83784580D02*
X194729523Y-83832200D01*
X194729523Y-83832200D02*
X194824761Y-83879819D01*
X194824761Y-83879819D02*
X195062856Y-83879819D01*
X195062856Y-83879819D02*
X195158094Y-83832200D01*
X195158094Y-83832200D02*
X195205713Y-83784580D01*
X169679580Y-97057142D02*
X169727200Y-97009523D01*
X169727200Y-97009523D02*
X169774819Y-96866666D01*
X169774819Y-96866666D02*
X169774819Y-96771428D01*
X169774819Y-96771428D02*
X169727200Y-96628571D01*
X169727200Y-96628571D02*
X169631961Y-96533333D01*
X169631961Y-96533333D02*
X169536723Y-96485714D01*
X169536723Y-96485714D02*
X169346247Y-96438095D01*
X169346247Y-96438095D02*
X169203390Y-96438095D01*
X169203390Y-96438095D02*
X169012914Y-96485714D01*
X169012914Y-96485714D02*
X168917676Y-96533333D01*
X168917676Y-96533333D02*
X168822438Y-96628571D01*
X168822438Y-96628571D02*
X168774819Y-96771428D01*
X168774819Y-96771428D02*
X168774819Y-96866666D01*
X168774819Y-96866666D02*
X168822438Y-97009523D01*
X168822438Y-97009523D02*
X168870057Y-97057142D01*
X169774819Y-98009523D02*
X169774819Y-97438095D01*
X169774819Y-97723809D02*
X168774819Y-97723809D01*
X168774819Y-97723809D02*
X168917676Y-97628571D01*
X168917676Y-97628571D02*
X169012914Y-97533333D01*
X169012914Y-97533333D02*
X169060533Y-97438095D01*
X169774819Y-98961904D02*
X169774819Y-98390476D01*
X169774819Y-98676190D02*
X168774819Y-98676190D01*
X168774819Y-98676190D02*
X168917676Y-98580952D01*
X168917676Y-98580952D02*
X169012914Y-98485714D01*
X169012914Y-98485714D02*
X169060533Y-98390476D01*
X116039580Y-78833333D02*
X116087200Y-78785714D01*
X116087200Y-78785714D02*
X116134819Y-78642857D01*
X116134819Y-78642857D02*
X116134819Y-78547619D01*
X116134819Y-78547619D02*
X116087200Y-78404762D01*
X116087200Y-78404762D02*
X115991961Y-78309524D01*
X115991961Y-78309524D02*
X115896723Y-78261905D01*
X115896723Y-78261905D02*
X115706247Y-78214286D01*
X115706247Y-78214286D02*
X115563390Y-78214286D01*
X115563390Y-78214286D02*
X115372914Y-78261905D01*
X115372914Y-78261905D02*
X115277676Y-78309524D01*
X115277676Y-78309524D02*
X115182438Y-78404762D01*
X115182438Y-78404762D02*
X115134819Y-78547619D01*
X115134819Y-78547619D02*
X115134819Y-78642857D01*
X115134819Y-78642857D02*
X115182438Y-78785714D01*
X115182438Y-78785714D02*
X115230057Y-78833333D01*
X116134819Y-79785714D02*
X116134819Y-79214286D01*
X116134819Y-79500000D02*
X115134819Y-79500000D01*
X115134819Y-79500000D02*
X115277676Y-79404762D01*
X115277676Y-79404762D02*
X115372914Y-79309524D01*
X115372914Y-79309524D02*
X115420533Y-79214286D01*
X234258094Y-83879819D02*
X234258094Y-82879819D01*
X234258094Y-82879819D02*
X234019999Y-82879819D01*
X234019999Y-82879819D02*
X233877142Y-82927438D01*
X233877142Y-82927438D02*
X233781904Y-83022676D01*
X233781904Y-83022676D02*
X233734285Y-83117914D01*
X233734285Y-83117914D02*
X233686666Y-83308390D01*
X233686666Y-83308390D02*
X233686666Y-83451247D01*
X233686666Y-83451247D02*
X233734285Y-83641723D01*
X233734285Y-83641723D02*
X233781904Y-83736961D01*
X233781904Y-83736961D02*
X233877142Y-83832200D01*
X233877142Y-83832200D02*
X234019999Y-83879819D01*
X234019999Y-83879819D02*
X234258094Y-83879819D01*
X233353332Y-82879819D02*
X232686666Y-82879819D01*
X232686666Y-82879819D02*
X233115237Y-83879819D01*
X196142857Y-131704819D02*
X196619047Y-131704819D01*
X196619047Y-131704819D02*
X196619047Y-130704819D01*
X195857142Y-130800057D02*
X195809523Y-130752438D01*
X195809523Y-130752438D02*
X195714285Y-130704819D01*
X195714285Y-130704819D02*
X195476190Y-130704819D01*
X195476190Y-130704819D02*
X195380952Y-130752438D01*
X195380952Y-130752438D02*
X195333333Y-130800057D01*
X195333333Y-130800057D02*
X195285714Y-130895295D01*
X195285714Y-130895295D02*
X195285714Y-130990533D01*
X195285714Y-130990533D02*
X195333333Y-131133390D01*
X195333333Y-131133390D02*
X195904761Y-131704819D01*
X195904761Y-131704819D02*
X195285714Y-131704819D01*
X194428571Y-131038152D02*
X194428571Y-131704819D01*
X194666666Y-130657200D02*
X194904761Y-131371485D01*
X194904761Y-131371485D02*
X194285714Y-131371485D01*
D13*
X198871428Y-134313595D02*
X199328571Y-134313595D01*
X199099999Y-134313595D02*
X199099999Y-133513595D01*
X199099999Y-133513595D02*
X199176190Y-133627880D01*
X199176190Y-133627880D02*
X199252380Y-133704071D01*
X199252380Y-133704071D02*
X199328571Y-133742166D01*
D12*
X131679580Y-116107142D02*
X131727200Y-116059523D01*
X131727200Y-116059523D02*
X131774819Y-115916666D01*
X131774819Y-115916666D02*
X131774819Y-115821428D01*
X131774819Y-115821428D02*
X131727200Y-115678571D01*
X131727200Y-115678571D02*
X131631961Y-115583333D01*
X131631961Y-115583333D02*
X131536723Y-115535714D01*
X131536723Y-115535714D02*
X131346247Y-115488095D01*
X131346247Y-115488095D02*
X131203390Y-115488095D01*
X131203390Y-115488095D02*
X131012914Y-115535714D01*
X131012914Y-115535714D02*
X130917676Y-115583333D01*
X130917676Y-115583333D02*
X130822438Y-115678571D01*
X130822438Y-115678571D02*
X130774819Y-115821428D01*
X130774819Y-115821428D02*
X130774819Y-115916666D01*
X130774819Y-115916666D02*
X130822438Y-116059523D01*
X130822438Y-116059523D02*
X130870057Y-116107142D01*
X131774819Y-117059523D02*
X131774819Y-116488095D01*
X131774819Y-116773809D02*
X130774819Y-116773809D01*
X130774819Y-116773809D02*
X130917676Y-116678571D01*
X130917676Y-116678571D02*
X131012914Y-116583333D01*
X131012914Y-116583333D02*
X131060533Y-116488095D01*
X130774819Y-117916666D02*
X130774819Y-117726190D01*
X130774819Y-117726190D02*
X130822438Y-117630952D01*
X130822438Y-117630952D02*
X130870057Y-117583333D01*
X130870057Y-117583333D02*
X131012914Y-117488095D01*
X131012914Y-117488095D02*
X131203390Y-117440476D01*
X131203390Y-117440476D02*
X131584342Y-117440476D01*
X131584342Y-117440476D02*
X131679580Y-117488095D01*
X131679580Y-117488095D02*
X131727200Y-117535714D01*
X131727200Y-117535714D02*
X131774819Y-117630952D01*
X131774819Y-117630952D02*
X131774819Y-117821428D01*
X131774819Y-117821428D02*
X131727200Y-117916666D01*
X131727200Y-117916666D02*
X131679580Y-117964285D01*
X131679580Y-117964285D02*
X131584342Y-118011904D01*
X131584342Y-118011904D02*
X131346247Y-118011904D01*
X131346247Y-118011904D02*
X131251009Y-117964285D01*
X131251009Y-117964285D02*
X131203390Y-117916666D01*
X131203390Y-117916666D02*
X131155771Y-117821428D01*
X131155771Y-117821428D02*
X131155771Y-117630952D01*
X131155771Y-117630952D02*
X131203390Y-117535714D01*
X131203390Y-117535714D02*
X131251009Y-117488095D01*
X131251009Y-117488095D02*
X131346247Y-117440476D01*
X135039580Y-78833333D02*
X135087200Y-78785714D01*
X135087200Y-78785714D02*
X135134819Y-78642857D01*
X135134819Y-78642857D02*
X135134819Y-78547619D01*
X135134819Y-78547619D02*
X135087200Y-78404762D01*
X135087200Y-78404762D02*
X134991961Y-78309524D01*
X134991961Y-78309524D02*
X134896723Y-78261905D01*
X134896723Y-78261905D02*
X134706247Y-78214286D01*
X134706247Y-78214286D02*
X134563390Y-78214286D01*
X134563390Y-78214286D02*
X134372914Y-78261905D01*
X134372914Y-78261905D02*
X134277676Y-78309524D01*
X134277676Y-78309524D02*
X134182438Y-78404762D01*
X134182438Y-78404762D02*
X134134819Y-78547619D01*
X134134819Y-78547619D02*
X134134819Y-78642857D01*
X134134819Y-78642857D02*
X134182438Y-78785714D01*
X134182438Y-78785714D02*
X134230057Y-78833333D01*
X134230057Y-79214286D02*
X134182438Y-79261905D01*
X134182438Y-79261905D02*
X134134819Y-79357143D01*
X134134819Y-79357143D02*
X134134819Y-79595238D01*
X134134819Y-79595238D02*
X134182438Y-79690476D01*
X134182438Y-79690476D02*
X134230057Y-79738095D01*
X134230057Y-79738095D02*
X134325295Y-79785714D01*
X134325295Y-79785714D02*
X134420533Y-79785714D01*
X134420533Y-79785714D02*
X134563390Y-79738095D01*
X134563390Y-79738095D02*
X135134819Y-79166667D01*
X135134819Y-79166667D02*
X135134819Y-79785714D01*
X119892857Y-131829819D02*
X120369047Y-131829819D01*
X120369047Y-131829819D02*
X120369047Y-130829819D01*
X119607142Y-130925057D02*
X119559523Y-130877438D01*
X119559523Y-130877438D02*
X119464285Y-130829819D01*
X119464285Y-130829819D02*
X119226190Y-130829819D01*
X119226190Y-130829819D02*
X119130952Y-130877438D01*
X119130952Y-130877438D02*
X119083333Y-130925057D01*
X119083333Y-130925057D02*
X119035714Y-131020295D01*
X119035714Y-131020295D02*
X119035714Y-131115533D01*
X119035714Y-131115533D02*
X119083333Y-131258390D01*
X119083333Y-131258390D02*
X119654761Y-131829819D01*
X119654761Y-131829819D02*
X119035714Y-131829819D01*
X118464285Y-131258390D02*
X118559523Y-131210771D01*
X118559523Y-131210771D02*
X118607142Y-131163152D01*
X118607142Y-131163152D02*
X118654761Y-131067914D01*
X118654761Y-131067914D02*
X118654761Y-131020295D01*
X118654761Y-131020295D02*
X118607142Y-130925057D01*
X118607142Y-130925057D02*
X118559523Y-130877438D01*
X118559523Y-130877438D02*
X118464285Y-130829819D01*
X118464285Y-130829819D02*
X118273809Y-130829819D01*
X118273809Y-130829819D02*
X118178571Y-130877438D01*
X118178571Y-130877438D02*
X118130952Y-130925057D01*
X118130952Y-130925057D02*
X118083333Y-131020295D01*
X118083333Y-131020295D02*
X118083333Y-131067914D01*
X118083333Y-131067914D02*
X118130952Y-131163152D01*
X118130952Y-131163152D02*
X118178571Y-131210771D01*
X118178571Y-131210771D02*
X118273809Y-131258390D01*
X118273809Y-131258390D02*
X118464285Y-131258390D01*
X118464285Y-131258390D02*
X118559523Y-131306009D01*
X118559523Y-131306009D02*
X118607142Y-131353628D01*
X118607142Y-131353628D02*
X118654761Y-131448866D01*
X118654761Y-131448866D02*
X118654761Y-131639342D01*
X118654761Y-131639342D02*
X118607142Y-131734580D01*
X118607142Y-131734580D02*
X118559523Y-131782200D01*
X118559523Y-131782200D02*
X118464285Y-131829819D01*
X118464285Y-131829819D02*
X118273809Y-131829819D01*
X118273809Y-131829819D02*
X118178571Y-131782200D01*
X118178571Y-131782200D02*
X118130952Y-131734580D01*
X118130952Y-131734580D02*
X118083333Y-131639342D01*
X118083333Y-131639342D02*
X118083333Y-131448866D01*
X118083333Y-131448866D02*
X118130952Y-131353628D01*
X118130952Y-131353628D02*
X118178571Y-131306009D01*
X118178571Y-131306009D02*
X118273809Y-131258390D01*
D13*
X122621428Y-134438595D02*
X123078571Y-134438595D01*
X122849999Y-134438595D02*
X122849999Y-133638595D01*
X122849999Y-133638595D02*
X122926190Y-133752880D01*
X122926190Y-133752880D02*
X123002380Y-133829071D01*
X123002380Y-133829071D02*
X123078571Y-133867166D01*
D12*
X234142857Y-112704819D02*
X234619047Y-112704819D01*
X234619047Y-112704819D02*
X234619047Y-111704819D01*
X233857142Y-111800057D02*
X233809523Y-111752438D01*
X233809523Y-111752438D02*
X233714285Y-111704819D01*
X233714285Y-111704819D02*
X233476190Y-111704819D01*
X233476190Y-111704819D02*
X233380952Y-111752438D01*
X233380952Y-111752438D02*
X233333333Y-111800057D01*
X233333333Y-111800057D02*
X233285714Y-111895295D01*
X233285714Y-111895295D02*
X233285714Y-111990533D01*
X233285714Y-111990533D02*
X233333333Y-112133390D01*
X233333333Y-112133390D02*
X233904761Y-112704819D01*
X233904761Y-112704819D02*
X233285714Y-112704819D01*
X232333333Y-112704819D02*
X232904761Y-112704819D01*
X232619047Y-112704819D02*
X232619047Y-111704819D01*
X232619047Y-111704819D02*
X232714285Y-111847676D01*
X232714285Y-111847676D02*
X232809523Y-111942914D01*
X232809523Y-111942914D02*
X232904761Y-111990533D01*
D13*
X236871428Y-115313595D02*
X237328571Y-115313595D01*
X237099999Y-115313595D02*
X237099999Y-114513595D01*
X237099999Y-114513595D02*
X237176190Y-114627880D01*
X237176190Y-114627880D02*
X237252380Y-114704071D01*
X237252380Y-114704071D02*
X237328571Y-114742166D01*
D12*
X158058094Y-83879819D02*
X158058094Y-82879819D01*
X158058094Y-82879819D02*
X157819999Y-82879819D01*
X157819999Y-82879819D02*
X157677142Y-82927438D01*
X157677142Y-82927438D02*
X157581904Y-83022676D01*
X157581904Y-83022676D02*
X157534285Y-83117914D01*
X157534285Y-83117914D02*
X157486666Y-83308390D01*
X157486666Y-83308390D02*
X157486666Y-83451247D01*
X157486666Y-83451247D02*
X157534285Y-83641723D01*
X157534285Y-83641723D02*
X157581904Y-83736961D01*
X157581904Y-83736961D02*
X157677142Y-83832200D01*
X157677142Y-83832200D02*
X157819999Y-83879819D01*
X157819999Y-83879819D02*
X158058094Y-83879819D01*
X157153332Y-82879819D02*
X156534285Y-82879819D01*
X156534285Y-82879819D02*
X156867618Y-83260771D01*
X156867618Y-83260771D02*
X156724761Y-83260771D01*
X156724761Y-83260771D02*
X156629523Y-83308390D01*
X156629523Y-83308390D02*
X156581904Y-83356009D01*
X156581904Y-83356009D02*
X156534285Y-83451247D01*
X156534285Y-83451247D02*
X156534285Y-83689342D01*
X156534285Y-83689342D02*
X156581904Y-83784580D01*
X156581904Y-83784580D02*
X156629523Y-83832200D01*
X156629523Y-83832200D02*
X156724761Y-83879819D01*
X156724761Y-83879819D02*
X157010475Y-83879819D01*
X157010475Y-83879819D02*
X157105713Y-83832200D01*
X157105713Y-83832200D02*
X157153332Y-83784580D01*
X176892857Y-112704819D02*
X177369047Y-112704819D01*
X177369047Y-112704819D02*
X177369047Y-111704819D01*
X176035714Y-112704819D02*
X176607142Y-112704819D01*
X176321428Y-112704819D02*
X176321428Y-111704819D01*
X176321428Y-111704819D02*
X176416666Y-111847676D01*
X176416666Y-111847676D02*
X176511904Y-111942914D01*
X176511904Y-111942914D02*
X176607142Y-111990533D01*
X175464285Y-112133390D02*
X175559523Y-112085771D01*
X175559523Y-112085771D02*
X175607142Y-112038152D01*
X175607142Y-112038152D02*
X175654761Y-111942914D01*
X175654761Y-111942914D02*
X175654761Y-111895295D01*
X175654761Y-111895295D02*
X175607142Y-111800057D01*
X175607142Y-111800057D02*
X175559523Y-111752438D01*
X175559523Y-111752438D02*
X175464285Y-111704819D01*
X175464285Y-111704819D02*
X175273809Y-111704819D01*
X175273809Y-111704819D02*
X175178571Y-111752438D01*
X175178571Y-111752438D02*
X175130952Y-111800057D01*
X175130952Y-111800057D02*
X175083333Y-111895295D01*
X175083333Y-111895295D02*
X175083333Y-111942914D01*
X175083333Y-111942914D02*
X175130952Y-112038152D01*
X175130952Y-112038152D02*
X175178571Y-112085771D01*
X175178571Y-112085771D02*
X175273809Y-112133390D01*
X175273809Y-112133390D02*
X175464285Y-112133390D01*
X175464285Y-112133390D02*
X175559523Y-112181009D01*
X175559523Y-112181009D02*
X175607142Y-112228628D01*
X175607142Y-112228628D02*
X175654761Y-112323866D01*
X175654761Y-112323866D02*
X175654761Y-112514342D01*
X175654761Y-112514342D02*
X175607142Y-112609580D01*
X175607142Y-112609580D02*
X175559523Y-112657200D01*
X175559523Y-112657200D02*
X175464285Y-112704819D01*
X175464285Y-112704819D02*
X175273809Y-112704819D01*
X175273809Y-112704819D02*
X175178571Y-112657200D01*
X175178571Y-112657200D02*
X175130952Y-112609580D01*
X175130952Y-112609580D02*
X175083333Y-112514342D01*
X175083333Y-112514342D02*
X175083333Y-112323866D01*
X175083333Y-112323866D02*
X175130952Y-112228628D01*
X175130952Y-112228628D02*
X175178571Y-112181009D01*
X175178571Y-112181009D02*
X175273809Y-112133390D01*
D13*
X179621428Y-115313595D02*
X180078571Y-115313595D01*
X179849999Y-115313595D02*
X179849999Y-114513595D01*
X179849999Y-114513595D02*
X179926190Y-114627880D01*
X179926190Y-114627880D02*
X180002380Y-114704071D01*
X180002380Y-114704071D02*
X180078571Y-114742166D01*
D12*
X139484285Y-141029819D02*
X139484285Y-140029819D01*
X139484285Y-140029819D02*
X139246190Y-140029819D01*
X139246190Y-140029819D02*
X139103333Y-140077438D01*
X139103333Y-140077438D02*
X139008095Y-140172676D01*
X139008095Y-140172676D02*
X138960476Y-140267914D01*
X138960476Y-140267914D02*
X138912857Y-140458390D01*
X138912857Y-140458390D02*
X138912857Y-140601247D01*
X138912857Y-140601247D02*
X138960476Y-140791723D01*
X138960476Y-140791723D02*
X139008095Y-140886961D01*
X139008095Y-140886961D02*
X139103333Y-140982200D01*
X139103333Y-140982200D02*
X139246190Y-141029819D01*
X139246190Y-141029819D02*
X139484285Y-141029819D01*
X137960476Y-141029819D02*
X138531904Y-141029819D01*
X138246190Y-141029819D02*
X138246190Y-140029819D01*
X138246190Y-140029819D02*
X138341428Y-140172676D01*
X138341428Y-140172676D02*
X138436666Y-140267914D01*
X138436666Y-140267914D02*
X138531904Y-140315533D01*
X137627142Y-140029819D02*
X136960476Y-140029819D01*
X136960476Y-140029819D02*
X137389047Y-141029819D01*
X196142857Y-93704819D02*
X196619047Y-93704819D01*
X196619047Y-93704819D02*
X196619047Y-92704819D01*
X195285714Y-93704819D02*
X195857142Y-93704819D01*
X195571428Y-93704819D02*
X195571428Y-92704819D01*
X195571428Y-92704819D02*
X195666666Y-92847676D01*
X195666666Y-92847676D02*
X195761904Y-92942914D01*
X195761904Y-92942914D02*
X195857142Y-92990533D01*
X194666666Y-92704819D02*
X194571428Y-92704819D01*
X194571428Y-92704819D02*
X194476190Y-92752438D01*
X194476190Y-92752438D02*
X194428571Y-92800057D01*
X194428571Y-92800057D02*
X194380952Y-92895295D01*
X194380952Y-92895295D02*
X194333333Y-93085771D01*
X194333333Y-93085771D02*
X194333333Y-93323866D01*
X194333333Y-93323866D02*
X194380952Y-93514342D01*
X194380952Y-93514342D02*
X194428571Y-93609580D01*
X194428571Y-93609580D02*
X194476190Y-93657200D01*
X194476190Y-93657200D02*
X194571428Y-93704819D01*
X194571428Y-93704819D02*
X194666666Y-93704819D01*
X194666666Y-93704819D02*
X194761904Y-93657200D01*
X194761904Y-93657200D02*
X194809523Y-93609580D01*
X194809523Y-93609580D02*
X194857142Y-93514342D01*
X194857142Y-93514342D02*
X194904761Y-93323866D01*
X194904761Y-93323866D02*
X194904761Y-93085771D01*
X194904761Y-93085771D02*
X194857142Y-92895295D01*
X194857142Y-92895295D02*
X194809523Y-92800057D01*
X194809523Y-92800057D02*
X194761904Y-92752438D01*
X194761904Y-92752438D02*
X194666666Y-92704819D01*
D13*
X198871428Y-96313595D02*
X199328571Y-96313595D01*
X199099999Y-96313595D02*
X199099999Y-95513595D01*
X199099999Y-95513595D02*
X199176190Y-95627880D01*
X199176190Y-95627880D02*
X199252380Y-95704071D01*
X199252380Y-95704071D02*
X199328571Y-95742166D01*
D12*
X214034285Y-141029819D02*
X214034285Y-140029819D01*
X214034285Y-140029819D02*
X213796190Y-140029819D01*
X213796190Y-140029819D02*
X213653333Y-140077438D01*
X213653333Y-140077438D02*
X213558095Y-140172676D01*
X213558095Y-140172676D02*
X213510476Y-140267914D01*
X213510476Y-140267914D02*
X213462857Y-140458390D01*
X213462857Y-140458390D02*
X213462857Y-140601247D01*
X213462857Y-140601247D02*
X213510476Y-140791723D01*
X213510476Y-140791723D02*
X213558095Y-140886961D01*
X213558095Y-140886961D02*
X213653333Y-140982200D01*
X213653333Y-140982200D02*
X213796190Y-141029819D01*
X213796190Y-141029819D02*
X214034285Y-141029819D01*
X213081904Y-140125057D02*
X213034285Y-140077438D01*
X213034285Y-140077438D02*
X212939047Y-140029819D01*
X212939047Y-140029819D02*
X212700952Y-140029819D01*
X212700952Y-140029819D02*
X212605714Y-140077438D01*
X212605714Y-140077438D02*
X212558095Y-140125057D01*
X212558095Y-140125057D02*
X212510476Y-140220295D01*
X212510476Y-140220295D02*
X212510476Y-140315533D01*
X212510476Y-140315533D02*
X212558095Y-140458390D01*
X212558095Y-140458390D02*
X213129523Y-141029819D01*
X213129523Y-141029819D02*
X212510476Y-141029819D01*
X211653333Y-140029819D02*
X211843809Y-140029819D01*
X211843809Y-140029819D02*
X211939047Y-140077438D01*
X211939047Y-140077438D02*
X211986666Y-140125057D01*
X211986666Y-140125057D02*
X212081904Y-140267914D01*
X212081904Y-140267914D02*
X212129523Y-140458390D01*
X212129523Y-140458390D02*
X212129523Y-140839342D01*
X212129523Y-140839342D02*
X212081904Y-140934580D01*
X212081904Y-140934580D02*
X212034285Y-140982200D01*
X212034285Y-140982200D02*
X211939047Y-141029819D01*
X211939047Y-141029819D02*
X211748571Y-141029819D01*
X211748571Y-141029819D02*
X211653333Y-140982200D01*
X211653333Y-140982200D02*
X211605714Y-140934580D01*
X211605714Y-140934580D02*
X211558095Y-140839342D01*
X211558095Y-140839342D02*
X211558095Y-140601247D01*
X211558095Y-140601247D02*
X211605714Y-140506009D01*
X211605714Y-140506009D02*
X211653333Y-140458390D01*
X211653333Y-140458390D02*
X211748571Y-140410771D01*
X211748571Y-140410771D02*
X211939047Y-140410771D01*
X211939047Y-140410771D02*
X212034285Y-140458390D01*
X212034285Y-140458390D02*
X212081904Y-140506009D01*
X212081904Y-140506009D02*
X212129523Y-140601247D01*
X112679580Y-116107142D02*
X112727200Y-116059523D01*
X112727200Y-116059523D02*
X112774819Y-115916666D01*
X112774819Y-115916666D02*
X112774819Y-115821428D01*
X112774819Y-115821428D02*
X112727200Y-115678571D01*
X112727200Y-115678571D02*
X112631961Y-115583333D01*
X112631961Y-115583333D02*
X112536723Y-115535714D01*
X112536723Y-115535714D02*
X112346247Y-115488095D01*
X112346247Y-115488095D02*
X112203390Y-115488095D01*
X112203390Y-115488095D02*
X112012914Y-115535714D01*
X112012914Y-115535714D02*
X111917676Y-115583333D01*
X111917676Y-115583333D02*
X111822438Y-115678571D01*
X111822438Y-115678571D02*
X111774819Y-115821428D01*
X111774819Y-115821428D02*
X111774819Y-115916666D01*
X111774819Y-115916666D02*
X111822438Y-116059523D01*
X111822438Y-116059523D02*
X111870057Y-116107142D01*
X112774819Y-117059523D02*
X112774819Y-116488095D01*
X112774819Y-116773809D02*
X111774819Y-116773809D01*
X111774819Y-116773809D02*
X111917676Y-116678571D01*
X111917676Y-116678571D02*
X112012914Y-116583333D01*
X112012914Y-116583333D02*
X112060533Y-116488095D01*
X111774819Y-117964285D02*
X111774819Y-117488095D01*
X111774819Y-117488095D02*
X112251009Y-117440476D01*
X112251009Y-117440476D02*
X112203390Y-117488095D01*
X112203390Y-117488095D02*
X112155771Y-117583333D01*
X112155771Y-117583333D02*
X112155771Y-117821428D01*
X112155771Y-117821428D02*
X112203390Y-117916666D01*
X112203390Y-117916666D02*
X112251009Y-117964285D01*
X112251009Y-117964285D02*
X112346247Y-118011904D01*
X112346247Y-118011904D02*
X112584342Y-118011904D01*
X112584342Y-118011904D02*
X112679580Y-117964285D01*
X112679580Y-117964285D02*
X112727200Y-117916666D01*
X112727200Y-117916666D02*
X112774819Y-117821428D01*
X112774819Y-117821428D02*
X112774819Y-117583333D01*
X112774819Y-117583333D02*
X112727200Y-117488095D01*
X112727200Y-117488095D02*
X112679580Y-117440476D01*
X169679580Y-78833333D02*
X169727200Y-78785714D01*
X169727200Y-78785714D02*
X169774819Y-78642857D01*
X169774819Y-78642857D02*
X169774819Y-78547619D01*
X169774819Y-78547619D02*
X169727200Y-78404762D01*
X169727200Y-78404762D02*
X169631961Y-78309524D01*
X169631961Y-78309524D02*
X169536723Y-78261905D01*
X169536723Y-78261905D02*
X169346247Y-78214286D01*
X169346247Y-78214286D02*
X169203390Y-78214286D01*
X169203390Y-78214286D02*
X169012914Y-78261905D01*
X169012914Y-78261905D02*
X168917676Y-78309524D01*
X168917676Y-78309524D02*
X168822438Y-78404762D01*
X168822438Y-78404762D02*
X168774819Y-78547619D01*
X168774819Y-78547619D02*
X168774819Y-78642857D01*
X168774819Y-78642857D02*
X168822438Y-78785714D01*
X168822438Y-78785714D02*
X168870057Y-78833333D01*
X169108152Y-79690476D02*
X169774819Y-79690476D01*
X168727200Y-79452381D02*
X169441485Y-79214286D01*
X169441485Y-79214286D02*
X169441485Y-79833333D01*
X139484285Y-102929819D02*
X139484285Y-101929819D01*
X139484285Y-101929819D02*
X139246190Y-101929819D01*
X139246190Y-101929819D02*
X139103333Y-101977438D01*
X139103333Y-101977438D02*
X139008095Y-102072676D01*
X139008095Y-102072676D02*
X138960476Y-102167914D01*
X138960476Y-102167914D02*
X138912857Y-102358390D01*
X138912857Y-102358390D02*
X138912857Y-102501247D01*
X138912857Y-102501247D02*
X138960476Y-102691723D01*
X138960476Y-102691723D02*
X139008095Y-102786961D01*
X139008095Y-102786961D02*
X139103333Y-102882200D01*
X139103333Y-102882200D02*
X139246190Y-102929819D01*
X139246190Y-102929819D02*
X139484285Y-102929819D01*
X137960476Y-102929819D02*
X138531904Y-102929819D01*
X138246190Y-102929819D02*
X138246190Y-101929819D01*
X138246190Y-101929819D02*
X138341428Y-102072676D01*
X138341428Y-102072676D02*
X138436666Y-102167914D01*
X138436666Y-102167914D02*
X138531904Y-102215533D01*
X137341428Y-101929819D02*
X137246190Y-101929819D01*
X137246190Y-101929819D02*
X137150952Y-101977438D01*
X137150952Y-101977438D02*
X137103333Y-102025057D01*
X137103333Y-102025057D02*
X137055714Y-102120295D01*
X137055714Y-102120295D02*
X137008095Y-102310771D01*
X137008095Y-102310771D02*
X137008095Y-102548866D01*
X137008095Y-102548866D02*
X137055714Y-102739342D01*
X137055714Y-102739342D02*
X137103333Y-102834580D01*
X137103333Y-102834580D02*
X137150952Y-102882200D01*
X137150952Y-102882200D02*
X137246190Y-102929819D01*
X137246190Y-102929819D02*
X137341428Y-102929819D01*
X137341428Y-102929819D02*
X137436666Y-102882200D01*
X137436666Y-102882200D02*
X137484285Y-102834580D01*
X137484285Y-102834580D02*
X137531904Y-102739342D01*
X137531904Y-102739342D02*
X137579523Y-102548866D01*
X137579523Y-102548866D02*
X137579523Y-102310771D01*
X137579523Y-102310771D02*
X137531904Y-102120295D01*
X137531904Y-102120295D02*
X137484285Y-102025057D01*
X137484285Y-102025057D02*
X137436666Y-101977438D01*
X137436666Y-101977438D02*
X137341428Y-101929819D01*
X138892857Y-131704819D02*
X139369047Y-131704819D01*
X139369047Y-131704819D02*
X139369047Y-130704819D01*
X138607142Y-130800057D02*
X138559523Y-130752438D01*
X138559523Y-130752438D02*
X138464285Y-130704819D01*
X138464285Y-130704819D02*
X138226190Y-130704819D01*
X138226190Y-130704819D02*
X138130952Y-130752438D01*
X138130952Y-130752438D02*
X138083333Y-130800057D01*
X138083333Y-130800057D02*
X138035714Y-130895295D01*
X138035714Y-130895295D02*
X138035714Y-130990533D01*
X138035714Y-130990533D02*
X138083333Y-131133390D01*
X138083333Y-131133390D02*
X138654761Y-131704819D01*
X138654761Y-131704819D02*
X138035714Y-131704819D01*
X137702380Y-130704819D02*
X137035714Y-130704819D01*
X137035714Y-130704819D02*
X137464285Y-131704819D01*
D13*
X141621428Y-134313595D02*
X142078571Y-134313595D01*
X141849999Y-134313595D02*
X141849999Y-133513595D01*
X141849999Y-133513595D02*
X141926190Y-133627880D01*
X141926190Y-133627880D02*
X142002380Y-133704071D01*
X142002380Y-133704071D02*
X142078571Y-133742166D01*
D12*
X99759580Y-79907142D02*
X99807200Y-79859523D01*
X99807200Y-79859523D02*
X99854819Y-79716666D01*
X99854819Y-79716666D02*
X99854819Y-79621428D01*
X99854819Y-79621428D02*
X99807200Y-79478571D01*
X99807200Y-79478571D02*
X99711961Y-79383333D01*
X99711961Y-79383333D02*
X99616723Y-79335714D01*
X99616723Y-79335714D02*
X99426247Y-79288095D01*
X99426247Y-79288095D02*
X99283390Y-79288095D01*
X99283390Y-79288095D02*
X99092914Y-79335714D01*
X99092914Y-79335714D02*
X98997676Y-79383333D01*
X98997676Y-79383333D02*
X98902438Y-79478571D01*
X98902438Y-79478571D02*
X98854819Y-79621428D01*
X98854819Y-79621428D02*
X98854819Y-79716666D01*
X98854819Y-79716666D02*
X98902438Y-79859523D01*
X98902438Y-79859523D02*
X98950057Y-79907142D01*
X98950057Y-80288095D02*
X98902438Y-80335714D01*
X98902438Y-80335714D02*
X98854819Y-80430952D01*
X98854819Y-80430952D02*
X98854819Y-80669047D01*
X98854819Y-80669047D02*
X98902438Y-80764285D01*
X98902438Y-80764285D02*
X98950057Y-80811904D01*
X98950057Y-80811904D02*
X99045295Y-80859523D01*
X99045295Y-80859523D02*
X99140533Y-80859523D01*
X99140533Y-80859523D02*
X99283390Y-80811904D01*
X99283390Y-80811904D02*
X99854819Y-80240476D01*
X99854819Y-80240476D02*
X99854819Y-80859523D01*
X99854819Y-81335714D02*
X99854819Y-81526190D01*
X99854819Y-81526190D02*
X99807200Y-81621428D01*
X99807200Y-81621428D02*
X99759580Y-81669047D01*
X99759580Y-81669047D02*
X99616723Y-81764285D01*
X99616723Y-81764285D02*
X99426247Y-81811904D01*
X99426247Y-81811904D02*
X99045295Y-81811904D01*
X99045295Y-81811904D02*
X98950057Y-81764285D01*
X98950057Y-81764285D02*
X98902438Y-81716666D01*
X98902438Y-81716666D02*
X98854819Y-81621428D01*
X98854819Y-81621428D02*
X98854819Y-81430952D01*
X98854819Y-81430952D02*
X98902438Y-81335714D01*
X98902438Y-81335714D02*
X98950057Y-81288095D01*
X98950057Y-81288095D02*
X99045295Y-81240476D01*
X99045295Y-81240476D02*
X99283390Y-81240476D01*
X99283390Y-81240476D02*
X99378628Y-81288095D01*
X99378628Y-81288095D02*
X99426247Y-81335714D01*
X99426247Y-81335714D02*
X99473866Y-81430952D01*
X99473866Y-81430952D02*
X99473866Y-81621428D01*
X99473866Y-81621428D02*
X99426247Y-81716666D01*
X99426247Y-81716666D02*
X99378628Y-81764285D01*
X99378628Y-81764285D02*
X99283390Y-81811904D01*
X234724285Y-102974819D02*
X234724285Y-101974819D01*
X234724285Y-101974819D02*
X234486190Y-101974819D01*
X234486190Y-101974819D02*
X234343333Y-102022438D01*
X234343333Y-102022438D02*
X234248095Y-102117676D01*
X234248095Y-102117676D02*
X234200476Y-102212914D01*
X234200476Y-102212914D02*
X234152857Y-102403390D01*
X234152857Y-102403390D02*
X234152857Y-102546247D01*
X234152857Y-102546247D02*
X234200476Y-102736723D01*
X234200476Y-102736723D02*
X234248095Y-102831961D01*
X234248095Y-102831961D02*
X234343333Y-102927200D01*
X234343333Y-102927200D02*
X234486190Y-102974819D01*
X234486190Y-102974819D02*
X234724285Y-102974819D01*
X233200476Y-102974819D02*
X233771904Y-102974819D01*
X233486190Y-102974819D02*
X233486190Y-101974819D01*
X233486190Y-101974819D02*
X233581428Y-102117676D01*
X233581428Y-102117676D02*
X233676666Y-102212914D01*
X233676666Y-102212914D02*
X233771904Y-102260533D01*
X232343333Y-102308152D02*
X232343333Y-102974819D01*
X232581428Y-101927200D02*
X232819523Y-102641485D01*
X232819523Y-102641485D02*
X232200476Y-102641485D01*
X178124285Y-102974819D02*
X178124285Y-101974819D01*
X178124285Y-101974819D02*
X177886190Y-101974819D01*
X177886190Y-101974819D02*
X177743333Y-102022438D01*
X177743333Y-102022438D02*
X177648095Y-102117676D01*
X177648095Y-102117676D02*
X177600476Y-102212914D01*
X177600476Y-102212914D02*
X177552857Y-102403390D01*
X177552857Y-102403390D02*
X177552857Y-102546247D01*
X177552857Y-102546247D02*
X177600476Y-102736723D01*
X177600476Y-102736723D02*
X177648095Y-102831961D01*
X177648095Y-102831961D02*
X177743333Y-102927200D01*
X177743333Y-102927200D02*
X177886190Y-102974819D01*
X177886190Y-102974819D02*
X178124285Y-102974819D01*
X176600476Y-102974819D02*
X177171904Y-102974819D01*
X176886190Y-102974819D02*
X176886190Y-101974819D01*
X176886190Y-101974819D02*
X176981428Y-102117676D01*
X176981428Y-102117676D02*
X177076666Y-102212914D01*
X177076666Y-102212914D02*
X177171904Y-102260533D01*
X175648095Y-102974819D02*
X176219523Y-102974819D01*
X175933809Y-102974819D02*
X175933809Y-101974819D01*
X175933809Y-101974819D02*
X176029047Y-102117676D01*
X176029047Y-102117676D02*
X176124285Y-102212914D01*
X176124285Y-102212914D02*
X176219523Y-102260533D01*
X158534285Y-141029819D02*
X158534285Y-140029819D01*
X158534285Y-140029819D02*
X158296190Y-140029819D01*
X158296190Y-140029819D02*
X158153333Y-140077438D01*
X158153333Y-140077438D02*
X158058095Y-140172676D01*
X158058095Y-140172676D02*
X158010476Y-140267914D01*
X158010476Y-140267914D02*
X157962857Y-140458390D01*
X157962857Y-140458390D02*
X157962857Y-140601247D01*
X157962857Y-140601247D02*
X158010476Y-140791723D01*
X158010476Y-140791723D02*
X158058095Y-140886961D01*
X158058095Y-140886961D02*
X158153333Y-140982200D01*
X158153333Y-140982200D02*
X158296190Y-141029819D01*
X158296190Y-141029819D02*
X158534285Y-141029819D01*
X157010476Y-141029819D02*
X157581904Y-141029819D01*
X157296190Y-141029819D02*
X157296190Y-140029819D01*
X157296190Y-140029819D02*
X157391428Y-140172676D01*
X157391428Y-140172676D02*
X157486666Y-140267914D01*
X157486666Y-140267914D02*
X157581904Y-140315533D01*
X156534285Y-141029819D02*
X156343809Y-141029819D01*
X156343809Y-141029819D02*
X156248571Y-140982200D01*
X156248571Y-140982200D02*
X156200952Y-140934580D01*
X156200952Y-140934580D02*
X156105714Y-140791723D01*
X156105714Y-140791723D02*
X156058095Y-140601247D01*
X156058095Y-140601247D02*
X156058095Y-140220295D01*
X156058095Y-140220295D02*
X156105714Y-140125057D01*
X156105714Y-140125057D02*
X156153333Y-140077438D01*
X156153333Y-140077438D02*
X156248571Y-140029819D01*
X156248571Y-140029819D02*
X156439047Y-140029819D01*
X156439047Y-140029819D02*
X156534285Y-140077438D01*
X156534285Y-140077438D02*
X156581904Y-140125057D01*
X156581904Y-140125057D02*
X156629523Y-140220295D01*
X156629523Y-140220295D02*
X156629523Y-140458390D01*
X156629523Y-140458390D02*
X156581904Y-140553628D01*
X156581904Y-140553628D02*
X156534285Y-140601247D01*
X156534285Y-140601247D02*
X156439047Y-140648866D01*
X156439047Y-140648866D02*
X156248571Y-140648866D01*
X156248571Y-140648866D02*
X156153333Y-140601247D01*
X156153333Y-140601247D02*
X156105714Y-140553628D01*
X156105714Y-140553628D02*
X156058095Y-140458390D01*
X177142857Y-93579819D02*
X177619047Y-93579819D01*
X177619047Y-93579819D02*
X177619047Y-92579819D01*
X176285714Y-93579819D02*
X176857142Y-93579819D01*
X176571428Y-93579819D02*
X176571428Y-92579819D01*
X176571428Y-92579819D02*
X176666666Y-92722676D01*
X176666666Y-92722676D02*
X176761904Y-92817914D01*
X176761904Y-92817914D02*
X176857142Y-92865533D01*
X175333333Y-93579819D02*
X175904761Y-93579819D01*
X175619047Y-93579819D02*
X175619047Y-92579819D01*
X175619047Y-92579819D02*
X175714285Y-92722676D01*
X175714285Y-92722676D02*
X175809523Y-92817914D01*
X175809523Y-92817914D02*
X175904761Y-92865533D01*
D13*
X179871428Y-96188595D02*
X180328571Y-96188595D01*
X180099999Y-96188595D02*
X180099999Y-95388595D01*
X180099999Y-95388595D02*
X180176190Y-95502880D01*
X180176190Y-95502880D02*
X180252380Y-95579071D01*
X180252380Y-95579071D02*
X180328571Y-95617166D01*
D12*
X119386666Y-74704819D02*
X119862856Y-74704819D01*
X119862856Y-74704819D02*
X119862856Y-73704819D01*
X118529523Y-74704819D02*
X119100951Y-74704819D01*
X118815237Y-74704819D02*
X118815237Y-73704819D01*
X118815237Y-73704819D02*
X118910475Y-73847676D01*
X118910475Y-73847676D02*
X119005713Y-73942914D01*
X119005713Y-73942914D02*
X119100951Y-73990533D01*
D13*
X122591428Y-77313595D02*
X123048571Y-77313595D01*
X122819999Y-77313595D02*
X122819999Y-76513595D01*
X122819999Y-76513595D02*
X122896190Y-76627880D01*
X122896190Y-76627880D02*
X122972380Y-76704071D01*
X122972380Y-76704071D02*
X123048571Y-76742166D01*
D12*
X176666666Y-74704819D02*
X177142856Y-74704819D01*
X177142856Y-74704819D02*
X177142856Y-73704819D01*
X175904761Y-74038152D02*
X175904761Y-74704819D01*
X176142856Y-73657200D02*
X176380951Y-74371485D01*
X176380951Y-74371485D02*
X175761904Y-74371485D01*
D13*
X179871428Y-77313595D02*
X180328571Y-77313595D01*
X180099999Y-77313595D02*
X180099999Y-76513595D01*
X180099999Y-76513595D02*
X180176190Y-76627880D01*
X180176190Y-76627880D02*
X180252380Y-76704071D01*
X180252380Y-76704071D02*
X180328571Y-76742166D01*
D12*
X177108094Y-83879819D02*
X177108094Y-82879819D01*
X177108094Y-82879819D02*
X176869999Y-82879819D01*
X176869999Y-82879819D02*
X176727142Y-82927438D01*
X176727142Y-82927438D02*
X176631904Y-83022676D01*
X176631904Y-83022676D02*
X176584285Y-83117914D01*
X176584285Y-83117914D02*
X176536666Y-83308390D01*
X176536666Y-83308390D02*
X176536666Y-83451247D01*
X176536666Y-83451247D02*
X176584285Y-83641723D01*
X176584285Y-83641723D02*
X176631904Y-83736961D01*
X176631904Y-83736961D02*
X176727142Y-83832200D01*
X176727142Y-83832200D02*
X176869999Y-83879819D01*
X176869999Y-83879819D02*
X177108094Y-83879819D01*
X175679523Y-83213152D02*
X175679523Y-83879819D01*
X175917618Y-82832200D02*
X176155713Y-83546485D01*
X176155713Y-83546485D02*
X175536666Y-83546485D01*
X234734285Y-141029819D02*
X234734285Y-140029819D01*
X234734285Y-140029819D02*
X234496190Y-140029819D01*
X234496190Y-140029819D02*
X234353333Y-140077438D01*
X234353333Y-140077438D02*
X234258095Y-140172676D01*
X234258095Y-140172676D02*
X234210476Y-140267914D01*
X234210476Y-140267914D02*
X234162857Y-140458390D01*
X234162857Y-140458390D02*
X234162857Y-140601247D01*
X234162857Y-140601247D02*
X234210476Y-140791723D01*
X234210476Y-140791723D02*
X234258095Y-140886961D01*
X234258095Y-140886961D02*
X234353333Y-140982200D01*
X234353333Y-140982200D02*
X234496190Y-141029819D01*
X234496190Y-141029819D02*
X234734285Y-141029819D01*
X233781904Y-140125057D02*
X233734285Y-140077438D01*
X233734285Y-140077438D02*
X233639047Y-140029819D01*
X233639047Y-140029819D02*
X233400952Y-140029819D01*
X233400952Y-140029819D02*
X233305714Y-140077438D01*
X233305714Y-140077438D02*
X233258095Y-140125057D01*
X233258095Y-140125057D02*
X233210476Y-140220295D01*
X233210476Y-140220295D02*
X233210476Y-140315533D01*
X233210476Y-140315533D02*
X233258095Y-140458390D01*
X233258095Y-140458390D02*
X233829523Y-141029819D01*
X233829523Y-141029819D02*
X233210476Y-141029819D01*
X232639047Y-140458390D02*
X232734285Y-140410771D01*
X232734285Y-140410771D02*
X232781904Y-140363152D01*
X232781904Y-140363152D02*
X232829523Y-140267914D01*
X232829523Y-140267914D02*
X232829523Y-140220295D01*
X232829523Y-140220295D02*
X232781904Y-140125057D01*
X232781904Y-140125057D02*
X232734285Y-140077438D01*
X232734285Y-140077438D02*
X232639047Y-140029819D01*
X232639047Y-140029819D02*
X232448571Y-140029819D01*
X232448571Y-140029819D02*
X232353333Y-140077438D01*
X232353333Y-140077438D02*
X232305714Y-140125057D01*
X232305714Y-140125057D02*
X232258095Y-140220295D01*
X232258095Y-140220295D02*
X232258095Y-140267914D01*
X232258095Y-140267914D02*
X232305714Y-140363152D01*
X232305714Y-140363152D02*
X232353333Y-140410771D01*
X232353333Y-140410771D02*
X232448571Y-140458390D01*
X232448571Y-140458390D02*
X232639047Y-140458390D01*
X232639047Y-140458390D02*
X232734285Y-140506009D01*
X232734285Y-140506009D02*
X232781904Y-140553628D01*
X232781904Y-140553628D02*
X232829523Y-140648866D01*
X232829523Y-140648866D02*
X232829523Y-140839342D01*
X232829523Y-140839342D02*
X232781904Y-140934580D01*
X232781904Y-140934580D02*
X232734285Y-140982200D01*
X232734285Y-140982200D02*
X232639047Y-141029819D01*
X232639047Y-141029819D02*
X232448571Y-141029819D01*
X232448571Y-141029819D02*
X232353333Y-140982200D01*
X232353333Y-140982200D02*
X232305714Y-140934580D01*
X232305714Y-140934580D02*
X232258095Y-140839342D01*
X232258095Y-140839342D02*
X232258095Y-140648866D01*
X232258095Y-140648866D02*
X232305714Y-140553628D01*
X232305714Y-140553628D02*
X232353333Y-140506009D01*
X232353333Y-140506009D02*
X232448571Y-140458390D01*
X195892857Y-112704819D02*
X196369047Y-112704819D01*
X196369047Y-112704819D02*
X196369047Y-111704819D01*
X195035714Y-112704819D02*
X195607142Y-112704819D01*
X195321428Y-112704819D02*
X195321428Y-111704819D01*
X195321428Y-111704819D02*
X195416666Y-111847676D01*
X195416666Y-111847676D02*
X195511904Y-111942914D01*
X195511904Y-111942914D02*
X195607142Y-111990533D01*
X194559523Y-112704819D02*
X194369047Y-112704819D01*
X194369047Y-112704819D02*
X194273809Y-112657200D01*
X194273809Y-112657200D02*
X194226190Y-112609580D01*
X194226190Y-112609580D02*
X194130952Y-112466723D01*
X194130952Y-112466723D02*
X194083333Y-112276247D01*
X194083333Y-112276247D02*
X194083333Y-111895295D01*
X194083333Y-111895295D02*
X194130952Y-111800057D01*
X194130952Y-111800057D02*
X194178571Y-111752438D01*
X194178571Y-111752438D02*
X194273809Y-111704819D01*
X194273809Y-111704819D02*
X194464285Y-111704819D01*
X194464285Y-111704819D02*
X194559523Y-111752438D01*
X194559523Y-111752438D02*
X194607142Y-111800057D01*
X194607142Y-111800057D02*
X194654761Y-111895295D01*
X194654761Y-111895295D02*
X194654761Y-112133390D01*
X194654761Y-112133390D02*
X194607142Y-112228628D01*
X194607142Y-112228628D02*
X194559523Y-112276247D01*
X194559523Y-112276247D02*
X194464285Y-112323866D01*
X194464285Y-112323866D02*
X194273809Y-112323866D01*
X194273809Y-112323866D02*
X194178571Y-112276247D01*
X194178571Y-112276247D02*
X194130952Y-112228628D01*
X194130952Y-112228628D02*
X194083333Y-112133390D01*
D13*
X198621428Y-115313595D02*
X199078571Y-115313595D01*
X198849999Y-115313595D02*
X198849999Y-114513595D01*
X198849999Y-114513595D02*
X198926190Y-114627880D01*
X198926190Y-114627880D02*
X199002380Y-114704071D01*
X199002380Y-114704071D02*
X199078571Y-114742166D01*
D12*
X233666666Y-93704819D02*
X234142856Y-93704819D01*
X234142856Y-93704819D02*
X234142856Y-92704819D01*
X233190475Y-93133390D02*
X233285713Y-93085771D01*
X233285713Y-93085771D02*
X233333332Y-93038152D01*
X233333332Y-93038152D02*
X233380951Y-92942914D01*
X233380951Y-92942914D02*
X233380951Y-92895295D01*
X233380951Y-92895295D02*
X233333332Y-92800057D01*
X233333332Y-92800057D02*
X233285713Y-92752438D01*
X233285713Y-92752438D02*
X233190475Y-92704819D01*
X233190475Y-92704819D02*
X232999999Y-92704819D01*
X232999999Y-92704819D02*
X232904761Y-92752438D01*
X232904761Y-92752438D02*
X232857142Y-92800057D01*
X232857142Y-92800057D02*
X232809523Y-92895295D01*
X232809523Y-92895295D02*
X232809523Y-92942914D01*
X232809523Y-92942914D02*
X232857142Y-93038152D01*
X232857142Y-93038152D02*
X232904761Y-93085771D01*
X232904761Y-93085771D02*
X232999999Y-93133390D01*
X232999999Y-93133390D02*
X233190475Y-93133390D01*
X233190475Y-93133390D02*
X233285713Y-93181009D01*
X233285713Y-93181009D02*
X233333332Y-93228628D01*
X233333332Y-93228628D02*
X233380951Y-93323866D01*
X233380951Y-93323866D02*
X233380951Y-93514342D01*
X233380951Y-93514342D02*
X233333332Y-93609580D01*
X233333332Y-93609580D02*
X233285713Y-93657200D01*
X233285713Y-93657200D02*
X233190475Y-93704819D01*
X233190475Y-93704819D02*
X232999999Y-93704819D01*
X232999999Y-93704819D02*
X232904761Y-93657200D01*
X232904761Y-93657200D02*
X232857142Y-93609580D01*
X232857142Y-93609580D02*
X232809523Y-93514342D01*
X232809523Y-93514342D02*
X232809523Y-93323866D01*
X232809523Y-93323866D02*
X232857142Y-93228628D01*
X232857142Y-93228628D02*
X232904761Y-93181009D01*
X232904761Y-93181009D02*
X232999999Y-93133390D01*
D13*
X236871428Y-96313595D02*
X237328571Y-96313595D01*
X237099999Y-96313595D02*
X237099999Y-95513595D01*
X237099999Y-95513595D02*
X237176190Y-95627880D01*
X237176190Y-95627880D02*
X237252380Y-95704071D01*
X237252380Y-95704071D02*
X237328571Y-95742166D01*
D12*
X157892857Y-131704819D02*
X158369047Y-131704819D01*
X158369047Y-131704819D02*
X158369047Y-130704819D01*
X157607142Y-130800057D02*
X157559523Y-130752438D01*
X157559523Y-130752438D02*
X157464285Y-130704819D01*
X157464285Y-130704819D02*
X157226190Y-130704819D01*
X157226190Y-130704819D02*
X157130952Y-130752438D01*
X157130952Y-130752438D02*
X157083333Y-130800057D01*
X157083333Y-130800057D02*
X157035714Y-130895295D01*
X157035714Y-130895295D02*
X157035714Y-130990533D01*
X157035714Y-130990533D02*
X157083333Y-131133390D01*
X157083333Y-131133390D02*
X157654761Y-131704819D01*
X157654761Y-131704819D02*
X157035714Y-131704819D01*
X156178571Y-130704819D02*
X156369047Y-130704819D01*
X156369047Y-130704819D02*
X156464285Y-130752438D01*
X156464285Y-130752438D02*
X156511904Y-130800057D01*
X156511904Y-130800057D02*
X156607142Y-130942914D01*
X156607142Y-130942914D02*
X156654761Y-131133390D01*
X156654761Y-131133390D02*
X156654761Y-131514342D01*
X156654761Y-131514342D02*
X156607142Y-131609580D01*
X156607142Y-131609580D02*
X156559523Y-131657200D01*
X156559523Y-131657200D02*
X156464285Y-131704819D01*
X156464285Y-131704819D02*
X156273809Y-131704819D01*
X156273809Y-131704819D02*
X156178571Y-131657200D01*
X156178571Y-131657200D02*
X156130952Y-131609580D01*
X156130952Y-131609580D02*
X156083333Y-131514342D01*
X156083333Y-131514342D02*
X156083333Y-131276247D01*
X156083333Y-131276247D02*
X156130952Y-131181009D01*
X156130952Y-131181009D02*
X156178571Y-131133390D01*
X156178571Y-131133390D02*
X156273809Y-131085771D01*
X156273809Y-131085771D02*
X156464285Y-131085771D01*
X156464285Y-131085771D02*
X156559523Y-131133390D01*
X156559523Y-131133390D02*
X156607142Y-131181009D01*
X156607142Y-131181009D02*
X156654761Y-131276247D01*
D13*
X160621428Y-134313595D02*
X161078571Y-134313595D01*
X160849999Y-134313595D02*
X160849999Y-133513595D01*
X160849999Y-133513595D02*
X160926190Y-133627880D01*
X160926190Y-133627880D02*
X161002380Y-133704071D01*
X161002380Y-133704071D02*
X161078571Y-133742166D01*
D12*
X215208094Y-83879819D02*
X215208094Y-82879819D01*
X215208094Y-82879819D02*
X214969999Y-82879819D01*
X214969999Y-82879819D02*
X214827142Y-82927438D01*
X214827142Y-82927438D02*
X214731904Y-83022676D01*
X214731904Y-83022676D02*
X214684285Y-83117914D01*
X214684285Y-83117914D02*
X214636666Y-83308390D01*
X214636666Y-83308390D02*
X214636666Y-83451247D01*
X214636666Y-83451247D02*
X214684285Y-83641723D01*
X214684285Y-83641723D02*
X214731904Y-83736961D01*
X214731904Y-83736961D02*
X214827142Y-83832200D01*
X214827142Y-83832200D02*
X214969999Y-83879819D01*
X214969999Y-83879819D02*
X215208094Y-83879819D01*
X213779523Y-82879819D02*
X213969999Y-82879819D01*
X213969999Y-82879819D02*
X214065237Y-82927438D01*
X214065237Y-82927438D02*
X214112856Y-82975057D01*
X214112856Y-82975057D02*
X214208094Y-83117914D01*
X214208094Y-83117914D02*
X214255713Y-83308390D01*
X214255713Y-83308390D02*
X214255713Y-83689342D01*
X214255713Y-83689342D02*
X214208094Y-83784580D01*
X214208094Y-83784580D02*
X214160475Y-83832200D01*
X214160475Y-83832200D02*
X214065237Y-83879819D01*
X214065237Y-83879819D02*
X213874761Y-83879819D01*
X213874761Y-83879819D02*
X213779523Y-83832200D01*
X213779523Y-83832200D02*
X213731904Y-83784580D01*
X213731904Y-83784580D02*
X213684285Y-83689342D01*
X213684285Y-83689342D02*
X213684285Y-83451247D01*
X213684285Y-83451247D02*
X213731904Y-83356009D01*
X213731904Y-83356009D02*
X213779523Y-83308390D01*
X213779523Y-83308390D02*
X213874761Y-83260771D01*
X213874761Y-83260771D02*
X214065237Y-83260771D01*
X214065237Y-83260771D02*
X214160475Y-83308390D01*
X214160475Y-83308390D02*
X214208094Y-83356009D01*
X214208094Y-83356009D02*
X214255713Y-83451247D01*
X207929580Y-135307142D02*
X207977200Y-135259523D01*
X207977200Y-135259523D02*
X208024819Y-135116666D01*
X208024819Y-135116666D02*
X208024819Y-135021428D01*
X208024819Y-135021428D02*
X207977200Y-134878571D01*
X207977200Y-134878571D02*
X207881961Y-134783333D01*
X207881961Y-134783333D02*
X207786723Y-134735714D01*
X207786723Y-134735714D02*
X207596247Y-134688095D01*
X207596247Y-134688095D02*
X207453390Y-134688095D01*
X207453390Y-134688095D02*
X207262914Y-134735714D01*
X207262914Y-134735714D02*
X207167676Y-134783333D01*
X207167676Y-134783333D02*
X207072438Y-134878571D01*
X207072438Y-134878571D02*
X207024819Y-135021428D01*
X207024819Y-135021428D02*
X207024819Y-135116666D01*
X207024819Y-135116666D02*
X207072438Y-135259523D01*
X207072438Y-135259523D02*
X207120057Y-135307142D01*
X207120057Y-135688095D02*
X207072438Y-135735714D01*
X207072438Y-135735714D02*
X207024819Y-135830952D01*
X207024819Y-135830952D02*
X207024819Y-136069047D01*
X207024819Y-136069047D02*
X207072438Y-136164285D01*
X207072438Y-136164285D02*
X207120057Y-136211904D01*
X207120057Y-136211904D02*
X207215295Y-136259523D01*
X207215295Y-136259523D02*
X207310533Y-136259523D01*
X207310533Y-136259523D02*
X207453390Y-136211904D01*
X207453390Y-136211904D02*
X208024819Y-135640476D01*
X208024819Y-135640476D02*
X208024819Y-136259523D01*
X207024819Y-136592857D02*
X207024819Y-137211904D01*
X207024819Y-137211904D02*
X207405771Y-136878571D01*
X207405771Y-136878571D02*
X207405771Y-137021428D01*
X207405771Y-137021428D02*
X207453390Y-137116666D01*
X207453390Y-137116666D02*
X207501009Y-137164285D01*
X207501009Y-137164285D02*
X207596247Y-137211904D01*
X207596247Y-137211904D02*
X207834342Y-137211904D01*
X207834342Y-137211904D02*
X207929580Y-137164285D01*
X207929580Y-137164285D02*
X207977200Y-137116666D01*
X207977200Y-137116666D02*
X208024819Y-137021428D01*
X208024819Y-137021428D02*
X208024819Y-136735714D01*
X208024819Y-136735714D02*
X207977200Y-136640476D01*
X207977200Y-136640476D02*
X207929580Y-136592857D01*
X234142857Y-131954819D02*
X234619047Y-131954819D01*
X234619047Y-131954819D02*
X234619047Y-130954819D01*
X233857142Y-131050057D02*
X233809523Y-131002438D01*
X233809523Y-131002438D02*
X233714285Y-130954819D01*
X233714285Y-130954819D02*
X233476190Y-130954819D01*
X233476190Y-130954819D02*
X233380952Y-131002438D01*
X233380952Y-131002438D02*
X233333333Y-131050057D01*
X233333333Y-131050057D02*
X233285714Y-131145295D01*
X233285714Y-131145295D02*
X233285714Y-131240533D01*
X233285714Y-131240533D02*
X233333333Y-131383390D01*
X233333333Y-131383390D02*
X233904761Y-131954819D01*
X233904761Y-131954819D02*
X233285714Y-131954819D01*
X232904761Y-131050057D02*
X232857142Y-131002438D01*
X232857142Y-131002438D02*
X232761904Y-130954819D01*
X232761904Y-130954819D02*
X232523809Y-130954819D01*
X232523809Y-130954819D02*
X232428571Y-131002438D01*
X232428571Y-131002438D02*
X232380952Y-131050057D01*
X232380952Y-131050057D02*
X232333333Y-131145295D01*
X232333333Y-131145295D02*
X232333333Y-131240533D01*
X232333333Y-131240533D02*
X232380952Y-131383390D01*
X232380952Y-131383390D02*
X232952380Y-131954819D01*
X232952380Y-131954819D02*
X232333333Y-131954819D01*
D13*
X236871428Y-134563595D02*
X237328571Y-134563595D01*
X237099999Y-134563595D02*
X237099999Y-133763595D01*
X237099999Y-133763595D02*
X237176190Y-133877880D01*
X237176190Y-133877880D02*
X237252380Y-133954071D01*
X237252380Y-133954071D02*
X237328571Y-133992166D01*
D12*
X139008094Y-83879819D02*
X139008094Y-82879819D01*
X139008094Y-82879819D02*
X138769999Y-82879819D01*
X138769999Y-82879819D02*
X138627142Y-82927438D01*
X138627142Y-82927438D02*
X138531904Y-83022676D01*
X138531904Y-83022676D02*
X138484285Y-83117914D01*
X138484285Y-83117914D02*
X138436666Y-83308390D01*
X138436666Y-83308390D02*
X138436666Y-83451247D01*
X138436666Y-83451247D02*
X138484285Y-83641723D01*
X138484285Y-83641723D02*
X138531904Y-83736961D01*
X138531904Y-83736961D02*
X138627142Y-83832200D01*
X138627142Y-83832200D02*
X138769999Y-83879819D01*
X138769999Y-83879819D02*
X139008094Y-83879819D01*
X138055713Y-82975057D02*
X138008094Y-82927438D01*
X138008094Y-82927438D02*
X137912856Y-82879819D01*
X137912856Y-82879819D02*
X137674761Y-82879819D01*
X137674761Y-82879819D02*
X137579523Y-82927438D01*
X137579523Y-82927438D02*
X137531904Y-82975057D01*
X137531904Y-82975057D02*
X137484285Y-83070295D01*
X137484285Y-83070295D02*
X137484285Y-83165533D01*
X137484285Y-83165533D02*
X137531904Y-83308390D01*
X137531904Y-83308390D02*
X138103332Y-83879819D01*
X138103332Y-83879819D02*
X137484285Y-83879819D01*
X226929580Y-78583333D02*
X226977200Y-78535714D01*
X226977200Y-78535714D02*
X227024819Y-78392857D01*
X227024819Y-78392857D02*
X227024819Y-78297619D01*
X227024819Y-78297619D02*
X226977200Y-78154762D01*
X226977200Y-78154762D02*
X226881961Y-78059524D01*
X226881961Y-78059524D02*
X226786723Y-78011905D01*
X226786723Y-78011905D02*
X226596247Y-77964286D01*
X226596247Y-77964286D02*
X226453390Y-77964286D01*
X226453390Y-77964286D02*
X226262914Y-78011905D01*
X226262914Y-78011905D02*
X226167676Y-78059524D01*
X226167676Y-78059524D02*
X226072438Y-78154762D01*
X226072438Y-78154762D02*
X226024819Y-78297619D01*
X226024819Y-78297619D02*
X226024819Y-78392857D01*
X226024819Y-78392857D02*
X226072438Y-78535714D01*
X226072438Y-78535714D02*
X226120057Y-78583333D01*
X226024819Y-78916667D02*
X226024819Y-79583333D01*
X226024819Y-79583333D02*
X227024819Y-79154762D01*
X216124285Y-102974819D02*
X216124285Y-101974819D01*
X216124285Y-101974819D02*
X215886190Y-101974819D01*
X215886190Y-101974819D02*
X215743333Y-102022438D01*
X215743333Y-102022438D02*
X215648095Y-102117676D01*
X215648095Y-102117676D02*
X215600476Y-102212914D01*
X215600476Y-102212914D02*
X215552857Y-102403390D01*
X215552857Y-102403390D02*
X215552857Y-102546247D01*
X215552857Y-102546247D02*
X215600476Y-102736723D01*
X215600476Y-102736723D02*
X215648095Y-102831961D01*
X215648095Y-102831961D02*
X215743333Y-102927200D01*
X215743333Y-102927200D02*
X215886190Y-102974819D01*
X215886190Y-102974819D02*
X216124285Y-102974819D01*
X214600476Y-102974819D02*
X215171904Y-102974819D01*
X214886190Y-102974819D02*
X214886190Y-101974819D01*
X214886190Y-101974819D02*
X214981428Y-102117676D01*
X214981428Y-102117676D02*
X215076666Y-102212914D01*
X215076666Y-102212914D02*
X215171904Y-102260533D01*
X214267142Y-101974819D02*
X213648095Y-101974819D01*
X213648095Y-101974819D02*
X213981428Y-102355771D01*
X213981428Y-102355771D02*
X213838571Y-102355771D01*
X213838571Y-102355771D02*
X213743333Y-102403390D01*
X213743333Y-102403390D02*
X213695714Y-102451009D01*
X213695714Y-102451009D02*
X213648095Y-102546247D01*
X213648095Y-102546247D02*
X213648095Y-102784342D01*
X213648095Y-102784342D02*
X213695714Y-102879580D01*
X213695714Y-102879580D02*
X213743333Y-102927200D01*
X213743333Y-102927200D02*
X213838571Y-102974819D01*
X213838571Y-102974819D02*
X214124285Y-102974819D01*
X214124285Y-102974819D02*
X214219523Y-102927200D01*
X214219523Y-102927200D02*
X214267142Y-102879580D01*
X150679580Y-97107142D02*
X150727200Y-97059523D01*
X150727200Y-97059523D02*
X150774819Y-96916666D01*
X150774819Y-96916666D02*
X150774819Y-96821428D01*
X150774819Y-96821428D02*
X150727200Y-96678571D01*
X150727200Y-96678571D02*
X150631961Y-96583333D01*
X150631961Y-96583333D02*
X150536723Y-96535714D01*
X150536723Y-96535714D02*
X150346247Y-96488095D01*
X150346247Y-96488095D02*
X150203390Y-96488095D01*
X150203390Y-96488095D02*
X150012914Y-96535714D01*
X150012914Y-96535714D02*
X149917676Y-96583333D01*
X149917676Y-96583333D02*
X149822438Y-96678571D01*
X149822438Y-96678571D02*
X149774819Y-96821428D01*
X149774819Y-96821428D02*
X149774819Y-96916666D01*
X149774819Y-96916666D02*
X149822438Y-97059523D01*
X149822438Y-97059523D02*
X149870057Y-97107142D01*
X150774819Y-98059523D02*
X150774819Y-97488095D01*
X150774819Y-97773809D02*
X149774819Y-97773809D01*
X149774819Y-97773809D02*
X149917676Y-97678571D01*
X149917676Y-97678571D02*
X150012914Y-97583333D01*
X150012914Y-97583333D02*
X150060533Y-97488095D01*
X149870057Y-98440476D02*
X149822438Y-98488095D01*
X149822438Y-98488095D02*
X149774819Y-98583333D01*
X149774819Y-98583333D02*
X149774819Y-98821428D01*
X149774819Y-98821428D02*
X149822438Y-98916666D01*
X149822438Y-98916666D02*
X149870057Y-98964285D01*
X149870057Y-98964285D02*
X149965295Y-99011904D01*
X149965295Y-99011904D02*
X150060533Y-99011904D01*
X150060533Y-99011904D02*
X150203390Y-98964285D01*
X150203390Y-98964285D02*
X150774819Y-98392857D01*
X150774819Y-98392857D02*
X150774819Y-99011904D01*
X138892857Y-93704819D02*
X139369047Y-93704819D01*
X139369047Y-93704819D02*
X139369047Y-92704819D01*
X138035714Y-93704819D02*
X138607142Y-93704819D01*
X138321428Y-93704819D02*
X138321428Y-92704819D01*
X138321428Y-92704819D02*
X138416666Y-92847676D01*
X138416666Y-92847676D02*
X138511904Y-92942914D01*
X138511904Y-92942914D02*
X138607142Y-92990533D01*
X137702380Y-92704819D02*
X137083333Y-92704819D01*
X137083333Y-92704819D02*
X137416666Y-93085771D01*
X137416666Y-93085771D02*
X137273809Y-93085771D01*
X137273809Y-93085771D02*
X137178571Y-93133390D01*
X137178571Y-93133390D02*
X137130952Y-93181009D01*
X137130952Y-93181009D02*
X137083333Y-93276247D01*
X137083333Y-93276247D02*
X137083333Y-93514342D01*
X137083333Y-93514342D02*
X137130952Y-93609580D01*
X137130952Y-93609580D02*
X137178571Y-93657200D01*
X137178571Y-93657200D02*
X137273809Y-93704819D01*
X137273809Y-93704819D02*
X137559523Y-93704819D01*
X137559523Y-93704819D02*
X137654761Y-93657200D01*
X137654761Y-93657200D02*
X137702380Y-93609580D01*
D13*
X141621428Y-96313595D02*
X142078571Y-96313595D01*
X141849999Y-96313595D02*
X141849999Y-95513595D01*
X141849999Y-95513595D02*
X141926190Y-95627880D01*
X141926190Y-95627880D02*
X142002380Y-95704071D01*
X142002380Y-95704071D02*
X142078571Y-95742166D01*
D12*
X226929580Y-116107142D02*
X226977200Y-116059523D01*
X226977200Y-116059523D02*
X227024819Y-115916666D01*
X227024819Y-115916666D02*
X227024819Y-115821428D01*
X227024819Y-115821428D02*
X226977200Y-115678571D01*
X226977200Y-115678571D02*
X226881961Y-115583333D01*
X226881961Y-115583333D02*
X226786723Y-115535714D01*
X226786723Y-115535714D02*
X226596247Y-115488095D01*
X226596247Y-115488095D02*
X226453390Y-115488095D01*
X226453390Y-115488095D02*
X226262914Y-115535714D01*
X226262914Y-115535714D02*
X226167676Y-115583333D01*
X226167676Y-115583333D02*
X226072438Y-115678571D01*
X226072438Y-115678571D02*
X226024819Y-115821428D01*
X226024819Y-115821428D02*
X226024819Y-115916666D01*
X226024819Y-115916666D02*
X226072438Y-116059523D01*
X226072438Y-116059523D02*
X226120057Y-116107142D01*
X226120057Y-116488095D02*
X226072438Y-116535714D01*
X226072438Y-116535714D02*
X226024819Y-116630952D01*
X226024819Y-116630952D02*
X226024819Y-116869047D01*
X226024819Y-116869047D02*
X226072438Y-116964285D01*
X226072438Y-116964285D02*
X226120057Y-117011904D01*
X226120057Y-117011904D02*
X226215295Y-117059523D01*
X226215295Y-117059523D02*
X226310533Y-117059523D01*
X226310533Y-117059523D02*
X226453390Y-117011904D01*
X226453390Y-117011904D02*
X227024819Y-116440476D01*
X227024819Y-116440476D02*
X227024819Y-117059523D01*
X227024819Y-118011904D02*
X227024819Y-117440476D01*
X227024819Y-117726190D02*
X226024819Y-117726190D01*
X226024819Y-117726190D02*
X226167676Y-117630952D01*
X226167676Y-117630952D02*
X226262914Y-117535714D01*
X226262914Y-117535714D02*
X226310533Y-117440476D01*
X120924285Y-121974819D02*
X120924285Y-120974819D01*
X120924285Y-120974819D02*
X120686190Y-120974819D01*
X120686190Y-120974819D02*
X120543333Y-121022438D01*
X120543333Y-121022438D02*
X120448095Y-121117676D01*
X120448095Y-121117676D02*
X120400476Y-121212914D01*
X120400476Y-121212914D02*
X120352857Y-121403390D01*
X120352857Y-121403390D02*
X120352857Y-121546247D01*
X120352857Y-121546247D02*
X120400476Y-121736723D01*
X120400476Y-121736723D02*
X120448095Y-121831961D01*
X120448095Y-121831961D02*
X120543333Y-121927200D01*
X120543333Y-121927200D02*
X120686190Y-121974819D01*
X120686190Y-121974819D02*
X120924285Y-121974819D01*
X119400476Y-121974819D02*
X119971904Y-121974819D01*
X119686190Y-121974819D02*
X119686190Y-120974819D01*
X119686190Y-120974819D02*
X119781428Y-121117676D01*
X119781428Y-121117676D02*
X119876666Y-121212914D01*
X119876666Y-121212914D02*
X119971904Y-121260533D01*
X118495714Y-120974819D02*
X118971904Y-120974819D01*
X118971904Y-120974819D02*
X119019523Y-121451009D01*
X119019523Y-121451009D02*
X118971904Y-121403390D01*
X118971904Y-121403390D02*
X118876666Y-121355771D01*
X118876666Y-121355771D02*
X118638571Y-121355771D01*
X118638571Y-121355771D02*
X118543333Y-121403390D01*
X118543333Y-121403390D02*
X118495714Y-121451009D01*
X118495714Y-121451009D02*
X118448095Y-121546247D01*
X118448095Y-121546247D02*
X118448095Y-121784342D01*
X118448095Y-121784342D02*
X118495714Y-121879580D01*
X118495714Y-121879580D02*
X118543333Y-121927200D01*
X118543333Y-121927200D02*
X118638571Y-121974819D01*
X118638571Y-121974819D02*
X118876666Y-121974819D01*
X118876666Y-121974819D02*
X118971904Y-121927200D01*
X118971904Y-121927200D02*
X119019523Y-121879580D01*
X157892857Y-112704819D02*
X158369047Y-112704819D01*
X158369047Y-112704819D02*
X158369047Y-111704819D01*
X157035714Y-112704819D02*
X157607142Y-112704819D01*
X157321428Y-112704819D02*
X157321428Y-111704819D01*
X157321428Y-111704819D02*
X157416666Y-111847676D01*
X157416666Y-111847676D02*
X157511904Y-111942914D01*
X157511904Y-111942914D02*
X157607142Y-111990533D01*
X156702380Y-111704819D02*
X156035714Y-111704819D01*
X156035714Y-111704819D02*
X156464285Y-112704819D01*
D13*
X160621428Y-115313595D02*
X161078571Y-115313595D01*
X160849999Y-115313595D02*
X160849999Y-114513595D01*
X160849999Y-114513595D02*
X160926190Y-114627880D01*
X160926190Y-114627880D02*
X161002380Y-114704071D01*
X161002380Y-114704071D02*
X161078571Y-114742166D01*
D12*
X188679580Y-78833333D02*
X188727200Y-78785714D01*
X188727200Y-78785714D02*
X188774819Y-78642857D01*
X188774819Y-78642857D02*
X188774819Y-78547619D01*
X188774819Y-78547619D02*
X188727200Y-78404762D01*
X188727200Y-78404762D02*
X188631961Y-78309524D01*
X188631961Y-78309524D02*
X188536723Y-78261905D01*
X188536723Y-78261905D02*
X188346247Y-78214286D01*
X188346247Y-78214286D02*
X188203390Y-78214286D01*
X188203390Y-78214286D02*
X188012914Y-78261905D01*
X188012914Y-78261905D02*
X187917676Y-78309524D01*
X187917676Y-78309524D02*
X187822438Y-78404762D01*
X187822438Y-78404762D02*
X187774819Y-78547619D01*
X187774819Y-78547619D02*
X187774819Y-78642857D01*
X187774819Y-78642857D02*
X187822438Y-78785714D01*
X187822438Y-78785714D02*
X187870057Y-78833333D01*
X187774819Y-79738095D02*
X187774819Y-79261905D01*
X187774819Y-79261905D02*
X188251009Y-79214286D01*
X188251009Y-79214286D02*
X188203390Y-79261905D01*
X188203390Y-79261905D02*
X188155771Y-79357143D01*
X188155771Y-79357143D02*
X188155771Y-79595238D01*
X188155771Y-79595238D02*
X188203390Y-79690476D01*
X188203390Y-79690476D02*
X188251009Y-79738095D01*
X188251009Y-79738095D02*
X188346247Y-79785714D01*
X188346247Y-79785714D02*
X188584342Y-79785714D01*
X188584342Y-79785714D02*
X188679580Y-79738095D01*
X188679580Y-79738095D02*
X188727200Y-79690476D01*
X188727200Y-79690476D02*
X188774819Y-79595238D01*
X188774819Y-79595238D02*
X188774819Y-79357143D01*
X188774819Y-79357143D02*
X188727200Y-79261905D01*
X188727200Y-79261905D02*
X188679580Y-79214286D01*
D15*
%TO.C,R1*%
X66765000Y-75727064D02*
X66765000Y-75272936D01*
X68235000Y-75727064D02*
X68235000Y-75272936D01*
%TO.C,D21*%
X174010000Y-118525000D02*
X178020000Y-118525000D01*
X174010000Y-120525000D02*
X174010000Y-118525000D01*
X174010000Y-120525000D02*
X178020000Y-120525000D01*
%TO.C,D27*%
X231160000Y-118525000D02*
X235170000Y-118525000D01*
X231160000Y-120525000D02*
X231160000Y-118525000D01*
X231160000Y-120525000D02*
X235170000Y-120525000D01*
%TO.C,C22*%
X227515000Y-135688748D02*
X227515000Y-136211252D01*
X228985000Y-135688748D02*
X228985000Y-136211252D01*
%TO.C,L3*%
X154700000Y-78400000D02*
X155300000Y-79000000D01*
D14*
X161450000Y-74825000D02*
X153950000Y-74825000D01*
X153950000Y-79175000D01*
X161450000Y-79175000D01*
X161450000Y-74825000D01*
D15*
%TO.C,L5*%
X192950000Y-78400000D02*
X193550000Y-79000000D01*
D14*
X199700000Y-74825000D02*
X192200000Y-74825000D01*
X192200000Y-79175000D01*
X199700000Y-79175000D01*
X199700000Y-74825000D01*
D15*
%TO.C,C6*%
X208265000Y-78488748D02*
X208265000Y-79011252D01*
X209735000Y-78488748D02*
X209735000Y-79011252D01*
%TO.C,L25*%
X173700000Y-135525000D02*
X174300000Y-136125000D01*
D14*
X180450000Y-131950000D02*
X172950000Y-131950000D01*
X172950000Y-136300000D01*
X180450000Y-136300000D01*
X180450000Y-131950000D01*
D15*
%TO.C,C26*%
X151265000Y-135438748D02*
X151265000Y-135961252D01*
X152735000Y-135438748D02*
X152735000Y-135961252D01*
%TO.C,D9*%
X154960000Y-99475000D02*
X158970000Y-99475000D01*
X154960000Y-101475000D02*
X154960000Y-99475000D01*
X154960000Y-101475000D02*
X158970000Y-101475000D01*
%TO.C,D20*%
X154960000Y-118525000D02*
X158970000Y-118525000D01*
X154960000Y-120525000D02*
X154960000Y-118525000D01*
X154960000Y-120525000D02*
X158970000Y-120525000D01*
%TO.C,C25*%
X170265000Y-135438748D02*
X170265000Y-135961252D01*
X171735000Y-135438748D02*
X171735000Y-135961252D01*
%TO.C,L16*%
X135700000Y-116400000D02*
X136300000Y-117000000D01*
D14*
X142450000Y-112825000D02*
X134950000Y-112825000D01*
X134950000Y-117175000D01*
X142450000Y-117175000D01*
X142450000Y-112825000D01*
D15*
%TO.C,C20*%
X208515000Y-116488748D02*
X208515000Y-117011252D01*
X209985000Y-116488748D02*
X209985000Y-117011252D01*
%TO.C,L14*%
X116450000Y-97275000D02*
X117050000Y-97875000D01*
D14*
X123200000Y-93700000D02*
X115700000Y-93700000D01*
X115700000Y-98050000D01*
X123200000Y-98050000D01*
X123200000Y-93700000D01*
D15*
%TO.C,C14*%
X113265000Y-97488748D02*
X113265000Y-98011252D01*
X114735000Y-97488748D02*
X114735000Y-98011252D01*
%TO.C,L2*%
X135450000Y-78400000D02*
X136050000Y-79000000D01*
D14*
X142200000Y-74825000D02*
X134700000Y-74825000D01*
X134700000Y-79175000D01*
X142200000Y-79175000D01*
X142200000Y-74825000D01*
D15*
%TO.C,L6*%
X211950000Y-78400000D02*
X212550000Y-79000000D01*
D14*
X218700000Y-74825000D02*
X211200000Y-74825000D01*
X211200000Y-79175000D01*
X218700000Y-79175000D01*
X218700000Y-74825000D01*
D15*
%TO.C,L7*%
X230700000Y-78400000D02*
X231300000Y-79000000D01*
D14*
X237450000Y-74825000D02*
X229950000Y-74825000D01*
X229950000Y-79175000D01*
X237450000Y-79175000D01*
X237450000Y-74825000D01*
D15*
%TO.C,D23*%
X193060000Y-118525000D02*
X197070000Y-118525000D01*
X193060000Y-120525000D02*
X193060000Y-118525000D01*
X193060000Y-120525000D02*
X197070000Y-120525000D01*
%TO.C,C18*%
X170265000Y-116688748D02*
X170265000Y-117211252D01*
X171735000Y-116688748D02*
X171735000Y-117211252D01*
%TO.C,C10*%
X189265000Y-97438748D02*
X189265000Y-97961252D01*
X190735000Y-97438748D02*
X190735000Y-97961252D01*
%TO.C,C19*%
X189265000Y-116488748D02*
X189265000Y-117011252D01*
X190735000Y-116488748D02*
X190735000Y-117011252D01*
%TO.C,C9*%
X208335000Y-97488748D02*
X208335000Y-98011252D01*
X209805000Y-97488748D02*
X209805000Y-98011252D01*
%TO.C,L9*%
X211700000Y-97400000D02*
X212300000Y-98000000D01*
D14*
X218450000Y-93825000D02*
X210950000Y-93825000D01*
X210950000Y-98175000D01*
X218450000Y-98175000D01*
X218450000Y-93825000D01*
D15*
%TO.C,D16*%
X116860000Y-137575000D02*
X120870000Y-137575000D01*
X116860000Y-139575000D02*
X116860000Y-137575000D01*
X116860000Y-139575000D02*
X120870000Y-139575000D01*
%TO.C,L15*%
X116450000Y-116400000D02*
X117050000Y-117000000D01*
D14*
X123200000Y-112825000D02*
X115700000Y-112825000D01*
X115700000Y-117175000D01*
X123200000Y-117175000D01*
X123200000Y-112825000D01*
D15*
%TO.C,C27*%
X132265000Y-135688748D02*
X132265000Y-136211252D01*
X133735000Y-135688748D02*
X133735000Y-136211252D01*
%TO.C,D24*%
X193060000Y-137575000D02*
X197070000Y-137575000D01*
X193060000Y-139575000D02*
X193060000Y-137575000D01*
X193060000Y-139575000D02*
X197070000Y-139575000D01*
%TO.C,D1*%
X116860000Y-80425000D02*
X120870000Y-80425000D01*
X116860000Y-82425000D02*
X116860000Y-80425000D01*
X116860000Y-82425000D02*
X120870000Y-82425000D01*
%TO.C,D25*%
X212110000Y-118525000D02*
X216120000Y-118525000D01*
X212110000Y-120525000D02*
X212110000Y-118525000D01*
X212110000Y-120525000D02*
X216120000Y-120525000D01*
%TO.C,C17*%
X151015000Y-116488748D02*
X151015000Y-117011252D01*
X152485000Y-116488748D02*
X152485000Y-117011252D01*
%TO.C,D22*%
X174010000Y-137575000D02*
X178020000Y-137575000D01*
X174010000Y-139575000D02*
X174010000Y-137575000D01*
X174010000Y-139575000D02*
X178020000Y-139575000D01*
%TO.C,C13*%
X132265000Y-97488748D02*
X132265000Y-98011252D01*
X133735000Y-97488748D02*
X133735000Y-98011252D01*
%TO.C,L20*%
X211700000Y-116400000D02*
X212300000Y-117000000D01*
D14*
X218450000Y-112825000D02*
X210950000Y-112825000D01*
X210950000Y-117175000D01*
X218450000Y-117175000D01*
X218450000Y-112825000D01*
D15*
%TO.C,C3*%
X151185000Y-79261252D02*
X151185000Y-78738748D01*
X152655000Y-79261252D02*
X152655000Y-78738748D01*
%TO.C,C28*%
X113265000Y-135488748D02*
X113265000Y-136011252D01*
X114735000Y-135488748D02*
X114735000Y-136011252D01*
%TO.C,D12*%
X193550000Y-99320000D02*
X197560000Y-99320000D01*
X193550000Y-101320000D02*
X193550000Y-99320000D01*
X193550000Y-101320000D02*
X197560000Y-101320000D01*
%TO.C,L12*%
X154450000Y-97400000D02*
X155050000Y-98000000D01*
D14*
X161200000Y-93825000D02*
X153700000Y-93825000D01*
X153700000Y-98175000D01*
X161200000Y-98175000D01*
X161200000Y-93825000D01*
D15*
%TO.C,D8*%
X116860000Y-99475000D02*
X120870000Y-99475000D01*
X116860000Y-101475000D02*
X116860000Y-99475000D01*
X116860000Y-101475000D02*
X120870000Y-101475000D01*
%TO.C,C8*%
X227515000Y-97488748D02*
X227515000Y-98011252D01*
X228985000Y-97488748D02*
X228985000Y-98011252D01*
%TO.C,D18*%
X135910000Y-118525000D02*
X139920000Y-118525000D01*
X135910000Y-120525000D02*
X135910000Y-118525000D01*
X135910000Y-120525000D02*
X139920000Y-120525000D01*
%TO.C,C24*%
X189515000Y-135438748D02*
X189515000Y-135961252D01*
X190985000Y-135438748D02*
X190985000Y-135961252D01*
%TO.C,L23*%
X211700000Y-135525000D02*
X212300000Y-136125000D01*
D14*
X218450000Y-131950000D02*
X210950000Y-131950000D01*
X210950000Y-136300000D01*
X218450000Y-136300000D01*
X218450000Y-131950000D01*
D15*
%TO.C,D5*%
X193060000Y-80425000D02*
X197070000Y-80425000D01*
X193060000Y-82425000D02*
X193060000Y-80425000D01*
X193060000Y-82425000D02*
X197070000Y-82425000D01*
%TO.C,C11*%
X170265000Y-97438748D02*
X170265000Y-97961252D01*
X171735000Y-97438748D02*
X171735000Y-97961252D01*
%TO.C,C1*%
X113265000Y-79261252D02*
X113265000Y-78738748D01*
X114735000Y-79261252D02*
X114735000Y-78738748D01*
%TO.C,D7*%
X231160000Y-80425000D02*
X235170000Y-80425000D01*
X231160000Y-82425000D02*
X231160000Y-80425000D01*
X231160000Y-82425000D02*
X235170000Y-82425000D01*
%TO.C,L24*%
X192700000Y-135400000D02*
X193300000Y-136000000D01*
D14*
X199450000Y-131825000D02*
X191950000Y-131825000D01*
X191950000Y-136175000D01*
X199450000Y-136175000D01*
X199450000Y-131825000D01*
D15*
%TO.C,C16*%
X132265000Y-116488748D02*
X132265000Y-117011252D01*
X133735000Y-116488748D02*
X133735000Y-117011252D01*
%TO.C,C2*%
X132265000Y-79261252D02*
X132265000Y-78738748D01*
X133735000Y-79261252D02*
X133735000Y-78738748D01*
%TO.C,L28*%
X116450000Y-135525000D02*
X117050000Y-136125000D01*
D14*
X123200000Y-131950000D02*
X115700000Y-131950000D01*
X115700000Y-136300000D01*
X123200000Y-136300000D01*
X123200000Y-131950000D01*
D15*
%TO.C,L21*%
X230700000Y-116400000D02*
X231300000Y-117000000D01*
D14*
X237450000Y-112825000D02*
X229950000Y-112825000D01*
X229950000Y-117175000D01*
X237450000Y-117175000D01*
X237450000Y-112825000D01*
D15*
%TO.C,D3*%
X154960000Y-80425000D02*
X158970000Y-80425000D01*
X154960000Y-82425000D02*
X154960000Y-80425000D01*
X154960000Y-82425000D02*
X158970000Y-82425000D01*
%TO.C,L18*%
X173450000Y-116400000D02*
X174050000Y-117000000D01*
D14*
X180200000Y-112825000D02*
X172700000Y-112825000D01*
X172700000Y-117175000D01*
X180200000Y-117175000D01*
X180200000Y-112825000D01*
D15*
%TO.C,D17*%
X135910000Y-137575000D02*
X139920000Y-137575000D01*
X135910000Y-139575000D02*
X135910000Y-137575000D01*
X135910000Y-139575000D02*
X139920000Y-139575000D01*
%TO.C,L10*%
X192700000Y-97400000D02*
X193300000Y-98000000D01*
D14*
X199450000Y-93825000D02*
X191950000Y-93825000D01*
X191950000Y-98175000D01*
X199450000Y-98175000D01*
X199450000Y-93825000D01*
D15*
%TO.C,D26*%
X210460000Y-137575000D02*
X214470000Y-137575000D01*
X210460000Y-139575000D02*
X210460000Y-137575000D01*
X210460000Y-139575000D02*
X214470000Y-139575000D01*
%TO.C,C15*%
X113265000Y-116488748D02*
X113265000Y-117011252D01*
X114735000Y-116488748D02*
X114735000Y-117011252D01*
%TO.C,C4*%
X170265000Y-78738748D02*
X170265000Y-79261252D01*
X171735000Y-78738748D02*
X171735000Y-79261252D01*
%TO.C,D10*%
X135910000Y-99475000D02*
X139920000Y-99475000D01*
X135910000Y-101475000D02*
X135910000Y-99475000D01*
X135910000Y-101475000D02*
X139920000Y-101475000D01*
%TO.C,L27*%
X135450000Y-135400000D02*
X136050000Y-136000000D01*
D14*
X142200000Y-131825000D02*
X134700000Y-131825000D01*
X134700000Y-136175000D01*
X142200000Y-136175000D01*
X142200000Y-131825000D01*
D15*
%TO.C,C29*%
X100340000Y-78204437D02*
X100340000Y-83960000D01*
X100340000Y-83960000D02*
X102690000Y-83960000D01*
X101404437Y-77140000D02*
X100340000Y-78204437D01*
X101404437Y-77140000D02*
X102690000Y-77140000D01*
X101508750Y-76506250D02*
X102296250Y-76506250D01*
X101902500Y-76112500D02*
X101902500Y-76900000D01*
X106095563Y-77140000D02*
X104810000Y-77140000D01*
X106095563Y-77140000D02*
X107160000Y-78204437D01*
X107160000Y-78204437D02*
X107160000Y-83960000D01*
X107160000Y-83960000D02*
X104810000Y-83960000D01*
%TO.C,D14*%
X231150000Y-99520000D02*
X235160000Y-99520000D01*
X231150000Y-101520000D02*
X231150000Y-99520000D01*
X231150000Y-101520000D02*
X235160000Y-101520000D01*
%TO.C,D11*%
X174550000Y-99520000D02*
X178560000Y-99520000D01*
X174550000Y-101520000D02*
X174550000Y-99520000D01*
X174550000Y-101520000D02*
X178560000Y-101520000D01*
%TO.C,D19*%
X154960000Y-137575000D02*
X158970000Y-137575000D01*
X154960000Y-139575000D02*
X154960000Y-137575000D01*
X154960000Y-139575000D02*
X158970000Y-139575000D01*
%TO.C,L11*%
X173700000Y-97275000D02*
X174300000Y-97875000D01*
D14*
X180450000Y-93700000D02*
X172950000Y-93700000D01*
X172950000Y-98050000D01*
X180450000Y-98050000D01*
X180450000Y-93700000D01*
D15*
%TO.C,L1*%
X116420000Y-78400000D02*
X117020000Y-79000000D01*
D14*
X123170000Y-74825000D02*
X115670000Y-74825000D01*
X115670000Y-79175000D01*
X123170000Y-79175000D01*
X123170000Y-74825000D01*
D15*
%TO.C,L4*%
X173700000Y-78400000D02*
X174300000Y-79000000D01*
D14*
X180450000Y-74825000D02*
X172950000Y-74825000D01*
X172950000Y-79175000D01*
X180450000Y-79175000D01*
X180450000Y-74825000D01*
D15*
%TO.C,D4*%
X174010000Y-80425000D02*
X178020000Y-80425000D01*
X174010000Y-82425000D02*
X174010000Y-80425000D01*
X174010000Y-82425000D02*
X178020000Y-82425000D01*
%TO.C,D28*%
X231160000Y-137575000D02*
X235170000Y-137575000D01*
X231160000Y-139575000D02*
X231160000Y-137575000D01*
X231160000Y-139575000D02*
X235170000Y-139575000D01*
%TO.C,L19*%
X192450000Y-116400000D02*
X193050000Y-117000000D01*
D14*
X199200000Y-112825000D02*
X191700000Y-112825000D01*
X191700000Y-117175000D01*
X199200000Y-117175000D01*
X199200000Y-112825000D01*
D15*
%TO.C,L8*%
X230700000Y-97400000D02*
X231300000Y-98000000D01*
D14*
X237450000Y-93825000D02*
X229950000Y-93825000D01*
X229950000Y-98175000D01*
X237450000Y-98175000D01*
X237450000Y-93825000D01*
D15*
%TO.C,L26*%
X154450000Y-135400000D02*
X155050000Y-136000000D01*
D14*
X161200000Y-131825000D02*
X153700000Y-131825000D01*
X153700000Y-136175000D01*
X161200000Y-136175000D01*
X161200000Y-131825000D01*
D15*
%TO.C,D6*%
X212110000Y-80425000D02*
X216120000Y-80425000D01*
X212110000Y-82425000D02*
X212110000Y-80425000D01*
X212110000Y-82425000D02*
X216120000Y-82425000D01*
%TO.C,C23*%
X208515000Y-135688748D02*
X208515000Y-136211252D01*
X209985000Y-135688748D02*
X209985000Y-136211252D01*
%TO.C,L22*%
X230700000Y-135650000D02*
X231300000Y-136250000D01*
D14*
X237450000Y-132075000D02*
X229950000Y-132075000D01*
X229950000Y-136425000D01*
X237450000Y-136425000D01*
X237450000Y-132075000D01*
D15*
%TO.C,D2*%
X135910000Y-80425000D02*
X139920000Y-80425000D01*
X135910000Y-82425000D02*
X135910000Y-80425000D01*
X135910000Y-82425000D02*
X139920000Y-82425000D01*
%TO.C,C7*%
X227515000Y-78488748D02*
X227515000Y-79011252D01*
X228985000Y-78488748D02*
X228985000Y-79011252D01*
%TO.C,D13*%
X212550000Y-99520000D02*
X216560000Y-99520000D01*
X212550000Y-101520000D02*
X212550000Y-99520000D01*
X212550000Y-101520000D02*
X216560000Y-101520000D01*
%TO.C,C12*%
X151265000Y-97488748D02*
X151265000Y-98011252D01*
X152735000Y-97488748D02*
X152735000Y-98011252D01*
%TO.C,L13*%
X135450000Y-97400000D02*
X136050000Y-98000000D01*
D14*
X142200000Y-93825000D02*
X134700000Y-93825000D01*
X134700000Y-98175000D01*
X142200000Y-98175000D01*
X142200000Y-93825000D01*
D15*
%TO.C,C21*%
X227515000Y-116488748D02*
X227515000Y-117011252D01*
X228985000Y-116488748D02*
X228985000Y-117011252D01*
%TO.C,D15*%
X117350000Y-118520000D02*
X121360000Y-118520000D01*
X117350000Y-120520000D02*
X117350000Y-118520000D01*
X117350000Y-120520000D02*
X121360000Y-120520000D01*
%TO.C,L17*%
X154450000Y-116400000D02*
X155050000Y-117000000D01*
D14*
X161200000Y-112825000D02*
X153700000Y-112825000D01*
X153700000Y-117175000D01*
X161200000Y-117175000D01*
X161200000Y-112825000D01*
D15*
%TO.C,C5*%
X189265000Y-78738748D02*
X189265000Y-79261252D01*
X190735000Y-78738748D02*
X190735000Y-79261252D01*
%TD*%
%LPC*%
D16*
%TO.C,SW1*%
X67660000Y-134650000D03*
D17*
X72160000Y-134650000D03*
D18*
X64660000Y-132150000D03*
D19*
X64660000Y-137150000D03*
X64660000Y-134650000D03*
D20*
X72160000Y-129050000D03*
X72160000Y-140250000D03*
D19*
X79160000Y-137150000D03*
X79160000Y-132150000D03*
%TD*%
D21*
%TO.C,SWK11*%
X171290000Y-90950000D03*
D22*
X176370000Y-90950000D03*
D21*
X181450000Y-90950000D03*
D23*
X178910000Y-85870000D03*
X172560000Y-88410000D03*
%TD*%
D21*
%TO.C,O1-7*%
X228440000Y-110000000D03*
D22*
X233520000Y-110000000D03*
D21*
X238600000Y-110000000D03*
D23*
X236060000Y-104920000D03*
X229710000Y-107460000D03*
%TD*%
D21*
%TO.C,O1-4*%
X171290000Y-110000000D03*
D22*
X176370000Y-110000000D03*
D21*
X181450000Y-110000000D03*
D23*
X178910000Y-104920000D03*
X172560000Y-107460000D03*
%TD*%
D21*
%TO.C,F4*%
X171290000Y-129050000D03*
D22*
X176370000Y-129050000D03*
D21*
X181450000Y-129050000D03*
D23*
X178910000Y-123970000D03*
X172560000Y-126510000D03*
%TD*%
D21*
%TO.C,F7*%
X228440000Y-129050000D03*
D22*
X233520000Y-129050000D03*
D21*
X238600000Y-129050000D03*
D23*
X236060000Y-123970000D03*
X229710000Y-126510000D03*
%TD*%
D16*
%TO.C,SW3*%
X91000000Y-134650000D03*
D17*
X95500000Y-134650000D03*
D18*
X88000000Y-132150000D03*
D19*
X88000000Y-137150000D03*
X88000000Y-134650000D03*
D20*
X95500000Y-129050000D03*
X95500000Y-140250000D03*
D19*
X102500000Y-137150000D03*
X102500000Y-132150000D03*
%TD*%
D21*
%TO.C,O1-1*%
X114140000Y-110000000D03*
D22*
X119220000Y-110000000D03*
D21*
X124300000Y-110000000D03*
D23*
X121760000Y-104920000D03*
X115410000Y-107460000D03*
%TD*%
D21*
%TO.C,F6*%
X209390000Y-129050000D03*
D22*
X214470000Y-129050000D03*
D21*
X219550000Y-129050000D03*
D23*
X217010000Y-123970000D03*
X210660000Y-126510000D03*
%TD*%
D21*
%TO.C,SWK7*%
X228440000Y-71900000D03*
D22*
X233520000Y-71900000D03*
D21*
X238600000Y-71900000D03*
D23*
X236060000Y-66820000D03*
X229710000Y-69360000D03*
%TD*%
D21*
%TO.C,SWK6*%
X209390000Y-71900000D03*
D22*
X214470000Y-71900000D03*
D21*
X219550000Y-71900000D03*
D23*
X217010000Y-66820000D03*
X210660000Y-69360000D03*
%TD*%
D21*
%TO.C,SWK4*%
X171290000Y-71900000D03*
D22*
X176370000Y-71900000D03*
D21*
X181450000Y-71900000D03*
D23*
X178910000Y-66820000D03*
X172560000Y-69360000D03*
%TD*%
D21*
%TO.C,O1-5*%
X190340000Y-110000000D03*
D22*
X195420000Y-110000000D03*
D21*
X200500000Y-110000000D03*
D23*
X197960000Y-104920000D03*
X191610000Y-107460000D03*
%TD*%
D21*
%TO.C,SWK13*%
X209390000Y-90950000D03*
D22*
X214470000Y-90950000D03*
D21*
X219550000Y-90950000D03*
D23*
X217010000Y-85870000D03*
X210660000Y-88410000D03*
%TD*%
D21*
%TO.C,O1-6*%
X209390000Y-110000000D03*
D22*
X214470000Y-110000000D03*
D21*
X219550000Y-110000000D03*
D23*
X217010000Y-104920000D03*
X210660000Y-107460000D03*
%TD*%
D21*
%TO.C,o3-3*%
X114140000Y-71900000D03*
D22*
X119220000Y-71900000D03*
D21*
X124300000Y-71900000D03*
D23*
X121760000Y-66820000D03*
X115410000Y-69360000D03*
%TD*%
D21*
%TO.C,SWK10*%
X152240000Y-90950000D03*
D22*
X157320000Y-90950000D03*
D21*
X162400000Y-90950000D03*
D23*
X159860000Y-85870000D03*
X153510000Y-88410000D03*
%TD*%
D21*
%TO.C,F1*%
X114140000Y-129050000D03*
D22*
X119220000Y-129050000D03*
D21*
X124300000Y-129050000D03*
D23*
X121760000Y-123970000D03*
X115410000Y-126510000D03*
%TD*%
D21*
%TO.C,SWK12*%
X190340000Y-90950000D03*
D22*
X195420000Y-90950000D03*
D21*
X200500000Y-90950000D03*
D23*
X197960000Y-85870000D03*
X191610000Y-88410000D03*
%TD*%
D21*
%TO.C,SWK8*%
X114140000Y-90950000D03*
D22*
X119220000Y-90950000D03*
D21*
X124300000Y-90950000D03*
D23*
X121760000Y-85870000D03*
X115410000Y-88410000D03*
%TD*%
D21*
%TO.C,O1-2*%
X133190000Y-110000000D03*
D22*
X138270000Y-110000000D03*
D21*
X143350000Y-110000000D03*
D23*
X140810000Y-104920000D03*
X134460000Y-107460000D03*
%TD*%
D21*
%TO.C,K2*%
X133190000Y-71900000D03*
D22*
X138270000Y-71900000D03*
D21*
X143350000Y-71900000D03*
D23*
X140810000Y-66820000D03*
X134460000Y-69360000D03*
%TD*%
D21*
%TO.C,SWK14*%
X228440000Y-90950000D03*
D22*
X233520000Y-90950000D03*
D21*
X238600000Y-90950000D03*
D23*
X236060000Y-85870000D03*
X229710000Y-88410000D03*
%TD*%
D21*
%TO.C,F5*%
X190340000Y-129050000D03*
D22*
X195420000Y-129050000D03*
D21*
X200500000Y-129050000D03*
D23*
X197960000Y-123970000D03*
X191610000Y-126510000D03*
%TD*%
D21*
%TO.C,SWK9*%
X133190000Y-90950000D03*
D22*
X138270000Y-90950000D03*
D21*
X143350000Y-90950000D03*
D23*
X140810000Y-85870000D03*
X134460000Y-88410000D03*
%TD*%
D21*
%TO.C,SWK5*%
X190340000Y-71900000D03*
D22*
X195420000Y-71900000D03*
D21*
X200500000Y-71900000D03*
D23*
X197960000Y-66820000D03*
X191610000Y-69360000D03*
%TD*%
D21*
%TO.C,F2*%
X133190000Y-129050000D03*
D22*
X138270000Y-129050000D03*
D21*
X143350000Y-129050000D03*
D23*
X140810000Y-123970000D03*
X134460000Y-126510000D03*
%TD*%
D21*
%TO.C,O1-3*%
X152240000Y-110000000D03*
D22*
X157320000Y-110000000D03*
D21*
X162400000Y-110000000D03*
D23*
X159860000Y-104920000D03*
X153510000Y-107460000D03*
%TD*%
D21*
%TO.C,F3*%
X152240000Y-129050000D03*
D22*
X157320000Y-129050000D03*
D21*
X162400000Y-129050000D03*
D23*
X159860000Y-123970000D03*
X153510000Y-126510000D03*
%TD*%
D21*
%TO.C,SWK3*%
X152240000Y-71900000D03*
D22*
X157320000Y-71900000D03*
D21*
X162400000Y-71900000D03*
D23*
X159860000Y-66820000D03*
X153510000Y-69360000D03*
%TD*%
D24*
%TO.C,R1*%
X67500000Y-76412500D03*
X67500000Y-74587500D03*
%TD*%
D25*
%TO.C,D21*%
X174720000Y-119525000D03*
X178020000Y-119525000D03*
%TD*%
%TO.C,D27*%
X231870000Y-119525000D03*
X235170000Y-119525000D03*
%TD*%
D26*
%TO.C,C22*%
X228250000Y-135000000D03*
X228250000Y-136900000D03*
%TD*%
D27*
%TO.C,L3*%
X160100000Y-76125000D03*
X160100000Y-77875000D03*
X154900000Y-77850000D03*
X154900000Y-76100000D03*
%TD*%
%TO.C,L5*%
X198350000Y-76125000D03*
X198350000Y-77875000D03*
X193150000Y-77850000D03*
X193150000Y-76100000D03*
%TD*%
D26*
%TO.C,C6*%
X209000000Y-77800000D03*
X209000000Y-79700000D03*
%TD*%
D27*
%TO.C,L25*%
X179100000Y-133250000D03*
X179100000Y-135000000D03*
X173900000Y-134975000D03*
X173900000Y-133225000D03*
%TD*%
D26*
%TO.C,C26*%
X152000000Y-134750000D03*
X152000000Y-136650000D03*
%TD*%
D25*
%TO.C,D9*%
X155670000Y-100475000D03*
X158970000Y-100475000D03*
%TD*%
%TO.C,D20*%
X155670000Y-119525000D03*
X158970000Y-119525000D03*
%TD*%
D26*
%TO.C,C25*%
X171000000Y-134750000D03*
X171000000Y-136650000D03*
%TD*%
D27*
%TO.C,L16*%
X141100000Y-114125000D03*
X141100000Y-115875000D03*
X135900000Y-115850000D03*
X135900000Y-114100000D03*
%TD*%
D26*
%TO.C,C20*%
X209250000Y-115800000D03*
X209250000Y-117700000D03*
%TD*%
D27*
%TO.C,L14*%
X121850000Y-95000000D03*
X121850000Y-96750000D03*
X116650000Y-96725000D03*
X116650000Y-94975000D03*
%TD*%
D26*
%TO.C,C14*%
X114000000Y-96800000D03*
X114000000Y-98700000D03*
%TD*%
D27*
%TO.C,L2*%
X140850000Y-76125000D03*
X140850000Y-77875000D03*
X135650000Y-77850000D03*
X135650000Y-76100000D03*
%TD*%
%TO.C,L6*%
X217350000Y-76125000D03*
X217350000Y-77875000D03*
X212150000Y-77850000D03*
X212150000Y-76100000D03*
%TD*%
%TO.C,L7*%
X236100000Y-76125000D03*
X236100000Y-77875000D03*
X230900000Y-77850000D03*
X230900000Y-76100000D03*
%TD*%
D28*
%TO.C,U1*%
X72760000Y-71245000D03*
X72760000Y-73785000D03*
X72760000Y-76325000D03*
X72760000Y-78865000D03*
X72760000Y-81405000D03*
X72760000Y-83945000D03*
X72760000Y-86485000D03*
X72760000Y-89025000D03*
X72760000Y-91565000D03*
X72760000Y-94105000D03*
X72760000Y-96645000D03*
X72760000Y-99185000D03*
X93080000Y-99185000D03*
X93080000Y-96645000D03*
X93080000Y-94105000D03*
X93080000Y-91565000D03*
X93080000Y-89025000D03*
X93080000Y-86485000D03*
X93080000Y-83945000D03*
X93080000Y-81405000D03*
X93080000Y-78865000D03*
X93080000Y-76325000D03*
X93080000Y-73785000D03*
X93080000Y-71245000D03*
X93080000Y-68705000D03*
X93080000Y-66165000D03*
X93080000Y-63625000D03*
X93080000Y-61085000D03*
%TD*%
D25*
%TO.C,D23*%
X193770000Y-119525000D03*
X197070000Y-119525000D03*
%TD*%
D26*
%TO.C,C18*%
X171000000Y-116000000D03*
X171000000Y-117900000D03*
%TD*%
%TO.C,C10*%
X190000000Y-96750000D03*
X190000000Y-98650000D03*
%TD*%
%TO.C,C19*%
X190000000Y-115800000D03*
X190000000Y-117700000D03*
%TD*%
%TO.C,C9*%
X209070000Y-96800000D03*
X209070000Y-98700000D03*
%TD*%
D27*
%TO.C,L9*%
X217100000Y-95125000D03*
X217100000Y-96875000D03*
X211900000Y-96850000D03*
X211900000Y-95100000D03*
%TD*%
D25*
%TO.C,D16*%
X117570000Y-138575000D03*
X120870000Y-138575000D03*
%TD*%
D27*
%TO.C,L15*%
X121850000Y-114125000D03*
X121850000Y-115875000D03*
X116650000Y-115850000D03*
X116650000Y-114100000D03*
%TD*%
D26*
%TO.C,C27*%
X133000000Y-135000000D03*
X133000000Y-136900000D03*
%TD*%
D25*
%TO.C,D24*%
X193770000Y-138575000D03*
X197070000Y-138575000D03*
%TD*%
%TO.C,D1*%
X117570000Y-81425000D03*
X120870000Y-81425000D03*
%TD*%
%TO.C,D25*%
X212820000Y-119525000D03*
X216120000Y-119525000D03*
%TD*%
D26*
%TO.C,C17*%
X151750000Y-115800000D03*
X151750000Y-117700000D03*
%TD*%
D25*
%TO.C,D22*%
X174720000Y-138575000D03*
X178020000Y-138575000D03*
%TD*%
D26*
%TO.C,C13*%
X133000000Y-96800000D03*
X133000000Y-98700000D03*
%TD*%
D27*
%TO.C,L20*%
X217100000Y-114125000D03*
X217100000Y-115875000D03*
X211900000Y-115850000D03*
X211900000Y-114100000D03*
%TD*%
D29*
%TO.C,C3*%
X151920000Y-79950000D03*
X151920000Y-78050000D03*
%TD*%
D26*
%TO.C,C28*%
X114000000Y-134800000D03*
X114000000Y-136700000D03*
%TD*%
D25*
%TO.C,D12*%
X194260000Y-100320000D03*
X197560000Y-100320000D03*
%TD*%
D27*
%TO.C,L12*%
X159850000Y-95125000D03*
X159850000Y-96875000D03*
X154650000Y-96850000D03*
X154650000Y-95100000D03*
%TD*%
D25*
%TO.C,D8*%
X117570000Y-100475000D03*
X120870000Y-100475000D03*
%TD*%
D26*
%TO.C,C8*%
X228250000Y-96800000D03*
X228250000Y-98700000D03*
%TD*%
D25*
%TO.C,D18*%
X136620000Y-119525000D03*
X139920000Y-119525000D03*
%TD*%
D26*
%TO.C,C24*%
X190250000Y-134750000D03*
X190250000Y-136650000D03*
%TD*%
D27*
%TO.C,L23*%
X217100000Y-133250000D03*
X217100000Y-135000000D03*
X211900000Y-134975000D03*
X211900000Y-133225000D03*
%TD*%
D25*
%TO.C,D5*%
X193770000Y-81425000D03*
X197070000Y-81425000D03*
%TD*%
D26*
%TO.C,C11*%
X171000000Y-96750000D03*
X171000000Y-98650000D03*
%TD*%
D29*
%TO.C,C1*%
X114000000Y-79950000D03*
X114000000Y-78050000D03*
%TD*%
D25*
%TO.C,D7*%
X231870000Y-81425000D03*
X235170000Y-81425000D03*
%TD*%
D27*
%TO.C,L24*%
X198100000Y-133125000D03*
X198100000Y-134875000D03*
X192900000Y-134850000D03*
X192900000Y-133100000D03*
%TD*%
D26*
%TO.C,C16*%
X133000000Y-115800000D03*
X133000000Y-117700000D03*
%TD*%
D29*
%TO.C,C2*%
X133000000Y-79950000D03*
X133000000Y-78050000D03*
%TD*%
D27*
%TO.C,L28*%
X121850000Y-133250000D03*
X121850000Y-135000000D03*
X116650000Y-134975000D03*
X116650000Y-133225000D03*
%TD*%
%TO.C,L21*%
X236100000Y-114125000D03*
X236100000Y-115875000D03*
X230900000Y-115850000D03*
X230900000Y-114100000D03*
%TD*%
D25*
%TO.C,D3*%
X155670000Y-81425000D03*
X158970000Y-81425000D03*
%TD*%
D27*
%TO.C,L18*%
X178850000Y-114125000D03*
X178850000Y-115875000D03*
X173650000Y-115850000D03*
X173650000Y-114100000D03*
%TD*%
D25*
%TO.C,D17*%
X136620000Y-138575000D03*
X139920000Y-138575000D03*
%TD*%
D27*
%TO.C,L10*%
X198100000Y-95125000D03*
X198100000Y-96875000D03*
X192900000Y-96850000D03*
X192900000Y-95100000D03*
%TD*%
D25*
%TO.C,D26*%
X211170000Y-138575000D03*
X214470000Y-138575000D03*
%TD*%
D26*
%TO.C,C15*%
X114000000Y-115800000D03*
X114000000Y-117700000D03*
%TD*%
%TO.C,C4*%
X171000000Y-78050000D03*
X171000000Y-79950000D03*
%TD*%
D25*
%TO.C,D10*%
X136620000Y-100475000D03*
X139920000Y-100475000D03*
%TD*%
D27*
%TO.C,L27*%
X140850000Y-133125000D03*
X140850000Y-134875000D03*
X135650000Y-134850000D03*
X135650000Y-133100000D03*
%TD*%
D30*
%TO.C,C29*%
X103750000Y-77850000D03*
X103750000Y-83250000D03*
%TD*%
D25*
%TO.C,D14*%
X231860000Y-100520000D03*
X235160000Y-100520000D03*
%TD*%
%TO.C,D11*%
X175260000Y-100520000D03*
X178560000Y-100520000D03*
%TD*%
%TO.C,D19*%
X155670000Y-138575000D03*
X158970000Y-138575000D03*
%TD*%
D27*
%TO.C,L11*%
X179100000Y-95000000D03*
X179100000Y-96750000D03*
X173900000Y-96725000D03*
X173900000Y-94975000D03*
%TD*%
%TO.C,L1*%
X121820000Y-76125000D03*
X121820000Y-77875000D03*
X116620000Y-77850000D03*
X116620000Y-76100000D03*
%TD*%
%TO.C,L4*%
X179100000Y-76125000D03*
X179100000Y-77875000D03*
X173900000Y-77850000D03*
X173900000Y-76100000D03*
%TD*%
D25*
%TO.C,D4*%
X174720000Y-81425000D03*
X178020000Y-81425000D03*
%TD*%
%TO.C,D28*%
X231870000Y-138575000D03*
X235170000Y-138575000D03*
%TD*%
D27*
%TO.C,L19*%
X197850000Y-114125000D03*
X197850000Y-115875000D03*
X192650000Y-115850000D03*
X192650000Y-114100000D03*
%TD*%
%TO.C,L8*%
X236100000Y-95125000D03*
X236100000Y-96875000D03*
X230900000Y-96850000D03*
X230900000Y-95100000D03*
%TD*%
%TO.C,L26*%
X159850000Y-133125000D03*
X159850000Y-134875000D03*
X154650000Y-134850000D03*
X154650000Y-133100000D03*
%TD*%
D25*
%TO.C,D6*%
X212820000Y-81425000D03*
X216120000Y-81425000D03*
%TD*%
D26*
%TO.C,C23*%
X209250000Y-135000000D03*
X209250000Y-136900000D03*
%TD*%
D27*
%TO.C,L22*%
X236100000Y-133375000D03*
X236100000Y-135125000D03*
X230900000Y-135100000D03*
X230900000Y-133350000D03*
%TD*%
D25*
%TO.C,D2*%
X136620000Y-81425000D03*
X139920000Y-81425000D03*
%TD*%
D26*
%TO.C,C7*%
X228250000Y-77800000D03*
X228250000Y-79700000D03*
%TD*%
D25*
%TO.C,D13*%
X213260000Y-100520000D03*
X216560000Y-100520000D03*
%TD*%
D26*
%TO.C,C12*%
X152000000Y-96800000D03*
X152000000Y-98700000D03*
%TD*%
D27*
%TO.C,L13*%
X140850000Y-95125000D03*
X140850000Y-96875000D03*
X135650000Y-96850000D03*
X135650000Y-95100000D03*
%TD*%
D26*
%TO.C,C21*%
X228250000Y-115800000D03*
X228250000Y-117700000D03*
%TD*%
D25*
%TO.C,D15*%
X118060000Y-119520000D03*
X121360000Y-119520000D03*
%TD*%
D27*
%TO.C,L17*%
X159850000Y-114125000D03*
X159850000Y-115875000D03*
X154650000Y-115850000D03*
X154650000Y-114100000D03*
%TD*%
D26*
%TO.C,C5*%
X190000000Y-78050000D03*
X190000000Y-79950000D03*
%TD*%
%LPD*%
M02*
