%TF.GenerationSoftware,KiCad,Pcbnew,9.0.6*%
%TF.CreationDate,2026-02-06T14:21:29-08:00*%
%TF.ProjectId,7x4,3778342e-6b69-4636-9164-5f7063625858,rev?*%
%TF.SameCoordinates,Original*%
%TF.FileFunction,Soldermask,Bot*%
%TF.FilePolarity,Negative*%
%FSLAX46Y46*%
G04 Gerber Fmt 4.6, Leading zero omitted, Abs format (unit mm)*
G04 Created by KiCad (PCBNEW 9.0.6) date 2026-02-06 14:21:29*
%MOMM*%
%LPD*%
G01*
G04 APERTURE LIST*
G04 Aperture macros list*
%AMRoundRect*
0 Rectangle with rounded corners*
0 $1 Rounding radius*
0 $2 $3 $4 $5 $6 $7 $8 $9 X,Y pos of 4 corners*
0 Add a 4 corners polygon primitive as box body*
4,1,4,$2,$3,$4,$5,$6,$7,$8,$9,$2,$3,0*
0 Add four circle primitives for the rounded corners*
1,1,$1+$1,$2,$3*
1,1,$1+$1,$4,$5*
1,1,$1+$1,$6,$7*
1,1,$1+$1,$8,$9*
0 Add four rect primitives between the rounded corners*
20,1,$1+$1,$2,$3,$4,$5,0*
20,1,$1+$1,$4,$5,$6,$7,0*
20,1,$1+$1,$6,$7,$8,$9,0*
20,1,$1+$1,$8,$9,$2,$3,0*%
G04 Aperture macros list end*
%ADD10C,1.905000*%
%ADD11O,2.200000X1.600000*%
%ADD12C,2.100000*%
%ADD13R,2.000000X2.000000*%
%ADD14C,2.000000*%
%ADD15R,3.200000X2.000000*%
%ADD16C,1.700000*%
%ADD17C,4.000000*%
%ADD18C,2.200000*%
%ADD19RoundRect,0.225000X-0.225000X-0.375000X0.225000X-0.375000X0.225000X0.375000X-0.225000X0.375000X0*%
G04 APERTURE END LIST*
D10*
%TO.C,U1*%
X93080000Y-61085000D03*
X93080000Y-63625000D03*
X93080000Y-66165000D03*
X93080000Y-68705000D03*
X93080000Y-71245000D03*
X93080000Y-73785000D03*
X93080000Y-76325000D03*
X93080000Y-78865000D03*
X93080000Y-81405000D03*
X93080000Y-83945000D03*
X93080000Y-86485000D03*
X93080000Y-89025000D03*
X93080000Y-91565000D03*
X93080000Y-94105000D03*
X93080000Y-96645000D03*
X93080000Y-99185000D03*
X72760000Y-99185000D03*
X72760000Y-96645000D03*
X72760000Y-94105000D03*
X72760000Y-91565000D03*
X72760000Y-89025000D03*
X72760000Y-86485000D03*
X72760000Y-83945000D03*
X72760000Y-81405000D03*
X72760000Y-78865000D03*
X72760000Y-76325000D03*
X72760000Y-73785000D03*
X72760000Y-71245000D03*
%TD*%
D11*
%TO.C,SW1*%
X67660000Y-134650000D03*
D12*
X72160000Y-134650000D03*
D13*
X64660000Y-132150000D03*
D14*
X64660000Y-137150000D03*
X64660000Y-134650000D03*
D15*
X72160000Y-129050000D03*
X72160000Y-140250000D03*
D14*
X79160000Y-137150000D03*
X79160000Y-132150000D03*
%TD*%
D16*
%TO.C,SWK11*%
X171290000Y-90950000D03*
D17*
X176370000Y-90950000D03*
D16*
X181450000Y-90950000D03*
D18*
X178910000Y-85870000D03*
X172560000Y-88410000D03*
%TD*%
D16*
%TO.C,O1-7*%
X228440000Y-110000000D03*
D17*
X233520000Y-110000000D03*
D16*
X238600000Y-110000000D03*
D18*
X236060000Y-104920000D03*
X229710000Y-107460000D03*
%TD*%
D16*
%TO.C,O1-4*%
X171290000Y-110000000D03*
D17*
X176370000Y-110000000D03*
D16*
X181450000Y-110000000D03*
D18*
X178910000Y-104920000D03*
X172560000Y-107460000D03*
%TD*%
D16*
%TO.C,F4*%
X171290000Y-129050000D03*
D17*
X176370000Y-129050000D03*
D16*
X181450000Y-129050000D03*
D18*
X178910000Y-123970000D03*
X172560000Y-126510000D03*
%TD*%
D16*
%TO.C,F7*%
X228440000Y-129050000D03*
D17*
X233520000Y-129050000D03*
D16*
X238600000Y-129050000D03*
D18*
X236060000Y-123970000D03*
X229710000Y-126510000D03*
%TD*%
D11*
%TO.C,SW3*%
X91000000Y-134650000D03*
D12*
X95500000Y-134650000D03*
D13*
X88000000Y-132150000D03*
D14*
X88000000Y-137150000D03*
X88000000Y-134650000D03*
D15*
X95500000Y-129050000D03*
X95500000Y-140250000D03*
D14*
X102500000Y-137150000D03*
X102500000Y-132150000D03*
%TD*%
D16*
%TO.C,O1-1*%
X114140000Y-110000000D03*
D17*
X119220000Y-110000000D03*
D16*
X124300000Y-110000000D03*
D18*
X121760000Y-104920000D03*
X115410000Y-107460000D03*
%TD*%
D16*
%TO.C,F6*%
X209390000Y-129050000D03*
D17*
X214470000Y-129050000D03*
D16*
X219550000Y-129050000D03*
D18*
X217010000Y-123970000D03*
X210660000Y-126510000D03*
%TD*%
D16*
%TO.C,SWK7*%
X228440000Y-71900000D03*
D17*
X233520000Y-71900000D03*
D16*
X238600000Y-71900000D03*
D18*
X236060000Y-66820000D03*
X229710000Y-69360000D03*
%TD*%
D16*
%TO.C,SWK6*%
X209390000Y-71900000D03*
D17*
X214470000Y-71900000D03*
D16*
X219550000Y-71900000D03*
D18*
X217010000Y-66820000D03*
X210660000Y-69360000D03*
%TD*%
D16*
%TO.C,SWK4*%
X171290000Y-71900000D03*
D17*
X176370000Y-71900000D03*
D16*
X181450000Y-71900000D03*
D18*
X178910000Y-66820000D03*
X172560000Y-69360000D03*
%TD*%
D16*
%TO.C,O1-5*%
X190340000Y-110000000D03*
D17*
X195420000Y-110000000D03*
D16*
X200500000Y-110000000D03*
D18*
X197960000Y-104920000D03*
X191610000Y-107460000D03*
%TD*%
D16*
%TO.C,SWK13*%
X209390000Y-90950000D03*
D17*
X214470000Y-90950000D03*
D16*
X219550000Y-90950000D03*
D18*
X217010000Y-85870000D03*
X210660000Y-88410000D03*
%TD*%
D16*
%TO.C,O1-6*%
X209390000Y-110000000D03*
D17*
X214470000Y-110000000D03*
D16*
X219550000Y-110000000D03*
D18*
X217010000Y-104920000D03*
X210660000Y-107460000D03*
%TD*%
D16*
%TO.C,o3-3*%
X114140000Y-71900000D03*
D17*
X119220000Y-71900000D03*
D16*
X124300000Y-71900000D03*
D18*
X121760000Y-66820000D03*
X115410000Y-69360000D03*
%TD*%
D16*
%TO.C,SWK10*%
X152240000Y-90950000D03*
D17*
X157320000Y-90950000D03*
D16*
X162400000Y-90950000D03*
D18*
X159860000Y-85870000D03*
X153510000Y-88410000D03*
%TD*%
D16*
%TO.C,F1*%
X114140000Y-129050000D03*
D17*
X119220000Y-129050000D03*
D16*
X124300000Y-129050000D03*
D18*
X121760000Y-123970000D03*
X115410000Y-126510000D03*
%TD*%
D16*
%TO.C,SWK12*%
X190340000Y-90950000D03*
D17*
X195420000Y-90950000D03*
D16*
X200500000Y-90950000D03*
D18*
X197960000Y-85870000D03*
X191610000Y-88410000D03*
%TD*%
D16*
%TO.C,SWK8*%
X114140000Y-90950000D03*
D17*
X119220000Y-90950000D03*
D16*
X124300000Y-90950000D03*
D18*
X121760000Y-85870000D03*
X115410000Y-88410000D03*
%TD*%
D16*
%TO.C,O1-2*%
X133190000Y-110000000D03*
D17*
X138270000Y-110000000D03*
D16*
X143350000Y-110000000D03*
D18*
X140810000Y-104920000D03*
X134460000Y-107460000D03*
%TD*%
D16*
%TO.C,K2*%
X133190000Y-71900000D03*
D17*
X138270000Y-71900000D03*
D16*
X143350000Y-71900000D03*
D18*
X140810000Y-66820000D03*
X134460000Y-69360000D03*
%TD*%
D16*
%TO.C,SWK14*%
X228440000Y-90950000D03*
D17*
X233520000Y-90950000D03*
D16*
X238600000Y-90950000D03*
D18*
X236060000Y-85870000D03*
X229710000Y-88410000D03*
%TD*%
D16*
%TO.C,F5*%
X190340000Y-129050000D03*
D17*
X195420000Y-129050000D03*
D16*
X200500000Y-129050000D03*
D18*
X197960000Y-123970000D03*
X191610000Y-126510000D03*
%TD*%
D16*
%TO.C,SWK9*%
X133190000Y-90950000D03*
D17*
X138270000Y-90950000D03*
D16*
X143350000Y-90950000D03*
D18*
X140810000Y-85870000D03*
X134460000Y-88410000D03*
%TD*%
D16*
%TO.C,SWK5*%
X190340000Y-71900000D03*
D17*
X195420000Y-71900000D03*
D16*
X200500000Y-71900000D03*
D18*
X197960000Y-66820000D03*
X191610000Y-69360000D03*
%TD*%
D16*
%TO.C,F2*%
X133190000Y-129050000D03*
D17*
X138270000Y-129050000D03*
D16*
X143350000Y-129050000D03*
D18*
X140810000Y-123970000D03*
X134460000Y-126510000D03*
%TD*%
D16*
%TO.C,O1-3*%
X152240000Y-110000000D03*
D17*
X157320000Y-110000000D03*
D16*
X162400000Y-110000000D03*
D18*
X159860000Y-104920000D03*
X153510000Y-107460000D03*
%TD*%
D16*
%TO.C,F3*%
X152240000Y-129050000D03*
D17*
X157320000Y-129050000D03*
D16*
X162400000Y-129050000D03*
D18*
X159860000Y-123970000D03*
X153510000Y-126510000D03*
%TD*%
D16*
%TO.C,SWK3*%
X152240000Y-71900000D03*
D17*
X157320000Y-71900000D03*
D16*
X162400000Y-71900000D03*
D18*
X159860000Y-66820000D03*
X153510000Y-69360000D03*
%TD*%
D19*
%TO.C,D21*%
X174720000Y-119525000D03*
X178020000Y-119525000D03*
%TD*%
%TO.C,D27*%
X231870000Y-119525000D03*
X235170000Y-119525000D03*
%TD*%
%TO.C,D9*%
X155670000Y-100475000D03*
X158970000Y-100475000D03*
%TD*%
%TO.C,D20*%
X155670000Y-119525000D03*
X158970000Y-119525000D03*
%TD*%
%TO.C,D23*%
X193770000Y-119525000D03*
X197070000Y-119525000D03*
%TD*%
%TO.C,D16*%
X117570000Y-138575000D03*
X120870000Y-138575000D03*
%TD*%
%TO.C,D24*%
X193770000Y-138575000D03*
X197070000Y-138575000D03*
%TD*%
%TO.C,D1*%
X117570000Y-81425000D03*
X120870000Y-81425000D03*
%TD*%
%TO.C,D25*%
X212820000Y-119525000D03*
X216120000Y-119525000D03*
%TD*%
%TO.C,D22*%
X174720000Y-138575000D03*
X178020000Y-138575000D03*
%TD*%
%TO.C,D12*%
X194260000Y-100320000D03*
X197560000Y-100320000D03*
%TD*%
%TO.C,D8*%
X117570000Y-100475000D03*
X120870000Y-100475000D03*
%TD*%
%TO.C,D18*%
X136620000Y-119525000D03*
X139920000Y-119525000D03*
%TD*%
%TO.C,D5*%
X193770000Y-81425000D03*
X197070000Y-81425000D03*
%TD*%
%TO.C,D7*%
X231870000Y-81425000D03*
X235170000Y-81425000D03*
%TD*%
%TO.C,D3*%
X155670000Y-81425000D03*
X158970000Y-81425000D03*
%TD*%
%TO.C,D17*%
X136620000Y-138575000D03*
X139920000Y-138575000D03*
%TD*%
%TO.C,D26*%
X211170000Y-138575000D03*
X214470000Y-138575000D03*
%TD*%
%TO.C,D10*%
X136620000Y-100475000D03*
X139920000Y-100475000D03*
%TD*%
%TO.C,D14*%
X231860000Y-100520000D03*
X235160000Y-100520000D03*
%TD*%
%TO.C,D11*%
X175260000Y-100520000D03*
X178560000Y-100520000D03*
%TD*%
%TO.C,D19*%
X155670000Y-138575000D03*
X158970000Y-138575000D03*
%TD*%
%TO.C,D4*%
X174720000Y-81425000D03*
X178020000Y-81425000D03*
%TD*%
%TO.C,D28*%
X231870000Y-138575000D03*
X235170000Y-138575000D03*
%TD*%
%TO.C,D6*%
X212820000Y-81425000D03*
X216120000Y-81425000D03*
%TD*%
%TO.C,D2*%
X136620000Y-81425000D03*
X139920000Y-81425000D03*
%TD*%
%TO.C,D13*%
X213260000Y-100520000D03*
X216560000Y-100520000D03*
%TD*%
%TO.C,D15*%
X118060000Y-119520000D03*
X121360000Y-119520000D03*
%TD*%
M02*
