M48
; DRILL file {KiCad 9.0.6} date 2026-02-06T14:21:40-0800
; FORMAT={3:3/ absolute / metric / suppress leading zeros}
; #@! TF.CreationDate,2026-02-06T14:21:40-08:00
; #@! TF.GenerationSoftware,Kicad,Pcbnew,9.0.6
; #@! TF.FileFunction,Plated,1,2,PTH
FMAT,2
METRIC,TZ
; #@! TA.AperFunction,Plated,PTH,ComponentDrill
T1C1.000
; #@! TA.AperFunction,Plated,PTH,ComponentDrill
T2C1.500
%
G90
G05
T1
X64660Y-132150
X64660Y-134650
X64660Y-137150
X72760Y-71245
X72760Y-73785
X72760Y-76325
X72760Y-78865
X72760Y-81405
X72760Y-83945
X72760Y-86485
X72760Y-89025
X72760Y-91565
X72760Y-94105
X72760Y-96645
X72760Y-99185
X79160Y-132150
X79160Y-137150
X88000Y-132150
X88000Y-134650
X88000Y-137150
X93080Y-61085
X93080Y-63625
X93080Y-66165
X93080Y-68705
X93080Y-71245
X93080Y-73785
X93080Y-76325
X93080Y-78865
X93080Y-81405
X93080Y-83945
X93080Y-86485
X93080Y-89025
X93080Y-91565
X93080Y-94105
X93080Y-96645
X93080Y-99185
X102500Y-132150
X102500Y-137150
T2
X115410Y-69360
X115410Y-88410
X115410Y-107460
X115410Y-126510
X121760Y-66820
X121760Y-85870
X121760Y-104920
X121760Y-123970
X134460Y-69360
X134460Y-88410
X134460Y-107460
X134460Y-126510
X140810Y-66820
X140810Y-85870
X140810Y-104920
X140810Y-123970
X153510Y-69360
X153510Y-88410
X153510Y-107460
X153510Y-126510
X159860Y-66820
X159860Y-85870
X159860Y-104920
X159860Y-123970
X172560Y-69360
X172560Y-88410
X172560Y-107460
X172560Y-126510
X178910Y-66820
X178910Y-85870
X178910Y-104920
X178910Y-123970
X191610Y-69360
X191610Y-88410
X191610Y-107460
X191610Y-126510
X197960Y-66820
X197960Y-85870
X197960Y-104920
X197960Y-123970
X210660Y-69360
X210660Y-88410
X210660Y-107460
X210660Y-126510
X217010Y-66820
X217010Y-85870
X217010Y-104920
X217010Y-123970
X229710Y-69360
X229710Y-88410
X229710Y-107460
X229710Y-126510
X236060Y-66820
X236060Y-85870
X236060Y-104920
X236060Y-123970
T2
G00X71510Y-129050
M15
G01X72810Y-129050
M16
G05
G00X71510Y-140250
M15
G01X72810Y-140250
M16
G05
G00X94850Y-129050
M15
G01X96150Y-129050
M16
G05
G00X94850Y-140250
M15
G01X96150Y-140250
M16
G05
M30
