%TF.GenerationSoftware,KiCad,Pcbnew,9.0.6*%
%TF.CreationDate,2026-02-06T14:21:29-08:00*%
%TF.ProjectId,7x4,3778342e-6b69-4636-9164-5f7063625858,rev?*%
%TF.SameCoordinates,Original*%
%TF.FileFunction,Copper,L1,Top*%
%TF.FilePolarity,Positive*%
%FSLAX46Y46*%
G04 Gerber Fmt 4.6, Leading zero omitted, Abs format (unit mm)*
G04 Created by KiCad (PCBNEW 9.0.6) date 2026-02-06 14:21:29*
%MOMM*%
%LPD*%
G01*
G04 APERTURE LIST*
%TA.AperFunction,ComponentPad*%
%ADD10C,1.905000*%
%TD*%
%TA.AperFunction,ComponentPad*%
%ADD11R,2.000000X2.000000*%
%TD*%
%TA.AperFunction,ComponentPad*%
%ADD12C,2.000000*%
%TD*%
%TA.AperFunction,ComponentPad*%
%ADD13R,3.200000X2.000000*%
%TD*%
%TA.AperFunction,ComponentPad*%
%ADD14C,2.200000*%
%TD*%
%TA.AperFunction,Conductor*%
%ADD15C,0.200000*%
%TD*%
G04 APERTURE END LIST*
D10*
%TO.P,U1,28,RESET*%
%TO.N,unconnected-(U1-RESET-Pad28)*%
X93080000Y-61085000D03*
%TO.P,U1,27,3.3V*%
%TO.N,unconnected-(U1-3.3V-Pad27)*%
X93080000Y-63625000D03*
%TO.P,U1,26,3.3V*%
%TO.N,unconnected-(U1-3.3V-Pad26)*%
X93080000Y-66165000D03*
%TO.P,U1,25,GND*%
%TO.N,GND*%
X93080000Y-68705000D03*
%TO.P,U1,24,A0*%
%TO.N,C7*%
X93080000Y-71245000D03*
%TO.P,U1,23,A1*%
%TO.N,C6*%
X93080000Y-73785000D03*
%TO.P,U1,22,A2*%
%TO.N,C5*%
X93080000Y-76325000D03*
%TO.P,U1,21,A3*%
%TO.N,C4*%
X93080000Y-78865000D03*
%TO.P,U1,20,D24*%
%TO.N,C3*%
X93080000Y-81405000D03*
%TO.P,U1,19,D25*%
%TO.N,C2*%
X93080000Y-83945000D03*
%TO.P,U1,18,SCK*%
%TO.N,C1*%
X93080000Y-86485000D03*
%TO.P,U1,17,MOSI*%
%TO.N,ENC1A*%
X93080000Y-89025000D03*
%TO.P,U1,16,MISO*%
%TO.N,ENC1B*%
X93080000Y-91565000D03*
%TO.P,U1,15,RX*%
%TO.N,ENC2B*%
X93080000Y-94105000D03*
%TO.P,U1,14,TX*%
%TO.N,ENC2A*%
X93080000Y-96645000D03*
%TO.P,U1,13,PSRAMCS*%
%TO.N,unconnected-(U1-PSRAMCS-Pad13)*%
X93080000Y-99185000D03*
%TO.P,U1,12,SDA*%
%TO.N,unconnected-(U1-SDA-Pad12)*%
X72760000Y-99185000D03*
%TO.P,U1,11,SCL*%
%TO.N,unconnected-(U1-SCL-Pad11)*%
X72760000Y-96645000D03*
%TO.P,U1,10,D5*%
%TO.N,r3*%
X72760000Y-94105000D03*
%TO.P,U1,9,D6*%
%TO.N,r2*%
X72760000Y-91565000D03*
%TO.P,U1,8,D9*%
%TO.N,r1*%
X72760000Y-89025000D03*
%TO.P,U1,7,D10*%
%TO.N,r0*%
X72760000Y-86485000D03*
%TO.P,U1,6,D11*%
%TO.N,ENC2SW*%
X72760000Y-83945000D03*
%TO.P,U1,5,D12*%
%TO.N,ENC1SW*%
X72760000Y-81405000D03*
%TO.P,U1,4,D13*%
%TO.N,unconnected-(U1-D13-Pad4)*%
X72760000Y-78865000D03*
%TO.P,U1,3,VBUS*%
%TO.N,unconnected-(U1-VBUS-Pad3)*%
X72760000Y-76325000D03*
%TO.P,U1,2,EN*%
%TO.N,unconnected-(U1-EN-Pad2)*%
X72760000Y-73785000D03*
%TO.P,U1,1,VBAT*%
%TO.N,unconnected-(U1-VBAT-Pad1)*%
X72760000Y-71245000D03*
%TD*%
D11*
%TO.P,SW1,A,A*%
%TO.N,ENC2A*%
X64660000Y-132150000D03*
D12*
%TO.P,SW1,B,B*%
%TO.N,ENC2B*%
X64660000Y-137150000D03*
%TO.P,SW1,C,C*%
%TO.N,GND*%
X64660000Y-134650000D03*
D13*
%TO.P,SW1,MP,MP*%
X72160000Y-129050000D03*
X72160000Y-140250000D03*
D12*
%TO.P,SW1,S1,S1*%
%TO.N,ENC2SW*%
X79160000Y-137150000D03*
%TO.P,SW1,S2,S2*%
%TO.N,GND*%
X79160000Y-132150000D03*
%TD*%
D14*
%TO.P,SWK11,1,1*%
%TO.N,Net-(D11-A)*%
X178910000Y-85870000D03*
%TO.P,SWK11,2,2*%
%TO.N,C4*%
X172560000Y-88410000D03*
%TD*%
%TO.P,O1-7,1,1*%
%TO.N,Net-(D27-A)*%
X236060000Y-104920000D03*
%TO.P,O1-7,2,2*%
%TO.N,C7*%
X229710000Y-107460000D03*
%TD*%
%TO.P,O1-4,1,1*%
%TO.N,Net-(D21-A)*%
X178910000Y-104920000D03*
%TO.P,O1-4,2,2*%
%TO.N,C4*%
X172560000Y-107460000D03*
%TD*%
%TO.P,F4,1,1*%
%TO.N,Net-(D22-A)*%
X178910000Y-123970000D03*
%TO.P,F4,2,2*%
%TO.N,C4*%
X172560000Y-126510000D03*
%TD*%
%TO.P,F7,1,1*%
%TO.N,Net-(D28-A)*%
X236060000Y-123970000D03*
%TO.P,F7,2,2*%
%TO.N,C7*%
X229710000Y-126510000D03*
%TD*%
D11*
%TO.P,SW3,A,A*%
%TO.N,ENC1A*%
X88000000Y-132150000D03*
D12*
%TO.P,SW3,B,B*%
%TO.N,ENC1B*%
X88000000Y-137150000D03*
%TO.P,SW3,C,C*%
%TO.N,GND*%
X88000000Y-134650000D03*
D13*
%TO.P,SW3,MP,MP*%
X95500000Y-129050000D03*
X95500000Y-140250000D03*
D12*
%TO.P,SW3,S1,S1*%
%TO.N,ENC1SW*%
X102500000Y-137150000D03*
%TO.P,SW3,S2,S2*%
%TO.N,GND*%
X102500000Y-132150000D03*
%TD*%
D14*
%TO.P,O1-1,1,1*%
%TO.N,Net-(D15-A)*%
X121760000Y-104920000D03*
%TO.P,O1-1,2,2*%
%TO.N,C1*%
X115410000Y-107460000D03*
%TD*%
%TO.P,F6,1,1*%
%TO.N,Net-(D26-A)*%
X217010000Y-123970000D03*
%TO.P,F6,2,2*%
%TO.N,C6*%
X210660000Y-126510000D03*
%TD*%
%TO.P,SWK7,1,1*%
%TO.N,Net-(D7-A)*%
X236060000Y-66820000D03*
%TO.P,SWK7,2,2*%
%TO.N,C7*%
X229710000Y-69360000D03*
%TD*%
%TO.P,SWK6,1,1*%
%TO.N,Net-(D6-A)*%
X217010000Y-66820000D03*
%TO.P,SWK6,2,2*%
%TO.N,C6*%
X210660000Y-69360000D03*
%TD*%
%TO.P,SWK4,1,1*%
%TO.N,Net-(D4-A)*%
X178910000Y-66820000D03*
%TO.P,SWK4,2,2*%
%TO.N,C4*%
X172560000Y-69360000D03*
%TD*%
%TO.P,O1-5,1,1*%
%TO.N,Net-(D23-A)*%
X197960000Y-104920000D03*
%TO.P,O1-5,2,2*%
%TO.N,C5*%
X191610000Y-107460000D03*
%TD*%
%TO.P,SWK13,1,1*%
%TO.N,Net-(D13-A)*%
X217010000Y-85870000D03*
%TO.P,SWK13,2,2*%
%TO.N,C6*%
X210660000Y-88410000D03*
%TD*%
%TO.P,O1-6,1,1*%
%TO.N,Net-(D25-A)*%
X217010000Y-104920000D03*
%TO.P,O1-6,2,2*%
%TO.N,C6*%
X210660000Y-107460000D03*
%TD*%
%TO.P,o3-3,1,1*%
%TO.N,Net-(D1-A)*%
X121760000Y-66820000D03*
%TO.P,o3-3,2,2*%
%TO.N,C1*%
X115410000Y-69360000D03*
%TD*%
%TO.P,SWK10,1,1*%
%TO.N,Net-(D9-A)*%
X159860000Y-85870000D03*
%TO.P,SWK10,2,2*%
%TO.N,C3*%
X153510000Y-88410000D03*
%TD*%
%TO.P,F1,1,1*%
%TO.N,Net-(D16-A)*%
X121760000Y-123970000D03*
%TO.P,F1,2,2*%
%TO.N,C1*%
X115410000Y-126510000D03*
%TD*%
%TO.P,SWK12,1,1*%
%TO.N,Net-(D12-A)*%
X197960000Y-85870000D03*
%TO.P,SWK12,2,2*%
%TO.N,C5*%
X191610000Y-88410000D03*
%TD*%
%TO.P,SWK8,1,1*%
%TO.N,Net-(D8-A)*%
X121760000Y-85870000D03*
%TO.P,SWK8,2,2*%
%TO.N,C1*%
X115410000Y-88410000D03*
%TD*%
%TO.P,O1-2,1,1*%
%TO.N,Net-(D18-A)*%
X140810000Y-104920000D03*
%TO.P,O1-2,2,2*%
%TO.N,C2*%
X134460000Y-107460000D03*
%TD*%
%TO.P,K2,1,1*%
%TO.N,Net-(D2-A)*%
X140810000Y-66820000D03*
%TO.P,K2,2,2*%
%TO.N,C2*%
X134460000Y-69360000D03*
%TD*%
%TO.P,SWK14,1,1*%
%TO.N,Net-(D14-A)*%
X236060000Y-85870000D03*
%TO.P,SWK14,2,2*%
%TO.N,C7*%
X229710000Y-88410000D03*
%TD*%
%TO.P,F5,1,1*%
%TO.N,Net-(D24-A)*%
X197960000Y-123970000D03*
%TO.P,F5,2,2*%
%TO.N,C5*%
X191610000Y-126510000D03*
%TD*%
%TO.P,SWK9,1,1*%
%TO.N,Net-(D10-A)*%
X140810000Y-85870000D03*
%TO.P,SWK9,2,2*%
%TO.N,C2*%
X134460000Y-88410000D03*
%TD*%
%TO.P,SWK5,1,1*%
%TO.N,Net-(D5-A)*%
X197960000Y-66820000D03*
%TO.P,SWK5,2,2*%
%TO.N,C5*%
X191610000Y-69360000D03*
%TD*%
%TO.P,F2,1,1*%
%TO.N,Net-(D17-A)*%
X140810000Y-123970000D03*
%TO.P,F2,2,2*%
%TO.N,C2*%
X134460000Y-126510000D03*
%TD*%
%TO.P,O1-3,1,1*%
%TO.N,Net-(D20-A)*%
X159860000Y-104920000D03*
%TO.P,O1-3,2,2*%
%TO.N,C3*%
X153510000Y-107460000D03*
%TD*%
%TO.P,F3,1,1*%
%TO.N,Net-(D19-A)*%
X159860000Y-123970000D03*
%TO.P,F3,2,2*%
%TO.N,C3*%
X153510000Y-126510000D03*
%TD*%
%TO.P,SWK3,1,1*%
%TO.N,Net-(D3-A)*%
X159860000Y-66820000D03*
%TO.P,SWK3,2,2*%
%TO.N,C3*%
X153510000Y-69360000D03*
%TD*%
D15*
%TO.N,ENC1B*%
X87960000Y-137120000D02*
X84960000Y-134120000D01*
X89330000Y-124920000D02*
X104360000Y-124920000D01*
X84960000Y-134120000D02*
X84960000Y-129290000D01*
X84960000Y-129290000D02*
X89330000Y-124920000D01*
X104360000Y-124920000D02*
X105960000Y-123320000D01*
X105960000Y-123320000D02*
X105960000Y-104445000D01*
X105960000Y-104445000D02*
X93080000Y-91565000D01*
%TO.N,ENC2B*%
X64660000Y-137150000D02*
X61500000Y-133990000D01*
X61500000Y-133990000D02*
X61500000Y-109500000D01*
X61500000Y-109500000D02*
X65480000Y-105520000D01*
X65480000Y-105520000D02*
X81665000Y-105520000D01*
X81665000Y-105520000D02*
X93080000Y-94105000D01*
%TO.N,C1*%
X115410000Y-88410000D02*
X115410000Y-107460000D01*
X115410000Y-107460000D02*
X115410000Y-126510000D01*
X115410000Y-69360000D02*
X115410000Y-88410000D01*
X110205000Y-69360000D02*
X93080000Y-86485000D01*
X115410000Y-69360000D02*
X110205000Y-69360000D01*
%TO.N,C2*%
X116305000Y-60720000D02*
X93080000Y-83945000D01*
X134460000Y-107460000D02*
X134460000Y-126510000D01*
X125820000Y-60720000D02*
X116305000Y-60720000D01*
X134460000Y-69360000D02*
X134460000Y-88410000D01*
X134460000Y-69360000D02*
X125820000Y-60720000D01*
X134460000Y-88410000D02*
X134460000Y-107460000D01*
%TO.N,C3*%
X143270000Y-59120000D02*
X115365000Y-59120000D01*
X153510000Y-69360000D02*
X143270000Y-59120000D01*
X153510000Y-88410000D02*
X153510000Y-107460000D01*
X153510000Y-107460000D02*
X153510000Y-126510000D01*
X153510000Y-69360000D02*
X153510000Y-88410000D01*
X115365000Y-59120000D02*
X93080000Y-81405000D01*
%TO.N,C4*%
X161520000Y-58320000D02*
X113625000Y-58320000D01*
X113625000Y-58320000D02*
X93080000Y-78865000D01*
X172560000Y-69360000D02*
X172560000Y-88410000D01*
X172560000Y-69360000D02*
X161520000Y-58320000D01*
X172560000Y-107460000D02*
X172560000Y-126510000D01*
X172560000Y-88410000D02*
X172560000Y-107460000D01*
%TO.N,C5*%
X191610000Y-69360000D02*
X191610000Y-88410000D01*
X112285000Y-57120000D02*
X93080000Y-76325000D01*
X191610000Y-88410000D02*
X191610000Y-107460000D01*
X191610000Y-69360000D02*
X179370000Y-57120000D01*
X191610000Y-107460000D02*
X191610000Y-126510000D01*
X179370000Y-57120000D02*
X112285000Y-57120000D01*
%TO.N,C6*%
X111145000Y-55720000D02*
X93080000Y-73785000D01*
X197020000Y-55720000D02*
X111145000Y-55720000D01*
X210660000Y-88410000D02*
X210660000Y-107460000D01*
X210660000Y-107460000D02*
X210660000Y-126510000D01*
X210660000Y-69360000D02*
X197020000Y-55720000D01*
X210660000Y-69360000D02*
X210660000Y-88410000D01*
%TO.N,C7*%
X229710000Y-107460000D02*
X229710000Y-126510000D01*
X219960000Y-54520000D02*
X109805000Y-54520000D01*
X229710000Y-69360000D02*
X229710000Y-64270000D01*
X229710000Y-69360000D02*
X229710000Y-88410000D01*
X229710000Y-64270000D02*
X219960000Y-54520000D01*
X229710000Y-88410000D02*
X229710000Y-107460000D01*
X109805000Y-54520000D02*
X93080000Y-71245000D01*
%TO.N,ENC2A*%
X65310058Y-106920000D02*
X82805000Y-106920000D01*
X82805000Y-106920000D02*
X93080000Y-96645000D01*
X62559000Y-130049000D02*
X62559000Y-109671058D01*
X64660000Y-132150000D02*
X62559000Y-130049000D01*
X62559000Y-109671058D02*
X65310058Y-106920000D01*
%TO.N,ENC1A*%
X90360000Y-125920000D02*
X106760000Y-125920000D01*
X106760000Y-125920000D02*
X108160000Y-124520000D01*
X108160000Y-104105000D02*
X93080000Y-89025000D01*
X108160000Y-124520000D02*
X108160000Y-104105000D01*
X87960000Y-128320000D02*
X90360000Y-125920000D01*
X87960000Y-132120000D02*
X87960000Y-128320000D01*
%TD*%
M02*
