%TF.GenerationSoftware,KiCad,Pcbnew,9.0.6*%
%TF.CreationDate,2026-03-01T15:31:14-08:00*%
%TF.ProjectId,7x4,3778342e-6b69-4636-9164-5f7063625858,rev?*%
%TF.SameCoordinates,Original*%
%TF.FileFunction,Profile,NP*%
%FSLAX46Y46*%
G04 Gerber Fmt 4.6, Leading zero omitted, Abs format (unit mm)*
G04 Created by KiCad (PCBNEW 9.0.6) date 2026-03-01 15:31:14*
%MOMM*%
%LPD*%
G01*
G04 APERTURE LIST*
%TA.AperFunction,Profile*%
%ADD10C,0.050000*%
%TD*%
G04 APERTURE END LIST*
D10*
X61260000Y-145100000D02*
G75*
G02*
X59060000Y-145100000I-1100000J0D01*
G01*
X59060000Y-145100000D02*
G75*
G02*
X61260000Y-145100000I1100000J0D01*
G01*
X243260000Y-56120000D02*
G75*
G02*
X241060000Y-56120000I-1100000J0D01*
G01*
X241060000Y-56120000D02*
G75*
G02*
X243260000Y-56120000I1100000J0D01*
G01*
X72410000Y-109920000D02*
X95460000Y-109920000D01*
X95460000Y-120720000D01*
X72410000Y-120720000D01*
X72410000Y-109920000D01*
X243260000Y-145120000D02*
G75*
G02*
X241060000Y-145120000I-1100000J0D01*
G01*
X241060000Y-145120000D02*
G75*
G02*
X243260000Y-145120000I1100000J0D01*
G01*
X242160000Y-53120000D02*
G75*
G02*
X245160000Y-56120000I0J-3000000D01*
G01*
X245160000Y-145120000D02*
G75*
G02*
X242160000Y-148120000I-3000000J0D01*
G01*
X60160000Y-148100000D02*
G75*
G02*
X57160000Y-145100000I0J3000000D01*
G01*
X57160000Y-145100000D02*
X57160000Y-56120000D01*
X60160000Y-53120000D02*
X242160000Y-53120000D01*
X61260000Y-56120000D02*
G75*
G02*
X59060000Y-56120000I-1100000J0D01*
G01*
X59060000Y-56120000D02*
G75*
G02*
X61260000Y-56120000I1100000J0D01*
G01*
X242160000Y-148120000D02*
X60160000Y-148100000D01*
X57160000Y-56120000D02*
G75*
G02*
X60160000Y-53120000I3000000J0D01*
G01*
X245160000Y-56120000D02*
X245160000Y-145120000D01*
%TO.C,L3*%
X159100000Y-75400000D02*
X155900000Y-75400000D01*
X155900000Y-78600000D01*
X159100000Y-78600000D01*
X159100000Y-75400000D01*
%TO.C,L5*%
X197350000Y-75400000D02*
X194150000Y-75400000D01*
X194150000Y-78600000D01*
X197350000Y-78600000D01*
X197350000Y-75400000D01*
%TO.C,L25*%
X178100000Y-132525000D02*
X174900000Y-132525000D01*
X174900000Y-135725000D01*
X178100000Y-135725000D01*
X178100000Y-132525000D01*
%TO.C,L16*%
X140100000Y-113400000D02*
X136900000Y-113400000D01*
X136900000Y-116600000D01*
X140100000Y-116600000D01*
X140100000Y-113400000D01*
%TO.C,L14*%
X120850000Y-94275000D02*
X117650000Y-94275000D01*
X117650000Y-97475000D01*
X120850000Y-97475000D01*
X120850000Y-94275000D01*
%TO.C,L2*%
X139850000Y-75400000D02*
X136650000Y-75400000D01*
X136650000Y-78600000D01*
X139850000Y-78600000D01*
X139850000Y-75400000D01*
%TO.C,L6*%
X216350000Y-75400000D02*
X213150000Y-75400000D01*
X213150000Y-78600000D01*
X216350000Y-78600000D01*
X216350000Y-75400000D01*
%TO.C,L7*%
X235100000Y-75400000D02*
X231900000Y-75400000D01*
X231900000Y-78600000D01*
X235100000Y-78600000D01*
X235100000Y-75400000D01*
%TO.C,L9*%
X216100000Y-94400000D02*
X212900000Y-94400000D01*
X212900000Y-97600000D01*
X216100000Y-97600000D01*
X216100000Y-94400000D01*
%TO.C,L15*%
X120850000Y-113400000D02*
X117650000Y-113400000D01*
X117650000Y-116600000D01*
X120850000Y-116600000D01*
X120850000Y-113400000D01*
%TO.C,L20*%
X216100000Y-113400000D02*
X212900000Y-113400000D01*
X212900000Y-116600000D01*
X216100000Y-116600000D01*
X216100000Y-113400000D01*
%TO.C,L12*%
X158850000Y-94400000D02*
X155650000Y-94400000D01*
X155650000Y-97600000D01*
X158850000Y-97600000D01*
X158850000Y-94400000D01*
%TO.C,L23*%
X216100000Y-132525000D02*
X212900000Y-132525000D01*
X212900000Y-135725000D01*
X216100000Y-135725000D01*
X216100000Y-132525000D01*
%TO.C,L24*%
X197100000Y-132400000D02*
X193900000Y-132400000D01*
X193900000Y-135600000D01*
X197100000Y-135600000D01*
X197100000Y-132400000D01*
%TO.C,L28*%
X120850000Y-132525000D02*
X117650000Y-132525000D01*
X117650000Y-135725000D01*
X120850000Y-135725000D01*
X120850000Y-132525000D01*
%TO.C,L21*%
X235100000Y-113400000D02*
X231900000Y-113400000D01*
X231900000Y-116600000D01*
X235100000Y-116600000D01*
X235100000Y-113400000D01*
%TO.C,L18*%
X177850000Y-113400000D02*
X174650000Y-113400000D01*
X174650000Y-116600000D01*
X177850000Y-116600000D01*
X177850000Y-113400000D01*
%TO.C,L10*%
X197100000Y-94400000D02*
X193900000Y-94400000D01*
X193900000Y-97600000D01*
X197100000Y-97600000D01*
X197100000Y-94400000D01*
%TO.C,L27*%
X139850000Y-132400000D02*
X136650000Y-132400000D01*
X136650000Y-135600000D01*
X139850000Y-135600000D01*
X139850000Y-132400000D01*
%TO.C,L11*%
X178100000Y-94275000D02*
X174900000Y-94275000D01*
X174900000Y-97475000D01*
X178100000Y-97475000D01*
X178100000Y-94275000D01*
%TO.C,L1*%
X120820000Y-75400000D02*
X117620000Y-75400000D01*
X117620000Y-78600000D01*
X120820000Y-78600000D01*
X120820000Y-75400000D01*
%TO.C,L4*%
X178100000Y-75400000D02*
X174900000Y-75400000D01*
X174900000Y-78600000D01*
X178100000Y-78600000D01*
X178100000Y-75400000D01*
%TO.C,L19*%
X196850000Y-113400000D02*
X193650000Y-113400000D01*
X193650000Y-116600000D01*
X196850000Y-116600000D01*
X196850000Y-113400000D01*
%TO.C,L8*%
X235100000Y-94400000D02*
X231900000Y-94400000D01*
X231900000Y-97600000D01*
X235100000Y-97600000D01*
X235100000Y-94400000D01*
%TO.C,L26*%
X158850000Y-132400000D02*
X155650000Y-132400000D01*
X155650000Y-135600000D01*
X158850000Y-135600000D01*
X158850000Y-132400000D01*
%TO.C,L22*%
X235100000Y-132650000D02*
X231900000Y-132650000D01*
X231900000Y-135850000D01*
X235100000Y-135850000D01*
X235100000Y-132650000D01*
%TO.C,L13*%
X139850000Y-94400000D02*
X136650000Y-94400000D01*
X136650000Y-97600000D01*
X139850000Y-97600000D01*
X139850000Y-94400000D01*
%TO.C,L17*%
X158850000Y-113400000D02*
X155650000Y-113400000D01*
X155650000Y-116600000D01*
X158850000Y-116600000D01*
X158850000Y-113400000D01*
%TD*%
M02*
