%TF.GenerationSoftware,KiCad,Pcbnew,9.0.6*%
%TF.CreationDate,2026-03-17T13:30:47-07:00*%
%TF.ProjectId,7x4,3778342e-6b69-4636-9164-5f7063625858,rev?*%
%TF.SameCoordinates,Original*%
%TF.FileFunction,Legend,Bot*%
%TF.FilePolarity,Positive*%
%FSLAX46Y46*%
G04 Gerber Fmt 4.6, Leading zero omitted, Abs format (unit mm)*
G04 Created by KiCad (PCBNEW 9.0.6) date 2026-03-17 13:30:47*
%MOMM*%
%LPD*%
G01*
G04 APERTURE LIST*
G04 Aperture macros list*
%AMRoundRect*
0 Rectangle with rounded corners*
0 $1 Rounding radius*
0 $2 $3 $4 $5 $6 $7 $8 $9 X,Y pos of 4 corners*
0 Add a 4 corners polygon primitive as box body*
4,1,4,$2,$3,$4,$5,$6,$7,$8,$9,$2,$3,0*
0 Add four circle primitives for the rounded corners*
1,1,$1+$1,$2,$3*
1,1,$1+$1,$4,$5*
1,1,$1+$1,$6,$7*
1,1,$1+$1,$8,$9*
0 Add four rect primitives between the rounded corners*
20,1,$1+$1,$2,$3,$4,$5,0*
20,1,$1+$1,$4,$5,$6,$7,0*
20,1,$1+$1,$6,$7,$8,$9,0*
20,1,$1+$1,$8,$9,$2,$3,0*%
G04 Aperture macros list end*
%ADD10C,0.000000*%
%ADD11C,0.099218*%
%ADD12C,0.150000*%
%ADD13C,0.100000*%
%ADD14C,0.120000*%
%ADD15O,2.200000X1.600000*%
%ADD16C,2.100000*%
%ADD17R,2.000000X2.000000*%
%ADD18C,2.000000*%
%ADD19R,3.200000X2.000000*%
%ADD20RoundRect,0.082000X-0.718000X0.328000X-0.718000X-0.328000X0.718000X-0.328000X0.718000X0.328000X0*%
%ADD21C,1.700000*%
%ADD22C,4.000000*%
%ADD23C,2.200000*%
%ADD24RoundRect,0.250000X0.450000X-0.262500X0.450000X0.262500X-0.450000X0.262500X-0.450000X-0.262500X0*%
%ADD25RoundRect,0.225000X-0.225000X-0.375000X0.225000X-0.375000X0.225000X0.375000X-0.225000X0.375000X0*%
%ADD26RoundRect,0.250000X-0.250000X-0.475000X0.250000X-0.475000X0.250000X0.475000X-0.250000X0.475000X0*%
%ADD27C,1.905000*%
%ADD28RoundRect,0.250000X0.250000X0.475000X-0.250000X0.475000X-0.250000X-0.475000X0.250000X-0.475000X0*%
%ADD29RoundRect,0.250000X-0.475000X0.250000X-0.475000X-0.250000X0.475000X-0.250000X0.475000X0.250000X0*%
%ADD30RoundRect,0.250000X-0.550000X1.500000X-0.550000X-1.500000X0.550000X-1.500000X0.550000X1.500000X0*%
G04 APERTURE END LIST*
D10*
G36*
X84751025Y-83299610D02*
G01*
X84747769Y-83345702D01*
X84742465Y-83391656D01*
X84735111Y-83437392D01*
X84725704Y-83482834D01*
X84714243Y-83527903D01*
X84700726Y-83572523D01*
X84685151Y-83616616D01*
X84667516Y-83660105D01*
X84647820Y-83702911D01*
X84626059Y-83744957D01*
X84602233Y-83786167D01*
X84576339Y-83826461D01*
X84548375Y-83865764D01*
X84518340Y-83903997D01*
X84486231Y-83941082D01*
X84452047Y-83976943D01*
X84416186Y-84011127D01*
X84379100Y-84043236D01*
X84340867Y-84073271D01*
X84301565Y-84101235D01*
X84261270Y-84127129D01*
X84220061Y-84150956D01*
X84178014Y-84172716D01*
X84135208Y-84192413D01*
X84091720Y-84210048D01*
X84047627Y-84225623D01*
X84003007Y-84239140D01*
X83957937Y-84250601D01*
X83912496Y-84260007D01*
X83866759Y-84267362D01*
X83820806Y-84272666D01*
X83774713Y-84275922D01*
X83774713Y-83299609D01*
X84751026Y-83299609D01*
X84751025Y-83299610D01*
G37*
D11*
X83604309Y-79068523D02*
X83395440Y-79080035D01*
X83395439Y-79080035D02*
X83185648Y-79102226D01*
X83185648Y-79102226D02*
X82975251Y-79135292D01*
X82975250Y-79135292D02*
X82764563Y-79179428D01*
X82764563Y-79179428D02*
X82556375Y-79234155D01*
X82556375Y-79234155D02*
X82353397Y-79298655D01*
X82353397Y-79298655D02*
X82155823Y-79372611D01*
X82155823Y-79372611D02*
X81963849Y-79455706D01*
X81963849Y-79455706D02*
X81777669Y-79547626D01*
X81777669Y-79547626D02*
X81597481Y-79648053D01*
X81597481Y-79648053D02*
X81423478Y-79756672D01*
X81423478Y-79756672D02*
X81255857Y-79873166D01*
X81255856Y-79873166D02*
X81094811Y-79997220D01*
X81094811Y-79997220D02*
X80940537Y-80128518D01*
X80940537Y-80128518D02*
X80793231Y-80266743D01*
X80793231Y-80266743D02*
X80653088Y-80411579D01*
X80653088Y-80411579D02*
X80520302Y-80562711D01*
X80520302Y-80562711D02*
X80395071Y-80719822D01*
X80395070Y-80719822D02*
X80277587Y-80882596D01*
X80277587Y-80882596D02*
X80168048Y-81050717D01*
X80168047Y-81050717D02*
X80066648Y-81223869D01*
X80066648Y-81223869D02*
X79973584Y-81401735D01*
X79973583Y-81401735D02*
X79889048Y-81584001D01*
X79889048Y-81584001D02*
X79813239Y-81770349D01*
X79813239Y-81770349D02*
X79746350Y-81960464D01*
X79746350Y-81960464D02*
X79688579Y-82154030D01*
X79688578Y-82154030D02*
X79640118Y-82350730D01*
X79640118Y-82350730D02*
X79601165Y-82550249D01*
X79601164Y-82550249D02*
X79571913Y-82752270D01*
X79571913Y-82752270D02*
X79552561Y-82956477D01*
X79552560Y-82956477D02*
X79543301Y-83162554D01*
X79543300Y-83162554D02*
X79544328Y-83370186D01*
X79544328Y-83370186D02*
X79555840Y-83579055D01*
X79555841Y-83579055D02*
X79578031Y-83788847D01*
X79578032Y-83788847D02*
X79611097Y-83999244D01*
X79611098Y-83999244D02*
X79655233Y-84209931D01*
X79655234Y-84209931D02*
X79709960Y-84418119D01*
X79709961Y-84418119D02*
X79774460Y-84621097D01*
X79774461Y-84621097D02*
X79848416Y-84818671D01*
X79848417Y-84818671D02*
X79931511Y-85010646D01*
X79931512Y-85010646D02*
X80023431Y-85196825D01*
X80023431Y-85196825D02*
X80123858Y-85377014D01*
X80123859Y-85377014D02*
X80232477Y-85551017D01*
X80232478Y-85551017D02*
X80348972Y-85718639D01*
X80348972Y-85718639D02*
X80473025Y-85879684D01*
X80473026Y-85879684D02*
X80604323Y-86033958D01*
X80604324Y-86033958D02*
X80742548Y-86181264D01*
X80742549Y-86181264D02*
X80887384Y-86321407D01*
X80887385Y-86321407D02*
X81038516Y-86454193D01*
X81038517Y-86454193D02*
X81195628Y-86579425D01*
X81195628Y-86579425D02*
X81358401Y-86696908D01*
X81358402Y-86696908D02*
X81526523Y-86806447D01*
X81526523Y-86806447D02*
X81699674Y-86907847D01*
X81699675Y-86907847D02*
X81877541Y-87000912D01*
X81877541Y-87000912D02*
X82059806Y-87085447D01*
X82059807Y-87085447D02*
X82246154Y-87161256D01*
X82246155Y-87161256D02*
X82436269Y-87228145D01*
X82436270Y-87228145D02*
X82629836Y-87285917D01*
X82629836Y-87285917D02*
X82826535Y-87334377D01*
X82826536Y-87334377D02*
X83026055Y-87373330D01*
X83026055Y-87373330D02*
X83228075Y-87402581D01*
X83228076Y-87402581D02*
X83432283Y-87421934D01*
X83432283Y-87421934D02*
X83638360Y-87431194D01*
X83638360Y-87431195D02*
X83845983Y-87430166D01*
X83845992Y-87430166D02*
X84054861Y-87418654D01*
X84054861Y-87418654D02*
X84264653Y-87396463D01*
X84264653Y-87396463D02*
X84475050Y-87363397D01*
X84475050Y-87363397D02*
X84685737Y-87319261D01*
X84685737Y-87319261D02*
X84893924Y-87264533D01*
X84893925Y-87264533D02*
X85096902Y-87200034D01*
X85096903Y-87200034D02*
X85294477Y-87126078D01*
X85294477Y-87126078D02*
X85486452Y-87042983D01*
X85486452Y-87042983D02*
X85672631Y-86951063D01*
X85672631Y-86951063D02*
X85852819Y-86850636D01*
X85852820Y-86850636D02*
X86026823Y-86742017D01*
X86026823Y-86742017D02*
X86194444Y-86625523D01*
X86194445Y-86625523D02*
X86355489Y-86501468D01*
X86355490Y-86501468D02*
X86509764Y-86370171D01*
X86509764Y-86370171D02*
X86657070Y-86231946D01*
X86657070Y-86231946D02*
X86797212Y-86087109D01*
X86797213Y-86087109D02*
X86929999Y-85935978D01*
X86929999Y-85935978D02*
X87055230Y-85778867D01*
X87055231Y-85778867D02*
X87172714Y-85616093D01*
X87172714Y-85616093D02*
X87282252Y-85447972D01*
X87282253Y-85447972D02*
X87383653Y-85274820D01*
X87383653Y-85274820D02*
X87476717Y-85096953D01*
X87476718Y-85096953D02*
X87561253Y-84914688D01*
X87561253Y-84914688D02*
X87637062Y-84728339D01*
X87637062Y-84728339D02*
X87703951Y-84538224D01*
X87703951Y-84538224D02*
X87761723Y-84344659D01*
X87761723Y-84344659D02*
X87810183Y-84147959D01*
X87810183Y-84147959D02*
X87849135Y-83948440D01*
X87849136Y-83948440D02*
X87878387Y-83746419D01*
X87878387Y-83746419D02*
X87897739Y-83542212D01*
X87897740Y-83542212D02*
X87907000Y-83336135D01*
X87907001Y-83336135D02*
X87905972Y-83128503D01*
X87905972Y-83128503D02*
X87894461Y-82919634D01*
X87894460Y-82919634D02*
X87872270Y-82709842D01*
X87872269Y-82709842D02*
X87839204Y-82499445D01*
X87839203Y-82499445D02*
X87795068Y-82288757D01*
X87795067Y-82288757D02*
X87740340Y-82080570D01*
X87740339Y-82080570D02*
X87675841Y-81877591D01*
X87675840Y-81877591D02*
X87601885Y-81680017D01*
X87601884Y-81680017D02*
X87518790Y-81488043D01*
X87518789Y-81488043D02*
X87426870Y-81301864D01*
X87426869Y-81301864D02*
X87326442Y-81121675D01*
X87326442Y-81121675D02*
X87217824Y-80947672D01*
X87217823Y-80947672D02*
X87101329Y-80780050D01*
X87101329Y-80780050D02*
X86977274Y-80619005D01*
X86977274Y-80619005D02*
X86845978Y-80464731D01*
X86845977Y-80464731D02*
X86707753Y-80317425D01*
X86707752Y-80317425D02*
X86562915Y-80177282D01*
X86562915Y-80177282D02*
X86411785Y-80044496D01*
X86411784Y-80044496D02*
X86254673Y-79919264D01*
X86254673Y-79919264D02*
X86091900Y-79801781D01*
X86091899Y-79801781D02*
X85923778Y-79692241D01*
X85923778Y-79692241D02*
X85750627Y-79590842D01*
X85750626Y-79590842D02*
X85572759Y-79497777D01*
X85572759Y-79497777D02*
X85390495Y-79413242D01*
X85390494Y-79413242D02*
X85204146Y-79337433D01*
X85204145Y-79337433D02*
X85014031Y-79270544D01*
X85014030Y-79270544D02*
X84820464Y-79212772D01*
X84820464Y-79212772D02*
X84623765Y-79164312D01*
X84623764Y-79164312D02*
X84424246Y-79125359D01*
X84424246Y-79125359D02*
X84222226Y-79096108D01*
X84222225Y-79096108D02*
X84018018Y-79076754D01*
X84018018Y-79076754D02*
X83811941Y-79067494D01*
X83811940Y-79067494D02*
X83604317Y-79068523D01*
D10*
G36*
X83774713Y-84738943D02*
G01*
X83675494Y-84738943D01*
X83675494Y-84275922D01*
X83700299Y-84276666D01*
X83725104Y-84276914D01*
X83749908Y-84276666D01*
X83774713Y-84275922D01*
X83774713Y-84738943D01*
G37*
G36*
X82699936Y-86869393D02*
G01*
X82721569Y-86871038D01*
X82742888Y-86873747D01*
X82763865Y-86877493D01*
X82784474Y-86882249D01*
X82804689Y-86887990D01*
X82824481Y-86894687D01*
X82843826Y-86902314D01*
X82862695Y-86910845D01*
X82881062Y-86920252D01*
X82898901Y-86930509D01*
X82916184Y-86941589D01*
X82932886Y-86953465D01*
X82948978Y-86966111D01*
X82964434Y-86979500D01*
X82979228Y-86993605D01*
X82993333Y-87008399D01*
X83006722Y-87023855D01*
X83019368Y-87039948D01*
X83031244Y-87056649D01*
X83042324Y-87073932D01*
X83052581Y-87091771D01*
X83061988Y-87110138D01*
X83070519Y-87129007D01*
X83078146Y-87148352D01*
X83084843Y-87168145D01*
X83090584Y-87188359D01*
X83095340Y-87208968D01*
X83099086Y-87229945D01*
X83101795Y-87251264D01*
X83103440Y-87272897D01*
X83103995Y-87294818D01*
X83103440Y-87316739D01*
X83101795Y-87338372D01*
X83099086Y-87359690D01*
X83095340Y-87380668D01*
X83090584Y-87401277D01*
X83084843Y-87421491D01*
X83078146Y-87441284D01*
X83070519Y-87460628D01*
X83061988Y-87479497D01*
X83052581Y-87497865D01*
X83042324Y-87515704D01*
X83031244Y-87532987D01*
X83019368Y-87549688D01*
X83006722Y-87565780D01*
X82993333Y-87581237D01*
X82979228Y-87596030D01*
X82964434Y-87610135D01*
X82948978Y-87623524D01*
X82932886Y-87636170D01*
X82916184Y-87648046D01*
X82898901Y-87659126D01*
X82881062Y-87669383D01*
X82862695Y-87678791D01*
X82843826Y-87687321D01*
X82824481Y-87694948D01*
X82804689Y-87701645D01*
X82784474Y-87707386D01*
X82763865Y-87712142D01*
X82742888Y-87715888D01*
X82721569Y-87718597D01*
X82699936Y-87720242D01*
X82678015Y-87720797D01*
X82656095Y-87720242D01*
X82634461Y-87718597D01*
X82613143Y-87715888D01*
X82592166Y-87712142D01*
X82571557Y-87707386D01*
X82551342Y-87701645D01*
X82531549Y-87694948D01*
X82512205Y-87687321D01*
X82493336Y-87678791D01*
X82474968Y-87669383D01*
X82457130Y-87659126D01*
X82439846Y-87648046D01*
X82423145Y-87636170D01*
X82407053Y-87623524D01*
X82391597Y-87610135D01*
X82376803Y-87596030D01*
X82362698Y-87581237D01*
X82349309Y-87565780D01*
X82336663Y-87549688D01*
X82324787Y-87532987D01*
X82313707Y-87515704D01*
X82303450Y-87497865D01*
X82294042Y-87479497D01*
X82285512Y-87460628D01*
X82277885Y-87441284D01*
X82271187Y-87421491D01*
X82265447Y-87401277D01*
X82260691Y-87380668D01*
X82256944Y-87359690D01*
X82254236Y-87338372D01*
X82252591Y-87316739D01*
X82252036Y-87294818D01*
X82252591Y-87272897D01*
X82254236Y-87251264D01*
X82256944Y-87229945D01*
X82260691Y-87208968D01*
X82265447Y-87188359D01*
X82271187Y-87168145D01*
X82277885Y-87148352D01*
X82285512Y-87129007D01*
X82294042Y-87110138D01*
X82303450Y-87091771D01*
X82313707Y-87073932D01*
X82324787Y-87056649D01*
X82336663Y-87039948D01*
X82349309Y-87023855D01*
X82362698Y-87008399D01*
X82376803Y-86993605D01*
X82391597Y-86979500D01*
X82407053Y-86966111D01*
X82423145Y-86953465D01*
X82439846Y-86941589D01*
X82457130Y-86930509D01*
X82474968Y-86920252D01*
X82493336Y-86910845D01*
X82512205Y-86902314D01*
X82531549Y-86894687D01*
X82551342Y-86887990D01*
X82571557Y-86882249D01*
X82592166Y-86877493D01*
X82613143Y-86873747D01*
X82634461Y-86871038D01*
X82656095Y-86869393D01*
X82678015Y-86868838D01*
X82699936Y-86869393D01*
G37*
D11*
X83393362Y-77309763D02*
X83106095Y-77332977D01*
X83106095Y-77332977D02*
X82821109Y-77369983D01*
X82821108Y-77369983D02*
X82538889Y-77420576D01*
X82538888Y-77420576D02*
X82259925Y-77484555D01*
X82259924Y-77484555D02*
X81984705Y-77561718D01*
X81984704Y-77561718D02*
X81713717Y-77651863D01*
X81713717Y-77651863D02*
X81447453Y-77754787D01*
X81447452Y-77754787D02*
X81186396Y-77870287D01*
X81186395Y-77870287D02*
X80931037Y-77998162D01*
X80931037Y-77998162D02*
X80681865Y-78138209D01*
X80681864Y-78138209D02*
X80439368Y-78290226D01*
X80439367Y-78290226D02*
X80204033Y-78454011D01*
X80204032Y-78454011D02*
X79976349Y-78629361D01*
X79976349Y-78629361D02*
X79756807Y-78816073D01*
X79756806Y-78816073D02*
X79545892Y-79013947D01*
X79545891Y-79013947D02*
X79344093Y-79222779D01*
X79344092Y-79222779D02*
X79151900Y-79442367D01*
X79151899Y-79442367D02*
X78969798Y-79672509D01*
X78969798Y-79672509D02*
X78798280Y-79913003D01*
X78798280Y-79913003D02*
X78637833Y-80163646D01*
X78637832Y-80163646D02*
X78488942Y-80424235D01*
X78488942Y-80424235D02*
X78352100Y-80694570D01*
X78352099Y-80694570D02*
X78227792Y-80974447D01*
X78227791Y-80974447D02*
X78117787Y-81260248D01*
X78117787Y-81260248D02*
X78023395Y-81548166D01*
X78023395Y-81548166D02*
X77944411Y-81837711D01*
X77944411Y-81837711D02*
X77880635Y-82128397D01*
X77880634Y-82128397D02*
X77831861Y-82419733D01*
X77831861Y-82419733D02*
X77797890Y-82711233D01*
X77797890Y-82711233D02*
X77778519Y-83002406D01*
X77778519Y-83002406D02*
X77773546Y-83292766D01*
X77773546Y-83292766D02*
X77782766Y-83581823D01*
X77782767Y-83581823D02*
X77805982Y-83869090D01*
X77805982Y-83869090D02*
X77842986Y-84154077D01*
X77842987Y-84154077D02*
X77893580Y-84436297D01*
X77893580Y-84436297D02*
X77957559Y-84715261D01*
X77957560Y-84715261D02*
X78034723Y-84990480D01*
X78034723Y-84990480D02*
X78124866Y-85261467D01*
X78124867Y-85261467D02*
X78227790Y-85527733D01*
X78227791Y-85527733D02*
X78343291Y-85788790D01*
X78343291Y-85788790D02*
X78471165Y-86044148D01*
X78471166Y-86044148D02*
X78611213Y-86293320D01*
X78611213Y-86293320D02*
X78763229Y-86535818D01*
X78763230Y-86535818D02*
X78927014Y-86771152D01*
X78927015Y-86771152D02*
X79102365Y-86998836D01*
X79102365Y-86998836D02*
X79289078Y-87218379D01*
X79289078Y-87218379D02*
X79486951Y-87429294D01*
X79486951Y-87429294D02*
X79695783Y-87631093D01*
X79695783Y-87631093D02*
X79915371Y-87823286D01*
X79915371Y-87823286D02*
X80145512Y-88005386D01*
X80145513Y-88005386D02*
X80386006Y-88176905D01*
X80386007Y-88176905D02*
X80636650Y-88337353D01*
X80636650Y-88337353D02*
X80897238Y-88486243D01*
X80897239Y-88486243D02*
X81167574Y-88623086D01*
X81167574Y-88623086D02*
X81447449Y-88747394D01*
X81447450Y-88747394D02*
X81733251Y-88857398D01*
X81733252Y-88857398D02*
X82021169Y-88951790D01*
X82021170Y-88951790D02*
X82310714Y-89030774D01*
X82310715Y-89030774D02*
X82601401Y-89094551D01*
X82601401Y-89094551D02*
X82892736Y-89143324D01*
X82892737Y-89143324D02*
X83184236Y-89177295D01*
X83184237Y-89177295D02*
X83475409Y-89196666D01*
X83475410Y-89196666D02*
X83765764Y-89201639D01*
X83765770Y-89201639D02*
X84054826Y-89192417D01*
X84054827Y-89192417D02*
X84342094Y-89169203D01*
X84342094Y-89169203D02*
X84627081Y-89132198D01*
X84627081Y-89132198D02*
X84909301Y-89081604D01*
X84909301Y-89081604D02*
X85188264Y-89017625D01*
X85188265Y-89017625D02*
X85463484Y-88940462D01*
X85463485Y-88940462D02*
X85734472Y-88850317D01*
X85734472Y-88850317D02*
X86000738Y-88747394D01*
X86000738Y-88747394D02*
X86261793Y-88631893D01*
X86261794Y-88631893D02*
X86517152Y-88504018D01*
X86517153Y-88504018D02*
X86766324Y-88363971D01*
X86766325Y-88363971D02*
X87008821Y-88211954D01*
X87008822Y-88211954D02*
X87244157Y-88048170D01*
X87244157Y-88048170D02*
X87471840Y-87872820D01*
X87471840Y-87872820D02*
X87691382Y-87686107D01*
X87691383Y-87686107D02*
X87902298Y-87488233D01*
X87902299Y-87488233D02*
X88104097Y-87279401D01*
X88104097Y-87279401D02*
X88296290Y-87059813D01*
X88296291Y-87059813D02*
X88478391Y-86829671D01*
X88478391Y-86829671D02*
X88649908Y-86589178D01*
X88649909Y-86589178D02*
X88810358Y-86338535D01*
X88810358Y-86338535D02*
X88959246Y-86077945D01*
X88959247Y-86077945D02*
X89096090Y-85807611D01*
X89096090Y-85807611D02*
X89220397Y-85527734D01*
X89220398Y-85527734D02*
X89330402Y-85241932D01*
X89330402Y-85241932D02*
X89424794Y-84954015D01*
X89424795Y-84954015D02*
X89503778Y-84664469D01*
X89503778Y-84664469D02*
X89567556Y-84373784D01*
X89567556Y-84373784D02*
X89616328Y-84082447D01*
X89616328Y-84082447D02*
X89650298Y-83790948D01*
X89650299Y-83790948D02*
X89669670Y-83499774D01*
X89669670Y-83499774D02*
X89674643Y-83209414D01*
X89674643Y-83209414D02*
X89665423Y-82920357D01*
X89665422Y-82920357D02*
X89642208Y-82633091D01*
X89642207Y-82633091D02*
X89605202Y-82348103D01*
X89605202Y-82348103D02*
X89554609Y-82065883D01*
X89554609Y-82065883D02*
X89490630Y-81786919D01*
X89490629Y-81786919D02*
X89413466Y-81511700D01*
X89413466Y-81511700D02*
X89323323Y-81240713D01*
X89323322Y-81240713D02*
X89220399Y-80974447D01*
X89220398Y-80974447D02*
X89104899Y-80713391D01*
X89104898Y-80713391D02*
X88977023Y-80458032D01*
X88977023Y-80458032D02*
X88836976Y-80208860D01*
X88836976Y-80208860D02*
X88684960Y-79966362D01*
X88684959Y-79966362D02*
X88521175Y-79731028D01*
X88521174Y-79731028D02*
X88345825Y-79503345D01*
X88345824Y-79503345D02*
X88159112Y-79283801D01*
X88159111Y-79283801D02*
X87961237Y-79072886D01*
X87961237Y-79072886D02*
X87752406Y-78871088D01*
X87752405Y-78871088D02*
X87532817Y-78678894D01*
X87532817Y-78678894D02*
X87302676Y-78496794D01*
X87302675Y-78496794D02*
X87062182Y-78325275D01*
X87062181Y-78325275D02*
X86811539Y-78164827D01*
X86811539Y-78164827D02*
X86550949Y-78015937D01*
X86550949Y-78015937D02*
X86280616Y-77879094D01*
X86280615Y-77879094D02*
X86000738Y-77754787D01*
X86000738Y-77754787D02*
X85714937Y-77644783D01*
X85714936Y-77644783D02*
X85427019Y-77550390D01*
X85427019Y-77550390D02*
X85137473Y-77471406D01*
X85137473Y-77471406D02*
X84846788Y-77407629D01*
X84846788Y-77407629D02*
X84555451Y-77358856D01*
X84555451Y-77358856D02*
X84263953Y-77324886D01*
X84263952Y-77324886D02*
X83972780Y-77305515D01*
X83972779Y-77305515D02*
X83682419Y-77300542D01*
X83682419Y-77300541D02*
X83393363Y-77309763D01*
D10*
G36*
X85123519Y-80838216D02*
G01*
X85145152Y-80839861D01*
X85166471Y-80842570D01*
X85187448Y-80846316D01*
X85208057Y-80851073D01*
X85228272Y-80856813D01*
X85248065Y-80863510D01*
X85267409Y-80871138D01*
X85286278Y-80879668D01*
X85304646Y-80889075D01*
X85322484Y-80899332D01*
X85339768Y-80910412D01*
X85356469Y-80922289D01*
X85372561Y-80934935D01*
X85388017Y-80948324D01*
X85402811Y-80962428D01*
X85416916Y-80977222D01*
X85430305Y-80992679D01*
X85442951Y-81008771D01*
X85454827Y-81025472D01*
X85465907Y-81042755D01*
X85476164Y-81060594D01*
X85485571Y-81078961D01*
X85494102Y-81097831D01*
X85501729Y-81117175D01*
X85508426Y-81136968D01*
X85514167Y-81157182D01*
X85518923Y-81177791D01*
X85522669Y-81198768D01*
X85525378Y-81220087D01*
X85527023Y-81241720D01*
X85527578Y-81263641D01*
X85527023Y-81285562D01*
X85525378Y-81307195D01*
X85522669Y-81328513D01*
X85518923Y-81349491D01*
X85514167Y-81370100D01*
X85508426Y-81390314D01*
X85501729Y-81410107D01*
X85494102Y-81429451D01*
X85485571Y-81448321D01*
X85476164Y-81466688D01*
X85465907Y-81484527D01*
X85454827Y-81501810D01*
X85442951Y-81518511D01*
X85430305Y-81534603D01*
X85416916Y-81550060D01*
X85402811Y-81564854D01*
X85388017Y-81578958D01*
X85372561Y-81592347D01*
X85356469Y-81604993D01*
X85339768Y-81616869D01*
X85322484Y-81627950D01*
X85304646Y-81638207D01*
X85286278Y-81647614D01*
X85267409Y-81656144D01*
X85248065Y-81663772D01*
X85228272Y-81670469D01*
X85208057Y-81676209D01*
X85187448Y-81680966D01*
X85166471Y-81684712D01*
X85145152Y-81687421D01*
X85123519Y-81689066D01*
X85101598Y-81689620D01*
X85079678Y-81689066D01*
X85058045Y-81687421D01*
X85036726Y-81684712D01*
X85015749Y-81680966D01*
X84995140Y-81676209D01*
X84974925Y-81670469D01*
X84955132Y-81663772D01*
X84935788Y-81656144D01*
X84916919Y-81647614D01*
X84898551Y-81638207D01*
X84880713Y-81627950D01*
X84863429Y-81616869D01*
X84846728Y-81604993D01*
X84830636Y-81592347D01*
X84815180Y-81578958D01*
X84800386Y-81564854D01*
X84786281Y-81550060D01*
X84772892Y-81534603D01*
X84760246Y-81518511D01*
X84748370Y-81501810D01*
X84737290Y-81484527D01*
X84727033Y-81466688D01*
X84717625Y-81448321D01*
X84709095Y-81429451D01*
X84701468Y-81410107D01*
X84694770Y-81390314D01*
X84689030Y-81370100D01*
X84684274Y-81349491D01*
X84680528Y-81328513D01*
X84677819Y-81307195D01*
X84676174Y-81285562D01*
X84675619Y-81263641D01*
X84676174Y-81241720D01*
X84677819Y-81220087D01*
X84680528Y-81198768D01*
X84684274Y-81177791D01*
X84689030Y-81157182D01*
X84694770Y-81136968D01*
X84701468Y-81117175D01*
X84709095Y-81097831D01*
X84717625Y-81078961D01*
X84727033Y-81060594D01*
X84737290Y-81042755D01*
X84748370Y-81025472D01*
X84760246Y-81008771D01*
X84772892Y-80992679D01*
X84786281Y-80977222D01*
X84800386Y-80962428D01*
X84815180Y-80948324D01*
X84830636Y-80934935D01*
X84846728Y-80922289D01*
X84863429Y-80910412D01*
X84880713Y-80899332D01*
X84898551Y-80889075D01*
X84916919Y-80879668D01*
X84935788Y-80871138D01*
X84955132Y-80863510D01*
X84974925Y-80856813D01*
X84995140Y-80851073D01*
X85015749Y-80846316D01*
X85036726Y-80842570D01*
X85058045Y-80839861D01*
X85079678Y-80838216D01*
X85101598Y-80837662D01*
X85123519Y-80838216D01*
G37*
G36*
X83774713Y-82224079D02*
G01*
X83749908Y-82223335D01*
X83725104Y-82223087D01*
X83700299Y-82223335D01*
X83675494Y-82224079D01*
X83675494Y-81761058D01*
X83774713Y-81761058D01*
X83774713Y-82224079D01*
G37*
G36*
X83774713Y-82224079D02*
G01*
X83820806Y-82227335D01*
X83866759Y-82232639D01*
X83912495Y-82239993D01*
X83957937Y-82249400D01*
X84003006Y-82260861D01*
X84047627Y-82274378D01*
X84091719Y-82289953D01*
X84135208Y-82307588D01*
X84178014Y-82327284D01*
X84220060Y-82349045D01*
X84261270Y-82372871D01*
X84301564Y-82398765D01*
X84340867Y-82426729D01*
X84379100Y-82456764D01*
X84416185Y-82488873D01*
X84452046Y-82523057D01*
X84486230Y-82558918D01*
X84518339Y-82596004D01*
X84548374Y-82634237D01*
X84576338Y-82673539D01*
X84602232Y-82713834D01*
X84626059Y-82755043D01*
X84647819Y-82797090D01*
X84667516Y-82839896D01*
X84685151Y-82883384D01*
X84700726Y-82927477D01*
X84714243Y-82972097D01*
X84725704Y-83017167D01*
X84735110Y-83062608D01*
X84742465Y-83108345D01*
X84747769Y-83154298D01*
X84751025Y-83200391D01*
X83774712Y-83200391D01*
X83774712Y-82224078D01*
X83774713Y-82224079D01*
G37*
G36*
X79863603Y-78323352D02*
G01*
X79885236Y-78324997D01*
X79906555Y-78327706D01*
X79927532Y-78331452D01*
X79948141Y-78336208D01*
X79968355Y-78341949D01*
X79988148Y-78348646D01*
X80007493Y-78356273D01*
X80026362Y-78364804D01*
X80044729Y-78374211D01*
X80062568Y-78384468D01*
X80079851Y-78395548D01*
X80096552Y-78407424D01*
X80112645Y-78420070D01*
X80128101Y-78433459D01*
X80142895Y-78447564D01*
X80157000Y-78462358D01*
X80170389Y-78477814D01*
X80183035Y-78493906D01*
X80194911Y-78510608D01*
X80205991Y-78527891D01*
X80216248Y-78545730D01*
X80225655Y-78564097D01*
X80234186Y-78582966D01*
X80241813Y-78602311D01*
X80248511Y-78622103D01*
X80254251Y-78642318D01*
X80259007Y-78662927D01*
X80262753Y-78683904D01*
X80265462Y-78705223D01*
X80267107Y-78726856D01*
X80267662Y-78748777D01*
X80267107Y-78770697D01*
X80265462Y-78792330D01*
X80262753Y-78813649D01*
X80259007Y-78834626D01*
X80254251Y-78855235D01*
X80248511Y-78875450D01*
X80241813Y-78895242D01*
X80234186Y-78914587D01*
X80225655Y-78933456D01*
X80216248Y-78951824D01*
X80205991Y-78969662D01*
X80194911Y-78986946D01*
X80183035Y-79003647D01*
X80170389Y-79019739D01*
X80157000Y-79035195D01*
X80142895Y-79049989D01*
X80128101Y-79064094D01*
X80112645Y-79077483D01*
X80096552Y-79090129D01*
X80079851Y-79102005D01*
X80062568Y-79113085D01*
X80044729Y-79123342D01*
X80026362Y-79132750D01*
X80007493Y-79141280D01*
X79988148Y-79148907D01*
X79968355Y-79155605D01*
X79948141Y-79161345D01*
X79927532Y-79166101D01*
X79906555Y-79169847D01*
X79885236Y-79172556D01*
X79863603Y-79174201D01*
X79841682Y-79174756D01*
X79819761Y-79174201D01*
X79798128Y-79172556D01*
X79776810Y-79169847D01*
X79755832Y-79166101D01*
X79735223Y-79161345D01*
X79715009Y-79155605D01*
X79695216Y-79148907D01*
X79675872Y-79141280D01*
X79657003Y-79132750D01*
X79638635Y-79123342D01*
X79620797Y-79113085D01*
X79603513Y-79102005D01*
X79586812Y-79090129D01*
X79570720Y-79077483D01*
X79555264Y-79064094D01*
X79540470Y-79049989D01*
X79526365Y-79035195D01*
X79512976Y-79019739D01*
X79500330Y-79003647D01*
X79488454Y-78986946D01*
X79477374Y-78969662D01*
X79467117Y-78951824D01*
X79457710Y-78933456D01*
X79449179Y-78914587D01*
X79441552Y-78895242D01*
X79434855Y-78875450D01*
X79429114Y-78855235D01*
X79424358Y-78834626D01*
X79420612Y-78813649D01*
X79417903Y-78792330D01*
X79416258Y-78770697D01*
X79415703Y-78748777D01*
X79416258Y-78726856D01*
X79417903Y-78705223D01*
X79420612Y-78683904D01*
X79424358Y-78662927D01*
X79429114Y-78642318D01*
X79434855Y-78622103D01*
X79441552Y-78602311D01*
X79449179Y-78582966D01*
X79457710Y-78564097D01*
X79467117Y-78545730D01*
X79477374Y-78527891D01*
X79488454Y-78510608D01*
X79500330Y-78493906D01*
X79512976Y-78477814D01*
X79526365Y-78462358D01*
X79540470Y-78447564D01*
X79555264Y-78433459D01*
X79570720Y-78420070D01*
X79586812Y-78407424D01*
X79603513Y-78395548D01*
X79620797Y-78384468D01*
X79638635Y-78374211D01*
X79657003Y-78364804D01*
X79675872Y-78356273D01*
X79695216Y-78348646D01*
X79715009Y-78341949D01*
X79735223Y-78336208D01*
X79755832Y-78331452D01*
X79776810Y-78327706D01*
X79798128Y-78324997D01*
X79819761Y-78323352D01*
X79841682Y-78322797D01*
X79863603Y-78323352D01*
G37*
G36*
X82698438Y-83225196D02*
G01*
X82698190Y-83250000D01*
X82698438Y-83274805D01*
X82699182Y-83299610D01*
X82236161Y-83299610D01*
X82236161Y-83200391D01*
X82699182Y-83200391D01*
X82698438Y-83225196D01*
G37*
G36*
X83675495Y-84275922D02*
G01*
X83675494Y-84275922D01*
X83629402Y-84272666D01*
X83583448Y-84267362D01*
X83537712Y-84260007D01*
X83492270Y-84250600D01*
X83447201Y-84239140D01*
X83402581Y-84225623D01*
X83358488Y-84210048D01*
X83314999Y-84192413D01*
X83272193Y-84172716D01*
X83230147Y-84150955D01*
X83188937Y-84127129D01*
X83148643Y-84101235D01*
X83109340Y-84073271D01*
X83071107Y-84043236D01*
X83034022Y-84011127D01*
X82998161Y-83976943D01*
X82963977Y-83941082D01*
X82931868Y-83903997D01*
X82901833Y-83865764D01*
X82873869Y-83826461D01*
X82847975Y-83786167D01*
X82824148Y-83744957D01*
X82802388Y-83702911D01*
X82782691Y-83660105D01*
X82765056Y-83616616D01*
X82749481Y-83572523D01*
X82735964Y-83527903D01*
X82724503Y-83482834D01*
X82715097Y-83437392D01*
X82707742Y-83391656D01*
X82702438Y-83345702D01*
X82699182Y-83299610D01*
X83675495Y-83299610D01*
X83675495Y-84275922D01*
G37*
G36*
X83675494Y-83200392D02*
G01*
X82699182Y-83200392D01*
X82699182Y-83200391D01*
X82702438Y-83154298D01*
X82707742Y-83108345D01*
X82715097Y-83062609D01*
X82724504Y-83017167D01*
X82735964Y-82972098D01*
X82749481Y-82927477D01*
X82765056Y-82883385D01*
X82782691Y-82839896D01*
X82802388Y-82797090D01*
X82824149Y-82755044D01*
X82847975Y-82713834D01*
X82873869Y-82673540D01*
X82901833Y-82634237D01*
X82931868Y-82596004D01*
X82963977Y-82558919D01*
X82998161Y-82523058D01*
X83034022Y-82488874D01*
X83071107Y-82456765D01*
X83109340Y-82426730D01*
X83148643Y-82398766D01*
X83188937Y-82372872D01*
X83230147Y-82349045D01*
X83272193Y-82327285D01*
X83314999Y-82307588D01*
X83358488Y-82289953D01*
X83402581Y-82274378D01*
X83447201Y-82260861D01*
X83492270Y-82249400D01*
X83537712Y-82239994D01*
X83583448Y-82232639D01*
X83629402Y-82227335D01*
X83675494Y-82224079D01*
X83675494Y-83200392D01*
G37*
D11*
X83589948Y-80841266D02*
X83473432Y-80850682D01*
X83473432Y-80850682D02*
X83357840Y-80865691D01*
X83357840Y-80865691D02*
X83243370Y-80886212D01*
X83243370Y-80886212D02*
X83130222Y-80912162D01*
X83130222Y-80912162D02*
X83018591Y-80943460D01*
X83018591Y-80943460D02*
X82908678Y-80980023D01*
X82908678Y-80980023D02*
X82800681Y-81021769D01*
X82800680Y-81021769D02*
X82694795Y-81068616D01*
X82694794Y-81068616D02*
X82591221Y-81120483D01*
X82591220Y-81120483D02*
X82490156Y-81177287D01*
X82490155Y-81177287D02*
X82391798Y-81238945D01*
X82391797Y-81238945D02*
X82296344Y-81305377D01*
X82296344Y-81305377D02*
X82203995Y-81376499D01*
X82203995Y-81376499D02*
X82114949Y-81452231D01*
X82114948Y-81452231D02*
X82029400Y-81532489D01*
X82029400Y-81532489D02*
X81947550Y-81617192D01*
X81947550Y-81617192D02*
X81869595Y-81706258D01*
X81869595Y-81706258D02*
X81795735Y-81799605D01*
X81795735Y-81799605D02*
X81726166Y-81897150D01*
X81726166Y-81897150D02*
X81661089Y-81998811D01*
X81661088Y-81998811D02*
X81600699Y-82104508D01*
X81600698Y-82104508D02*
X81545195Y-82214156D01*
X81545194Y-82214156D02*
X81494775Y-82327675D01*
X81494774Y-82327675D02*
X81450156Y-82443597D01*
X81450156Y-82443597D02*
X81411870Y-82560378D01*
X81411870Y-82560378D02*
X81379835Y-82677819D01*
X81379834Y-82677819D02*
X81353967Y-82795722D01*
X81353966Y-82795722D02*
X81334185Y-82913889D01*
X81334184Y-82913889D02*
X81320405Y-83032122D01*
X81320405Y-83032122D02*
X81312549Y-83150223D01*
X81312548Y-83150223D02*
X81310532Y-83267994D01*
X81310531Y-83267994D02*
X81314270Y-83385237D01*
X81314271Y-83385237D02*
X81323686Y-83501753D01*
X81323687Y-83501753D02*
X81338695Y-83617345D01*
X81338696Y-83617345D02*
X81359216Y-83731814D01*
X81359217Y-83731814D02*
X81385166Y-83844963D01*
X81385167Y-83844963D02*
X81416465Y-83956593D01*
X81416465Y-83956593D02*
X81453027Y-84066507D01*
X81453028Y-84066507D02*
X81494774Y-84174505D01*
X81494774Y-84174505D02*
X81541621Y-84280390D01*
X81541621Y-84280390D02*
X81593487Y-84383965D01*
X81593488Y-84383965D02*
X81650292Y-84485030D01*
X81650292Y-84485030D02*
X81711950Y-84583388D01*
X81711950Y-84583388D02*
X81778381Y-84678840D01*
X81778382Y-84678840D02*
X81849503Y-84771189D01*
X81849504Y-84771189D02*
X81925235Y-84860237D01*
X81925236Y-84860237D02*
X82005493Y-84945785D01*
X82005494Y-84945785D02*
X82090196Y-85027635D01*
X82090197Y-85027635D02*
X82179262Y-85105589D01*
X82179263Y-85105589D02*
X82272609Y-85179450D01*
X82272609Y-85179450D02*
X82370153Y-85249018D01*
X82370154Y-85249018D02*
X82471816Y-85314097D01*
X82471816Y-85314097D02*
X82577512Y-85374487D01*
X82577512Y-85374487D02*
X82687160Y-85429991D01*
X82687161Y-85429991D02*
X82800680Y-85480411D01*
X82800680Y-85480411D02*
X82916601Y-85525029D01*
X82916602Y-85525029D02*
X83033381Y-85563315D01*
X83033382Y-85563315D02*
X83150823Y-85595351D01*
X83150823Y-85595351D02*
X83268726Y-85621219D01*
X83268726Y-85621219D02*
X83386893Y-85641002D01*
X83386894Y-85641002D02*
X83505126Y-85654780D01*
X83505127Y-85654780D02*
X83623228Y-85662637D01*
X83623228Y-85662637D02*
X83740999Y-85664654D01*
X83740999Y-85664655D02*
X83858241Y-85660914D01*
X83858242Y-85660914D02*
X83974758Y-85651499D01*
X83974758Y-85651499D02*
X84090349Y-85636489D01*
X84090350Y-85636489D02*
X84204819Y-85615968D01*
X84204819Y-85615968D02*
X84317968Y-85590018D01*
X84317968Y-85590018D02*
X84429597Y-85558720D01*
X84429598Y-85558720D02*
X84539511Y-85522157D01*
X84539511Y-85522157D02*
X84647509Y-85480411D01*
X84647510Y-85480411D02*
X84753394Y-85433564D01*
X84753395Y-85433564D02*
X84856970Y-85381697D01*
X84856970Y-85381697D02*
X84958034Y-85324894D01*
X84958035Y-85324894D02*
X85056392Y-85263235D01*
X85056393Y-85263235D02*
X85151845Y-85196803D01*
X85151845Y-85196803D02*
X85244194Y-85125681D01*
X85244194Y-85125681D02*
X85333242Y-85049949D01*
X85333242Y-85049949D02*
X85418790Y-84969691D01*
X85418790Y-84969691D02*
X85500640Y-84884988D01*
X85500640Y-84884988D02*
X85578594Y-84795922D01*
X85578594Y-84795922D02*
X85652454Y-84702576D01*
X85652455Y-84702576D02*
X85722023Y-84605031D01*
X85722023Y-84605031D02*
X85787101Y-84503369D01*
X85787102Y-84503369D02*
X85847491Y-84397673D01*
X85847492Y-84397673D02*
X85902996Y-84288024D01*
X85902996Y-84288024D02*
X85953415Y-84174505D01*
X85953416Y-84174505D02*
X85998034Y-84058583D01*
X85998034Y-84058583D02*
X86036320Y-83941803D01*
X86036320Y-83941803D02*
X86068355Y-83824362D01*
X86068356Y-83824362D02*
X86094223Y-83706459D01*
X86094224Y-83706459D02*
X86114005Y-83588292D01*
X86114006Y-83588292D02*
X86127785Y-83470058D01*
X86127785Y-83470058D02*
X86135641Y-83351957D01*
X86135642Y-83351957D02*
X86137658Y-83234186D01*
X86137659Y-83234186D02*
X86133919Y-83116944D01*
X86133919Y-83116944D02*
X86124503Y-83000427D01*
X86124503Y-83000427D02*
X86109493Y-82884835D01*
X86109493Y-82884835D02*
X86088974Y-82770366D01*
X86088973Y-82770366D02*
X86063023Y-82657217D01*
X86063022Y-82657217D02*
X86031726Y-82545587D01*
X86031725Y-82545587D02*
X85995163Y-82435674D01*
X85995162Y-82435674D02*
X85953415Y-82327675D01*
X85953415Y-82327675D02*
X85906568Y-82221790D01*
X85906568Y-82221790D02*
X85854702Y-82118215D01*
X85854702Y-82118215D02*
X85797898Y-82017150D01*
X85797898Y-82017150D02*
X85736239Y-81918792D01*
X85736239Y-81918792D02*
X85669808Y-81823340D01*
X85669808Y-81823340D02*
X85598685Y-81730991D01*
X85598685Y-81730991D02*
X85522955Y-81641943D01*
X85522954Y-81641943D02*
X85442695Y-81556395D01*
X85442695Y-81556395D02*
X85357993Y-81474545D01*
X85357992Y-81474545D02*
X85268927Y-81396590D01*
X85268927Y-81396590D02*
X85175581Y-81322730D01*
X85175580Y-81322730D02*
X85078036Y-81253161D01*
X85078035Y-81253161D02*
X84976373Y-81188083D01*
X84976373Y-81188083D02*
X84870677Y-81127693D01*
X84870677Y-81127693D02*
X84761029Y-81072189D01*
X84761029Y-81072189D02*
X84647510Y-81021769D01*
X84647510Y-81021769D02*
X84531589Y-80977151D01*
X84531588Y-80977151D02*
X84414808Y-80938865D01*
X84414807Y-80938865D02*
X84297366Y-80906829D01*
X84297366Y-80906829D02*
X84179463Y-80880961D01*
X84179463Y-80880961D02*
X84061296Y-80861178D01*
X84061296Y-80861178D02*
X83943064Y-80847399D01*
X83943063Y-80847399D02*
X83824963Y-80839543D01*
X83824962Y-80839543D02*
X83707191Y-80837526D01*
X83707191Y-80837525D02*
X83589949Y-80841266D01*
D10*
G36*
X85214046Y-83299610D02*
G01*
X84751025Y-83299610D01*
X84751769Y-83274805D01*
X84752017Y-83250000D01*
X84751769Y-83225196D01*
X84751025Y-83200391D01*
X85214046Y-83200391D01*
X85214046Y-83299610D01*
G37*
D12*
X69604819Y-75333333D02*
X69128628Y-75000000D01*
X69604819Y-74761905D02*
X68604819Y-74761905D01*
X68604819Y-74761905D02*
X68604819Y-75142857D01*
X68604819Y-75142857D02*
X68652438Y-75238095D01*
X68652438Y-75238095D02*
X68700057Y-75285714D01*
X68700057Y-75285714D02*
X68795295Y-75333333D01*
X68795295Y-75333333D02*
X68938152Y-75333333D01*
X68938152Y-75333333D02*
X69033390Y-75285714D01*
X69033390Y-75285714D02*
X69081009Y-75238095D01*
X69081009Y-75238095D02*
X69128628Y-75142857D01*
X69128628Y-75142857D02*
X69128628Y-74761905D01*
X69604819Y-76285714D02*
X69604819Y-75714286D01*
X69604819Y-76000000D02*
X68604819Y-76000000D01*
X68604819Y-76000000D02*
X68747676Y-75904762D01*
X68747676Y-75904762D02*
X68842914Y-75809524D01*
X68842914Y-75809524D02*
X68890533Y-75714286D01*
X177584285Y-121979819D02*
X177584285Y-120979819D01*
X177584285Y-120979819D02*
X177346190Y-120979819D01*
X177346190Y-120979819D02*
X177203333Y-121027438D01*
X177203333Y-121027438D02*
X177108095Y-121122676D01*
X177108095Y-121122676D02*
X177060476Y-121217914D01*
X177060476Y-121217914D02*
X177012857Y-121408390D01*
X177012857Y-121408390D02*
X177012857Y-121551247D01*
X177012857Y-121551247D02*
X177060476Y-121741723D01*
X177060476Y-121741723D02*
X177108095Y-121836961D01*
X177108095Y-121836961D02*
X177203333Y-121932200D01*
X177203333Y-121932200D02*
X177346190Y-121979819D01*
X177346190Y-121979819D02*
X177584285Y-121979819D01*
X176631904Y-121075057D02*
X176584285Y-121027438D01*
X176584285Y-121027438D02*
X176489047Y-120979819D01*
X176489047Y-120979819D02*
X176250952Y-120979819D01*
X176250952Y-120979819D02*
X176155714Y-121027438D01*
X176155714Y-121027438D02*
X176108095Y-121075057D01*
X176108095Y-121075057D02*
X176060476Y-121170295D01*
X176060476Y-121170295D02*
X176060476Y-121265533D01*
X176060476Y-121265533D02*
X176108095Y-121408390D01*
X176108095Y-121408390D02*
X176679523Y-121979819D01*
X176679523Y-121979819D02*
X176060476Y-121979819D01*
X175108095Y-121979819D02*
X175679523Y-121979819D01*
X175393809Y-121979819D02*
X175393809Y-120979819D01*
X175393809Y-120979819D02*
X175489047Y-121122676D01*
X175489047Y-121122676D02*
X175584285Y-121217914D01*
X175584285Y-121217914D02*
X175679523Y-121265533D01*
X234734285Y-121979819D02*
X234734285Y-120979819D01*
X234734285Y-120979819D02*
X234496190Y-120979819D01*
X234496190Y-120979819D02*
X234353333Y-121027438D01*
X234353333Y-121027438D02*
X234258095Y-121122676D01*
X234258095Y-121122676D02*
X234210476Y-121217914D01*
X234210476Y-121217914D02*
X234162857Y-121408390D01*
X234162857Y-121408390D02*
X234162857Y-121551247D01*
X234162857Y-121551247D02*
X234210476Y-121741723D01*
X234210476Y-121741723D02*
X234258095Y-121836961D01*
X234258095Y-121836961D02*
X234353333Y-121932200D01*
X234353333Y-121932200D02*
X234496190Y-121979819D01*
X234496190Y-121979819D02*
X234734285Y-121979819D01*
X233781904Y-121075057D02*
X233734285Y-121027438D01*
X233734285Y-121027438D02*
X233639047Y-120979819D01*
X233639047Y-120979819D02*
X233400952Y-120979819D01*
X233400952Y-120979819D02*
X233305714Y-121027438D01*
X233305714Y-121027438D02*
X233258095Y-121075057D01*
X233258095Y-121075057D02*
X233210476Y-121170295D01*
X233210476Y-121170295D02*
X233210476Y-121265533D01*
X233210476Y-121265533D02*
X233258095Y-121408390D01*
X233258095Y-121408390D02*
X233829523Y-121979819D01*
X233829523Y-121979819D02*
X233210476Y-121979819D01*
X232877142Y-120979819D02*
X232210476Y-120979819D01*
X232210476Y-120979819D02*
X232639047Y-121979819D01*
X240622857Y-136129580D02*
X240670476Y-136177200D01*
X240670476Y-136177200D02*
X240813333Y-136224819D01*
X240813333Y-136224819D02*
X240908571Y-136224819D01*
X240908571Y-136224819D02*
X241051428Y-136177200D01*
X241051428Y-136177200D02*
X241146666Y-136081961D01*
X241146666Y-136081961D02*
X241194285Y-135986723D01*
X241194285Y-135986723D02*
X241241904Y-135796247D01*
X241241904Y-135796247D02*
X241241904Y-135653390D01*
X241241904Y-135653390D02*
X241194285Y-135462914D01*
X241194285Y-135462914D02*
X241146666Y-135367676D01*
X241146666Y-135367676D02*
X241051428Y-135272438D01*
X241051428Y-135272438D02*
X240908571Y-135224819D01*
X240908571Y-135224819D02*
X240813333Y-135224819D01*
X240813333Y-135224819D02*
X240670476Y-135272438D01*
X240670476Y-135272438D02*
X240622857Y-135320057D01*
X240241904Y-135320057D02*
X240194285Y-135272438D01*
X240194285Y-135272438D02*
X240099047Y-135224819D01*
X240099047Y-135224819D02*
X239860952Y-135224819D01*
X239860952Y-135224819D02*
X239765714Y-135272438D01*
X239765714Y-135272438D02*
X239718095Y-135320057D01*
X239718095Y-135320057D02*
X239670476Y-135415295D01*
X239670476Y-135415295D02*
X239670476Y-135510533D01*
X239670476Y-135510533D02*
X239718095Y-135653390D01*
X239718095Y-135653390D02*
X240289523Y-136224819D01*
X240289523Y-136224819D02*
X239670476Y-136224819D01*
X239289523Y-135320057D02*
X239241904Y-135272438D01*
X239241904Y-135272438D02*
X239146666Y-135224819D01*
X239146666Y-135224819D02*
X238908571Y-135224819D01*
X238908571Y-135224819D02*
X238813333Y-135272438D01*
X238813333Y-135272438D02*
X238765714Y-135320057D01*
X238765714Y-135320057D02*
X238718095Y-135415295D01*
X238718095Y-135415295D02*
X238718095Y-135510533D01*
X238718095Y-135510533D02*
X238765714Y-135653390D01*
X238765714Y-135653390D02*
X239337142Y-136224819D01*
X239337142Y-136224819D02*
X238718095Y-136224819D01*
X220966666Y-79029580D02*
X221014285Y-79077200D01*
X221014285Y-79077200D02*
X221157142Y-79124819D01*
X221157142Y-79124819D02*
X221252380Y-79124819D01*
X221252380Y-79124819D02*
X221395237Y-79077200D01*
X221395237Y-79077200D02*
X221490475Y-78981961D01*
X221490475Y-78981961D02*
X221538094Y-78886723D01*
X221538094Y-78886723D02*
X221585713Y-78696247D01*
X221585713Y-78696247D02*
X221585713Y-78553390D01*
X221585713Y-78553390D02*
X221538094Y-78362914D01*
X221538094Y-78362914D02*
X221490475Y-78267676D01*
X221490475Y-78267676D02*
X221395237Y-78172438D01*
X221395237Y-78172438D02*
X221252380Y-78124819D01*
X221252380Y-78124819D02*
X221157142Y-78124819D01*
X221157142Y-78124819D02*
X221014285Y-78172438D01*
X221014285Y-78172438D02*
X220966666Y-78220057D01*
X220109523Y-78124819D02*
X220299999Y-78124819D01*
X220299999Y-78124819D02*
X220395237Y-78172438D01*
X220395237Y-78172438D02*
X220442856Y-78220057D01*
X220442856Y-78220057D02*
X220538094Y-78362914D01*
X220538094Y-78362914D02*
X220585713Y-78553390D01*
X220585713Y-78553390D02*
X220585713Y-78934342D01*
X220585713Y-78934342D02*
X220538094Y-79029580D01*
X220538094Y-79029580D02*
X220490475Y-79077200D01*
X220490475Y-79077200D02*
X220395237Y-79124819D01*
X220395237Y-79124819D02*
X220204761Y-79124819D01*
X220204761Y-79124819D02*
X220109523Y-79077200D01*
X220109523Y-79077200D02*
X220061904Y-79029580D01*
X220061904Y-79029580D02*
X220014285Y-78934342D01*
X220014285Y-78934342D02*
X220014285Y-78696247D01*
X220014285Y-78696247D02*
X220061904Y-78601009D01*
X220061904Y-78601009D02*
X220109523Y-78553390D01*
X220109523Y-78553390D02*
X220204761Y-78505771D01*
X220204761Y-78505771D02*
X220395237Y-78505771D01*
X220395237Y-78505771D02*
X220490475Y-78553390D01*
X220490475Y-78553390D02*
X220538094Y-78601009D01*
X220538094Y-78601009D02*
X220585713Y-78696247D01*
X164242857Y-136059580D02*
X164290476Y-136107200D01*
X164290476Y-136107200D02*
X164433333Y-136154819D01*
X164433333Y-136154819D02*
X164528571Y-136154819D01*
X164528571Y-136154819D02*
X164671428Y-136107200D01*
X164671428Y-136107200D02*
X164766666Y-136011961D01*
X164766666Y-136011961D02*
X164814285Y-135916723D01*
X164814285Y-135916723D02*
X164861904Y-135726247D01*
X164861904Y-135726247D02*
X164861904Y-135583390D01*
X164861904Y-135583390D02*
X164814285Y-135392914D01*
X164814285Y-135392914D02*
X164766666Y-135297676D01*
X164766666Y-135297676D02*
X164671428Y-135202438D01*
X164671428Y-135202438D02*
X164528571Y-135154819D01*
X164528571Y-135154819D02*
X164433333Y-135154819D01*
X164433333Y-135154819D02*
X164290476Y-135202438D01*
X164290476Y-135202438D02*
X164242857Y-135250057D01*
X163861904Y-135250057D02*
X163814285Y-135202438D01*
X163814285Y-135202438D02*
X163719047Y-135154819D01*
X163719047Y-135154819D02*
X163480952Y-135154819D01*
X163480952Y-135154819D02*
X163385714Y-135202438D01*
X163385714Y-135202438D02*
X163338095Y-135250057D01*
X163338095Y-135250057D02*
X163290476Y-135345295D01*
X163290476Y-135345295D02*
X163290476Y-135440533D01*
X163290476Y-135440533D02*
X163338095Y-135583390D01*
X163338095Y-135583390D02*
X163909523Y-136154819D01*
X163909523Y-136154819D02*
X163290476Y-136154819D01*
X162433333Y-135154819D02*
X162623809Y-135154819D01*
X162623809Y-135154819D02*
X162719047Y-135202438D01*
X162719047Y-135202438D02*
X162766666Y-135250057D01*
X162766666Y-135250057D02*
X162861904Y-135392914D01*
X162861904Y-135392914D02*
X162909523Y-135583390D01*
X162909523Y-135583390D02*
X162909523Y-135964342D01*
X162909523Y-135964342D02*
X162861904Y-136059580D01*
X162861904Y-136059580D02*
X162814285Y-136107200D01*
X162814285Y-136107200D02*
X162719047Y-136154819D01*
X162719047Y-136154819D02*
X162528571Y-136154819D01*
X162528571Y-136154819D02*
X162433333Y-136107200D01*
X162433333Y-136107200D02*
X162385714Y-136059580D01*
X162385714Y-136059580D02*
X162338095Y-135964342D01*
X162338095Y-135964342D02*
X162338095Y-135726247D01*
X162338095Y-135726247D02*
X162385714Y-135631009D01*
X162385714Y-135631009D02*
X162433333Y-135583390D01*
X162433333Y-135583390D02*
X162528571Y-135535771D01*
X162528571Y-135535771D02*
X162719047Y-135535771D01*
X162719047Y-135535771D02*
X162814285Y-135583390D01*
X162814285Y-135583390D02*
X162861904Y-135631009D01*
X162861904Y-135631009D02*
X162909523Y-135726247D01*
X158058094Y-102929819D02*
X158058094Y-101929819D01*
X158058094Y-101929819D02*
X157819999Y-101929819D01*
X157819999Y-101929819D02*
X157677142Y-101977438D01*
X157677142Y-101977438D02*
X157581904Y-102072676D01*
X157581904Y-102072676D02*
X157534285Y-102167914D01*
X157534285Y-102167914D02*
X157486666Y-102358390D01*
X157486666Y-102358390D02*
X157486666Y-102501247D01*
X157486666Y-102501247D02*
X157534285Y-102691723D01*
X157534285Y-102691723D02*
X157581904Y-102786961D01*
X157581904Y-102786961D02*
X157677142Y-102882200D01*
X157677142Y-102882200D02*
X157819999Y-102929819D01*
X157819999Y-102929819D02*
X158058094Y-102929819D01*
X157010475Y-102929819D02*
X156819999Y-102929819D01*
X156819999Y-102929819D02*
X156724761Y-102882200D01*
X156724761Y-102882200D02*
X156677142Y-102834580D01*
X156677142Y-102834580D02*
X156581904Y-102691723D01*
X156581904Y-102691723D02*
X156534285Y-102501247D01*
X156534285Y-102501247D02*
X156534285Y-102120295D01*
X156534285Y-102120295D02*
X156581904Y-102025057D01*
X156581904Y-102025057D02*
X156629523Y-101977438D01*
X156629523Y-101977438D02*
X156724761Y-101929819D01*
X156724761Y-101929819D02*
X156915237Y-101929819D01*
X156915237Y-101929819D02*
X157010475Y-101977438D01*
X157010475Y-101977438D02*
X157058094Y-102025057D01*
X157058094Y-102025057D02*
X157105713Y-102120295D01*
X157105713Y-102120295D02*
X157105713Y-102358390D01*
X157105713Y-102358390D02*
X157058094Y-102453628D01*
X157058094Y-102453628D02*
X157010475Y-102501247D01*
X157010475Y-102501247D02*
X156915237Y-102548866D01*
X156915237Y-102548866D02*
X156724761Y-102548866D01*
X156724761Y-102548866D02*
X156629523Y-102501247D01*
X156629523Y-102501247D02*
X156581904Y-102453628D01*
X156581904Y-102453628D02*
X156534285Y-102358390D01*
X158534285Y-121979819D02*
X158534285Y-120979819D01*
X158534285Y-120979819D02*
X158296190Y-120979819D01*
X158296190Y-120979819D02*
X158153333Y-121027438D01*
X158153333Y-121027438D02*
X158058095Y-121122676D01*
X158058095Y-121122676D02*
X158010476Y-121217914D01*
X158010476Y-121217914D02*
X157962857Y-121408390D01*
X157962857Y-121408390D02*
X157962857Y-121551247D01*
X157962857Y-121551247D02*
X158010476Y-121741723D01*
X158010476Y-121741723D02*
X158058095Y-121836961D01*
X158058095Y-121836961D02*
X158153333Y-121932200D01*
X158153333Y-121932200D02*
X158296190Y-121979819D01*
X158296190Y-121979819D02*
X158534285Y-121979819D01*
X157581904Y-121075057D02*
X157534285Y-121027438D01*
X157534285Y-121027438D02*
X157439047Y-120979819D01*
X157439047Y-120979819D02*
X157200952Y-120979819D01*
X157200952Y-120979819D02*
X157105714Y-121027438D01*
X157105714Y-121027438D02*
X157058095Y-121075057D01*
X157058095Y-121075057D02*
X157010476Y-121170295D01*
X157010476Y-121170295D02*
X157010476Y-121265533D01*
X157010476Y-121265533D02*
X157058095Y-121408390D01*
X157058095Y-121408390D02*
X157629523Y-121979819D01*
X157629523Y-121979819D02*
X157010476Y-121979819D01*
X156391428Y-120979819D02*
X156296190Y-120979819D01*
X156296190Y-120979819D02*
X156200952Y-121027438D01*
X156200952Y-121027438D02*
X156153333Y-121075057D01*
X156153333Y-121075057D02*
X156105714Y-121170295D01*
X156105714Y-121170295D02*
X156058095Y-121360771D01*
X156058095Y-121360771D02*
X156058095Y-121598866D01*
X156058095Y-121598866D02*
X156105714Y-121789342D01*
X156105714Y-121789342D02*
X156153333Y-121884580D01*
X156153333Y-121884580D02*
X156200952Y-121932200D01*
X156200952Y-121932200D02*
X156296190Y-121979819D01*
X156296190Y-121979819D02*
X156391428Y-121979819D01*
X156391428Y-121979819D02*
X156486666Y-121932200D01*
X156486666Y-121932200D02*
X156534285Y-121884580D01*
X156534285Y-121884580D02*
X156581904Y-121789342D01*
X156581904Y-121789342D02*
X156629523Y-121598866D01*
X156629523Y-121598866D02*
X156629523Y-121360771D01*
X156629523Y-121360771D02*
X156581904Y-121170295D01*
X156581904Y-121170295D02*
X156534285Y-121075057D01*
X156534285Y-121075057D02*
X156486666Y-121027438D01*
X156486666Y-121027438D02*
X156391428Y-120979819D01*
X183052857Y-136089580D02*
X183100476Y-136137200D01*
X183100476Y-136137200D02*
X183243333Y-136184819D01*
X183243333Y-136184819D02*
X183338571Y-136184819D01*
X183338571Y-136184819D02*
X183481428Y-136137200D01*
X183481428Y-136137200D02*
X183576666Y-136041961D01*
X183576666Y-136041961D02*
X183624285Y-135946723D01*
X183624285Y-135946723D02*
X183671904Y-135756247D01*
X183671904Y-135756247D02*
X183671904Y-135613390D01*
X183671904Y-135613390D02*
X183624285Y-135422914D01*
X183624285Y-135422914D02*
X183576666Y-135327676D01*
X183576666Y-135327676D02*
X183481428Y-135232438D01*
X183481428Y-135232438D02*
X183338571Y-135184819D01*
X183338571Y-135184819D02*
X183243333Y-135184819D01*
X183243333Y-135184819D02*
X183100476Y-135232438D01*
X183100476Y-135232438D02*
X183052857Y-135280057D01*
X182671904Y-135280057D02*
X182624285Y-135232438D01*
X182624285Y-135232438D02*
X182529047Y-135184819D01*
X182529047Y-135184819D02*
X182290952Y-135184819D01*
X182290952Y-135184819D02*
X182195714Y-135232438D01*
X182195714Y-135232438D02*
X182148095Y-135280057D01*
X182148095Y-135280057D02*
X182100476Y-135375295D01*
X182100476Y-135375295D02*
X182100476Y-135470533D01*
X182100476Y-135470533D02*
X182148095Y-135613390D01*
X182148095Y-135613390D02*
X182719523Y-136184819D01*
X182719523Y-136184819D02*
X182100476Y-136184819D01*
X181195714Y-135184819D02*
X181671904Y-135184819D01*
X181671904Y-135184819D02*
X181719523Y-135661009D01*
X181719523Y-135661009D02*
X181671904Y-135613390D01*
X181671904Y-135613390D02*
X181576666Y-135565771D01*
X181576666Y-135565771D02*
X181338571Y-135565771D01*
X181338571Y-135565771D02*
X181243333Y-135613390D01*
X181243333Y-135613390D02*
X181195714Y-135661009D01*
X181195714Y-135661009D02*
X181148095Y-135756247D01*
X181148095Y-135756247D02*
X181148095Y-135994342D01*
X181148095Y-135994342D02*
X181195714Y-136089580D01*
X181195714Y-136089580D02*
X181243333Y-136137200D01*
X181243333Y-136137200D02*
X181338571Y-136184819D01*
X181338571Y-136184819D02*
X181576666Y-136184819D01*
X181576666Y-136184819D02*
X181671904Y-136137200D01*
X181671904Y-136137200D02*
X181719523Y-136089580D01*
X221602857Y-117089580D02*
X221650476Y-117137200D01*
X221650476Y-117137200D02*
X221793333Y-117184819D01*
X221793333Y-117184819D02*
X221888571Y-117184819D01*
X221888571Y-117184819D02*
X222031428Y-117137200D01*
X222031428Y-117137200D02*
X222126666Y-117041961D01*
X222126666Y-117041961D02*
X222174285Y-116946723D01*
X222174285Y-116946723D02*
X222221904Y-116756247D01*
X222221904Y-116756247D02*
X222221904Y-116613390D01*
X222221904Y-116613390D02*
X222174285Y-116422914D01*
X222174285Y-116422914D02*
X222126666Y-116327676D01*
X222126666Y-116327676D02*
X222031428Y-116232438D01*
X222031428Y-116232438D02*
X221888571Y-116184819D01*
X221888571Y-116184819D02*
X221793333Y-116184819D01*
X221793333Y-116184819D02*
X221650476Y-116232438D01*
X221650476Y-116232438D02*
X221602857Y-116280057D01*
X221221904Y-116280057D02*
X221174285Y-116232438D01*
X221174285Y-116232438D02*
X221079047Y-116184819D01*
X221079047Y-116184819D02*
X220840952Y-116184819D01*
X220840952Y-116184819D02*
X220745714Y-116232438D01*
X220745714Y-116232438D02*
X220698095Y-116280057D01*
X220698095Y-116280057D02*
X220650476Y-116375295D01*
X220650476Y-116375295D02*
X220650476Y-116470533D01*
X220650476Y-116470533D02*
X220698095Y-116613390D01*
X220698095Y-116613390D02*
X221269523Y-117184819D01*
X221269523Y-117184819D02*
X220650476Y-117184819D01*
X220031428Y-116184819D02*
X219936190Y-116184819D01*
X219936190Y-116184819D02*
X219840952Y-116232438D01*
X219840952Y-116232438D02*
X219793333Y-116280057D01*
X219793333Y-116280057D02*
X219745714Y-116375295D01*
X219745714Y-116375295D02*
X219698095Y-116565771D01*
X219698095Y-116565771D02*
X219698095Y-116803866D01*
X219698095Y-116803866D02*
X219745714Y-116994342D01*
X219745714Y-116994342D02*
X219793333Y-117089580D01*
X219793333Y-117089580D02*
X219840952Y-117137200D01*
X219840952Y-117137200D02*
X219936190Y-117184819D01*
X219936190Y-117184819D02*
X220031428Y-117184819D01*
X220031428Y-117184819D02*
X220126666Y-117137200D01*
X220126666Y-117137200D02*
X220174285Y-117089580D01*
X220174285Y-117089580D02*
X220221904Y-116994342D01*
X220221904Y-116994342D02*
X220269523Y-116803866D01*
X220269523Y-116803866D02*
X220269523Y-116565771D01*
X220269523Y-116565771D02*
X220221904Y-116375295D01*
X220221904Y-116375295D02*
X220174285Y-116280057D01*
X220174285Y-116280057D02*
X220126666Y-116232438D01*
X220126666Y-116232438D02*
X220031428Y-116184819D01*
X125832857Y-98099580D02*
X125880476Y-98147200D01*
X125880476Y-98147200D02*
X126023333Y-98194819D01*
X126023333Y-98194819D02*
X126118571Y-98194819D01*
X126118571Y-98194819D02*
X126261428Y-98147200D01*
X126261428Y-98147200D02*
X126356666Y-98051961D01*
X126356666Y-98051961D02*
X126404285Y-97956723D01*
X126404285Y-97956723D02*
X126451904Y-97766247D01*
X126451904Y-97766247D02*
X126451904Y-97623390D01*
X126451904Y-97623390D02*
X126404285Y-97432914D01*
X126404285Y-97432914D02*
X126356666Y-97337676D01*
X126356666Y-97337676D02*
X126261428Y-97242438D01*
X126261428Y-97242438D02*
X126118571Y-97194819D01*
X126118571Y-97194819D02*
X126023333Y-97194819D01*
X126023333Y-97194819D02*
X125880476Y-97242438D01*
X125880476Y-97242438D02*
X125832857Y-97290057D01*
X124880476Y-98194819D02*
X125451904Y-98194819D01*
X125166190Y-98194819D02*
X125166190Y-97194819D01*
X125166190Y-97194819D02*
X125261428Y-97337676D01*
X125261428Y-97337676D02*
X125356666Y-97432914D01*
X125356666Y-97432914D02*
X125451904Y-97480533D01*
X124023333Y-97528152D02*
X124023333Y-98194819D01*
X124261428Y-97147200D02*
X124499523Y-97861485D01*
X124499523Y-97861485D02*
X123880476Y-97861485D01*
D13*
X83681904Y-49922419D02*
X83681904Y-50731942D01*
X83681904Y-50731942D02*
X83634285Y-50827180D01*
X83634285Y-50827180D02*
X83586666Y-50874800D01*
X83586666Y-50874800D02*
X83491428Y-50922419D01*
X83491428Y-50922419D02*
X83300952Y-50922419D01*
X83300952Y-50922419D02*
X83205714Y-50874800D01*
X83205714Y-50874800D02*
X83158095Y-50827180D01*
X83158095Y-50827180D02*
X83110476Y-50731942D01*
X83110476Y-50731942D02*
X83110476Y-49922419D01*
X82110476Y-50922419D02*
X82681904Y-50922419D01*
X82396190Y-50922419D02*
X82396190Y-49922419D01*
X82396190Y-49922419D02*
X82491428Y-50065276D01*
X82491428Y-50065276D02*
X82586666Y-50160514D01*
X82586666Y-50160514D02*
X82681904Y-50208133D01*
D12*
X196634285Y-121979819D02*
X196634285Y-120979819D01*
X196634285Y-120979819D02*
X196396190Y-120979819D01*
X196396190Y-120979819D02*
X196253333Y-121027438D01*
X196253333Y-121027438D02*
X196158095Y-121122676D01*
X196158095Y-121122676D02*
X196110476Y-121217914D01*
X196110476Y-121217914D02*
X196062857Y-121408390D01*
X196062857Y-121408390D02*
X196062857Y-121551247D01*
X196062857Y-121551247D02*
X196110476Y-121741723D01*
X196110476Y-121741723D02*
X196158095Y-121836961D01*
X196158095Y-121836961D02*
X196253333Y-121932200D01*
X196253333Y-121932200D02*
X196396190Y-121979819D01*
X196396190Y-121979819D02*
X196634285Y-121979819D01*
X195681904Y-121075057D02*
X195634285Y-121027438D01*
X195634285Y-121027438D02*
X195539047Y-120979819D01*
X195539047Y-120979819D02*
X195300952Y-120979819D01*
X195300952Y-120979819D02*
X195205714Y-121027438D01*
X195205714Y-121027438D02*
X195158095Y-121075057D01*
X195158095Y-121075057D02*
X195110476Y-121170295D01*
X195110476Y-121170295D02*
X195110476Y-121265533D01*
X195110476Y-121265533D02*
X195158095Y-121408390D01*
X195158095Y-121408390D02*
X195729523Y-121979819D01*
X195729523Y-121979819D02*
X195110476Y-121979819D01*
X194777142Y-120979819D02*
X194158095Y-120979819D01*
X194158095Y-120979819D02*
X194491428Y-121360771D01*
X194491428Y-121360771D02*
X194348571Y-121360771D01*
X194348571Y-121360771D02*
X194253333Y-121408390D01*
X194253333Y-121408390D02*
X194205714Y-121456009D01*
X194205714Y-121456009D02*
X194158095Y-121551247D01*
X194158095Y-121551247D02*
X194158095Y-121789342D01*
X194158095Y-121789342D02*
X194205714Y-121884580D01*
X194205714Y-121884580D02*
X194253333Y-121932200D01*
X194253333Y-121932200D02*
X194348571Y-121979819D01*
X194348571Y-121979819D02*
X194634285Y-121979819D01*
X194634285Y-121979819D02*
X194729523Y-121932200D01*
X194729523Y-121932200D02*
X194777142Y-121884580D01*
X183262857Y-117049580D02*
X183310476Y-117097200D01*
X183310476Y-117097200D02*
X183453333Y-117144819D01*
X183453333Y-117144819D02*
X183548571Y-117144819D01*
X183548571Y-117144819D02*
X183691428Y-117097200D01*
X183691428Y-117097200D02*
X183786666Y-117001961D01*
X183786666Y-117001961D02*
X183834285Y-116906723D01*
X183834285Y-116906723D02*
X183881904Y-116716247D01*
X183881904Y-116716247D02*
X183881904Y-116573390D01*
X183881904Y-116573390D02*
X183834285Y-116382914D01*
X183834285Y-116382914D02*
X183786666Y-116287676D01*
X183786666Y-116287676D02*
X183691428Y-116192438D01*
X183691428Y-116192438D02*
X183548571Y-116144819D01*
X183548571Y-116144819D02*
X183453333Y-116144819D01*
X183453333Y-116144819D02*
X183310476Y-116192438D01*
X183310476Y-116192438D02*
X183262857Y-116240057D01*
X182310476Y-117144819D02*
X182881904Y-117144819D01*
X182596190Y-117144819D02*
X182596190Y-116144819D01*
X182596190Y-116144819D02*
X182691428Y-116287676D01*
X182691428Y-116287676D02*
X182786666Y-116382914D01*
X182786666Y-116382914D02*
X182881904Y-116430533D01*
X181739047Y-116573390D02*
X181834285Y-116525771D01*
X181834285Y-116525771D02*
X181881904Y-116478152D01*
X181881904Y-116478152D02*
X181929523Y-116382914D01*
X181929523Y-116382914D02*
X181929523Y-116335295D01*
X181929523Y-116335295D02*
X181881904Y-116240057D01*
X181881904Y-116240057D02*
X181834285Y-116192438D01*
X181834285Y-116192438D02*
X181739047Y-116144819D01*
X181739047Y-116144819D02*
X181548571Y-116144819D01*
X181548571Y-116144819D02*
X181453333Y-116192438D01*
X181453333Y-116192438D02*
X181405714Y-116240057D01*
X181405714Y-116240057D02*
X181358095Y-116335295D01*
X181358095Y-116335295D02*
X181358095Y-116382914D01*
X181358095Y-116382914D02*
X181405714Y-116478152D01*
X181405714Y-116478152D02*
X181453333Y-116525771D01*
X181453333Y-116525771D02*
X181548571Y-116573390D01*
X181548571Y-116573390D02*
X181739047Y-116573390D01*
X181739047Y-116573390D02*
X181834285Y-116621009D01*
X181834285Y-116621009D02*
X181881904Y-116668628D01*
X181881904Y-116668628D02*
X181929523Y-116763866D01*
X181929523Y-116763866D02*
X181929523Y-116954342D01*
X181929523Y-116954342D02*
X181881904Y-117049580D01*
X181881904Y-117049580D02*
X181834285Y-117097200D01*
X181834285Y-117097200D02*
X181739047Y-117144819D01*
X181739047Y-117144819D02*
X181548571Y-117144819D01*
X181548571Y-117144819D02*
X181453333Y-117097200D01*
X181453333Y-117097200D02*
X181405714Y-117049580D01*
X181405714Y-117049580D02*
X181358095Y-116954342D01*
X181358095Y-116954342D02*
X181358095Y-116763866D01*
X181358095Y-116763866D02*
X181405714Y-116668628D01*
X181405714Y-116668628D02*
X181453333Y-116621009D01*
X181453333Y-116621009D02*
X181548571Y-116573390D01*
X202232857Y-98089580D02*
X202280476Y-98137200D01*
X202280476Y-98137200D02*
X202423333Y-98184819D01*
X202423333Y-98184819D02*
X202518571Y-98184819D01*
X202518571Y-98184819D02*
X202661428Y-98137200D01*
X202661428Y-98137200D02*
X202756666Y-98041961D01*
X202756666Y-98041961D02*
X202804285Y-97946723D01*
X202804285Y-97946723D02*
X202851904Y-97756247D01*
X202851904Y-97756247D02*
X202851904Y-97613390D01*
X202851904Y-97613390D02*
X202804285Y-97422914D01*
X202804285Y-97422914D02*
X202756666Y-97327676D01*
X202756666Y-97327676D02*
X202661428Y-97232438D01*
X202661428Y-97232438D02*
X202518571Y-97184819D01*
X202518571Y-97184819D02*
X202423333Y-97184819D01*
X202423333Y-97184819D02*
X202280476Y-97232438D01*
X202280476Y-97232438D02*
X202232857Y-97280057D01*
X201280476Y-98184819D02*
X201851904Y-98184819D01*
X201566190Y-98184819D02*
X201566190Y-97184819D01*
X201566190Y-97184819D02*
X201661428Y-97327676D01*
X201661428Y-97327676D02*
X201756666Y-97422914D01*
X201756666Y-97422914D02*
X201851904Y-97470533D01*
X200661428Y-97184819D02*
X200566190Y-97184819D01*
X200566190Y-97184819D02*
X200470952Y-97232438D01*
X200470952Y-97232438D02*
X200423333Y-97280057D01*
X200423333Y-97280057D02*
X200375714Y-97375295D01*
X200375714Y-97375295D02*
X200328095Y-97565771D01*
X200328095Y-97565771D02*
X200328095Y-97803866D01*
X200328095Y-97803866D02*
X200375714Y-97994342D01*
X200375714Y-97994342D02*
X200423333Y-98089580D01*
X200423333Y-98089580D02*
X200470952Y-98137200D01*
X200470952Y-98137200D02*
X200566190Y-98184819D01*
X200566190Y-98184819D02*
X200661428Y-98184819D01*
X200661428Y-98184819D02*
X200756666Y-98137200D01*
X200756666Y-98137200D02*
X200804285Y-98089580D01*
X200804285Y-98089580D02*
X200851904Y-97994342D01*
X200851904Y-97994342D02*
X200899523Y-97803866D01*
X200899523Y-97803866D02*
X200899523Y-97565771D01*
X200899523Y-97565771D02*
X200851904Y-97375295D01*
X200851904Y-97375295D02*
X200804285Y-97280057D01*
X200804285Y-97280057D02*
X200756666Y-97232438D01*
X200756666Y-97232438D02*
X200661428Y-97184819D01*
X202292857Y-117039580D02*
X202340476Y-117087200D01*
X202340476Y-117087200D02*
X202483333Y-117134819D01*
X202483333Y-117134819D02*
X202578571Y-117134819D01*
X202578571Y-117134819D02*
X202721428Y-117087200D01*
X202721428Y-117087200D02*
X202816666Y-116991961D01*
X202816666Y-116991961D02*
X202864285Y-116896723D01*
X202864285Y-116896723D02*
X202911904Y-116706247D01*
X202911904Y-116706247D02*
X202911904Y-116563390D01*
X202911904Y-116563390D02*
X202864285Y-116372914D01*
X202864285Y-116372914D02*
X202816666Y-116277676D01*
X202816666Y-116277676D02*
X202721428Y-116182438D01*
X202721428Y-116182438D02*
X202578571Y-116134819D01*
X202578571Y-116134819D02*
X202483333Y-116134819D01*
X202483333Y-116134819D02*
X202340476Y-116182438D01*
X202340476Y-116182438D02*
X202292857Y-116230057D01*
X201340476Y-117134819D02*
X201911904Y-117134819D01*
X201626190Y-117134819D02*
X201626190Y-116134819D01*
X201626190Y-116134819D02*
X201721428Y-116277676D01*
X201721428Y-116277676D02*
X201816666Y-116372914D01*
X201816666Y-116372914D02*
X201911904Y-116420533D01*
X200864285Y-117134819D02*
X200673809Y-117134819D01*
X200673809Y-117134819D02*
X200578571Y-117087200D01*
X200578571Y-117087200D02*
X200530952Y-117039580D01*
X200530952Y-117039580D02*
X200435714Y-116896723D01*
X200435714Y-116896723D02*
X200388095Y-116706247D01*
X200388095Y-116706247D02*
X200388095Y-116325295D01*
X200388095Y-116325295D02*
X200435714Y-116230057D01*
X200435714Y-116230057D02*
X200483333Y-116182438D01*
X200483333Y-116182438D02*
X200578571Y-116134819D01*
X200578571Y-116134819D02*
X200769047Y-116134819D01*
X200769047Y-116134819D02*
X200864285Y-116182438D01*
X200864285Y-116182438D02*
X200911904Y-116230057D01*
X200911904Y-116230057D02*
X200959523Y-116325295D01*
X200959523Y-116325295D02*
X200959523Y-116563390D01*
X200959523Y-116563390D02*
X200911904Y-116658628D01*
X200911904Y-116658628D02*
X200864285Y-116706247D01*
X200864285Y-116706247D02*
X200769047Y-116753866D01*
X200769047Y-116753866D02*
X200578571Y-116753866D01*
X200578571Y-116753866D02*
X200483333Y-116706247D01*
X200483333Y-116706247D02*
X200435714Y-116658628D01*
X200435714Y-116658628D02*
X200388095Y-116563390D01*
X221166666Y-98059580D02*
X221214285Y-98107200D01*
X221214285Y-98107200D02*
X221357142Y-98154819D01*
X221357142Y-98154819D02*
X221452380Y-98154819D01*
X221452380Y-98154819D02*
X221595237Y-98107200D01*
X221595237Y-98107200D02*
X221690475Y-98011961D01*
X221690475Y-98011961D02*
X221738094Y-97916723D01*
X221738094Y-97916723D02*
X221785713Y-97726247D01*
X221785713Y-97726247D02*
X221785713Y-97583390D01*
X221785713Y-97583390D02*
X221738094Y-97392914D01*
X221738094Y-97392914D02*
X221690475Y-97297676D01*
X221690475Y-97297676D02*
X221595237Y-97202438D01*
X221595237Y-97202438D02*
X221452380Y-97154819D01*
X221452380Y-97154819D02*
X221357142Y-97154819D01*
X221357142Y-97154819D02*
X221214285Y-97202438D01*
X221214285Y-97202438D02*
X221166666Y-97250057D01*
X220690475Y-98154819D02*
X220499999Y-98154819D01*
X220499999Y-98154819D02*
X220404761Y-98107200D01*
X220404761Y-98107200D02*
X220357142Y-98059580D01*
X220357142Y-98059580D02*
X220261904Y-97916723D01*
X220261904Y-97916723D02*
X220214285Y-97726247D01*
X220214285Y-97726247D02*
X220214285Y-97345295D01*
X220214285Y-97345295D02*
X220261904Y-97250057D01*
X220261904Y-97250057D02*
X220309523Y-97202438D01*
X220309523Y-97202438D02*
X220404761Y-97154819D01*
X220404761Y-97154819D02*
X220595237Y-97154819D01*
X220595237Y-97154819D02*
X220690475Y-97202438D01*
X220690475Y-97202438D02*
X220738094Y-97250057D01*
X220738094Y-97250057D02*
X220785713Y-97345295D01*
X220785713Y-97345295D02*
X220785713Y-97583390D01*
X220785713Y-97583390D02*
X220738094Y-97678628D01*
X220738094Y-97678628D02*
X220690475Y-97726247D01*
X220690475Y-97726247D02*
X220595237Y-97773866D01*
X220595237Y-97773866D02*
X220404761Y-97773866D01*
X220404761Y-97773866D02*
X220309523Y-97726247D01*
X220309523Y-97726247D02*
X220261904Y-97678628D01*
X220261904Y-97678628D02*
X220214285Y-97583390D01*
X120434285Y-141029819D02*
X120434285Y-140029819D01*
X120434285Y-140029819D02*
X120196190Y-140029819D01*
X120196190Y-140029819D02*
X120053333Y-140077438D01*
X120053333Y-140077438D02*
X119958095Y-140172676D01*
X119958095Y-140172676D02*
X119910476Y-140267914D01*
X119910476Y-140267914D02*
X119862857Y-140458390D01*
X119862857Y-140458390D02*
X119862857Y-140601247D01*
X119862857Y-140601247D02*
X119910476Y-140791723D01*
X119910476Y-140791723D02*
X119958095Y-140886961D01*
X119958095Y-140886961D02*
X120053333Y-140982200D01*
X120053333Y-140982200D02*
X120196190Y-141029819D01*
X120196190Y-141029819D02*
X120434285Y-141029819D01*
X118910476Y-141029819D02*
X119481904Y-141029819D01*
X119196190Y-141029819D02*
X119196190Y-140029819D01*
X119196190Y-140029819D02*
X119291428Y-140172676D01*
X119291428Y-140172676D02*
X119386666Y-140267914D01*
X119386666Y-140267914D02*
X119481904Y-140315533D01*
X118053333Y-140029819D02*
X118243809Y-140029819D01*
X118243809Y-140029819D02*
X118339047Y-140077438D01*
X118339047Y-140077438D02*
X118386666Y-140125057D01*
X118386666Y-140125057D02*
X118481904Y-140267914D01*
X118481904Y-140267914D02*
X118529523Y-140458390D01*
X118529523Y-140458390D02*
X118529523Y-140839342D01*
X118529523Y-140839342D02*
X118481904Y-140934580D01*
X118481904Y-140934580D02*
X118434285Y-140982200D01*
X118434285Y-140982200D02*
X118339047Y-141029819D01*
X118339047Y-141029819D02*
X118148571Y-141029819D01*
X118148571Y-141029819D02*
X118053333Y-140982200D01*
X118053333Y-140982200D02*
X118005714Y-140934580D01*
X118005714Y-140934580D02*
X117958095Y-140839342D01*
X117958095Y-140839342D02*
X117958095Y-140601247D01*
X117958095Y-140601247D02*
X118005714Y-140506009D01*
X118005714Y-140506009D02*
X118053333Y-140458390D01*
X118053333Y-140458390D02*
X118148571Y-140410771D01*
X118148571Y-140410771D02*
X118339047Y-140410771D01*
X118339047Y-140410771D02*
X118434285Y-140458390D01*
X118434285Y-140458390D02*
X118481904Y-140506009D01*
X118481904Y-140506009D02*
X118529523Y-140601247D01*
X144942857Y-135849580D02*
X144990476Y-135897200D01*
X144990476Y-135897200D02*
X145133333Y-135944819D01*
X145133333Y-135944819D02*
X145228571Y-135944819D01*
X145228571Y-135944819D02*
X145371428Y-135897200D01*
X145371428Y-135897200D02*
X145466666Y-135801961D01*
X145466666Y-135801961D02*
X145514285Y-135706723D01*
X145514285Y-135706723D02*
X145561904Y-135516247D01*
X145561904Y-135516247D02*
X145561904Y-135373390D01*
X145561904Y-135373390D02*
X145514285Y-135182914D01*
X145514285Y-135182914D02*
X145466666Y-135087676D01*
X145466666Y-135087676D02*
X145371428Y-134992438D01*
X145371428Y-134992438D02*
X145228571Y-134944819D01*
X145228571Y-134944819D02*
X145133333Y-134944819D01*
X145133333Y-134944819D02*
X144990476Y-134992438D01*
X144990476Y-134992438D02*
X144942857Y-135040057D01*
X144561904Y-135040057D02*
X144514285Y-134992438D01*
X144514285Y-134992438D02*
X144419047Y-134944819D01*
X144419047Y-134944819D02*
X144180952Y-134944819D01*
X144180952Y-134944819D02*
X144085714Y-134992438D01*
X144085714Y-134992438D02*
X144038095Y-135040057D01*
X144038095Y-135040057D02*
X143990476Y-135135295D01*
X143990476Y-135135295D02*
X143990476Y-135230533D01*
X143990476Y-135230533D02*
X144038095Y-135373390D01*
X144038095Y-135373390D02*
X144609523Y-135944819D01*
X144609523Y-135944819D02*
X143990476Y-135944819D01*
X143657142Y-134944819D02*
X142990476Y-134944819D01*
X142990476Y-134944819D02*
X143419047Y-135944819D01*
X196634285Y-141029819D02*
X196634285Y-140029819D01*
X196634285Y-140029819D02*
X196396190Y-140029819D01*
X196396190Y-140029819D02*
X196253333Y-140077438D01*
X196253333Y-140077438D02*
X196158095Y-140172676D01*
X196158095Y-140172676D02*
X196110476Y-140267914D01*
X196110476Y-140267914D02*
X196062857Y-140458390D01*
X196062857Y-140458390D02*
X196062857Y-140601247D01*
X196062857Y-140601247D02*
X196110476Y-140791723D01*
X196110476Y-140791723D02*
X196158095Y-140886961D01*
X196158095Y-140886961D02*
X196253333Y-140982200D01*
X196253333Y-140982200D02*
X196396190Y-141029819D01*
X196396190Y-141029819D02*
X196634285Y-141029819D01*
X195681904Y-140125057D02*
X195634285Y-140077438D01*
X195634285Y-140077438D02*
X195539047Y-140029819D01*
X195539047Y-140029819D02*
X195300952Y-140029819D01*
X195300952Y-140029819D02*
X195205714Y-140077438D01*
X195205714Y-140077438D02*
X195158095Y-140125057D01*
X195158095Y-140125057D02*
X195110476Y-140220295D01*
X195110476Y-140220295D02*
X195110476Y-140315533D01*
X195110476Y-140315533D02*
X195158095Y-140458390D01*
X195158095Y-140458390D02*
X195729523Y-141029819D01*
X195729523Y-141029819D02*
X195110476Y-141029819D01*
X194253333Y-140363152D02*
X194253333Y-141029819D01*
X194491428Y-139982200D02*
X194729523Y-140696485D01*
X194729523Y-140696485D02*
X194110476Y-140696485D01*
X119958094Y-83879819D02*
X119958094Y-82879819D01*
X119958094Y-82879819D02*
X119719999Y-82879819D01*
X119719999Y-82879819D02*
X119577142Y-82927438D01*
X119577142Y-82927438D02*
X119481904Y-83022676D01*
X119481904Y-83022676D02*
X119434285Y-83117914D01*
X119434285Y-83117914D02*
X119386666Y-83308390D01*
X119386666Y-83308390D02*
X119386666Y-83451247D01*
X119386666Y-83451247D02*
X119434285Y-83641723D01*
X119434285Y-83641723D02*
X119481904Y-83736961D01*
X119481904Y-83736961D02*
X119577142Y-83832200D01*
X119577142Y-83832200D02*
X119719999Y-83879819D01*
X119719999Y-83879819D02*
X119958094Y-83879819D01*
X118434285Y-83879819D02*
X119005713Y-83879819D01*
X118719999Y-83879819D02*
X118719999Y-82879819D01*
X118719999Y-82879819D02*
X118815237Y-83022676D01*
X118815237Y-83022676D02*
X118910475Y-83117914D01*
X118910475Y-83117914D02*
X119005713Y-83165533D01*
X215684285Y-121979819D02*
X215684285Y-120979819D01*
X215684285Y-120979819D02*
X215446190Y-120979819D01*
X215446190Y-120979819D02*
X215303333Y-121027438D01*
X215303333Y-121027438D02*
X215208095Y-121122676D01*
X215208095Y-121122676D02*
X215160476Y-121217914D01*
X215160476Y-121217914D02*
X215112857Y-121408390D01*
X215112857Y-121408390D02*
X215112857Y-121551247D01*
X215112857Y-121551247D02*
X215160476Y-121741723D01*
X215160476Y-121741723D02*
X215208095Y-121836961D01*
X215208095Y-121836961D02*
X215303333Y-121932200D01*
X215303333Y-121932200D02*
X215446190Y-121979819D01*
X215446190Y-121979819D02*
X215684285Y-121979819D01*
X214731904Y-121075057D02*
X214684285Y-121027438D01*
X214684285Y-121027438D02*
X214589047Y-120979819D01*
X214589047Y-120979819D02*
X214350952Y-120979819D01*
X214350952Y-120979819D02*
X214255714Y-121027438D01*
X214255714Y-121027438D02*
X214208095Y-121075057D01*
X214208095Y-121075057D02*
X214160476Y-121170295D01*
X214160476Y-121170295D02*
X214160476Y-121265533D01*
X214160476Y-121265533D02*
X214208095Y-121408390D01*
X214208095Y-121408390D02*
X214779523Y-121979819D01*
X214779523Y-121979819D02*
X214160476Y-121979819D01*
X213255714Y-120979819D02*
X213731904Y-120979819D01*
X213731904Y-120979819D02*
X213779523Y-121456009D01*
X213779523Y-121456009D02*
X213731904Y-121408390D01*
X213731904Y-121408390D02*
X213636666Y-121360771D01*
X213636666Y-121360771D02*
X213398571Y-121360771D01*
X213398571Y-121360771D02*
X213303333Y-121408390D01*
X213303333Y-121408390D02*
X213255714Y-121456009D01*
X213255714Y-121456009D02*
X213208095Y-121551247D01*
X213208095Y-121551247D02*
X213208095Y-121789342D01*
X213208095Y-121789342D02*
X213255714Y-121884580D01*
X213255714Y-121884580D02*
X213303333Y-121932200D01*
X213303333Y-121932200D02*
X213398571Y-121979819D01*
X213398571Y-121979819D02*
X213636666Y-121979819D01*
X213636666Y-121979819D02*
X213731904Y-121932200D01*
X213731904Y-121932200D02*
X213779523Y-121884580D01*
X164452857Y-117099580D02*
X164500476Y-117147200D01*
X164500476Y-117147200D02*
X164643333Y-117194819D01*
X164643333Y-117194819D02*
X164738571Y-117194819D01*
X164738571Y-117194819D02*
X164881428Y-117147200D01*
X164881428Y-117147200D02*
X164976666Y-117051961D01*
X164976666Y-117051961D02*
X165024285Y-116956723D01*
X165024285Y-116956723D02*
X165071904Y-116766247D01*
X165071904Y-116766247D02*
X165071904Y-116623390D01*
X165071904Y-116623390D02*
X165024285Y-116432914D01*
X165024285Y-116432914D02*
X164976666Y-116337676D01*
X164976666Y-116337676D02*
X164881428Y-116242438D01*
X164881428Y-116242438D02*
X164738571Y-116194819D01*
X164738571Y-116194819D02*
X164643333Y-116194819D01*
X164643333Y-116194819D02*
X164500476Y-116242438D01*
X164500476Y-116242438D02*
X164452857Y-116290057D01*
X163500476Y-117194819D02*
X164071904Y-117194819D01*
X163786190Y-117194819D02*
X163786190Y-116194819D01*
X163786190Y-116194819D02*
X163881428Y-116337676D01*
X163881428Y-116337676D02*
X163976666Y-116432914D01*
X163976666Y-116432914D02*
X164071904Y-116480533D01*
X163167142Y-116194819D02*
X162500476Y-116194819D01*
X162500476Y-116194819D02*
X162929047Y-117194819D01*
X177584285Y-141029819D02*
X177584285Y-140029819D01*
X177584285Y-140029819D02*
X177346190Y-140029819D01*
X177346190Y-140029819D02*
X177203333Y-140077438D01*
X177203333Y-140077438D02*
X177108095Y-140172676D01*
X177108095Y-140172676D02*
X177060476Y-140267914D01*
X177060476Y-140267914D02*
X177012857Y-140458390D01*
X177012857Y-140458390D02*
X177012857Y-140601247D01*
X177012857Y-140601247D02*
X177060476Y-140791723D01*
X177060476Y-140791723D02*
X177108095Y-140886961D01*
X177108095Y-140886961D02*
X177203333Y-140982200D01*
X177203333Y-140982200D02*
X177346190Y-141029819D01*
X177346190Y-141029819D02*
X177584285Y-141029819D01*
X176631904Y-140125057D02*
X176584285Y-140077438D01*
X176584285Y-140077438D02*
X176489047Y-140029819D01*
X176489047Y-140029819D02*
X176250952Y-140029819D01*
X176250952Y-140029819D02*
X176155714Y-140077438D01*
X176155714Y-140077438D02*
X176108095Y-140125057D01*
X176108095Y-140125057D02*
X176060476Y-140220295D01*
X176060476Y-140220295D02*
X176060476Y-140315533D01*
X176060476Y-140315533D02*
X176108095Y-140458390D01*
X176108095Y-140458390D02*
X176679523Y-141029819D01*
X176679523Y-141029819D02*
X176060476Y-141029819D01*
X175679523Y-140125057D02*
X175631904Y-140077438D01*
X175631904Y-140077438D02*
X175536666Y-140029819D01*
X175536666Y-140029819D02*
X175298571Y-140029819D01*
X175298571Y-140029819D02*
X175203333Y-140077438D01*
X175203333Y-140077438D02*
X175155714Y-140125057D01*
X175155714Y-140125057D02*
X175108095Y-140220295D01*
X175108095Y-140220295D02*
X175108095Y-140315533D01*
X175108095Y-140315533D02*
X175155714Y-140458390D01*
X175155714Y-140458390D02*
X175727142Y-141029819D01*
X175727142Y-141029819D02*
X175108095Y-141029819D01*
X144862857Y-97939580D02*
X144910476Y-97987200D01*
X144910476Y-97987200D02*
X145053333Y-98034819D01*
X145053333Y-98034819D02*
X145148571Y-98034819D01*
X145148571Y-98034819D02*
X145291428Y-97987200D01*
X145291428Y-97987200D02*
X145386666Y-97891961D01*
X145386666Y-97891961D02*
X145434285Y-97796723D01*
X145434285Y-97796723D02*
X145481904Y-97606247D01*
X145481904Y-97606247D02*
X145481904Y-97463390D01*
X145481904Y-97463390D02*
X145434285Y-97272914D01*
X145434285Y-97272914D02*
X145386666Y-97177676D01*
X145386666Y-97177676D02*
X145291428Y-97082438D01*
X145291428Y-97082438D02*
X145148571Y-97034819D01*
X145148571Y-97034819D02*
X145053333Y-97034819D01*
X145053333Y-97034819D02*
X144910476Y-97082438D01*
X144910476Y-97082438D02*
X144862857Y-97130057D01*
X143910476Y-98034819D02*
X144481904Y-98034819D01*
X144196190Y-98034819D02*
X144196190Y-97034819D01*
X144196190Y-97034819D02*
X144291428Y-97177676D01*
X144291428Y-97177676D02*
X144386666Y-97272914D01*
X144386666Y-97272914D02*
X144481904Y-97320533D01*
X143577142Y-97034819D02*
X142958095Y-97034819D01*
X142958095Y-97034819D02*
X143291428Y-97415771D01*
X143291428Y-97415771D02*
X143148571Y-97415771D01*
X143148571Y-97415771D02*
X143053333Y-97463390D01*
X143053333Y-97463390D02*
X143005714Y-97511009D01*
X143005714Y-97511009D02*
X142958095Y-97606247D01*
X142958095Y-97606247D02*
X142958095Y-97844342D01*
X142958095Y-97844342D02*
X143005714Y-97939580D01*
X143005714Y-97939580D02*
X143053333Y-97987200D01*
X143053333Y-97987200D02*
X143148571Y-98034819D01*
X143148571Y-98034819D02*
X143434285Y-98034819D01*
X143434285Y-98034819D02*
X143529523Y-97987200D01*
X143529523Y-97987200D02*
X143577142Y-97939580D01*
X163326666Y-75589580D02*
X163374285Y-75637200D01*
X163374285Y-75637200D02*
X163517142Y-75684819D01*
X163517142Y-75684819D02*
X163612380Y-75684819D01*
X163612380Y-75684819D02*
X163755237Y-75637200D01*
X163755237Y-75637200D02*
X163850475Y-75541961D01*
X163850475Y-75541961D02*
X163898094Y-75446723D01*
X163898094Y-75446723D02*
X163945713Y-75256247D01*
X163945713Y-75256247D02*
X163945713Y-75113390D01*
X163945713Y-75113390D02*
X163898094Y-74922914D01*
X163898094Y-74922914D02*
X163850475Y-74827676D01*
X163850475Y-74827676D02*
X163755237Y-74732438D01*
X163755237Y-74732438D02*
X163612380Y-74684819D01*
X163612380Y-74684819D02*
X163517142Y-74684819D01*
X163517142Y-74684819D02*
X163374285Y-74732438D01*
X163374285Y-74732438D02*
X163326666Y-74780057D01*
X162993332Y-74684819D02*
X162374285Y-74684819D01*
X162374285Y-74684819D02*
X162707618Y-75065771D01*
X162707618Y-75065771D02*
X162564761Y-75065771D01*
X162564761Y-75065771D02*
X162469523Y-75113390D01*
X162469523Y-75113390D02*
X162421904Y-75161009D01*
X162421904Y-75161009D02*
X162374285Y-75256247D01*
X162374285Y-75256247D02*
X162374285Y-75494342D01*
X162374285Y-75494342D02*
X162421904Y-75589580D01*
X162421904Y-75589580D02*
X162469523Y-75637200D01*
X162469523Y-75637200D02*
X162564761Y-75684819D01*
X162564761Y-75684819D02*
X162850475Y-75684819D01*
X162850475Y-75684819D02*
X162945713Y-75637200D01*
X162945713Y-75637200D02*
X162993332Y-75589580D01*
X126162857Y-136039580D02*
X126210476Y-136087200D01*
X126210476Y-136087200D02*
X126353333Y-136134819D01*
X126353333Y-136134819D02*
X126448571Y-136134819D01*
X126448571Y-136134819D02*
X126591428Y-136087200D01*
X126591428Y-136087200D02*
X126686666Y-135991961D01*
X126686666Y-135991961D02*
X126734285Y-135896723D01*
X126734285Y-135896723D02*
X126781904Y-135706247D01*
X126781904Y-135706247D02*
X126781904Y-135563390D01*
X126781904Y-135563390D02*
X126734285Y-135372914D01*
X126734285Y-135372914D02*
X126686666Y-135277676D01*
X126686666Y-135277676D02*
X126591428Y-135182438D01*
X126591428Y-135182438D02*
X126448571Y-135134819D01*
X126448571Y-135134819D02*
X126353333Y-135134819D01*
X126353333Y-135134819D02*
X126210476Y-135182438D01*
X126210476Y-135182438D02*
X126162857Y-135230057D01*
X125781904Y-135230057D02*
X125734285Y-135182438D01*
X125734285Y-135182438D02*
X125639047Y-135134819D01*
X125639047Y-135134819D02*
X125400952Y-135134819D01*
X125400952Y-135134819D02*
X125305714Y-135182438D01*
X125305714Y-135182438D02*
X125258095Y-135230057D01*
X125258095Y-135230057D02*
X125210476Y-135325295D01*
X125210476Y-135325295D02*
X125210476Y-135420533D01*
X125210476Y-135420533D02*
X125258095Y-135563390D01*
X125258095Y-135563390D02*
X125829523Y-136134819D01*
X125829523Y-136134819D02*
X125210476Y-136134819D01*
X124639047Y-135563390D02*
X124734285Y-135515771D01*
X124734285Y-135515771D02*
X124781904Y-135468152D01*
X124781904Y-135468152D02*
X124829523Y-135372914D01*
X124829523Y-135372914D02*
X124829523Y-135325295D01*
X124829523Y-135325295D02*
X124781904Y-135230057D01*
X124781904Y-135230057D02*
X124734285Y-135182438D01*
X124734285Y-135182438D02*
X124639047Y-135134819D01*
X124639047Y-135134819D02*
X124448571Y-135134819D01*
X124448571Y-135134819D02*
X124353333Y-135182438D01*
X124353333Y-135182438D02*
X124305714Y-135230057D01*
X124305714Y-135230057D02*
X124258095Y-135325295D01*
X124258095Y-135325295D02*
X124258095Y-135372914D01*
X124258095Y-135372914D02*
X124305714Y-135468152D01*
X124305714Y-135468152D02*
X124353333Y-135515771D01*
X124353333Y-135515771D02*
X124448571Y-135563390D01*
X124448571Y-135563390D02*
X124639047Y-135563390D01*
X124639047Y-135563390D02*
X124734285Y-135611009D01*
X124734285Y-135611009D02*
X124781904Y-135658628D01*
X124781904Y-135658628D02*
X124829523Y-135753866D01*
X124829523Y-135753866D02*
X124829523Y-135944342D01*
X124829523Y-135944342D02*
X124781904Y-136039580D01*
X124781904Y-136039580D02*
X124734285Y-136087200D01*
X124734285Y-136087200D02*
X124639047Y-136134819D01*
X124639047Y-136134819D02*
X124448571Y-136134819D01*
X124448571Y-136134819D02*
X124353333Y-136087200D01*
X124353333Y-136087200D02*
X124305714Y-136039580D01*
X124305714Y-136039580D02*
X124258095Y-135944342D01*
X124258095Y-135944342D02*
X124258095Y-135753866D01*
X124258095Y-135753866D02*
X124305714Y-135658628D01*
X124305714Y-135658628D02*
X124353333Y-135611009D01*
X124353333Y-135611009D02*
X124448571Y-135563390D01*
X197124285Y-102774819D02*
X197124285Y-101774819D01*
X197124285Y-101774819D02*
X196886190Y-101774819D01*
X196886190Y-101774819D02*
X196743333Y-101822438D01*
X196743333Y-101822438D02*
X196648095Y-101917676D01*
X196648095Y-101917676D02*
X196600476Y-102012914D01*
X196600476Y-102012914D02*
X196552857Y-102203390D01*
X196552857Y-102203390D02*
X196552857Y-102346247D01*
X196552857Y-102346247D02*
X196600476Y-102536723D01*
X196600476Y-102536723D02*
X196648095Y-102631961D01*
X196648095Y-102631961D02*
X196743333Y-102727200D01*
X196743333Y-102727200D02*
X196886190Y-102774819D01*
X196886190Y-102774819D02*
X197124285Y-102774819D01*
X195600476Y-102774819D02*
X196171904Y-102774819D01*
X195886190Y-102774819D02*
X195886190Y-101774819D01*
X195886190Y-101774819D02*
X195981428Y-101917676D01*
X195981428Y-101917676D02*
X196076666Y-102012914D01*
X196076666Y-102012914D02*
X196171904Y-102060533D01*
X195219523Y-101870057D02*
X195171904Y-101822438D01*
X195171904Y-101822438D02*
X195076666Y-101774819D01*
X195076666Y-101774819D02*
X194838571Y-101774819D01*
X194838571Y-101774819D02*
X194743333Y-101822438D01*
X194743333Y-101822438D02*
X194695714Y-101870057D01*
X194695714Y-101870057D02*
X194648095Y-101965295D01*
X194648095Y-101965295D02*
X194648095Y-102060533D01*
X194648095Y-102060533D02*
X194695714Y-102203390D01*
X194695714Y-102203390D02*
X195267142Y-102774819D01*
X195267142Y-102774819D02*
X194648095Y-102774819D01*
X119958094Y-102929819D02*
X119958094Y-101929819D01*
X119958094Y-101929819D02*
X119719999Y-101929819D01*
X119719999Y-101929819D02*
X119577142Y-101977438D01*
X119577142Y-101977438D02*
X119481904Y-102072676D01*
X119481904Y-102072676D02*
X119434285Y-102167914D01*
X119434285Y-102167914D02*
X119386666Y-102358390D01*
X119386666Y-102358390D02*
X119386666Y-102501247D01*
X119386666Y-102501247D02*
X119434285Y-102691723D01*
X119434285Y-102691723D02*
X119481904Y-102786961D01*
X119481904Y-102786961D02*
X119577142Y-102882200D01*
X119577142Y-102882200D02*
X119719999Y-102929819D01*
X119719999Y-102929819D02*
X119958094Y-102929819D01*
X118815237Y-102358390D02*
X118910475Y-102310771D01*
X118910475Y-102310771D02*
X118958094Y-102263152D01*
X118958094Y-102263152D02*
X119005713Y-102167914D01*
X119005713Y-102167914D02*
X119005713Y-102120295D01*
X119005713Y-102120295D02*
X118958094Y-102025057D01*
X118958094Y-102025057D02*
X118910475Y-101977438D01*
X118910475Y-101977438D02*
X118815237Y-101929819D01*
X118815237Y-101929819D02*
X118624761Y-101929819D01*
X118624761Y-101929819D02*
X118529523Y-101977438D01*
X118529523Y-101977438D02*
X118481904Y-102025057D01*
X118481904Y-102025057D02*
X118434285Y-102120295D01*
X118434285Y-102120295D02*
X118434285Y-102167914D01*
X118434285Y-102167914D02*
X118481904Y-102263152D01*
X118481904Y-102263152D02*
X118529523Y-102310771D01*
X118529523Y-102310771D02*
X118624761Y-102358390D01*
X118624761Y-102358390D02*
X118815237Y-102358390D01*
X118815237Y-102358390D02*
X118910475Y-102406009D01*
X118910475Y-102406009D02*
X118958094Y-102453628D01*
X118958094Y-102453628D02*
X119005713Y-102548866D01*
X119005713Y-102548866D02*
X119005713Y-102739342D01*
X119005713Y-102739342D02*
X118958094Y-102834580D01*
X118958094Y-102834580D02*
X118910475Y-102882200D01*
X118910475Y-102882200D02*
X118815237Y-102929819D01*
X118815237Y-102929819D02*
X118624761Y-102929819D01*
X118624761Y-102929819D02*
X118529523Y-102882200D01*
X118529523Y-102882200D02*
X118481904Y-102834580D01*
X118481904Y-102834580D02*
X118434285Y-102739342D01*
X118434285Y-102739342D02*
X118434285Y-102548866D01*
X118434285Y-102548866D02*
X118481904Y-102453628D01*
X118481904Y-102453628D02*
X118529523Y-102406009D01*
X118529523Y-102406009D02*
X118624761Y-102358390D01*
X240096666Y-97989580D02*
X240144285Y-98037200D01*
X240144285Y-98037200D02*
X240287142Y-98084819D01*
X240287142Y-98084819D02*
X240382380Y-98084819D01*
X240382380Y-98084819D02*
X240525237Y-98037200D01*
X240525237Y-98037200D02*
X240620475Y-97941961D01*
X240620475Y-97941961D02*
X240668094Y-97846723D01*
X240668094Y-97846723D02*
X240715713Y-97656247D01*
X240715713Y-97656247D02*
X240715713Y-97513390D01*
X240715713Y-97513390D02*
X240668094Y-97322914D01*
X240668094Y-97322914D02*
X240620475Y-97227676D01*
X240620475Y-97227676D02*
X240525237Y-97132438D01*
X240525237Y-97132438D02*
X240382380Y-97084819D01*
X240382380Y-97084819D02*
X240287142Y-97084819D01*
X240287142Y-97084819D02*
X240144285Y-97132438D01*
X240144285Y-97132438D02*
X240096666Y-97180057D01*
X239525237Y-97513390D02*
X239620475Y-97465771D01*
X239620475Y-97465771D02*
X239668094Y-97418152D01*
X239668094Y-97418152D02*
X239715713Y-97322914D01*
X239715713Y-97322914D02*
X239715713Y-97275295D01*
X239715713Y-97275295D02*
X239668094Y-97180057D01*
X239668094Y-97180057D02*
X239620475Y-97132438D01*
X239620475Y-97132438D02*
X239525237Y-97084819D01*
X239525237Y-97084819D02*
X239334761Y-97084819D01*
X239334761Y-97084819D02*
X239239523Y-97132438D01*
X239239523Y-97132438D02*
X239191904Y-97180057D01*
X239191904Y-97180057D02*
X239144285Y-97275295D01*
X239144285Y-97275295D02*
X239144285Y-97322914D01*
X239144285Y-97322914D02*
X239191904Y-97418152D01*
X239191904Y-97418152D02*
X239239523Y-97465771D01*
X239239523Y-97465771D02*
X239334761Y-97513390D01*
X239334761Y-97513390D02*
X239525237Y-97513390D01*
X239525237Y-97513390D02*
X239620475Y-97561009D01*
X239620475Y-97561009D02*
X239668094Y-97608628D01*
X239668094Y-97608628D02*
X239715713Y-97703866D01*
X239715713Y-97703866D02*
X239715713Y-97894342D01*
X239715713Y-97894342D02*
X239668094Y-97989580D01*
X239668094Y-97989580D02*
X239620475Y-98037200D01*
X239620475Y-98037200D02*
X239525237Y-98084819D01*
X239525237Y-98084819D02*
X239334761Y-98084819D01*
X239334761Y-98084819D02*
X239239523Y-98037200D01*
X239239523Y-98037200D02*
X239191904Y-97989580D01*
X239191904Y-97989580D02*
X239144285Y-97894342D01*
X239144285Y-97894342D02*
X239144285Y-97703866D01*
X239144285Y-97703866D02*
X239191904Y-97608628D01*
X239191904Y-97608628D02*
X239239523Y-97561009D01*
X239239523Y-97561009D02*
X239334761Y-97513390D01*
X139484285Y-121979819D02*
X139484285Y-120979819D01*
X139484285Y-120979819D02*
X139246190Y-120979819D01*
X139246190Y-120979819D02*
X139103333Y-121027438D01*
X139103333Y-121027438D02*
X139008095Y-121122676D01*
X139008095Y-121122676D02*
X138960476Y-121217914D01*
X138960476Y-121217914D02*
X138912857Y-121408390D01*
X138912857Y-121408390D02*
X138912857Y-121551247D01*
X138912857Y-121551247D02*
X138960476Y-121741723D01*
X138960476Y-121741723D02*
X139008095Y-121836961D01*
X139008095Y-121836961D02*
X139103333Y-121932200D01*
X139103333Y-121932200D02*
X139246190Y-121979819D01*
X139246190Y-121979819D02*
X139484285Y-121979819D01*
X137960476Y-121979819D02*
X138531904Y-121979819D01*
X138246190Y-121979819D02*
X138246190Y-120979819D01*
X138246190Y-120979819D02*
X138341428Y-121122676D01*
X138341428Y-121122676D02*
X138436666Y-121217914D01*
X138436666Y-121217914D02*
X138531904Y-121265533D01*
X137389047Y-121408390D02*
X137484285Y-121360771D01*
X137484285Y-121360771D02*
X137531904Y-121313152D01*
X137531904Y-121313152D02*
X137579523Y-121217914D01*
X137579523Y-121217914D02*
X137579523Y-121170295D01*
X137579523Y-121170295D02*
X137531904Y-121075057D01*
X137531904Y-121075057D02*
X137484285Y-121027438D01*
X137484285Y-121027438D02*
X137389047Y-120979819D01*
X137389047Y-120979819D02*
X137198571Y-120979819D01*
X137198571Y-120979819D02*
X137103333Y-121027438D01*
X137103333Y-121027438D02*
X137055714Y-121075057D01*
X137055714Y-121075057D02*
X137008095Y-121170295D01*
X137008095Y-121170295D02*
X137008095Y-121217914D01*
X137008095Y-121217914D02*
X137055714Y-121313152D01*
X137055714Y-121313152D02*
X137103333Y-121360771D01*
X137103333Y-121360771D02*
X137198571Y-121408390D01*
X137198571Y-121408390D02*
X137389047Y-121408390D01*
X137389047Y-121408390D02*
X137484285Y-121456009D01*
X137484285Y-121456009D02*
X137531904Y-121503628D01*
X137531904Y-121503628D02*
X137579523Y-121598866D01*
X137579523Y-121598866D02*
X137579523Y-121789342D01*
X137579523Y-121789342D02*
X137531904Y-121884580D01*
X137531904Y-121884580D02*
X137484285Y-121932200D01*
X137484285Y-121932200D02*
X137389047Y-121979819D01*
X137389047Y-121979819D02*
X137198571Y-121979819D01*
X137198571Y-121979819D02*
X137103333Y-121932200D01*
X137103333Y-121932200D02*
X137055714Y-121884580D01*
X137055714Y-121884580D02*
X137008095Y-121789342D01*
X137008095Y-121789342D02*
X137008095Y-121598866D01*
X137008095Y-121598866D02*
X137055714Y-121503628D01*
X137055714Y-121503628D02*
X137103333Y-121456009D01*
X137103333Y-121456009D02*
X137198571Y-121408390D01*
X202432857Y-136129580D02*
X202480476Y-136177200D01*
X202480476Y-136177200D02*
X202623333Y-136224819D01*
X202623333Y-136224819D02*
X202718571Y-136224819D01*
X202718571Y-136224819D02*
X202861428Y-136177200D01*
X202861428Y-136177200D02*
X202956666Y-136081961D01*
X202956666Y-136081961D02*
X203004285Y-135986723D01*
X203004285Y-135986723D02*
X203051904Y-135796247D01*
X203051904Y-135796247D02*
X203051904Y-135653390D01*
X203051904Y-135653390D02*
X203004285Y-135462914D01*
X203004285Y-135462914D02*
X202956666Y-135367676D01*
X202956666Y-135367676D02*
X202861428Y-135272438D01*
X202861428Y-135272438D02*
X202718571Y-135224819D01*
X202718571Y-135224819D02*
X202623333Y-135224819D01*
X202623333Y-135224819D02*
X202480476Y-135272438D01*
X202480476Y-135272438D02*
X202432857Y-135320057D01*
X202051904Y-135320057D02*
X202004285Y-135272438D01*
X202004285Y-135272438D02*
X201909047Y-135224819D01*
X201909047Y-135224819D02*
X201670952Y-135224819D01*
X201670952Y-135224819D02*
X201575714Y-135272438D01*
X201575714Y-135272438D02*
X201528095Y-135320057D01*
X201528095Y-135320057D02*
X201480476Y-135415295D01*
X201480476Y-135415295D02*
X201480476Y-135510533D01*
X201480476Y-135510533D02*
X201528095Y-135653390D01*
X201528095Y-135653390D02*
X202099523Y-136224819D01*
X202099523Y-136224819D02*
X201480476Y-136224819D01*
X200623333Y-135558152D02*
X200623333Y-136224819D01*
X200861428Y-135177200D02*
X201099523Y-135891485D01*
X201099523Y-135891485D02*
X200480476Y-135891485D01*
X196158094Y-83879819D02*
X196158094Y-82879819D01*
X196158094Y-82879819D02*
X195919999Y-82879819D01*
X195919999Y-82879819D02*
X195777142Y-82927438D01*
X195777142Y-82927438D02*
X195681904Y-83022676D01*
X195681904Y-83022676D02*
X195634285Y-83117914D01*
X195634285Y-83117914D02*
X195586666Y-83308390D01*
X195586666Y-83308390D02*
X195586666Y-83451247D01*
X195586666Y-83451247D02*
X195634285Y-83641723D01*
X195634285Y-83641723D02*
X195681904Y-83736961D01*
X195681904Y-83736961D02*
X195777142Y-83832200D01*
X195777142Y-83832200D02*
X195919999Y-83879819D01*
X195919999Y-83879819D02*
X196158094Y-83879819D01*
X194681904Y-82879819D02*
X195158094Y-82879819D01*
X195158094Y-82879819D02*
X195205713Y-83356009D01*
X195205713Y-83356009D02*
X195158094Y-83308390D01*
X195158094Y-83308390D02*
X195062856Y-83260771D01*
X195062856Y-83260771D02*
X194824761Y-83260771D01*
X194824761Y-83260771D02*
X194729523Y-83308390D01*
X194729523Y-83308390D02*
X194681904Y-83356009D01*
X194681904Y-83356009D02*
X194634285Y-83451247D01*
X194634285Y-83451247D02*
X194634285Y-83689342D01*
X194634285Y-83689342D02*
X194681904Y-83784580D01*
X194681904Y-83784580D02*
X194729523Y-83832200D01*
X194729523Y-83832200D02*
X194824761Y-83879819D01*
X194824761Y-83879819D02*
X195062856Y-83879819D01*
X195062856Y-83879819D02*
X195158094Y-83832200D01*
X195158094Y-83832200D02*
X195205713Y-83784580D01*
X183312857Y-97979580D02*
X183360476Y-98027200D01*
X183360476Y-98027200D02*
X183503333Y-98074819D01*
X183503333Y-98074819D02*
X183598571Y-98074819D01*
X183598571Y-98074819D02*
X183741428Y-98027200D01*
X183741428Y-98027200D02*
X183836666Y-97931961D01*
X183836666Y-97931961D02*
X183884285Y-97836723D01*
X183884285Y-97836723D02*
X183931904Y-97646247D01*
X183931904Y-97646247D02*
X183931904Y-97503390D01*
X183931904Y-97503390D02*
X183884285Y-97312914D01*
X183884285Y-97312914D02*
X183836666Y-97217676D01*
X183836666Y-97217676D02*
X183741428Y-97122438D01*
X183741428Y-97122438D02*
X183598571Y-97074819D01*
X183598571Y-97074819D02*
X183503333Y-97074819D01*
X183503333Y-97074819D02*
X183360476Y-97122438D01*
X183360476Y-97122438D02*
X183312857Y-97170057D01*
X182360476Y-98074819D02*
X182931904Y-98074819D01*
X182646190Y-98074819D02*
X182646190Y-97074819D01*
X182646190Y-97074819D02*
X182741428Y-97217676D01*
X182741428Y-97217676D02*
X182836666Y-97312914D01*
X182836666Y-97312914D02*
X182931904Y-97360533D01*
X181408095Y-98074819D02*
X181979523Y-98074819D01*
X181693809Y-98074819D02*
X181693809Y-97074819D01*
X181693809Y-97074819D02*
X181789047Y-97217676D01*
X181789047Y-97217676D02*
X181884285Y-97312914D01*
X181884285Y-97312914D02*
X181979523Y-97360533D01*
X125236666Y-75579580D02*
X125284285Y-75627200D01*
X125284285Y-75627200D02*
X125427142Y-75674819D01*
X125427142Y-75674819D02*
X125522380Y-75674819D01*
X125522380Y-75674819D02*
X125665237Y-75627200D01*
X125665237Y-75627200D02*
X125760475Y-75531961D01*
X125760475Y-75531961D02*
X125808094Y-75436723D01*
X125808094Y-75436723D02*
X125855713Y-75246247D01*
X125855713Y-75246247D02*
X125855713Y-75103390D01*
X125855713Y-75103390D02*
X125808094Y-74912914D01*
X125808094Y-74912914D02*
X125760475Y-74817676D01*
X125760475Y-74817676D02*
X125665237Y-74722438D01*
X125665237Y-74722438D02*
X125522380Y-74674819D01*
X125522380Y-74674819D02*
X125427142Y-74674819D01*
X125427142Y-74674819D02*
X125284285Y-74722438D01*
X125284285Y-74722438D02*
X125236666Y-74770057D01*
X124284285Y-75674819D02*
X124855713Y-75674819D01*
X124569999Y-75674819D02*
X124569999Y-74674819D01*
X124569999Y-74674819D02*
X124665237Y-74817676D01*
X124665237Y-74817676D02*
X124760475Y-74912914D01*
X124760475Y-74912914D02*
X124855713Y-74960533D01*
X234258094Y-83879819D02*
X234258094Y-82879819D01*
X234258094Y-82879819D02*
X234019999Y-82879819D01*
X234019999Y-82879819D02*
X233877142Y-82927438D01*
X233877142Y-82927438D02*
X233781904Y-83022676D01*
X233781904Y-83022676D02*
X233734285Y-83117914D01*
X233734285Y-83117914D02*
X233686666Y-83308390D01*
X233686666Y-83308390D02*
X233686666Y-83451247D01*
X233686666Y-83451247D02*
X233734285Y-83641723D01*
X233734285Y-83641723D02*
X233781904Y-83736961D01*
X233781904Y-83736961D02*
X233877142Y-83832200D01*
X233877142Y-83832200D02*
X234019999Y-83879819D01*
X234019999Y-83879819D02*
X234258094Y-83879819D01*
X233353332Y-82879819D02*
X232686666Y-82879819D01*
X232686666Y-82879819D02*
X233115237Y-83879819D01*
X145552857Y-116939580D02*
X145600476Y-116987200D01*
X145600476Y-116987200D02*
X145743333Y-117034819D01*
X145743333Y-117034819D02*
X145838571Y-117034819D01*
X145838571Y-117034819D02*
X145981428Y-116987200D01*
X145981428Y-116987200D02*
X146076666Y-116891961D01*
X146076666Y-116891961D02*
X146124285Y-116796723D01*
X146124285Y-116796723D02*
X146171904Y-116606247D01*
X146171904Y-116606247D02*
X146171904Y-116463390D01*
X146171904Y-116463390D02*
X146124285Y-116272914D01*
X146124285Y-116272914D02*
X146076666Y-116177676D01*
X146076666Y-116177676D02*
X145981428Y-116082438D01*
X145981428Y-116082438D02*
X145838571Y-116034819D01*
X145838571Y-116034819D02*
X145743333Y-116034819D01*
X145743333Y-116034819D02*
X145600476Y-116082438D01*
X145600476Y-116082438D02*
X145552857Y-116130057D01*
X144600476Y-117034819D02*
X145171904Y-117034819D01*
X144886190Y-117034819D02*
X144886190Y-116034819D01*
X144886190Y-116034819D02*
X144981428Y-116177676D01*
X144981428Y-116177676D02*
X145076666Y-116272914D01*
X145076666Y-116272914D02*
X145171904Y-116320533D01*
X143743333Y-116034819D02*
X143933809Y-116034819D01*
X143933809Y-116034819D02*
X144029047Y-116082438D01*
X144029047Y-116082438D02*
X144076666Y-116130057D01*
X144076666Y-116130057D02*
X144171904Y-116272914D01*
X144171904Y-116272914D02*
X144219523Y-116463390D01*
X144219523Y-116463390D02*
X144219523Y-116844342D01*
X144219523Y-116844342D02*
X144171904Y-116939580D01*
X144171904Y-116939580D02*
X144124285Y-116987200D01*
X144124285Y-116987200D02*
X144029047Y-117034819D01*
X144029047Y-117034819D02*
X143838571Y-117034819D01*
X143838571Y-117034819D02*
X143743333Y-116987200D01*
X143743333Y-116987200D02*
X143695714Y-116939580D01*
X143695714Y-116939580D02*
X143648095Y-116844342D01*
X143648095Y-116844342D02*
X143648095Y-116606247D01*
X143648095Y-116606247D02*
X143695714Y-116511009D01*
X143695714Y-116511009D02*
X143743333Y-116463390D01*
X143743333Y-116463390D02*
X143838571Y-116415771D01*
X143838571Y-116415771D02*
X144029047Y-116415771D01*
X144029047Y-116415771D02*
X144124285Y-116463390D01*
X144124285Y-116463390D02*
X144171904Y-116511009D01*
X144171904Y-116511009D02*
X144219523Y-116606247D01*
X145056666Y-75509580D02*
X145104285Y-75557200D01*
X145104285Y-75557200D02*
X145247142Y-75604819D01*
X145247142Y-75604819D02*
X145342380Y-75604819D01*
X145342380Y-75604819D02*
X145485237Y-75557200D01*
X145485237Y-75557200D02*
X145580475Y-75461961D01*
X145580475Y-75461961D02*
X145628094Y-75366723D01*
X145628094Y-75366723D02*
X145675713Y-75176247D01*
X145675713Y-75176247D02*
X145675713Y-75033390D01*
X145675713Y-75033390D02*
X145628094Y-74842914D01*
X145628094Y-74842914D02*
X145580475Y-74747676D01*
X145580475Y-74747676D02*
X145485237Y-74652438D01*
X145485237Y-74652438D02*
X145342380Y-74604819D01*
X145342380Y-74604819D02*
X145247142Y-74604819D01*
X145247142Y-74604819D02*
X145104285Y-74652438D01*
X145104285Y-74652438D02*
X145056666Y-74700057D01*
X144675713Y-74700057D02*
X144628094Y-74652438D01*
X144628094Y-74652438D02*
X144532856Y-74604819D01*
X144532856Y-74604819D02*
X144294761Y-74604819D01*
X144294761Y-74604819D02*
X144199523Y-74652438D01*
X144199523Y-74652438D02*
X144151904Y-74700057D01*
X144151904Y-74700057D02*
X144104285Y-74795295D01*
X144104285Y-74795295D02*
X144104285Y-74890533D01*
X144104285Y-74890533D02*
X144151904Y-75033390D01*
X144151904Y-75033390D02*
X144723332Y-75604819D01*
X144723332Y-75604819D02*
X144104285Y-75604819D01*
X158058094Y-83879819D02*
X158058094Y-82879819D01*
X158058094Y-82879819D02*
X157819999Y-82879819D01*
X157819999Y-82879819D02*
X157677142Y-82927438D01*
X157677142Y-82927438D02*
X157581904Y-83022676D01*
X157581904Y-83022676D02*
X157534285Y-83117914D01*
X157534285Y-83117914D02*
X157486666Y-83308390D01*
X157486666Y-83308390D02*
X157486666Y-83451247D01*
X157486666Y-83451247D02*
X157534285Y-83641723D01*
X157534285Y-83641723D02*
X157581904Y-83736961D01*
X157581904Y-83736961D02*
X157677142Y-83832200D01*
X157677142Y-83832200D02*
X157819999Y-83879819D01*
X157819999Y-83879819D02*
X158058094Y-83879819D01*
X157153332Y-82879819D02*
X156534285Y-82879819D01*
X156534285Y-82879819D02*
X156867618Y-83260771D01*
X156867618Y-83260771D02*
X156724761Y-83260771D01*
X156724761Y-83260771D02*
X156629523Y-83308390D01*
X156629523Y-83308390D02*
X156581904Y-83356009D01*
X156581904Y-83356009D02*
X156534285Y-83451247D01*
X156534285Y-83451247D02*
X156534285Y-83689342D01*
X156534285Y-83689342D02*
X156581904Y-83784580D01*
X156581904Y-83784580D02*
X156629523Y-83832200D01*
X156629523Y-83832200D02*
X156724761Y-83879819D01*
X156724761Y-83879819D02*
X157010475Y-83879819D01*
X157010475Y-83879819D02*
X157105713Y-83832200D01*
X157105713Y-83832200D02*
X157153332Y-83784580D01*
X139484285Y-141029819D02*
X139484285Y-140029819D01*
X139484285Y-140029819D02*
X139246190Y-140029819D01*
X139246190Y-140029819D02*
X139103333Y-140077438D01*
X139103333Y-140077438D02*
X139008095Y-140172676D01*
X139008095Y-140172676D02*
X138960476Y-140267914D01*
X138960476Y-140267914D02*
X138912857Y-140458390D01*
X138912857Y-140458390D02*
X138912857Y-140601247D01*
X138912857Y-140601247D02*
X138960476Y-140791723D01*
X138960476Y-140791723D02*
X139008095Y-140886961D01*
X139008095Y-140886961D02*
X139103333Y-140982200D01*
X139103333Y-140982200D02*
X139246190Y-141029819D01*
X139246190Y-141029819D02*
X139484285Y-141029819D01*
X137960476Y-141029819D02*
X138531904Y-141029819D01*
X138246190Y-141029819D02*
X138246190Y-140029819D01*
X138246190Y-140029819D02*
X138341428Y-140172676D01*
X138341428Y-140172676D02*
X138436666Y-140267914D01*
X138436666Y-140267914D02*
X138531904Y-140315533D01*
X137627142Y-140029819D02*
X136960476Y-140029819D01*
X136960476Y-140029819D02*
X137389047Y-141029819D01*
X214034285Y-141029819D02*
X214034285Y-140029819D01*
X214034285Y-140029819D02*
X213796190Y-140029819D01*
X213796190Y-140029819D02*
X213653333Y-140077438D01*
X213653333Y-140077438D02*
X213558095Y-140172676D01*
X213558095Y-140172676D02*
X213510476Y-140267914D01*
X213510476Y-140267914D02*
X213462857Y-140458390D01*
X213462857Y-140458390D02*
X213462857Y-140601247D01*
X213462857Y-140601247D02*
X213510476Y-140791723D01*
X213510476Y-140791723D02*
X213558095Y-140886961D01*
X213558095Y-140886961D02*
X213653333Y-140982200D01*
X213653333Y-140982200D02*
X213796190Y-141029819D01*
X213796190Y-141029819D02*
X214034285Y-141029819D01*
X213081904Y-140125057D02*
X213034285Y-140077438D01*
X213034285Y-140077438D02*
X212939047Y-140029819D01*
X212939047Y-140029819D02*
X212700952Y-140029819D01*
X212700952Y-140029819D02*
X212605714Y-140077438D01*
X212605714Y-140077438D02*
X212558095Y-140125057D01*
X212558095Y-140125057D02*
X212510476Y-140220295D01*
X212510476Y-140220295D02*
X212510476Y-140315533D01*
X212510476Y-140315533D02*
X212558095Y-140458390D01*
X212558095Y-140458390D02*
X213129523Y-141029819D01*
X213129523Y-141029819D02*
X212510476Y-141029819D01*
X211653333Y-140029819D02*
X211843809Y-140029819D01*
X211843809Y-140029819D02*
X211939047Y-140077438D01*
X211939047Y-140077438D02*
X211986666Y-140125057D01*
X211986666Y-140125057D02*
X212081904Y-140267914D01*
X212081904Y-140267914D02*
X212129523Y-140458390D01*
X212129523Y-140458390D02*
X212129523Y-140839342D01*
X212129523Y-140839342D02*
X212081904Y-140934580D01*
X212081904Y-140934580D02*
X212034285Y-140982200D01*
X212034285Y-140982200D02*
X211939047Y-141029819D01*
X211939047Y-141029819D02*
X211748571Y-141029819D01*
X211748571Y-141029819D02*
X211653333Y-140982200D01*
X211653333Y-140982200D02*
X211605714Y-140934580D01*
X211605714Y-140934580D02*
X211558095Y-140839342D01*
X211558095Y-140839342D02*
X211558095Y-140601247D01*
X211558095Y-140601247D02*
X211605714Y-140506009D01*
X211605714Y-140506009D02*
X211653333Y-140458390D01*
X211653333Y-140458390D02*
X211748571Y-140410771D01*
X211748571Y-140410771D02*
X211939047Y-140410771D01*
X211939047Y-140410771D02*
X212034285Y-140458390D01*
X212034285Y-140458390D02*
X212081904Y-140506009D01*
X212081904Y-140506009D02*
X212129523Y-140601247D01*
X122969580Y-115437142D02*
X123017200Y-115389523D01*
X123017200Y-115389523D02*
X123064819Y-115246666D01*
X123064819Y-115246666D02*
X123064819Y-115151428D01*
X123064819Y-115151428D02*
X123017200Y-115008571D01*
X123017200Y-115008571D02*
X122921961Y-114913333D01*
X122921961Y-114913333D02*
X122826723Y-114865714D01*
X122826723Y-114865714D02*
X122636247Y-114818095D01*
X122636247Y-114818095D02*
X122493390Y-114818095D01*
X122493390Y-114818095D02*
X122302914Y-114865714D01*
X122302914Y-114865714D02*
X122207676Y-114913333D01*
X122207676Y-114913333D02*
X122112438Y-115008571D01*
X122112438Y-115008571D02*
X122064819Y-115151428D01*
X122064819Y-115151428D02*
X122064819Y-115246666D01*
X122064819Y-115246666D02*
X122112438Y-115389523D01*
X122112438Y-115389523D02*
X122160057Y-115437142D01*
X123064819Y-116389523D02*
X123064819Y-115818095D01*
X123064819Y-116103809D02*
X122064819Y-116103809D01*
X122064819Y-116103809D02*
X122207676Y-116008571D01*
X122207676Y-116008571D02*
X122302914Y-115913333D01*
X122302914Y-115913333D02*
X122350533Y-115818095D01*
X122064819Y-117294285D02*
X122064819Y-116818095D01*
X122064819Y-116818095D02*
X122541009Y-116770476D01*
X122541009Y-116770476D02*
X122493390Y-116818095D01*
X122493390Y-116818095D02*
X122445771Y-116913333D01*
X122445771Y-116913333D02*
X122445771Y-117151428D01*
X122445771Y-117151428D02*
X122493390Y-117246666D01*
X122493390Y-117246666D02*
X122541009Y-117294285D01*
X122541009Y-117294285D02*
X122636247Y-117341904D01*
X122636247Y-117341904D02*
X122874342Y-117341904D01*
X122874342Y-117341904D02*
X122969580Y-117294285D01*
X122969580Y-117294285D02*
X123017200Y-117246666D01*
X123017200Y-117246666D02*
X123064819Y-117151428D01*
X123064819Y-117151428D02*
X123064819Y-116913333D01*
X123064819Y-116913333D02*
X123017200Y-116818095D01*
X123017200Y-116818095D02*
X122969580Y-116770476D01*
X182406666Y-79019580D02*
X182454285Y-79067200D01*
X182454285Y-79067200D02*
X182597142Y-79114819D01*
X182597142Y-79114819D02*
X182692380Y-79114819D01*
X182692380Y-79114819D02*
X182835237Y-79067200D01*
X182835237Y-79067200D02*
X182930475Y-78971961D01*
X182930475Y-78971961D02*
X182978094Y-78876723D01*
X182978094Y-78876723D02*
X183025713Y-78686247D01*
X183025713Y-78686247D02*
X183025713Y-78543390D01*
X183025713Y-78543390D02*
X182978094Y-78352914D01*
X182978094Y-78352914D02*
X182930475Y-78257676D01*
X182930475Y-78257676D02*
X182835237Y-78162438D01*
X182835237Y-78162438D02*
X182692380Y-78114819D01*
X182692380Y-78114819D02*
X182597142Y-78114819D01*
X182597142Y-78114819D02*
X182454285Y-78162438D01*
X182454285Y-78162438D02*
X182406666Y-78210057D01*
X181549523Y-78448152D02*
X181549523Y-79114819D01*
X181787618Y-78067200D02*
X182025713Y-78781485D01*
X182025713Y-78781485D02*
X181406666Y-78781485D01*
X139484285Y-102929819D02*
X139484285Y-101929819D01*
X139484285Y-101929819D02*
X139246190Y-101929819D01*
X139246190Y-101929819D02*
X139103333Y-101977438D01*
X139103333Y-101977438D02*
X139008095Y-102072676D01*
X139008095Y-102072676D02*
X138960476Y-102167914D01*
X138960476Y-102167914D02*
X138912857Y-102358390D01*
X138912857Y-102358390D02*
X138912857Y-102501247D01*
X138912857Y-102501247D02*
X138960476Y-102691723D01*
X138960476Y-102691723D02*
X139008095Y-102786961D01*
X139008095Y-102786961D02*
X139103333Y-102882200D01*
X139103333Y-102882200D02*
X139246190Y-102929819D01*
X139246190Y-102929819D02*
X139484285Y-102929819D01*
X137960476Y-102929819D02*
X138531904Y-102929819D01*
X138246190Y-102929819D02*
X138246190Y-101929819D01*
X138246190Y-101929819D02*
X138341428Y-102072676D01*
X138341428Y-102072676D02*
X138436666Y-102167914D01*
X138436666Y-102167914D02*
X138531904Y-102215533D01*
X137341428Y-101929819D02*
X137246190Y-101929819D01*
X137246190Y-101929819D02*
X137150952Y-101977438D01*
X137150952Y-101977438D02*
X137103333Y-102025057D01*
X137103333Y-102025057D02*
X137055714Y-102120295D01*
X137055714Y-102120295D02*
X137008095Y-102310771D01*
X137008095Y-102310771D02*
X137008095Y-102548866D01*
X137008095Y-102548866D02*
X137055714Y-102739342D01*
X137055714Y-102739342D02*
X137103333Y-102834580D01*
X137103333Y-102834580D02*
X137150952Y-102882200D01*
X137150952Y-102882200D02*
X137246190Y-102929819D01*
X137246190Y-102929819D02*
X137341428Y-102929819D01*
X137341428Y-102929819D02*
X137436666Y-102882200D01*
X137436666Y-102882200D02*
X137484285Y-102834580D01*
X137484285Y-102834580D02*
X137531904Y-102739342D01*
X137531904Y-102739342D02*
X137579523Y-102548866D01*
X137579523Y-102548866D02*
X137579523Y-102310771D01*
X137579523Y-102310771D02*
X137531904Y-102120295D01*
X137531904Y-102120295D02*
X137484285Y-102025057D01*
X137484285Y-102025057D02*
X137436666Y-101977438D01*
X137436666Y-101977438D02*
X137341428Y-101929819D01*
X99759580Y-79907142D02*
X99807200Y-79859523D01*
X99807200Y-79859523D02*
X99854819Y-79716666D01*
X99854819Y-79716666D02*
X99854819Y-79621428D01*
X99854819Y-79621428D02*
X99807200Y-79478571D01*
X99807200Y-79478571D02*
X99711961Y-79383333D01*
X99711961Y-79383333D02*
X99616723Y-79335714D01*
X99616723Y-79335714D02*
X99426247Y-79288095D01*
X99426247Y-79288095D02*
X99283390Y-79288095D01*
X99283390Y-79288095D02*
X99092914Y-79335714D01*
X99092914Y-79335714D02*
X98997676Y-79383333D01*
X98997676Y-79383333D02*
X98902438Y-79478571D01*
X98902438Y-79478571D02*
X98854819Y-79621428D01*
X98854819Y-79621428D02*
X98854819Y-79716666D01*
X98854819Y-79716666D02*
X98902438Y-79859523D01*
X98902438Y-79859523D02*
X98950057Y-79907142D01*
X98950057Y-80288095D02*
X98902438Y-80335714D01*
X98902438Y-80335714D02*
X98854819Y-80430952D01*
X98854819Y-80430952D02*
X98854819Y-80669047D01*
X98854819Y-80669047D02*
X98902438Y-80764285D01*
X98902438Y-80764285D02*
X98950057Y-80811904D01*
X98950057Y-80811904D02*
X99045295Y-80859523D01*
X99045295Y-80859523D02*
X99140533Y-80859523D01*
X99140533Y-80859523D02*
X99283390Y-80811904D01*
X99283390Y-80811904D02*
X99854819Y-80240476D01*
X99854819Y-80240476D02*
X99854819Y-80859523D01*
X99854819Y-81335714D02*
X99854819Y-81526190D01*
X99854819Y-81526190D02*
X99807200Y-81621428D01*
X99807200Y-81621428D02*
X99759580Y-81669047D01*
X99759580Y-81669047D02*
X99616723Y-81764285D01*
X99616723Y-81764285D02*
X99426247Y-81811904D01*
X99426247Y-81811904D02*
X99045295Y-81811904D01*
X99045295Y-81811904D02*
X98950057Y-81764285D01*
X98950057Y-81764285D02*
X98902438Y-81716666D01*
X98902438Y-81716666D02*
X98854819Y-81621428D01*
X98854819Y-81621428D02*
X98854819Y-81430952D01*
X98854819Y-81430952D02*
X98902438Y-81335714D01*
X98902438Y-81335714D02*
X98950057Y-81288095D01*
X98950057Y-81288095D02*
X99045295Y-81240476D01*
X99045295Y-81240476D02*
X99283390Y-81240476D01*
X99283390Y-81240476D02*
X99378628Y-81288095D01*
X99378628Y-81288095D02*
X99426247Y-81335714D01*
X99426247Y-81335714D02*
X99473866Y-81430952D01*
X99473866Y-81430952D02*
X99473866Y-81621428D01*
X99473866Y-81621428D02*
X99426247Y-81716666D01*
X99426247Y-81716666D02*
X99378628Y-81764285D01*
X99378628Y-81764285D02*
X99283390Y-81811904D01*
X234724285Y-102974819D02*
X234724285Y-101974819D01*
X234724285Y-101974819D02*
X234486190Y-101974819D01*
X234486190Y-101974819D02*
X234343333Y-102022438D01*
X234343333Y-102022438D02*
X234248095Y-102117676D01*
X234248095Y-102117676D02*
X234200476Y-102212914D01*
X234200476Y-102212914D02*
X234152857Y-102403390D01*
X234152857Y-102403390D02*
X234152857Y-102546247D01*
X234152857Y-102546247D02*
X234200476Y-102736723D01*
X234200476Y-102736723D02*
X234248095Y-102831961D01*
X234248095Y-102831961D02*
X234343333Y-102927200D01*
X234343333Y-102927200D02*
X234486190Y-102974819D01*
X234486190Y-102974819D02*
X234724285Y-102974819D01*
X233200476Y-102974819D02*
X233771904Y-102974819D01*
X233486190Y-102974819D02*
X233486190Y-101974819D01*
X233486190Y-101974819D02*
X233581428Y-102117676D01*
X233581428Y-102117676D02*
X233676666Y-102212914D01*
X233676666Y-102212914D02*
X233771904Y-102260533D01*
X232343333Y-102308152D02*
X232343333Y-102974819D01*
X232581428Y-101927200D02*
X232819523Y-102641485D01*
X232819523Y-102641485D02*
X232200476Y-102641485D01*
X178124285Y-102974819D02*
X178124285Y-101974819D01*
X178124285Y-101974819D02*
X177886190Y-101974819D01*
X177886190Y-101974819D02*
X177743333Y-102022438D01*
X177743333Y-102022438D02*
X177648095Y-102117676D01*
X177648095Y-102117676D02*
X177600476Y-102212914D01*
X177600476Y-102212914D02*
X177552857Y-102403390D01*
X177552857Y-102403390D02*
X177552857Y-102546247D01*
X177552857Y-102546247D02*
X177600476Y-102736723D01*
X177600476Y-102736723D02*
X177648095Y-102831961D01*
X177648095Y-102831961D02*
X177743333Y-102927200D01*
X177743333Y-102927200D02*
X177886190Y-102974819D01*
X177886190Y-102974819D02*
X178124285Y-102974819D01*
X176600476Y-102974819D02*
X177171904Y-102974819D01*
X176886190Y-102974819D02*
X176886190Y-101974819D01*
X176886190Y-101974819D02*
X176981428Y-102117676D01*
X176981428Y-102117676D02*
X177076666Y-102212914D01*
X177076666Y-102212914D02*
X177171904Y-102260533D01*
X175648095Y-102974819D02*
X176219523Y-102974819D01*
X175933809Y-102974819D02*
X175933809Y-101974819D01*
X175933809Y-101974819D02*
X176029047Y-102117676D01*
X176029047Y-102117676D02*
X176124285Y-102212914D01*
X176124285Y-102212914D02*
X176219523Y-102260533D01*
X158534285Y-141029819D02*
X158534285Y-140029819D01*
X158534285Y-140029819D02*
X158296190Y-140029819D01*
X158296190Y-140029819D02*
X158153333Y-140077438D01*
X158153333Y-140077438D02*
X158058095Y-140172676D01*
X158058095Y-140172676D02*
X158010476Y-140267914D01*
X158010476Y-140267914D02*
X157962857Y-140458390D01*
X157962857Y-140458390D02*
X157962857Y-140601247D01*
X157962857Y-140601247D02*
X158010476Y-140791723D01*
X158010476Y-140791723D02*
X158058095Y-140886961D01*
X158058095Y-140886961D02*
X158153333Y-140982200D01*
X158153333Y-140982200D02*
X158296190Y-141029819D01*
X158296190Y-141029819D02*
X158534285Y-141029819D01*
X157010476Y-141029819D02*
X157581904Y-141029819D01*
X157296190Y-141029819D02*
X157296190Y-140029819D01*
X157296190Y-140029819D02*
X157391428Y-140172676D01*
X157391428Y-140172676D02*
X157486666Y-140267914D01*
X157486666Y-140267914D02*
X157581904Y-140315533D01*
X156534285Y-141029819D02*
X156343809Y-141029819D01*
X156343809Y-141029819D02*
X156248571Y-140982200D01*
X156248571Y-140982200D02*
X156200952Y-140934580D01*
X156200952Y-140934580D02*
X156105714Y-140791723D01*
X156105714Y-140791723D02*
X156058095Y-140601247D01*
X156058095Y-140601247D02*
X156058095Y-140220295D01*
X156058095Y-140220295D02*
X156105714Y-140125057D01*
X156105714Y-140125057D02*
X156153333Y-140077438D01*
X156153333Y-140077438D02*
X156248571Y-140029819D01*
X156248571Y-140029819D02*
X156439047Y-140029819D01*
X156439047Y-140029819D02*
X156534285Y-140077438D01*
X156534285Y-140077438D02*
X156581904Y-140125057D01*
X156581904Y-140125057D02*
X156629523Y-140220295D01*
X156629523Y-140220295D02*
X156629523Y-140458390D01*
X156629523Y-140458390D02*
X156581904Y-140553628D01*
X156581904Y-140553628D02*
X156534285Y-140601247D01*
X156534285Y-140601247D02*
X156439047Y-140648866D01*
X156439047Y-140648866D02*
X156248571Y-140648866D01*
X156248571Y-140648866D02*
X156153333Y-140601247D01*
X156153333Y-140601247D02*
X156105714Y-140553628D01*
X156105714Y-140553628D02*
X156058095Y-140458390D01*
X177108094Y-83879819D02*
X177108094Y-82879819D01*
X177108094Y-82879819D02*
X176869999Y-82879819D01*
X176869999Y-82879819D02*
X176727142Y-82927438D01*
X176727142Y-82927438D02*
X176631904Y-83022676D01*
X176631904Y-83022676D02*
X176584285Y-83117914D01*
X176584285Y-83117914D02*
X176536666Y-83308390D01*
X176536666Y-83308390D02*
X176536666Y-83451247D01*
X176536666Y-83451247D02*
X176584285Y-83641723D01*
X176584285Y-83641723D02*
X176631904Y-83736961D01*
X176631904Y-83736961D02*
X176727142Y-83832200D01*
X176727142Y-83832200D02*
X176869999Y-83879819D01*
X176869999Y-83879819D02*
X177108094Y-83879819D01*
X175679523Y-83213152D02*
X175679523Y-83879819D01*
X175917618Y-82832200D02*
X176155713Y-83546485D01*
X176155713Y-83546485D02*
X175536666Y-83546485D01*
X234954285Y-142874819D02*
X234954285Y-141874819D01*
X234954285Y-141874819D02*
X234716190Y-141874819D01*
X234716190Y-141874819D02*
X234573333Y-141922438D01*
X234573333Y-141922438D02*
X234478095Y-142017676D01*
X234478095Y-142017676D02*
X234430476Y-142112914D01*
X234430476Y-142112914D02*
X234382857Y-142303390D01*
X234382857Y-142303390D02*
X234382857Y-142446247D01*
X234382857Y-142446247D02*
X234430476Y-142636723D01*
X234430476Y-142636723D02*
X234478095Y-142731961D01*
X234478095Y-142731961D02*
X234573333Y-142827200D01*
X234573333Y-142827200D02*
X234716190Y-142874819D01*
X234716190Y-142874819D02*
X234954285Y-142874819D01*
X234001904Y-141970057D02*
X233954285Y-141922438D01*
X233954285Y-141922438D02*
X233859047Y-141874819D01*
X233859047Y-141874819D02*
X233620952Y-141874819D01*
X233620952Y-141874819D02*
X233525714Y-141922438D01*
X233525714Y-141922438D02*
X233478095Y-141970057D01*
X233478095Y-141970057D02*
X233430476Y-142065295D01*
X233430476Y-142065295D02*
X233430476Y-142160533D01*
X233430476Y-142160533D02*
X233478095Y-142303390D01*
X233478095Y-142303390D02*
X234049523Y-142874819D01*
X234049523Y-142874819D02*
X233430476Y-142874819D01*
X232859047Y-142303390D02*
X232954285Y-142255771D01*
X232954285Y-142255771D02*
X233001904Y-142208152D01*
X233001904Y-142208152D02*
X233049523Y-142112914D01*
X233049523Y-142112914D02*
X233049523Y-142065295D01*
X233049523Y-142065295D02*
X233001904Y-141970057D01*
X233001904Y-141970057D02*
X232954285Y-141922438D01*
X232954285Y-141922438D02*
X232859047Y-141874819D01*
X232859047Y-141874819D02*
X232668571Y-141874819D01*
X232668571Y-141874819D02*
X232573333Y-141922438D01*
X232573333Y-141922438D02*
X232525714Y-141970057D01*
X232525714Y-141970057D02*
X232478095Y-142065295D01*
X232478095Y-142065295D02*
X232478095Y-142112914D01*
X232478095Y-142112914D02*
X232525714Y-142208152D01*
X232525714Y-142208152D02*
X232573333Y-142255771D01*
X232573333Y-142255771D02*
X232668571Y-142303390D01*
X232668571Y-142303390D02*
X232859047Y-142303390D01*
X232859047Y-142303390D02*
X232954285Y-142351009D01*
X232954285Y-142351009D02*
X233001904Y-142398628D01*
X233001904Y-142398628D02*
X233049523Y-142493866D01*
X233049523Y-142493866D02*
X233049523Y-142684342D01*
X233049523Y-142684342D02*
X233001904Y-142779580D01*
X233001904Y-142779580D02*
X232954285Y-142827200D01*
X232954285Y-142827200D02*
X232859047Y-142874819D01*
X232859047Y-142874819D02*
X232668571Y-142874819D01*
X232668571Y-142874819D02*
X232573333Y-142827200D01*
X232573333Y-142827200D02*
X232525714Y-142779580D01*
X232525714Y-142779580D02*
X232478095Y-142684342D01*
X232478095Y-142684342D02*
X232478095Y-142493866D01*
X232478095Y-142493866D02*
X232525714Y-142398628D01*
X232525714Y-142398628D02*
X232573333Y-142351009D01*
X232573333Y-142351009D02*
X232668571Y-142303390D01*
X215208094Y-83879819D02*
X215208094Y-82879819D01*
X215208094Y-82879819D02*
X214969999Y-82879819D01*
X214969999Y-82879819D02*
X214827142Y-82927438D01*
X214827142Y-82927438D02*
X214731904Y-83022676D01*
X214731904Y-83022676D02*
X214684285Y-83117914D01*
X214684285Y-83117914D02*
X214636666Y-83308390D01*
X214636666Y-83308390D02*
X214636666Y-83451247D01*
X214636666Y-83451247D02*
X214684285Y-83641723D01*
X214684285Y-83641723D02*
X214731904Y-83736961D01*
X214731904Y-83736961D02*
X214827142Y-83832200D01*
X214827142Y-83832200D02*
X214969999Y-83879819D01*
X214969999Y-83879819D02*
X215208094Y-83879819D01*
X213779523Y-82879819D02*
X213969999Y-82879819D01*
X213969999Y-82879819D02*
X214065237Y-82927438D01*
X214065237Y-82927438D02*
X214112856Y-82975057D01*
X214112856Y-82975057D02*
X214208094Y-83117914D01*
X214208094Y-83117914D02*
X214255713Y-83308390D01*
X214255713Y-83308390D02*
X214255713Y-83689342D01*
X214255713Y-83689342D02*
X214208094Y-83784580D01*
X214208094Y-83784580D02*
X214160475Y-83832200D01*
X214160475Y-83832200D02*
X214065237Y-83879819D01*
X214065237Y-83879819D02*
X213874761Y-83879819D01*
X213874761Y-83879819D02*
X213779523Y-83832200D01*
X213779523Y-83832200D02*
X213731904Y-83784580D01*
X213731904Y-83784580D02*
X213684285Y-83689342D01*
X213684285Y-83689342D02*
X213684285Y-83451247D01*
X213684285Y-83451247D02*
X213731904Y-83356009D01*
X213731904Y-83356009D02*
X213779523Y-83308390D01*
X213779523Y-83308390D02*
X213874761Y-83260771D01*
X213874761Y-83260771D02*
X214065237Y-83260771D01*
X214065237Y-83260771D02*
X214160475Y-83308390D01*
X214160475Y-83308390D02*
X214208094Y-83356009D01*
X214208094Y-83356009D02*
X214255713Y-83451247D01*
X221702857Y-136089580D02*
X221750476Y-136137200D01*
X221750476Y-136137200D02*
X221893333Y-136184819D01*
X221893333Y-136184819D02*
X221988571Y-136184819D01*
X221988571Y-136184819D02*
X222131428Y-136137200D01*
X222131428Y-136137200D02*
X222226666Y-136041961D01*
X222226666Y-136041961D02*
X222274285Y-135946723D01*
X222274285Y-135946723D02*
X222321904Y-135756247D01*
X222321904Y-135756247D02*
X222321904Y-135613390D01*
X222321904Y-135613390D02*
X222274285Y-135422914D01*
X222274285Y-135422914D02*
X222226666Y-135327676D01*
X222226666Y-135327676D02*
X222131428Y-135232438D01*
X222131428Y-135232438D02*
X221988571Y-135184819D01*
X221988571Y-135184819D02*
X221893333Y-135184819D01*
X221893333Y-135184819D02*
X221750476Y-135232438D01*
X221750476Y-135232438D02*
X221702857Y-135280057D01*
X221321904Y-135280057D02*
X221274285Y-135232438D01*
X221274285Y-135232438D02*
X221179047Y-135184819D01*
X221179047Y-135184819D02*
X220940952Y-135184819D01*
X220940952Y-135184819D02*
X220845714Y-135232438D01*
X220845714Y-135232438D02*
X220798095Y-135280057D01*
X220798095Y-135280057D02*
X220750476Y-135375295D01*
X220750476Y-135375295D02*
X220750476Y-135470533D01*
X220750476Y-135470533D02*
X220798095Y-135613390D01*
X220798095Y-135613390D02*
X221369523Y-136184819D01*
X221369523Y-136184819D02*
X220750476Y-136184819D01*
X220417142Y-135184819D02*
X219798095Y-135184819D01*
X219798095Y-135184819D02*
X220131428Y-135565771D01*
X220131428Y-135565771D02*
X219988571Y-135565771D01*
X219988571Y-135565771D02*
X219893333Y-135613390D01*
X219893333Y-135613390D02*
X219845714Y-135661009D01*
X219845714Y-135661009D02*
X219798095Y-135756247D01*
X219798095Y-135756247D02*
X219798095Y-135994342D01*
X219798095Y-135994342D02*
X219845714Y-136089580D01*
X219845714Y-136089580D02*
X219893333Y-136137200D01*
X219893333Y-136137200D02*
X219988571Y-136184819D01*
X219988571Y-136184819D02*
X220274285Y-136184819D01*
X220274285Y-136184819D02*
X220369523Y-136137200D01*
X220369523Y-136137200D02*
X220417142Y-136089580D01*
X139008094Y-83879819D02*
X139008094Y-82879819D01*
X139008094Y-82879819D02*
X138769999Y-82879819D01*
X138769999Y-82879819D02*
X138627142Y-82927438D01*
X138627142Y-82927438D02*
X138531904Y-83022676D01*
X138531904Y-83022676D02*
X138484285Y-83117914D01*
X138484285Y-83117914D02*
X138436666Y-83308390D01*
X138436666Y-83308390D02*
X138436666Y-83451247D01*
X138436666Y-83451247D02*
X138484285Y-83641723D01*
X138484285Y-83641723D02*
X138531904Y-83736961D01*
X138531904Y-83736961D02*
X138627142Y-83832200D01*
X138627142Y-83832200D02*
X138769999Y-83879819D01*
X138769999Y-83879819D02*
X139008094Y-83879819D01*
X138055713Y-82975057D02*
X138008094Y-82927438D01*
X138008094Y-82927438D02*
X137912856Y-82879819D01*
X137912856Y-82879819D02*
X137674761Y-82879819D01*
X137674761Y-82879819D02*
X137579523Y-82927438D01*
X137579523Y-82927438D02*
X137531904Y-82975057D01*
X137531904Y-82975057D02*
X137484285Y-83070295D01*
X137484285Y-83070295D02*
X137484285Y-83165533D01*
X137484285Y-83165533D02*
X137531904Y-83308390D01*
X137531904Y-83308390D02*
X138103332Y-83879819D01*
X138103332Y-83879819D02*
X137484285Y-83879819D01*
X239716666Y-78989580D02*
X239764285Y-79037200D01*
X239764285Y-79037200D02*
X239907142Y-79084819D01*
X239907142Y-79084819D02*
X240002380Y-79084819D01*
X240002380Y-79084819D02*
X240145237Y-79037200D01*
X240145237Y-79037200D02*
X240240475Y-78941961D01*
X240240475Y-78941961D02*
X240288094Y-78846723D01*
X240288094Y-78846723D02*
X240335713Y-78656247D01*
X240335713Y-78656247D02*
X240335713Y-78513390D01*
X240335713Y-78513390D02*
X240288094Y-78322914D01*
X240288094Y-78322914D02*
X240240475Y-78227676D01*
X240240475Y-78227676D02*
X240145237Y-78132438D01*
X240145237Y-78132438D02*
X240002380Y-78084819D01*
X240002380Y-78084819D02*
X239907142Y-78084819D01*
X239907142Y-78084819D02*
X239764285Y-78132438D01*
X239764285Y-78132438D02*
X239716666Y-78180057D01*
X239383332Y-78084819D02*
X238716666Y-78084819D01*
X238716666Y-78084819D02*
X239145237Y-79084819D01*
X216124285Y-102974819D02*
X216124285Y-101974819D01*
X216124285Y-101974819D02*
X215886190Y-101974819D01*
X215886190Y-101974819D02*
X215743333Y-102022438D01*
X215743333Y-102022438D02*
X215648095Y-102117676D01*
X215648095Y-102117676D02*
X215600476Y-102212914D01*
X215600476Y-102212914D02*
X215552857Y-102403390D01*
X215552857Y-102403390D02*
X215552857Y-102546247D01*
X215552857Y-102546247D02*
X215600476Y-102736723D01*
X215600476Y-102736723D02*
X215648095Y-102831961D01*
X215648095Y-102831961D02*
X215743333Y-102927200D01*
X215743333Y-102927200D02*
X215886190Y-102974819D01*
X215886190Y-102974819D02*
X216124285Y-102974819D01*
X214600476Y-102974819D02*
X215171904Y-102974819D01*
X214886190Y-102974819D02*
X214886190Y-101974819D01*
X214886190Y-101974819D02*
X214981428Y-102117676D01*
X214981428Y-102117676D02*
X215076666Y-102212914D01*
X215076666Y-102212914D02*
X215171904Y-102260533D01*
X214267142Y-101974819D02*
X213648095Y-101974819D01*
X213648095Y-101974819D02*
X213981428Y-102355771D01*
X213981428Y-102355771D02*
X213838571Y-102355771D01*
X213838571Y-102355771D02*
X213743333Y-102403390D01*
X213743333Y-102403390D02*
X213695714Y-102451009D01*
X213695714Y-102451009D02*
X213648095Y-102546247D01*
X213648095Y-102546247D02*
X213648095Y-102784342D01*
X213648095Y-102784342D02*
X213695714Y-102879580D01*
X213695714Y-102879580D02*
X213743333Y-102927200D01*
X213743333Y-102927200D02*
X213838571Y-102974819D01*
X213838571Y-102974819D02*
X214124285Y-102974819D01*
X214124285Y-102974819D02*
X214219523Y-102927200D01*
X214219523Y-102927200D02*
X214267142Y-102879580D01*
X163922857Y-97999580D02*
X163970476Y-98047200D01*
X163970476Y-98047200D02*
X164113333Y-98094819D01*
X164113333Y-98094819D02*
X164208571Y-98094819D01*
X164208571Y-98094819D02*
X164351428Y-98047200D01*
X164351428Y-98047200D02*
X164446666Y-97951961D01*
X164446666Y-97951961D02*
X164494285Y-97856723D01*
X164494285Y-97856723D02*
X164541904Y-97666247D01*
X164541904Y-97666247D02*
X164541904Y-97523390D01*
X164541904Y-97523390D02*
X164494285Y-97332914D01*
X164494285Y-97332914D02*
X164446666Y-97237676D01*
X164446666Y-97237676D02*
X164351428Y-97142438D01*
X164351428Y-97142438D02*
X164208571Y-97094819D01*
X164208571Y-97094819D02*
X164113333Y-97094819D01*
X164113333Y-97094819D02*
X163970476Y-97142438D01*
X163970476Y-97142438D02*
X163922857Y-97190057D01*
X162970476Y-98094819D02*
X163541904Y-98094819D01*
X163256190Y-98094819D02*
X163256190Y-97094819D01*
X163256190Y-97094819D02*
X163351428Y-97237676D01*
X163351428Y-97237676D02*
X163446666Y-97332914D01*
X163446666Y-97332914D02*
X163541904Y-97380533D01*
X162589523Y-97190057D02*
X162541904Y-97142438D01*
X162541904Y-97142438D02*
X162446666Y-97094819D01*
X162446666Y-97094819D02*
X162208571Y-97094819D01*
X162208571Y-97094819D02*
X162113333Y-97142438D01*
X162113333Y-97142438D02*
X162065714Y-97190057D01*
X162065714Y-97190057D02*
X162018095Y-97285295D01*
X162018095Y-97285295D02*
X162018095Y-97380533D01*
X162018095Y-97380533D02*
X162065714Y-97523390D01*
X162065714Y-97523390D02*
X162637142Y-98094819D01*
X162637142Y-98094819D02*
X162018095Y-98094819D01*
X240402857Y-117079580D02*
X240450476Y-117127200D01*
X240450476Y-117127200D02*
X240593333Y-117174819D01*
X240593333Y-117174819D02*
X240688571Y-117174819D01*
X240688571Y-117174819D02*
X240831428Y-117127200D01*
X240831428Y-117127200D02*
X240926666Y-117031961D01*
X240926666Y-117031961D02*
X240974285Y-116936723D01*
X240974285Y-116936723D02*
X241021904Y-116746247D01*
X241021904Y-116746247D02*
X241021904Y-116603390D01*
X241021904Y-116603390D02*
X240974285Y-116412914D01*
X240974285Y-116412914D02*
X240926666Y-116317676D01*
X240926666Y-116317676D02*
X240831428Y-116222438D01*
X240831428Y-116222438D02*
X240688571Y-116174819D01*
X240688571Y-116174819D02*
X240593333Y-116174819D01*
X240593333Y-116174819D02*
X240450476Y-116222438D01*
X240450476Y-116222438D02*
X240402857Y-116270057D01*
X240021904Y-116270057D02*
X239974285Y-116222438D01*
X239974285Y-116222438D02*
X239879047Y-116174819D01*
X239879047Y-116174819D02*
X239640952Y-116174819D01*
X239640952Y-116174819D02*
X239545714Y-116222438D01*
X239545714Y-116222438D02*
X239498095Y-116270057D01*
X239498095Y-116270057D02*
X239450476Y-116365295D01*
X239450476Y-116365295D02*
X239450476Y-116460533D01*
X239450476Y-116460533D02*
X239498095Y-116603390D01*
X239498095Y-116603390D02*
X240069523Y-117174819D01*
X240069523Y-117174819D02*
X239450476Y-117174819D01*
X238498095Y-117174819D02*
X239069523Y-117174819D01*
X238783809Y-117174819D02*
X238783809Y-116174819D01*
X238783809Y-116174819D02*
X238879047Y-116317676D01*
X238879047Y-116317676D02*
X238974285Y-116412914D01*
X238974285Y-116412914D02*
X239069523Y-116460533D01*
X120924285Y-121974819D02*
X120924285Y-120974819D01*
X120924285Y-120974819D02*
X120686190Y-120974819D01*
X120686190Y-120974819D02*
X120543333Y-121022438D01*
X120543333Y-121022438D02*
X120448095Y-121117676D01*
X120448095Y-121117676D02*
X120400476Y-121212914D01*
X120400476Y-121212914D02*
X120352857Y-121403390D01*
X120352857Y-121403390D02*
X120352857Y-121546247D01*
X120352857Y-121546247D02*
X120400476Y-121736723D01*
X120400476Y-121736723D02*
X120448095Y-121831961D01*
X120448095Y-121831961D02*
X120543333Y-121927200D01*
X120543333Y-121927200D02*
X120686190Y-121974819D01*
X120686190Y-121974819D02*
X120924285Y-121974819D01*
X119400476Y-121974819D02*
X119971904Y-121974819D01*
X119686190Y-121974819D02*
X119686190Y-120974819D01*
X119686190Y-120974819D02*
X119781428Y-121117676D01*
X119781428Y-121117676D02*
X119876666Y-121212914D01*
X119876666Y-121212914D02*
X119971904Y-121260533D01*
X118495714Y-120974819D02*
X118971904Y-120974819D01*
X118971904Y-120974819D02*
X119019523Y-121451009D01*
X119019523Y-121451009D02*
X118971904Y-121403390D01*
X118971904Y-121403390D02*
X118876666Y-121355771D01*
X118876666Y-121355771D02*
X118638571Y-121355771D01*
X118638571Y-121355771D02*
X118543333Y-121403390D01*
X118543333Y-121403390D02*
X118495714Y-121451009D01*
X118495714Y-121451009D02*
X118448095Y-121546247D01*
X118448095Y-121546247D02*
X118448095Y-121784342D01*
X118448095Y-121784342D02*
X118495714Y-121879580D01*
X118495714Y-121879580D02*
X118543333Y-121927200D01*
X118543333Y-121927200D02*
X118638571Y-121974819D01*
X118638571Y-121974819D02*
X118876666Y-121974819D01*
X118876666Y-121974819D02*
X118971904Y-121927200D01*
X118971904Y-121927200D02*
X119019523Y-121879580D01*
X201156666Y-78959580D02*
X201204285Y-79007200D01*
X201204285Y-79007200D02*
X201347142Y-79054819D01*
X201347142Y-79054819D02*
X201442380Y-79054819D01*
X201442380Y-79054819D02*
X201585237Y-79007200D01*
X201585237Y-79007200D02*
X201680475Y-78911961D01*
X201680475Y-78911961D02*
X201728094Y-78816723D01*
X201728094Y-78816723D02*
X201775713Y-78626247D01*
X201775713Y-78626247D02*
X201775713Y-78483390D01*
X201775713Y-78483390D02*
X201728094Y-78292914D01*
X201728094Y-78292914D02*
X201680475Y-78197676D01*
X201680475Y-78197676D02*
X201585237Y-78102438D01*
X201585237Y-78102438D02*
X201442380Y-78054819D01*
X201442380Y-78054819D02*
X201347142Y-78054819D01*
X201347142Y-78054819D02*
X201204285Y-78102438D01*
X201204285Y-78102438D02*
X201156666Y-78150057D01*
X200251904Y-78054819D02*
X200728094Y-78054819D01*
X200728094Y-78054819D02*
X200775713Y-78531009D01*
X200775713Y-78531009D02*
X200728094Y-78483390D01*
X200728094Y-78483390D02*
X200632856Y-78435771D01*
X200632856Y-78435771D02*
X200394761Y-78435771D01*
X200394761Y-78435771D02*
X200299523Y-78483390D01*
X200299523Y-78483390D02*
X200251904Y-78531009D01*
X200251904Y-78531009D02*
X200204285Y-78626247D01*
X200204285Y-78626247D02*
X200204285Y-78864342D01*
X200204285Y-78864342D02*
X200251904Y-78959580D01*
X200251904Y-78959580D02*
X200299523Y-79007200D01*
X200299523Y-79007200D02*
X200394761Y-79054819D01*
X200394761Y-79054819D02*
X200632856Y-79054819D01*
X200632856Y-79054819D02*
X200728094Y-79007200D01*
X200728094Y-79007200D02*
X200775713Y-78959580D01*
D13*
%TO.C,L3*%
X153490000Y-74960000D02*
X153490000Y-74260000D01*
X154190000Y-74260000D01*
X153490000Y-74960000D01*
G36*
X153490000Y-74960000D02*
G01*
X153490000Y-74260000D01*
X154190000Y-74260000D01*
X153490000Y-74960000D01*
G37*
%TO.C,L5*%
X191532500Y-74937500D02*
X191532500Y-74237500D01*
X192232500Y-74237500D01*
X191532500Y-74937500D01*
G36*
X191532500Y-74937500D02*
G01*
X191532500Y-74237500D01*
X192232500Y-74237500D01*
X191532500Y-74937500D01*
G37*
%TO.C,L25*%
X172542500Y-132087500D02*
X172542500Y-131387500D01*
X173242500Y-131387500D01*
X172542500Y-132087500D01*
G36*
X172542500Y-132087500D02*
G01*
X172542500Y-131387500D01*
X173242500Y-131387500D01*
X172542500Y-132087500D01*
G37*
%TO.C,L16*%
X134362500Y-113047500D02*
X134362500Y-112347500D01*
X135062500Y-112347500D01*
X134362500Y-113047500D01*
G36*
X134362500Y-113047500D02*
G01*
X134362500Y-112347500D01*
X135062500Y-112347500D01*
X134362500Y-113047500D01*
G37*
%TO.C,L14*%
X115395000Y-94095000D02*
X115395000Y-93395000D01*
X116095000Y-93395000D01*
X115395000Y-94095000D01*
G36*
X115395000Y-94095000D02*
G01*
X115395000Y-93395000D01*
X116095000Y-93395000D01*
X115395000Y-94095000D01*
G37*
%TO.C,L2*%
X134392500Y-74957500D02*
X134392500Y-74257500D01*
X135092500Y-74257500D01*
X134392500Y-74957500D01*
G36*
X134392500Y-74957500D02*
G01*
X134392500Y-74257500D01*
X135092500Y-74257500D01*
X134392500Y-74957500D01*
G37*
%TO.C,L6*%
X210560000Y-74950000D02*
X210560000Y-74250000D01*
X211260000Y-74250000D01*
X210560000Y-74950000D01*
G36*
X210560000Y-74950000D02*
G01*
X210560000Y-74250000D01*
X211260000Y-74250000D01*
X210560000Y-74950000D01*
G37*
%TO.C,L7*%
X229652500Y-74947500D02*
X229652500Y-74247500D01*
X230352500Y-74247500D01*
X229652500Y-74947500D01*
G36*
X229652500Y-74947500D02*
G01*
X229652500Y-74247500D01*
X230352500Y-74247500D01*
X229652500Y-74947500D01*
G37*
%TO.C,L9*%
X210662500Y-93977500D02*
X210662500Y-93277500D01*
X211362500Y-93277500D01*
X210662500Y-93977500D01*
G36*
X210662500Y-93977500D02*
G01*
X210662500Y-93277500D01*
X211362500Y-93277500D01*
X210662500Y-93977500D01*
G37*
%TO.C,L15*%
X115362500Y-113017500D02*
X115362500Y-112317500D01*
X116062500Y-112317500D01*
X115362500Y-113017500D01*
G36*
X115362500Y-113017500D02*
G01*
X115362500Y-112317500D01*
X116062500Y-112317500D01*
X115362500Y-113017500D01*
G37*
%TO.C,L20*%
X210610000Y-113040000D02*
X210610000Y-112340000D01*
X211310000Y-112340000D01*
X210610000Y-113040000D01*
G36*
X210610000Y-113040000D02*
G01*
X210610000Y-112340000D01*
X211310000Y-112340000D01*
X210610000Y-113040000D01*
G37*
%TO.C,L12*%
X153482500Y-93987500D02*
X153482500Y-93287500D01*
X154182500Y-93287500D01*
X153482500Y-93987500D01*
G36*
X153482500Y-93987500D02*
G01*
X153482500Y-93287500D01*
X154182500Y-93287500D01*
X153482500Y-93987500D01*
G37*
%TO.C,L23*%
X210622500Y-132077500D02*
X210622500Y-131377500D01*
X211322500Y-131377500D01*
X210622500Y-132077500D01*
G36*
X210622500Y-132077500D02*
G01*
X210622500Y-131377500D01*
X211322500Y-131377500D01*
X210622500Y-132077500D01*
G37*
%TO.C,L24*%
X191612500Y-132067500D02*
X191612500Y-131367500D01*
X192312500Y-131367500D01*
X191612500Y-132067500D01*
G36*
X191612500Y-132067500D02*
G01*
X191612500Y-131367500D01*
X192312500Y-131367500D01*
X191612500Y-132067500D01*
G37*
%TO.C,L28*%
X115402500Y-132067500D02*
X115402500Y-131367500D01*
X116102500Y-131367500D01*
X115402500Y-132067500D01*
G36*
X115402500Y-132067500D02*
G01*
X115402500Y-131367500D01*
X116102500Y-131367500D01*
X115402500Y-132067500D01*
G37*
%TO.C,L21*%
X229652500Y-113047500D02*
X229652500Y-112347500D01*
X230352500Y-112347500D01*
X229652500Y-113047500D01*
G36*
X229652500Y-113047500D02*
G01*
X229652500Y-112347500D01*
X230352500Y-112347500D01*
X229652500Y-113047500D01*
G37*
%TO.C,L18*%
X172512500Y-113027500D02*
X172512500Y-112327500D01*
X173212500Y-112327500D01*
X172512500Y-113027500D01*
G36*
X172512500Y-113027500D02*
G01*
X172512500Y-112327500D01*
X173212500Y-112327500D01*
X172512500Y-113027500D01*
G37*
%TO.C,L10*%
X191582500Y-93997500D02*
X191582500Y-93297500D01*
X192282500Y-93297500D01*
X191582500Y-93997500D01*
G36*
X191582500Y-93997500D02*
G01*
X191582500Y-93297500D01*
X192282500Y-93297500D01*
X191582500Y-93997500D01*
G37*
%TO.C,L27*%
X134382500Y-132087500D02*
X134382500Y-131387500D01*
X135082500Y-131387500D01*
X134382500Y-132087500D01*
G36*
X134382500Y-132087500D02*
G01*
X134382500Y-131387500D01*
X135082500Y-131387500D01*
X134382500Y-132087500D01*
G37*
%TO.C,L11*%
X172542500Y-93987500D02*
X172542500Y-93287500D01*
X173242500Y-93287500D01*
X172542500Y-93987500D01*
G36*
X172542500Y-93987500D02*
G01*
X172542500Y-93287500D01*
X173242500Y-93287500D01*
X172542500Y-93987500D01*
G37*
%TO.C,L1*%
X115402500Y-74967500D02*
X115402500Y-74267500D01*
X116102500Y-74267500D01*
X115402500Y-74967500D01*
G36*
X115402500Y-74967500D02*
G01*
X115402500Y-74267500D01*
X116102500Y-74267500D01*
X115402500Y-74967500D01*
G37*
%TO.C,L4*%
X172490000Y-74940000D02*
X172490000Y-74240000D01*
X173190000Y-74240000D01*
X172490000Y-74940000D01*
G36*
X172490000Y-74940000D02*
G01*
X172490000Y-74240000D01*
X173190000Y-74240000D01*
X172490000Y-74940000D01*
G37*
%TO.C,L19*%
X191592500Y-113037500D02*
X191592500Y-112337500D01*
X192292500Y-112337500D01*
X191592500Y-113037500D01*
G36*
X191592500Y-113037500D02*
G01*
X191592500Y-112337500D01*
X192292500Y-112337500D01*
X191592500Y-113037500D01*
G37*
%TO.C,L8*%
X229612500Y-93987500D02*
X229612500Y-93287500D01*
X230312500Y-93287500D01*
X229612500Y-93987500D01*
G36*
X229612500Y-93987500D02*
G01*
X229612500Y-93287500D01*
X230312500Y-93287500D01*
X229612500Y-93987500D01*
G37*
%TO.C,L26*%
X153532500Y-132087500D02*
X153532500Y-131387500D01*
X154232500Y-131387500D01*
X153532500Y-132087500D01*
G36*
X153532500Y-132087500D02*
G01*
X153532500Y-131387500D01*
X154232500Y-131387500D01*
X153532500Y-132087500D01*
G37*
%TO.C,L22*%
X229702500Y-132077500D02*
X229702500Y-131377500D01*
X230402500Y-131377500D01*
X229702500Y-132077500D01*
G36*
X229702500Y-132077500D02*
G01*
X229702500Y-131377500D01*
X230402500Y-131377500D01*
X229702500Y-132077500D01*
G37*
%TO.C,L13*%
X134382500Y-93977500D02*
X134382500Y-93277500D01*
X135082500Y-93277500D01*
X134382500Y-93977500D01*
G36*
X134382500Y-93977500D02*
G01*
X134382500Y-93277500D01*
X135082500Y-93277500D01*
X134382500Y-93977500D01*
G37*
%TO.C,L17*%
X153562500Y-113047500D02*
X153562500Y-112347500D01*
X154262500Y-112347500D01*
X153562500Y-113047500D01*
G36*
X153562500Y-113047500D02*
G01*
X153562500Y-112347500D01*
X154262500Y-112347500D01*
X153562500Y-113047500D01*
G37*
D14*
%TO.C,R1*%
X66765000Y-75727064D02*
X66765000Y-75272936D01*
X68235000Y-75727064D02*
X68235000Y-75272936D01*
%TO.C,D21*%
X174010000Y-118525000D02*
X178020000Y-118525000D01*
X174010000Y-120525000D02*
X174010000Y-118525000D01*
X174010000Y-120525000D02*
X178020000Y-120525000D01*
%TO.C,D27*%
X231160000Y-118525000D02*
X235170000Y-118525000D01*
X231160000Y-120525000D02*
X231160000Y-118525000D01*
X231160000Y-120525000D02*
X235170000Y-120525000D01*
%TO.C,C22*%
X239718748Y-133355000D02*
X240241252Y-133355000D01*
X239718748Y-134825000D02*
X240241252Y-134825000D01*
%TO.C,C6*%
X220538748Y-76255000D02*
X221061252Y-76255000D01*
X220538748Y-77725000D02*
X221061252Y-77725000D01*
%TO.C,C26*%
X163338748Y-133285000D02*
X163861252Y-133285000D01*
X163338748Y-134755000D02*
X163861252Y-134755000D01*
%TO.C,D9*%
X154960000Y-99475000D02*
X158970000Y-99475000D01*
X154960000Y-101475000D02*
X154960000Y-99475000D01*
X154960000Y-101475000D02*
X158970000Y-101475000D01*
%TO.C,D20*%
X154960000Y-118525000D02*
X158970000Y-118525000D01*
X154960000Y-120525000D02*
X154960000Y-118525000D01*
X154960000Y-120525000D02*
X158970000Y-120525000D01*
%TO.C,C25*%
X182148748Y-133315000D02*
X182671252Y-133315000D01*
X182148748Y-134785000D02*
X182671252Y-134785000D01*
%TO.C,C20*%
X220698748Y-114315000D02*
X221221252Y-114315000D01*
X220698748Y-115785000D02*
X221221252Y-115785000D01*
%TO.C,C14*%
X124928748Y-95325000D02*
X125451252Y-95325000D01*
X124928748Y-96795000D02*
X125451252Y-96795000D01*
%TO.C,D23*%
X193060000Y-118525000D02*
X197070000Y-118525000D01*
X193060000Y-120525000D02*
X193060000Y-118525000D01*
X193060000Y-120525000D02*
X197070000Y-120525000D01*
%TO.C,C18*%
X182358748Y-114275000D02*
X182881252Y-114275000D01*
X182358748Y-115745000D02*
X182881252Y-115745000D01*
%TO.C,C10*%
X201328748Y-95315000D02*
X201851252Y-95315000D01*
X201328748Y-96785000D02*
X201851252Y-96785000D01*
%TO.C,C19*%
X201388748Y-114265000D02*
X201911252Y-114265000D01*
X201388748Y-115735000D02*
X201911252Y-115735000D01*
%TO.C,C9*%
X220738748Y-95285000D02*
X221261252Y-95285000D01*
X220738748Y-96755000D02*
X221261252Y-96755000D01*
%TO.C,D16*%
X116860000Y-137575000D02*
X120870000Y-137575000D01*
X116860000Y-139575000D02*
X116860000Y-137575000D01*
X116860000Y-139575000D02*
X120870000Y-139575000D01*
%TO.C,C27*%
X144038748Y-133075000D02*
X144561252Y-133075000D01*
X144038748Y-134545000D02*
X144561252Y-134545000D01*
%TO.C,D24*%
X193060000Y-137575000D02*
X197070000Y-137575000D01*
X193060000Y-139575000D02*
X193060000Y-137575000D01*
X193060000Y-139575000D02*
X197070000Y-139575000D01*
%TO.C,D1*%
X116860000Y-80425000D02*
X120870000Y-80425000D01*
X116860000Y-82425000D02*
X116860000Y-80425000D01*
X116860000Y-82425000D02*
X120870000Y-82425000D01*
%TO.C,D25*%
X212110000Y-118525000D02*
X216120000Y-118525000D01*
X212110000Y-120525000D02*
X212110000Y-118525000D01*
X212110000Y-120525000D02*
X216120000Y-120525000D01*
%TO.C,C17*%
X163548748Y-114325000D02*
X164071252Y-114325000D01*
X163548748Y-115795000D02*
X164071252Y-115795000D01*
%TO.C,D22*%
X174010000Y-137575000D02*
X178020000Y-137575000D01*
X174010000Y-139575000D02*
X174010000Y-137575000D01*
X174010000Y-139575000D02*
X178020000Y-139575000D01*
%TO.C,C13*%
X143958748Y-95165000D02*
X144481252Y-95165000D01*
X143958748Y-96635000D02*
X144481252Y-96635000D01*
%TO.C,C3*%
X163421252Y-76175000D02*
X162898748Y-76175000D01*
X163421252Y-77645000D02*
X162898748Y-77645000D01*
%TO.C,C28*%
X125258748Y-133265000D02*
X125781252Y-133265000D01*
X125258748Y-134735000D02*
X125781252Y-134735000D01*
%TO.C,D12*%
X193550000Y-99320000D02*
X197560000Y-99320000D01*
X193550000Y-101320000D02*
X193550000Y-99320000D01*
X193550000Y-101320000D02*
X197560000Y-101320000D01*
%TO.C,D8*%
X116860000Y-99475000D02*
X120870000Y-99475000D01*
X116860000Y-101475000D02*
X116860000Y-99475000D01*
X116860000Y-101475000D02*
X120870000Y-101475000D01*
%TO.C,C8*%
X239668748Y-95215000D02*
X240191252Y-95215000D01*
X239668748Y-96685000D02*
X240191252Y-96685000D01*
%TO.C,D18*%
X135910000Y-118525000D02*
X139920000Y-118525000D01*
X135910000Y-120525000D02*
X135910000Y-118525000D01*
X135910000Y-120525000D02*
X139920000Y-120525000D01*
%TO.C,C24*%
X201528748Y-133355000D02*
X202051252Y-133355000D01*
X201528748Y-134825000D02*
X202051252Y-134825000D01*
%TO.C,D5*%
X193060000Y-80425000D02*
X197070000Y-80425000D01*
X193060000Y-82425000D02*
X193060000Y-80425000D01*
X193060000Y-82425000D02*
X197070000Y-82425000D01*
%TO.C,C11*%
X182408748Y-95205000D02*
X182931252Y-95205000D01*
X182408748Y-96675000D02*
X182931252Y-96675000D01*
%TO.C,C1*%
X125331252Y-76165000D02*
X124808748Y-76165000D01*
X125331252Y-77635000D02*
X124808748Y-77635000D01*
%TO.C,D7*%
X231160000Y-80425000D02*
X235170000Y-80425000D01*
X231160000Y-82425000D02*
X231160000Y-80425000D01*
X231160000Y-82425000D02*
X235170000Y-82425000D01*
%TO.C,C16*%
X144648748Y-114165000D02*
X145171252Y-114165000D01*
X144648748Y-115635000D02*
X145171252Y-115635000D01*
%TO.C,C2*%
X145151252Y-76095000D02*
X144628748Y-76095000D01*
X145151252Y-77565000D02*
X144628748Y-77565000D01*
%TO.C,D3*%
X154960000Y-80425000D02*
X158970000Y-80425000D01*
X154960000Y-82425000D02*
X154960000Y-80425000D01*
X154960000Y-82425000D02*
X158970000Y-82425000D01*
%TO.C,D17*%
X135910000Y-137575000D02*
X139920000Y-137575000D01*
X135910000Y-139575000D02*
X135910000Y-137575000D01*
X135910000Y-139575000D02*
X139920000Y-139575000D01*
%TO.C,D26*%
X210460000Y-137575000D02*
X214470000Y-137575000D01*
X210460000Y-139575000D02*
X210460000Y-137575000D01*
X210460000Y-139575000D02*
X214470000Y-139575000D01*
%TO.C,C15*%
X123555000Y-115818748D02*
X123555000Y-116341252D01*
X125025000Y-115818748D02*
X125025000Y-116341252D01*
%TO.C,C4*%
X181978748Y-76245000D02*
X182501252Y-76245000D01*
X181978748Y-77715000D02*
X182501252Y-77715000D01*
%TO.C,D10*%
X135910000Y-99475000D02*
X139920000Y-99475000D01*
X135910000Y-101475000D02*
X135910000Y-99475000D01*
X135910000Y-101475000D02*
X139920000Y-101475000D01*
%TO.C,C29*%
X100340000Y-78204437D02*
X100340000Y-83960000D01*
X100340000Y-83960000D02*
X102690000Y-83960000D01*
X101404437Y-77140000D02*
X100340000Y-78204437D01*
X101404437Y-77140000D02*
X102690000Y-77140000D01*
X101508750Y-76506250D02*
X102296250Y-76506250D01*
X101902500Y-76112500D02*
X101902500Y-76900000D01*
X106095563Y-77140000D02*
X104810000Y-77140000D01*
X106095563Y-77140000D02*
X107160000Y-78204437D01*
X107160000Y-78204437D02*
X107160000Y-83960000D01*
X107160000Y-83960000D02*
X104810000Y-83960000D01*
%TO.C,D14*%
X231150000Y-99520000D02*
X235160000Y-99520000D01*
X231150000Y-101520000D02*
X231150000Y-99520000D01*
X231150000Y-101520000D02*
X235160000Y-101520000D01*
%TO.C,D11*%
X174550000Y-99520000D02*
X178560000Y-99520000D01*
X174550000Y-101520000D02*
X174550000Y-99520000D01*
X174550000Y-101520000D02*
X178560000Y-101520000D01*
%TO.C,D19*%
X154960000Y-137575000D02*
X158970000Y-137575000D01*
X154960000Y-139575000D02*
X154960000Y-137575000D01*
X154960000Y-139575000D02*
X158970000Y-139575000D01*
%TO.C,D4*%
X174010000Y-80425000D02*
X178020000Y-80425000D01*
X174010000Y-82425000D02*
X174010000Y-80425000D01*
X174010000Y-82425000D02*
X178020000Y-82425000D01*
%TO.C,D28*%
X231380000Y-139420000D02*
X235390000Y-139420000D01*
X231380000Y-141420000D02*
X231380000Y-139420000D01*
X231380000Y-141420000D02*
X235390000Y-141420000D01*
%TO.C,D6*%
X212110000Y-80425000D02*
X216120000Y-80425000D01*
X212110000Y-82425000D02*
X212110000Y-80425000D01*
X212110000Y-82425000D02*
X216120000Y-82425000D01*
%TO.C,C23*%
X220798748Y-133315000D02*
X221321252Y-133315000D01*
X220798748Y-134785000D02*
X221321252Y-134785000D01*
%TO.C,D2*%
X135910000Y-80425000D02*
X139920000Y-80425000D01*
X135910000Y-82425000D02*
X135910000Y-80425000D01*
X135910000Y-82425000D02*
X139920000Y-82425000D01*
%TO.C,C7*%
X239288748Y-76215000D02*
X239811252Y-76215000D01*
X239288748Y-77685000D02*
X239811252Y-77685000D01*
%TO.C,D13*%
X212550000Y-99520000D02*
X216560000Y-99520000D01*
X212550000Y-101520000D02*
X212550000Y-99520000D01*
X212550000Y-101520000D02*
X216560000Y-101520000D01*
%TO.C,C12*%
X163018748Y-95225000D02*
X163541252Y-95225000D01*
X163018748Y-96695000D02*
X163541252Y-96695000D01*
%TO.C,C21*%
X239498748Y-114305000D02*
X240021252Y-114305000D01*
X239498748Y-115775000D02*
X240021252Y-115775000D01*
%TO.C,D15*%
X117350000Y-118520000D02*
X121360000Y-118520000D01*
X117350000Y-120520000D02*
X117350000Y-118520000D01*
X117350000Y-120520000D02*
X121360000Y-120520000D01*
%TO.C,C5*%
X200728748Y-76185000D02*
X201251252Y-76185000D01*
X200728748Y-77655000D02*
X201251252Y-77655000D01*
%TD*%
%LPC*%
D15*
%TO.C,SW1*%
X67660000Y-134650000D03*
D16*
X72160000Y-134650000D03*
D17*
X64660000Y-132150000D03*
D18*
X64660000Y-137150000D03*
X64660000Y-134650000D03*
D19*
X72160000Y-129050000D03*
X72160000Y-140250000D03*
D18*
X79160000Y-137150000D03*
X79160000Y-132150000D03*
%TD*%
D20*
%TO.C,L3*%
X154390000Y-75430000D03*
X154390000Y-76930000D03*
X160190000Y-76930000D03*
X160190000Y-75430000D03*
%TD*%
%TO.C,L5*%
X192432500Y-75407500D03*
X192432500Y-76907500D03*
X198232500Y-76907500D03*
X198232500Y-75407500D03*
%TD*%
%TO.C,L25*%
X173442500Y-132557500D03*
X173442500Y-134057500D03*
X179242500Y-134057500D03*
X179242500Y-132557500D03*
%TD*%
D21*
%TO.C,SWK11*%
X171290000Y-90950000D03*
D22*
X176370000Y-90950000D03*
D21*
X181450000Y-90950000D03*
D23*
X178910000Y-85870000D03*
X172560000Y-88410000D03*
%TD*%
D21*
%TO.C,O1-7*%
X228440000Y-110000000D03*
D22*
X233520000Y-110000000D03*
D21*
X238600000Y-110000000D03*
D23*
X236060000Y-104920000D03*
X229710000Y-107460000D03*
%TD*%
D21*
%TO.C,O1-4*%
X171290000Y-110000000D03*
D22*
X176370000Y-110000000D03*
D21*
X181450000Y-110000000D03*
D23*
X178910000Y-104920000D03*
X172560000Y-107460000D03*
%TD*%
D21*
%TO.C,F4*%
X171290000Y-129050000D03*
D22*
X176370000Y-129050000D03*
D21*
X181450000Y-129050000D03*
D23*
X178910000Y-123970000D03*
X172560000Y-126510000D03*
%TD*%
D20*
%TO.C,L16*%
X135262500Y-113517500D03*
X135262500Y-115017500D03*
X141062500Y-115017500D03*
X141062500Y-113517500D03*
%TD*%
D21*
%TO.C,F7*%
X228440000Y-129050000D03*
D22*
X233520000Y-129050000D03*
D21*
X238600000Y-129050000D03*
D23*
X236060000Y-123970000D03*
X229710000Y-126510000D03*
%TD*%
D20*
%TO.C,L14*%
X116295000Y-94565000D03*
X116295000Y-96065000D03*
X122095000Y-96065000D03*
X122095000Y-94565000D03*
%TD*%
%TO.C,L2*%
X135292500Y-75427500D03*
X135292500Y-76927500D03*
X141092500Y-76927500D03*
X141092500Y-75427500D03*
%TD*%
%TO.C,L6*%
X211460000Y-75420000D03*
X211460000Y-76920000D03*
X217260000Y-76920000D03*
X217260000Y-75420000D03*
%TD*%
%TO.C,L7*%
X230552500Y-75417500D03*
X230552500Y-76917500D03*
X236352500Y-76917500D03*
X236352500Y-75417500D03*
%TD*%
D15*
%TO.C,SW3*%
X91000000Y-134650000D03*
D16*
X95500000Y-134650000D03*
D17*
X88000000Y-132150000D03*
D18*
X88000000Y-137150000D03*
X88000000Y-134650000D03*
D19*
X95500000Y-129050000D03*
X95500000Y-140250000D03*
D18*
X102500000Y-137150000D03*
X102500000Y-132150000D03*
%TD*%
D21*
%TO.C,O1-1*%
X114140000Y-110000000D03*
D22*
X119220000Y-110000000D03*
D21*
X124300000Y-110000000D03*
D23*
X121760000Y-104920000D03*
X115410000Y-107460000D03*
%TD*%
D21*
%TO.C,F6*%
X209390000Y-129050000D03*
D22*
X214470000Y-129050000D03*
D21*
X219550000Y-129050000D03*
D23*
X217010000Y-123970000D03*
X210660000Y-126510000D03*
%TD*%
D20*
%TO.C,L9*%
X211562500Y-94447500D03*
X211562500Y-95947500D03*
X217362500Y-95947500D03*
X217362500Y-94447500D03*
%TD*%
%TO.C,L15*%
X116262500Y-113487500D03*
X116262500Y-114987500D03*
X122062500Y-114987500D03*
X122062500Y-113487500D03*
%TD*%
D21*
%TO.C,SWK7*%
X228440000Y-71900000D03*
D22*
X233520000Y-71900000D03*
D21*
X238600000Y-71900000D03*
D23*
X236060000Y-66820000D03*
X229710000Y-69360000D03*
%TD*%
D21*
%TO.C,SWK6*%
X209390000Y-71900000D03*
D22*
X214470000Y-71900000D03*
D21*
X219550000Y-71900000D03*
D23*
X217010000Y-66820000D03*
X210660000Y-69360000D03*
%TD*%
D21*
%TO.C,SWK4*%
X171290000Y-71900000D03*
D22*
X176370000Y-71900000D03*
D21*
X181450000Y-71900000D03*
D23*
X178910000Y-66820000D03*
X172560000Y-69360000D03*
%TD*%
D21*
%TO.C,O1-5*%
X190340000Y-110000000D03*
D22*
X195420000Y-110000000D03*
D21*
X200500000Y-110000000D03*
D23*
X197960000Y-104920000D03*
X191610000Y-107460000D03*
%TD*%
D21*
%TO.C,SWK13*%
X209390000Y-90950000D03*
D22*
X214470000Y-90950000D03*
D21*
X219550000Y-90950000D03*
D23*
X217010000Y-85870000D03*
X210660000Y-88410000D03*
%TD*%
D20*
%TO.C,L20*%
X211510000Y-113510000D03*
X211510000Y-115010000D03*
X217310000Y-115010000D03*
X217310000Y-113510000D03*
%TD*%
%TO.C,L12*%
X154382500Y-94457500D03*
X154382500Y-95957500D03*
X160182500Y-95957500D03*
X160182500Y-94457500D03*
%TD*%
D21*
%TO.C,O1-6*%
X209390000Y-110000000D03*
D22*
X214470000Y-110000000D03*
D21*
X219550000Y-110000000D03*
D23*
X217010000Y-104920000D03*
X210660000Y-107460000D03*
%TD*%
D21*
%TO.C,o3-3*%
X114140000Y-71900000D03*
D22*
X119220000Y-71900000D03*
D21*
X124300000Y-71900000D03*
D23*
X121760000Y-66820000D03*
X115410000Y-69360000D03*
%TD*%
D21*
%TO.C,SWK10*%
X152240000Y-90950000D03*
D22*
X157320000Y-90950000D03*
D21*
X162400000Y-90950000D03*
D23*
X159860000Y-85870000D03*
X153510000Y-88410000D03*
%TD*%
D20*
%TO.C,L23*%
X211522500Y-132547500D03*
X211522500Y-134047500D03*
X217322500Y-134047500D03*
X217322500Y-132547500D03*
%TD*%
D21*
%TO.C,F1*%
X114140000Y-129050000D03*
D22*
X119220000Y-129050000D03*
D21*
X124300000Y-129050000D03*
D23*
X121760000Y-123970000D03*
X115410000Y-126510000D03*
%TD*%
D20*
%TO.C,L24*%
X192512500Y-132537500D03*
X192512500Y-134037500D03*
X198312500Y-134037500D03*
X198312500Y-132537500D03*
%TD*%
D21*
%TO.C,SWK12*%
X190340000Y-90950000D03*
D22*
X195420000Y-90950000D03*
D21*
X200500000Y-90950000D03*
D23*
X197960000Y-85870000D03*
X191610000Y-88410000D03*
%TD*%
D20*
%TO.C,L28*%
X116302500Y-132537500D03*
X116302500Y-134037500D03*
X122102500Y-134037500D03*
X122102500Y-132537500D03*
%TD*%
%TO.C,L21*%
X230552500Y-113517500D03*
X230552500Y-115017500D03*
X236352500Y-115017500D03*
X236352500Y-113517500D03*
%TD*%
D21*
%TO.C,SWK8*%
X114140000Y-90950000D03*
D22*
X119220000Y-90950000D03*
D21*
X124300000Y-90950000D03*
D23*
X121760000Y-85870000D03*
X115410000Y-88410000D03*
%TD*%
D21*
%TO.C,O1-2*%
X133190000Y-110000000D03*
D22*
X138270000Y-110000000D03*
D21*
X143350000Y-110000000D03*
D23*
X140810000Y-104920000D03*
X134460000Y-107460000D03*
%TD*%
D20*
%TO.C,L18*%
X173412500Y-113497500D03*
X173412500Y-114997500D03*
X179212500Y-114997500D03*
X179212500Y-113497500D03*
%TD*%
D21*
%TO.C,K2*%
X133190000Y-71900000D03*
D22*
X138270000Y-71900000D03*
D21*
X143350000Y-71900000D03*
D23*
X140810000Y-66820000D03*
X134460000Y-69360000D03*
%TD*%
D20*
%TO.C,L10*%
X192482500Y-94467500D03*
X192482500Y-95967500D03*
X198282500Y-95967500D03*
X198282500Y-94467500D03*
%TD*%
%TO.C,L27*%
X135282500Y-132557500D03*
X135282500Y-134057500D03*
X141082500Y-134057500D03*
X141082500Y-132557500D03*
%TD*%
%TO.C,L11*%
X173442500Y-94457500D03*
X173442500Y-95957500D03*
X179242500Y-95957500D03*
X179242500Y-94457500D03*
%TD*%
%TO.C,L1*%
X116302500Y-75437500D03*
X116302500Y-76937500D03*
X122102500Y-76937500D03*
X122102500Y-75437500D03*
%TD*%
%TO.C,L4*%
X173390000Y-75410000D03*
X173390000Y-76910000D03*
X179190000Y-76910000D03*
X179190000Y-75410000D03*
%TD*%
D21*
%TO.C,SWK14*%
X228440000Y-90950000D03*
D22*
X233520000Y-90950000D03*
D21*
X238600000Y-90950000D03*
D23*
X236060000Y-85870000D03*
X229710000Y-88410000D03*
%TD*%
D21*
%TO.C,F5*%
X190340000Y-129050000D03*
D22*
X195420000Y-129050000D03*
D21*
X200500000Y-129050000D03*
D23*
X197960000Y-123970000D03*
X191610000Y-126510000D03*
%TD*%
D20*
%TO.C,L19*%
X192492500Y-113507500D03*
X192492500Y-115007500D03*
X198292500Y-115007500D03*
X198292500Y-113507500D03*
%TD*%
D21*
%TO.C,SWK9*%
X133190000Y-90950000D03*
D22*
X138270000Y-90950000D03*
D21*
X143350000Y-90950000D03*
D23*
X140810000Y-85870000D03*
X134460000Y-88410000D03*
%TD*%
D20*
%TO.C,L8*%
X230512500Y-94457500D03*
X230512500Y-95957500D03*
X236312500Y-95957500D03*
X236312500Y-94457500D03*
%TD*%
%TO.C,L26*%
X154432500Y-132557500D03*
X154432500Y-134057500D03*
X160232500Y-134057500D03*
X160232500Y-132557500D03*
%TD*%
%TO.C,L22*%
X230602500Y-132547500D03*
X230602500Y-134047500D03*
X236402500Y-134047500D03*
X236402500Y-132547500D03*
%TD*%
D21*
%TO.C,SWK5*%
X190340000Y-71900000D03*
D22*
X195420000Y-71900000D03*
D21*
X200500000Y-71900000D03*
D23*
X197960000Y-66820000D03*
X191610000Y-69360000D03*
%TD*%
D21*
%TO.C,F2*%
X133190000Y-129050000D03*
D22*
X138270000Y-129050000D03*
D21*
X143350000Y-129050000D03*
D23*
X140810000Y-123970000D03*
X134460000Y-126510000D03*
%TD*%
D21*
%TO.C,O1-3*%
X152240000Y-110000000D03*
D22*
X157320000Y-110000000D03*
D21*
X162400000Y-110000000D03*
D23*
X159860000Y-104920000D03*
X153510000Y-107460000D03*
%TD*%
D21*
%TO.C,F3*%
X152240000Y-129050000D03*
D22*
X157320000Y-129050000D03*
D21*
X162400000Y-129050000D03*
D23*
X159860000Y-123970000D03*
X153510000Y-126510000D03*
%TD*%
D20*
%TO.C,L13*%
X135282500Y-94447500D03*
X135282500Y-95947500D03*
X141082500Y-95947500D03*
X141082500Y-94447500D03*
%TD*%
D21*
%TO.C,SWK3*%
X152240000Y-71900000D03*
D22*
X157320000Y-71900000D03*
D21*
X162400000Y-71900000D03*
D23*
X159860000Y-66820000D03*
X153510000Y-69360000D03*
%TD*%
D20*
%TO.C,L17*%
X154462500Y-113517500D03*
X154462500Y-115017500D03*
X160262500Y-115017500D03*
X160262500Y-113517500D03*
%TD*%
D24*
%TO.C,R1*%
X67500000Y-76412500D03*
X67500000Y-74587500D03*
%TD*%
D25*
%TO.C,D21*%
X174720000Y-119525000D03*
X178020000Y-119525000D03*
%TD*%
%TO.C,D27*%
X231870000Y-119525000D03*
X235170000Y-119525000D03*
%TD*%
D26*
%TO.C,C22*%
X239030000Y-134090000D03*
X240930000Y-134090000D03*
%TD*%
%TO.C,C6*%
X219850000Y-76990000D03*
X221750000Y-76990000D03*
%TD*%
%TO.C,C26*%
X162650000Y-134020000D03*
X164550000Y-134020000D03*
%TD*%
D25*
%TO.C,D9*%
X155670000Y-100475000D03*
X158970000Y-100475000D03*
%TD*%
%TO.C,D20*%
X155670000Y-119525000D03*
X158970000Y-119525000D03*
%TD*%
D26*
%TO.C,C25*%
X181460000Y-134050000D03*
X183360000Y-134050000D03*
%TD*%
%TO.C,C20*%
X220010000Y-115050000D03*
X221910000Y-115050000D03*
%TD*%
%TO.C,C14*%
X124240000Y-96060000D03*
X126140000Y-96060000D03*
%TD*%
D27*
%TO.C,U1*%
X72760000Y-71245000D03*
X72760000Y-73785000D03*
X72760000Y-76325000D03*
X72760000Y-78865000D03*
X72760000Y-81405000D03*
X72760000Y-83945000D03*
X72760000Y-86485000D03*
X72760000Y-89025000D03*
X72760000Y-91565000D03*
X72760000Y-94105000D03*
X72760000Y-96645000D03*
X72760000Y-99185000D03*
X93080000Y-99185000D03*
X93080000Y-96645000D03*
X93080000Y-94105000D03*
X93080000Y-91565000D03*
X93080000Y-89025000D03*
X93080000Y-86485000D03*
X93080000Y-83945000D03*
X93080000Y-81405000D03*
X93080000Y-78865000D03*
X93080000Y-76325000D03*
X93080000Y-73785000D03*
X93080000Y-71245000D03*
X93080000Y-68705000D03*
X93080000Y-66165000D03*
X93080000Y-63625000D03*
X93080000Y-61085000D03*
%TD*%
D25*
%TO.C,D23*%
X193770000Y-119525000D03*
X197070000Y-119525000D03*
%TD*%
D26*
%TO.C,C18*%
X181670000Y-115010000D03*
X183570000Y-115010000D03*
%TD*%
%TO.C,C10*%
X200640000Y-96050000D03*
X202540000Y-96050000D03*
%TD*%
%TO.C,C19*%
X200700000Y-115000000D03*
X202600000Y-115000000D03*
%TD*%
%TO.C,C9*%
X220050000Y-96020000D03*
X221950000Y-96020000D03*
%TD*%
D25*
%TO.C,D16*%
X117570000Y-138575000D03*
X120870000Y-138575000D03*
%TD*%
D26*
%TO.C,C27*%
X143350000Y-133810000D03*
X145250000Y-133810000D03*
%TD*%
D25*
%TO.C,D24*%
X193770000Y-138575000D03*
X197070000Y-138575000D03*
%TD*%
%TO.C,D1*%
X117570000Y-81425000D03*
X120870000Y-81425000D03*
%TD*%
%TO.C,D25*%
X212820000Y-119525000D03*
X216120000Y-119525000D03*
%TD*%
D26*
%TO.C,C17*%
X162860000Y-115060000D03*
X164760000Y-115060000D03*
%TD*%
D25*
%TO.C,D22*%
X174720000Y-138575000D03*
X178020000Y-138575000D03*
%TD*%
D26*
%TO.C,C13*%
X143270000Y-95900000D03*
X145170000Y-95900000D03*
%TD*%
D28*
%TO.C,C3*%
X164110000Y-76910000D03*
X162210000Y-76910000D03*
%TD*%
D26*
%TO.C,C28*%
X124570000Y-134000000D03*
X126470000Y-134000000D03*
%TD*%
D25*
%TO.C,D12*%
X194260000Y-100320000D03*
X197560000Y-100320000D03*
%TD*%
%TO.C,D8*%
X117570000Y-100475000D03*
X120870000Y-100475000D03*
%TD*%
D26*
%TO.C,C8*%
X238980000Y-95950000D03*
X240880000Y-95950000D03*
%TD*%
D25*
%TO.C,D18*%
X136620000Y-119525000D03*
X139920000Y-119525000D03*
%TD*%
D26*
%TO.C,C24*%
X200840000Y-134090000D03*
X202740000Y-134090000D03*
%TD*%
D25*
%TO.C,D5*%
X193770000Y-81425000D03*
X197070000Y-81425000D03*
%TD*%
D26*
%TO.C,C11*%
X181720000Y-95940000D03*
X183620000Y-95940000D03*
%TD*%
D28*
%TO.C,C1*%
X126020000Y-76900000D03*
X124120000Y-76900000D03*
%TD*%
D25*
%TO.C,D7*%
X231870000Y-81425000D03*
X235170000Y-81425000D03*
%TD*%
D26*
%TO.C,C16*%
X143960000Y-114900000D03*
X145860000Y-114900000D03*
%TD*%
D28*
%TO.C,C2*%
X145840000Y-76830000D03*
X143940000Y-76830000D03*
%TD*%
D25*
%TO.C,D3*%
X155670000Y-81425000D03*
X158970000Y-81425000D03*
%TD*%
%TO.C,D17*%
X136620000Y-138575000D03*
X139920000Y-138575000D03*
%TD*%
%TO.C,D26*%
X211170000Y-138575000D03*
X214470000Y-138575000D03*
%TD*%
D29*
%TO.C,C15*%
X124290000Y-115130000D03*
X124290000Y-117030000D03*
%TD*%
D26*
%TO.C,C4*%
X181290000Y-76980000D03*
X183190000Y-76980000D03*
%TD*%
D25*
%TO.C,D10*%
X136620000Y-100475000D03*
X139920000Y-100475000D03*
%TD*%
D30*
%TO.C,C29*%
X103750000Y-77850000D03*
X103750000Y-83250000D03*
%TD*%
D25*
%TO.C,D14*%
X231860000Y-100520000D03*
X235160000Y-100520000D03*
%TD*%
%TO.C,D11*%
X175260000Y-100520000D03*
X178560000Y-100520000D03*
%TD*%
%TO.C,D19*%
X155670000Y-138575000D03*
X158970000Y-138575000D03*
%TD*%
%TO.C,D4*%
X174720000Y-81425000D03*
X178020000Y-81425000D03*
%TD*%
%TO.C,D28*%
X232090000Y-140420000D03*
X235390000Y-140420000D03*
%TD*%
%TO.C,D6*%
X212820000Y-81425000D03*
X216120000Y-81425000D03*
%TD*%
D26*
%TO.C,C23*%
X220110000Y-134050000D03*
X222010000Y-134050000D03*
%TD*%
D25*
%TO.C,D2*%
X136620000Y-81425000D03*
X139920000Y-81425000D03*
%TD*%
D26*
%TO.C,C7*%
X238600000Y-76950000D03*
X240500000Y-76950000D03*
%TD*%
D25*
%TO.C,D13*%
X213260000Y-100520000D03*
X216560000Y-100520000D03*
%TD*%
D26*
%TO.C,C12*%
X162330000Y-95960000D03*
X164230000Y-95960000D03*
%TD*%
%TO.C,C21*%
X238810000Y-115040000D03*
X240710000Y-115040000D03*
%TD*%
D25*
%TO.C,D15*%
X118060000Y-119520000D03*
X121360000Y-119520000D03*
%TD*%
D26*
%TO.C,C5*%
X200040000Y-76920000D03*
X201940000Y-76920000D03*
%TD*%
%LPD*%
M02*
