M48
; DRILL file {KiCad 9.0.6} date 2026-03-17T13:30:49-0700
; FORMAT={3:3/ absolute / metric / suppress leading zeros}
; #@! TF.CreationDate,2026-03-17T13:30:49-07:00
; #@! TF.GenerationSoftware,Kicad,Pcbnew,9.0.6
; #@! TF.FileFunction,Plated,1,2,PTH
FMAT,2
METRIC,TZ
; #@! TA.AperFunction,Plated,PTH,ViaDrill
T1C0.300
; #@! TA.AperFunction,Plated,PTH,ViaDrill
T2C0.400
; #@! TA.AperFunction,Plated,PTH,ComponentDrill
T3C1.000
; #@! TA.AperFunction,Plated,PTH,ComponentDrill
T4C1.500
%
G90
G05
T1
X107500Y-99250
X107500Y-128500
X107750Y-65750
X107750Y-87750
X108750Y-111750
X114150Y-94480
X116690Y-92660
X117060Y-124490
X117420Y-103990
X118220Y-88110
X122290Y-92180
X124110Y-107500
X124140Y-69480
X126480Y-73280
X127590Y-123110
X127680Y-103830
X127820Y-84850
X130660Y-74250
X132790Y-132210
X133000Y-81750
X133050Y-94450
X135260Y-130310
X135630Y-92450
X135710Y-85870
X136820Y-124050
X140750Y-131000
X141930Y-69740
X143270Y-107490
X145510Y-73100
X146550Y-122730
X146640Y-104160
X147010Y-84790
X150400Y-74000
X151960Y-132100
X151980Y-93980
X152000Y-82000
X154210Y-130200
X154570Y-92070
X154910Y-86490
X155410Y-124230
X162410Y-107500
X164280Y-73690
X165435Y-122775
X165770Y-104140
X165820Y-84720
X169330Y-74860
X170650Y-99390
X171000Y-81750
X171120Y-132440
X171230Y-93500
X173140Y-130370
X173600Y-92360
X173980Y-85820
X174860Y-124790
X181470Y-106920
X181490Y-99490
X183300Y-73410
X183730Y-89540
X184750Y-103790
X184900Y-122990
X185430Y-84700
X188260Y-75870
X189010Y-99160
X190090Y-94210
X190190Y-131960
X190750Y-137080
X192320Y-130370
X192560Y-92050
X193040Y-86290
X193390Y-123940
X200400Y-99070
X200600Y-137510
X200740Y-106720
X202370Y-73820
X203640Y-103760
X203910Y-84950
X204030Y-122920
X207460Y-75150
X208180Y-98820
X209160Y-131960
X209210Y-93420
X211290Y-129830
X211710Y-92210
X212510Y-86220
X213330Y-125080
X219200Y-99010
X219900Y-107120
X221460Y-73880
X223020Y-103960
X223060Y-85170
X223360Y-123670
X226520Y-74960
X228130Y-94230
X228380Y-132320
X230800Y-130600
X231050Y-92620
X232795Y-87975
X233090Y-126020
X239320Y-73560
X240360Y-112080
X240860Y-93470
X240860Y-98480
T2
X124210Y-93740
X124520Y-113300
X125540Y-131240
X125550Y-79500
X131530Y-79500
X143280Y-93180
X143540Y-131710
X144000Y-112140
X145610Y-79500
X150530Y-79500
X162330Y-93290
X162670Y-131590
X162880Y-112390
X163950Y-79500
X169560Y-79500
X181660Y-131140
X181680Y-112260
X181710Y-93180
X183380Y-79500
X188400Y-79500
X200620Y-93280
X200730Y-112350
X200840Y-131370
X202190Y-79500
X207640Y-79500
X220030Y-112420
X220040Y-93470
X220120Y-131520
X221430Y-79500
X226750Y-79500
X227320Y-117130
X228760Y-98580
X235890Y-136310
T3
X64660Y-132150
X64660Y-134650
X64660Y-137150
X72760Y-71245
X72760Y-73785
X72760Y-76325
X72760Y-78865
X72760Y-81405
X72760Y-83945
X72760Y-86485
X72760Y-89025
X72760Y-91565
X72760Y-94105
X72760Y-96645
X72760Y-99185
X79160Y-132150
X79160Y-137150
X88000Y-132150
X88000Y-134650
X88000Y-137150
X93080Y-61085
X93080Y-63625
X93080Y-66165
X93080Y-68705
X93080Y-71245
X93080Y-73785
X93080Y-76325
X93080Y-78865
X93080Y-81405
X93080Y-83945
X93080Y-86485
X93080Y-89025
X93080Y-91565
X93080Y-94105
X93080Y-96645
X93080Y-99185
X102500Y-132150
X102500Y-137150
T4
X115410Y-69360
X115410Y-88410
X115410Y-107460
X115410Y-126510
X121760Y-66820
X121760Y-85870
X121760Y-104920
X121760Y-123970
X134460Y-69360
X134460Y-88410
X134460Y-107460
X134460Y-126510
X140810Y-66820
X140810Y-85870
X140810Y-104920
X140810Y-123970
X153510Y-69360
X153510Y-88410
X153510Y-107460
X153510Y-126510
X159860Y-66820
X159860Y-85870
X159860Y-104920
X159860Y-123970
X172560Y-69360
X172560Y-88410
X172560Y-107460
X172560Y-126510
X178910Y-66820
X178910Y-85870
X178910Y-104920
X178910Y-123970
X191610Y-69360
X191610Y-88410
X191610Y-107460
X191610Y-126510
X197960Y-66820
X197960Y-85870
X197960Y-104920
X197960Y-123970
X210660Y-69360
X210660Y-88410
X210660Y-107460
X210660Y-126510
X217010Y-66820
X217010Y-85870
X217010Y-104920
X217010Y-123970
X229710Y-69360
X229710Y-88410
X229710Y-107460
X229710Y-126510
X236060Y-66820
X236060Y-85870
X236060Y-104920
X236060Y-123970
T4
G00X71510Y-129050
M15
G01X72810Y-129050
M16
G05
G00X71510Y-140250
M15
G01X72810Y-140250
M16
G05
G00X94850Y-129050
M15
G01X96150Y-129050
M16
G05
G00X94850Y-140250
M15
G01X96150Y-140250
M16
G05
M30
