%TF.GenerationSoftware,KiCad,Pcbnew,9.0.6*%
%TF.CreationDate,2026-03-17T13:30:47-07:00*%
%TF.ProjectId,7x4,3778342e-6b69-4636-9164-5f7063625858,rev?*%
%TF.SameCoordinates,Original*%
%TF.FileFunction,Soldermask,Bot*%
%TF.FilePolarity,Negative*%
%FSLAX46Y46*%
G04 Gerber Fmt 4.6, Leading zero omitted, Abs format (unit mm)*
G04 Created by KiCad (PCBNEW 9.0.6) date 2026-03-17 13:30:47*
%MOMM*%
%LPD*%
G01*
G04 APERTURE LIST*
G04 Aperture macros list*
%AMRoundRect*
0 Rectangle with rounded corners*
0 $1 Rounding radius*
0 $2 $3 $4 $5 $6 $7 $8 $9 X,Y pos of 4 corners*
0 Add a 4 corners polygon primitive as box body*
4,1,4,$2,$3,$4,$5,$6,$7,$8,$9,$2,$3,0*
0 Add four circle primitives for the rounded corners*
1,1,$1+$1,$2,$3*
1,1,$1+$1,$4,$5*
1,1,$1+$1,$6,$7*
1,1,$1+$1,$8,$9*
0 Add four rect primitives between the rounded corners*
20,1,$1+$1,$2,$3,$4,$5,0*
20,1,$1+$1,$4,$5,$6,$7,0*
20,1,$1+$1,$6,$7,$8,$9,0*
20,1,$1+$1,$8,$9,$2,$3,0*%
G04 Aperture macros list end*
%ADD10O,2.200000X1.600000*%
%ADD11C,2.100000*%
%ADD12R,2.000000X2.000000*%
%ADD13C,2.000000*%
%ADD14R,3.200000X2.000000*%
%ADD15RoundRect,0.082000X-0.718000X0.328000X-0.718000X-0.328000X0.718000X-0.328000X0.718000X0.328000X0*%
%ADD16C,1.700000*%
%ADD17C,4.000000*%
%ADD18C,2.200000*%
%ADD19RoundRect,0.250000X0.450000X-0.262500X0.450000X0.262500X-0.450000X0.262500X-0.450000X-0.262500X0*%
%ADD20RoundRect,0.225000X-0.225000X-0.375000X0.225000X-0.375000X0.225000X0.375000X-0.225000X0.375000X0*%
%ADD21RoundRect,0.250000X-0.250000X-0.475000X0.250000X-0.475000X0.250000X0.475000X-0.250000X0.475000X0*%
%ADD22C,1.905000*%
%ADD23RoundRect,0.250000X0.250000X0.475000X-0.250000X0.475000X-0.250000X-0.475000X0.250000X-0.475000X0*%
%ADD24RoundRect,0.250000X-0.475000X0.250000X-0.475000X-0.250000X0.475000X-0.250000X0.475000X0.250000X0*%
%ADD25RoundRect,0.250000X-0.550000X1.500000X-0.550000X-1.500000X0.550000X-1.500000X0.550000X1.500000X0*%
G04 APERTURE END LIST*
D10*
%TO.C,SW1*%
X67660000Y-134650000D03*
D11*
X72160000Y-134650000D03*
D12*
X64660000Y-132150000D03*
D13*
X64660000Y-137150000D03*
X64660000Y-134650000D03*
D14*
X72160000Y-129050000D03*
X72160000Y-140250000D03*
D13*
X79160000Y-137150000D03*
X79160000Y-132150000D03*
%TD*%
D15*
%TO.C,L3*%
X154390000Y-75430000D03*
X154390000Y-76930000D03*
X160190000Y-76930000D03*
X160190000Y-75430000D03*
%TD*%
%TO.C,L5*%
X192432500Y-75407500D03*
X192432500Y-76907500D03*
X198232500Y-76907500D03*
X198232500Y-75407500D03*
%TD*%
%TO.C,L25*%
X173442500Y-132557500D03*
X173442500Y-134057500D03*
X179242500Y-134057500D03*
X179242500Y-132557500D03*
%TD*%
D16*
%TO.C,SWK11*%
X171290000Y-90950000D03*
D17*
X176370000Y-90950000D03*
D16*
X181450000Y-90950000D03*
D18*
X178910000Y-85870000D03*
X172560000Y-88410000D03*
%TD*%
D16*
%TO.C,O1-7*%
X228440000Y-110000000D03*
D17*
X233520000Y-110000000D03*
D16*
X238600000Y-110000000D03*
D18*
X236060000Y-104920000D03*
X229710000Y-107460000D03*
%TD*%
D16*
%TO.C,O1-4*%
X171290000Y-110000000D03*
D17*
X176370000Y-110000000D03*
D16*
X181450000Y-110000000D03*
D18*
X178910000Y-104920000D03*
X172560000Y-107460000D03*
%TD*%
D16*
%TO.C,F4*%
X171290000Y-129050000D03*
D17*
X176370000Y-129050000D03*
D16*
X181450000Y-129050000D03*
D18*
X178910000Y-123970000D03*
X172560000Y-126510000D03*
%TD*%
D15*
%TO.C,L16*%
X135262500Y-113517500D03*
X135262500Y-115017500D03*
X141062500Y-115017500D03*
X141062500Y-113517500D03*
%TD*%
D16*
%TO.C,F7*%
X228440000Y-129050000D03*
D17*
X233520000Y-129050000D03*
D16*
X238600000Y-129050000D03*
D18*
X236060000Y-123970000D03*
X229710000Y-126510000D03*
%TD*%
D15*
%TO.C,L14*%
X116295000Y-94565000D03*
X116295000Y-96065000D03*
X122095000Y-96065000D03*
X122095000Y-94565000D03*
%TD*%
%TO.C,L2*%
X135292500Y-75427500D03*
X135292500Y-76927500D03*
X141092500Y-76927500D03*
X141092500Y-75427500D03*
%TD*%
%TO.C,L6*%
X211460000Y-75420000D03*
X211460000Y-76920000D03*
X217260000Y-76920000D03*
X217260000Y-75420000D03*
%TD*%
%TO.C,L7*%
X230552500Y-75417500D03*
X230552500Y-76917500D03*
X236352500Y-76917500D03*
X236352500Y-75417500D03*
%TD*%
D10*
%TO.C,SW3*%
X91000000Y-134650000D03*
D11*
X95500000Y-134650000D03*
D12*
X88000000Y-132150000D03*
D13*
X88000000Y-137150000D03*
X88000000Y-134650000D03*
D14*
X95500000Y-129050000D03*
X95500000Y-140250000D03*
D13*
X102500000Y-137150000D03*
X102500000Y-132150000D03*
%TD*%
D16*
%TO.C,O1-1*%
X114140000Y-110000000D03*
D17*
X119220000Y-110000000D03*
D16*
X124300000Y-110000000D03*
D18*
X121760000Y-104920000D03*
X115410000Y-107460000D03*
%TD*%
D16*
%TO.C,F6*%
X209390000Y-129050000D03*
D17*
X214470000Y-129050000D03*
D16*
X219550000Y-129050000D03*
D18*
X217010000Y-123970000D03*
X210660000Y-126510000D03*
%TD*%
D15*
%TO.C,L9*%
X211562500Y-94447500D03*
X211562500Y-95947500D03*
X217362500Y-95947500D03*
X217362500Y-94447500D03*
%TD*%
%TO.C,L15*%
X116262500Y-113487500D03*
X116262500Y-114987500D03*
X122062500Y-114987500D03*
X122062500Y-113487500D03*
%TD*%
D16*
%TO.C,SWK7*%
X228440000Y-71900000D03*
D17*
X233520000Y-71900000D03*
D16*
X238600000Y-71900000D03*
D18*
X236060000Y-66820000D03*
X229710000Y-69360000D03*
%TD*%
D16*
%TO.C,SWK6*%
X209390000Y-71900000D03*
D17*
X214470000Y-71900000D03*
D16*
X219550000Y-71900000D03*
D18*
X217010000Y-66820000D03*
X210660000Y-69360000D03*
%TD*%
D16*
%TO.C,SWK4*%
X171290000Y-71900000D03*
D17*
X176370000Y-71900000D03*
D16*
X181450000Y-71900000D03*
D18*
X178910000Y-66820000D03*
X172560000Y-69360000D03*
%TD*%
D16*
%TO.C,O1-5*%
X190340000Y-110000000D03*
D17*
X195420000Y-110000000D03*
D16*
X200500000Y-110000000D03*
D18*
X197960000Y-104920000D03*
X191610000Y-107460000D03*
%TD*%
D16*
%TO.C,SWK13*%
X209390000Y-90950000D03*
D17*
X214470000Y-90950000D03*
D16*
X219550000Y-90950000D03*
D18*
X217010000Y-85870000D03*
X210660000Y-88410000D03*
%TD*%
D15*
%TO.C,L20*%
X211510000Y-113510000D03*
X211510000Y-115010000D03*
X217310000Y-115010000D03*
X217310000Y-113510000D03*
%TD*%
%TO.C,L12*%
X154382500Y-94457500D03*
X154382500Y-95957500D03*
X160182500Y-95957500D03*
X160182500Y-94457500D03*
%TD*%
D16*
%TO.C,O1-6*%
X209390000Y-110000000D03*
D17*
X214470000Y-110000000D03*
D16*
X219550000Y-110000000D03*
D18*
X217010000Y-104920000D03*
X210660000Y-107460000D03*
%TD*%
D16*
%TO.C,o3-3*%
X114140000Y-71900000D03*
D17*
X119220000Y-71900000D03*
D16*
X124300000Y-71900000D03*
D18*
X121760000Y-66820000D03*
X115410000Y-69360000D03*
%TD*%
D16*
%TO.C,SWK10*%
X152240000Y-90950000D03*
D17*
X157320000Y-90950000D03*
D16*
X162400000Y-90950000D03*
D18*
X159860000Y-85870000D03*
X153510000Y-88410000D03*
%TD*%
D15*
%TO.C,L23*%
X211522500Y-132547500D03*
X211522500Y-134047500D03*
X217322500Y-134047500D03*
X217322500Y-132547500D03*
%TD*%
D16*
%TO.C,F1*%
X114140000Y-129050000D03*
D17*
X119220000Y-129050000D03*
D16*
X124300000Y-129050000D03*
D18*
X121760000Y-123970000D03*
X115410000Y-126510000D03*
%TD*%
D15*
%TO.C,L24*%
X192512500Y-132537500D03*
X192512500Y-134037500D03*
X198312500Y-134037500D03*
X198312500Y-132537500D03*
%TD*%
D16*
%TO.C,SWK12*%
X190340000Y-90950000D03*
D17*
X195420000Y-90950000D03*
D16*
X200500000Y-90950000D03*
D18*
X197960000Y-85870000D03*
X191610000Y-88410000D03*
%TD*%
D15*
%TO.C,L28*%
X116302500Y-132537500D03*
X116302500Y-134037500D03*
X122102500Y-134037500D03*
X122102500Y-132537500D03*
%TD*%
%TO.C,L21*%
X230552500Y-113517500D03*
X230552500Y-115017500D03*
X236352500Y-115017500D03*
X236352500Y-113517500D03*
%TD*%
D16*
%TO.C,SWK8*%
X114140000Y-90950000D03*
D17*
X119220000Y-90950000D03*
D16*
X124300000Y-90950000D03*
D18*
X121760000Y-85870000D03*
X115410000Y-88410000D03*
%TD*%
D16*
%TO.C,O1-2*%
X133190000Y-110000000D03*
D17*
X138270000Y-110000000D03*
D16*
X143350000Y-110000000D03*
D18*
X140810000Y-104920000D03*
X134460000Y-107460000D03*
%TD*%
D15*
%TO.C,L18*%
X173412500Y-113497500D03*
X173412500Y-114997500D03*
X179212500Y-114997500D03*
X179212500Y-113497500D03*
%TD*%
D16*
%TO.C,K2*%
X133190000Y-71900000D03*
D17*
X138270000Y-71900000D03*
D16*
X143350000Y-71900000D03*
D18*
X140810000Y-66820000D03*
X134460000Y-69360000D03*
%TD*%
D15*
%TO.C,L10*%
X192482500Y-94467500D03*
X192482500Y-95967500D03*
X198282500Y-95967500D03*
X198282500Y-94467500D03*
%TD*%
%TO.C,L27*%
X135282500Y-132557500D03*
X135282500Y-134057500D03*
X141082500Y-134057500D03*
X141082500Y-132557500D03*
%TD*%
%TO.C,L11*%
X173442500Y-94457500D03*
X173442500Y-95957500D03*
X179242500Y-95957500D03*
X179242500Y-94457500D03*
%TD*%
%TO.C,L1*%
X116302500Y-75437500D03*
X116302500Y-76937500D03*
X122102500Y-76937500D03*
X122102500Y-75437500D03*
%TD*%
%TO.C,L4*%
X173390000Y-75410000D03*
X173390000Y-76910000D03*
X179190000Y-76910000D03*
X179190000Y-75410000D03*
%TD*%
D16*
%TO.C,SWK14*%
X228440000Y-90950000D03*
D17*
X233520000Y-90950000D03*
D16*
X238600000Y-90950000D03*
D18*
X236060000Y-85870000D03*
X229710000Y-88410000D03*
%TD*%
D16*
%TO.C,F5*%
X190340000Y-129050000D03*
D17*
X195420000Y-129050000D03*
D16*
X200500000Y-129050000D03*
D18*
X197960000Y-123970000D03*
X191610000Y-126510000D03*
%TD*%
D15*
%TO.C,L19*%
X192492500Y-113507500D03*
X192492500Y-115007500D03*
X198292500Y-115007500D03*
X198292500Y-113507500D03*
%TD*%
D16*
%TO.C,SWK9*%
X133190000Y-90950000D03*
D17*
X138270000Y-90950000D03*
D16*
X143350000Y-90950000D03*
D18*
X140810000Y-85870000D03*
X134460000Y-88410000D03*
%TD*%
D15*
%TO.C,L8*%
X230512500Y-94457500D03*
X230512500Y-95957500D03*
X236312500Y-95957500D03*
X236312500Y-94457500D03*
%TD*%
%TO.C,L26*%
X154432500Y-132557500D03*
X154432500Y-134057500D03*
X160232500Y-134057500D03*
X160232500Y-132557500D03*
%TD*%
%TO.C,L22*%
X230602500Y-132547500D03*
X230602500Y-134047500D03*
X236402500Y-134047500D03*
X236402500Y-132547500D03*
%TD*%
D16*
%TO.C,SWK5*%
X190340000Y-71900000D03*
D17*
X195420000Y-71900000D03*
D16*
X200500000Y-71900000D03*
D18*
X197960000Y-66820000D03*
X191610000Y-69360000D03*
%TD*%
D16*
%TO.C,F2*%
X133190000Y-129050000D03*
D17*
X138270000Y-129050000D03*
D16*
X143350000Y-129050000D03*
D18*
X140810000Y-123970000D03*
X134460000Y-126510000D03*
%TD*%
D16*
%TO.C,O1-3*%
X152240000Y-110000000D03*
D17*
X157320000Y-110000000D03*
D16*
X162400000Y-110000000D03*
D18*
X159860000Y-104920000D03*
X153510000Y-107460000D03*
%TD*%
D16*
%TO.C,F3*%
X152240000Y-129050000D03*
D17*
X157320000Y-129050000D03*
D16*
X162400000Y-129050000D03*
D18*
X159860000Y-123970000D03*
X153510000Y-126510000D03*
%TD*%
D15*
%TO.C,L13*%
X135282500Y-94447500D03*
X135282500Y-95947500D03*
X141082500Y-95947500D03*
X141082500Y-94447500D03*
%TD*%
D16*
%TO.C,SWK3*%
X152240000Y-71900000D03*
D17*
X157320000Y-71900000D03*
D16*
X162400000Y-71900000D03*
D18*
X159860000Y-66820000D03*
X153510000Y-69360000D03*
%TD*%
D15*
%TO.C,L17*%
X154462500Y-113517500D03*
X154462500Y-115017500D03*
X160262500Y-115017500D03*
X160262500Y-113517500D03*
%TD*%
D19*
%TO.C,R1*%
X67500000Y-76412500D03*
X67500000Y-74587500D03*
%TD*%
D20*
%TO.C,D21*%
X174720000Y-119525000D03*
X178020000Y-119525000D03*
%TD*%
%TO.C,D27*%
X231870000Y-119525000D03*
X235170000Y-119525000D03*
%TD*%
D21*
%TO.C,C22*%
X239030000Y-134090000D03*
X240930000Y-134090000D03*
%TD*%
%TO.C,C6*%
X219850000Y-76990000D03*
X221750000Y-76990000D03*
%TD*%
%TO.C,C26*%
X162650000Y-134020000D03*
X164550000Y-134020000D03*
%TD*%
D20*
%TO.C,D9*%
X155670000Y-100475000D03*
X158970000Y-100475000D03*
%TD*%
%TO.C,D20*%
X155670000Y-119525000D03*
X158970000Y-119525000D03*
%TD*%
D21*
%TO.C,C25*%
X181460000Y-134050000D03*
X183360000Y-134050000D03*
%TD*%
%TO.C,C20*%
X220010000Y-115050000D03*
X221910000Y-115050000D03*
%TD*%
%TO.C,C14*%
X124240000Y-96060000D03*
X126140000Y-96060000D03*
%TD*%
D22*
%TO.C,U1*%
X72760000Y-71245000D03*
X72760000Y-73785000D03*
X72760000Y-76325000D03*
X72760000Y-78865000D03*
X72760000Y-81405000D03*
X72760000Y-83945000D03*
X72760000Y-86485000D03*
X72760000Y-89025000D03*
X72760000Y-91565000D03*
X72760000Y-94105000D03*
X72760000Y-96645000D03*
X72760000Y-99185000D03*
X93080000Y-99185000D03*
X93080000Y-96645000D03*
X93080000Y-94105000D03*
X93080000Y-91565000D03*
X93080000Y-89025000D03*
X93080000Y-86485000D03*
X93080000Y-83945000D03*
X93080000Y-81405000D03*
X93080000Y-78865000D03*
X93080000Y-76325000D03*
X93080000Y-73785000D03*
X93080000Y-71245000D03*
X93080000Y-68705000D03*
X93080000Y-66165000D03*
X93080000Y-63625000D03*
X93080000Y-61085000D03*
%TD*%
D20*
%TO.C,D23*%
X193770000Y-119525000D03*
X197070000Y-119525000D03*
%TD*%
D21*
%TO.C,C18*%
X181670000Y-115010000D03*
X183570000Y-115010000D03*
%TD*%
%TO.C,C10*%
X200640000Y-96050000D03*
X202540000Y-96050000D03*
%TD*%
%TO.C,C19*%
X200700000Y-115000000D03*
X202600000Y-115000000D03*
%TD*%
%TO.C,C9*%
X220050000Y-96020000D03*
X221950000Y-96020000D03*
%TD*%
D20*
%TO.C,D16*%
X117570000Y-138575000D03*
X120870000Y-138575000D03*
%TD*%
D21*
%TO.C,C27*%
X143350000Y-133810000D03*
X145250000Y-133810000D03*
%TD*%
D20*
%TO.C,D24*%
X193770000Y-138575000D03*
X197070000Y-138575000D03*
%TD*%
%TO.C,D1*%
X117570000Y-81425000D03*
X120870000Y-81425000D03*
%TD*%
%TO.C,D25*%
X212820000Y-119525000D03*
X216120000Y-119525000D03*
%TD*%
D21*
%TO.C,C17*%
X162860000Y-115060000D03*
X164760000Y-115060000D03*
%TD*%
D20*
%TO.C,D22*%
X174720000Y-138575000D03*
X178020000Y-138575000D03*
%TD*%
D21*
%TO.C,C13*%
X143270000Y-95900000D03*
X145170000Y-95900000D03*
%TD*%
D23*
%TO.C,C3*%
X164110000Y-76910000D03*
X162210000Y-76910000D03*
%TD*%
D21*
%TO.C,C28*%
X124570000Y-134000000D03*
X126470000Y-134000000D03*
%TD*%
D20*
%TO.C,D12*%
X194260000Y-100320000D03*
X197560000Y-100320000D03*
%TD*%
%TO.C,D8*%
X117570000Y-100475000D03*
X120870000Y-100475000D03*
%TD*%
D21*
%TO.C,C8*%
X238980000Y-95950000D03*
X240880000Y-95950000D03*
%TD*%
D20*
%TO.C,D18*%
X136620000Y-119525000D03*
X139920000Y-119525000D03*
%TD*%
D21*
%TO.C,C24*%
X200840000Y-134090000D03*
X202740000Y-134090000D03*
%TD*%
D20*
%TO.C,D5*%
X193770000Y-81425000D03*
X197070000Y-81425000D03*
%TD*%
D21*
%TO.C,C11*%
X181720000Y-95940000D03*
X183620000Y-95940000D03*
%TD*%
D23*
%TO.C,C1*%
X126020000Y-76900000D03*
X124120000Y-76900000D03*
%TD*%
D20*
%TO.C,D7*%
X231870000Y-81425000D03*
X235170000Y-81425000D03*
%TD*%
D21*
%TO.C,C16*%
X143960000Y-114900000D03*
X145860000Y-114900000D03*
%TD*%
D23*
%TO.C,C2*%
X145840000Y-76830000D03*
X143940000Y-76830000D03*
%TD*%
D20*
%TO.C,D3*%
X155670000Y-81425000D03*
X158970000Y-81425000D03*
%TD*%
%TO.C,D17*%
X136620000Y-138575000D03*
X139920000Y-138575000D03*
%TD*%
%TO.C,D26*%
X211170000Y-138575000D03*
X214470000Y-138575000D03*
%TD*%
D24*
%TO.C,C15*%
X124290000Y-115130000D03*
X124290000Y-117030000D03*
%TD*%
D21*
%TO.C,C4*%
X181290000Y-76980000D03*
X183190000Y-76980000D03*
%TD*%
D20*
%TO.C,D10*%
X136620000Y-100475000D03*
X139920000Y-100475000D03*
%TD*%
D25*
%TO.C,C29*%
X103750000Y-77850000D03*
X103750000Y-83250000D03*
%TD*%
D20*
%TO.C,D14*%
X231860000Y-100520000D03*
X235160000Y-100520000D03*
%TD*%
%TO.C,D11*%
X175260000Y-100520000D03*
X178560000Y-100520000D03*
%TD*%
%TO.C,D19*%
X155670000Y-138575000D03*
X158970000Y-138575000D03*
%TD*%
%TO.C,D4*%
X174720000Y-81425000D03*
X178020000Y-81425000D03*
%TD*%
%TO.C,D28*%
X232090000Y-140420000D03*
X235390000Y-140420000D03*
%TD*%
%TO.C,D6*%
X212820000Y-81425000D03*
X216120000Y-81425000D03*
%TD*%
D21*
%TO.C,C23*%
X220110000Y-134050000D03*
X222010000Y-134050000D03*
%TD*%
D20*
%TO.C,D2*%
X136620000Y-81425000D03*
X139920000Y-81425000D03*
%TD*%
D21*
%TO.C,C7*%
X238600000Y-76950000D03*
X240500000Y-76950000D03*
%TD*%
D20*
%TO.C,D13*%
X213260000Y-100520000D03*
X216560000Y-100520000D03*
%TD*%
D21*
%TO.C,C12*%
X162330000Y-95960000D03*
X164230000Y-95960000D03*
%TD*%
%TO.C,C21*%
X238810000Y-115040000D03*
X240710000Y-115040000D03*
%TD*%
D20*
%TO.C,D15*%
X118060000Y-119520000D03*
X121360000Y-119520000D03*
%TD*%
D21*
%TO.C,C5*%
X200040000Y-76920000D03*
X201940000Y-76920000D03*
%TD*%
M02*
